<?xml version="1.0" encoding="UTF-8"?>
<svg id="Layer_1" data-name="Layer 1" xmlns="http://www.w3.org/2000/svg" viewBox="0 0 490 900">
  <defs>
    <style>
      .cls-1 {
        fill: #fff;
      }

      .cls-2 {
        fill: none;
      }

      .cls-3 {
        fill: #f1f1f1;
      }

      .cls-4 {
        fill: #2060ff;
      }
    </style>
  </defs>
  <g>
    <g>
      <path class="cls-4" d="M245,739.61c-72.63,0-132.55,58.91-133.86,131.45h128.58c-3.13-1.85-5.2-5.27-5.2-9.03,0-5.78,4.7-10.47,10.47-10.47s10.47,4.7,10.47,10.47c0,3.76-2.06,7.18-5.2,9.03h128.58c-1.31-72.54-61.23-131.45-133.86-131.45Z"/>
      <path class="cls-4" d="M245,855.69c-3.49,0-6.34,2.84-6.34,6.34s2.84,6.34,6.34,6.34,6.34-2.84,6.34-6.34-2.84-6.34-6.34-6.34Z"/>
    </g>
    <g>
      <path class="cls-2" d="M245,160.38c72.63,0,132.54-58.91,133.86-131.45h-128.58c3.13,1.85,5.2,5.27,5.2,9.03,0,5.77-4.7,10.47-10.47,10.47s-10.47-4.7-10.47-10.47c0-3.76,2.06-7.18,5.2-9.03H111.14c1.31,72.54,61.23,131.45,133.86,131.45Z"/>
      <path class="cls-2" d="M245,44.31c3.49,0,6.34-2.84,6.34-6.34s-2.84-6.34-6.34-6.34-6.34,2.84-6.34,6.34,2.84,6.34,6.34,6.34Z"/>
    </g>
    <path class="cls-2" d="M454.5,28.94h-71.51c-.63,36.2-15.2,70.17-41.05,95.72-26.03,25.71-60.45,39.87-96.94,39.87s-70.91-14.16-96.94-39.87c-25.86-25.54-40.42-59.52-41.05-95.72H35.5v275.73h418.99V28.94Z"/>
    <path class="cls-4" d="M454.5,871.06v-275.73H35.5v275.73h71.51c.63-36.2,15.2-70.17,41.05-95.72,26.02-25.71,60.45-39.87,96.94-39.87s70.91,14.16,96.93,39.87c25.86,25.54,40.42,59.52,41.06,95.72h71.51Z"/>
    <path class="cls-4" d="M454.5,308.8H35.5v282.39h418.99v-282.39ZM245,467.41c-9.6,0-17.41-7.81-17.41-17.41s7.81-17.41,17.41-17.41,17.41,7.81,17.41,17.41-7.81,17.41-17.41,17.41Z"/>
    <path class="cls-4" d="M245,436.73c-7.32,0-13.27,5.95-13.27,13.27s5.95,13.27,13.27,13.27,13.27-5.95,13.27-13.27-5.96-13.27-13.27-13.27Z"/>
    <path class="cls-3" d="M458.63,24.8H31.37v850.39h427.26V24.8ZM255.47,862.03c0-5.78-4.7-10.47-10.47-10.47s-10.47,4.7-10.47,10.47c0,3.76,2.06,7.18,5.2,9.03H111.14c1.31-72.54,61.23-131.45,133.86-131.45s132.54,58.91,133.86,131.45h-128.58c3.13-1.85,5.2-5.27,5.2-9.03ZM245,868.37c-3.49,0-6.34-2.84-6.34-6.34s2.84-6.34,6.34-6.34,6.34,2.84,6.34,6.34-2.84,6.34-6.34,6.34ZM341.93,775.34c-26.02-25.71-60.45-39.87-96.93-39.87s-70.91,14.16-96.94,39.87c-25.86,25.54-40.42,59.52-41.05,95.72H35.5v-275.73h418.99v275.73h-71.51c-.63-36.2-15.2-70.17-41.06-95.72ZM35.5,591.19v-282.39h418.99v282.39H35.5ZM35.5,304.67V28.94h71.51c.63,36.2,15.2,70.17,41.05,95.72,26.02,25.71,60.45,39.87,96.94,39.87s70.91-14.16,96.94-39.87c25.86-25.54,40.42-59.52,41.05-95.72h71.51v275.73H35.5ZM234.53,37.97c0,5.77,4.7,10.47,10.47,10.47s10.47-4.7,10.47-10.47c0-3.76-2.06-7.18-5.2-9.03h128.58c-1.31,72.54-61.23,131.45-133.86,131.45S112.45,101.47,111.14,28.94h128.58c-3.13,1.85-5.2,5.27-5.2,9.03ZM245,31.63c3.49,0,6.34,2.84,6.34,6.34s-2.84,6.34-6.34,6.34-6.34-2.84-6.34-6.34,2.84-6.34,6.34-6.34Z"/>
    <path class="cls-3" d="M245,432.59c-9.6,0-17.41,7.81-17.41,17.41s7.81,17.41,17.41,17.41,17.41-7.81,17.41-17.41-7.81-17.41-17.41-17.41ZM245,463.27c-7.32,0-13.27-5.95-13.27-13.27s5.95-13.27,13.27-13.27,13.27,5.95,13.27,13.27-5.96,13.27-13.27,13.27Z"/>
  </g>
  <path class="cls-1" d="M31.37,24.8v850.39h427.26V24.8H31.37ZM245,31.63c3.49,0,6.34,2.84,6.34,6.34s-2.84,6.34-6.34,6.34-6.34-2.84-6.34-6.34,2.84-6.34,6.34-6.34ZM239.72,28.94c-3.14,1.85-5.2,5.27-5.2,9.03,0,5.78,4.7,10.47,10.47,10.47s10.47-4.7,10.47-10.47c0-3.76-2.06-7.18-5.2-9.03h128.58c-1.31,72.54-61.23,131.45-133.86,131.45S112.45,101.47,111.14,28.94h128.58ZM245,868.37c-3.49,0-6.34-2.84-6.34-6.34s2.84-6.34,6.34-6.34,6.34,2.84,6.34,6.34-2.84,6.34-6.34,6.34ZM250.28,871.06c3.13-1.85,5.2-5.27,5.2-9.03,0-5.77-4.7-10.47-10.47-10.47s-10.47,4.7-10.47,10.47c0,3.76,2.06,7.18,5.2,9.03H111.14c1.31-72.54,61.23-131.45,133.86-131.45s132.55,58.91,133.86,131.45h-128.58ZM454.5,871.06h-71.5c-.63-36.2-15.2-70.17-41.06-95.72-26.02-25.71-60.45-39.87-96.93-39.87s-70.91,14.16-96.94,39.87c-25.86,25.54-40.42,59.52-41.05,95.72H35.5v-275.73h418.99v275.73ZM454.5,591.19H35.5v-282.39h418.99v282.39ZM454.5,304.67H35.5V28.94h71.51c.63,36.2,15.2,70.17,41.05,95.72,26.02,25.71,60.45,39.87,96.94,39.87s70.91-14.16,96.94-39.87c25.86-25.54,40.42-59.52,41.06-95.72h71.5v275.73ZM245,467.41c9.6,0,17.41-7.81,17.41-17.41s-7.81-17.41-17.41-17.41-17.41,7.81-17.41,17.41,7.81,17.41,17.41,17.41ZM245,436.73c7.32,0,13.27,5.95,13.27,13.27s-5.96,13.27-13.27,13.27-13.27-5.95-13.27-13.27,5.96-13.27,13.27-13.27Z"/>
</svg>