<?xml version="1.0" encoding="UTF-8"?>
<svg id="Layer_1" data-name="Layer 1" xmlns="http://www.w3.org/2000/svg" viewBox="0 0 490 900">
  <defs>
    <style>
      .cls-1 {
        fill: #fff;
      }

      .cls-2 {
        fill: none;
      }

      .cls-3 {
        fill: #00c753;
      }
    </style>
  </defs>
  <g>
    <g>
      <path class="cls-2" d="M251.34,750.1c-72.63,0-132.55,58.91-133.86,131.45h128.58c-3.13-1.85-5.2-5.27-5.2-9.03,0-5.78,4.7-10.47,10.47-10.47s10.47,4.7,10.47,10.47c0,3.76-2.06,7.18-5.2,9.03h128.58c-1.31-72.54-61.23-131.45-133.86-131.45Z"/>
      <path class="cls-2" d="M251.34,866.18c-3.49,0-6.34,2.84-6.34,6.34s2.84,6.34,6.34,6.34,6.34-2.84,6.34-6.34-2.84-6.34-6.34-6.34Z"/>
    </g>
    <g>
      <path class="cls-2" d="M251.34,170.87c72.63,0,132.54-58.91,133.86-131.45h-128.58c3.13,1.85,5.2,5.27,5.2,9.03,0,5.77-4.7,10.47-10.47,10.47s-10.47-4.7-10.47-10.47c0-3.76,2.06-7.18,5.2-9.03H117.48c1.31,72.54,61.23,131.45,133.86,131.45Z"/>
      <path class="cls-2" d="M251.34,54.79c3.49,0,6.34-2.84,6.34-6.34s-2.84-6.34-6.34-6.34-6.34,2.84-6.34,6.34,2.84,6.34,6.34,6.34Z"/>
    </g>
    <path class="cls-3" d="M460.83,39.42h-71.51c-.63,36.2-15.2,70.17-41.05,95.72-26.03,25.71-60.45,39.87-96.94,39.87s-70.91-14.16-96.94-39.87c-25.86-25.54-40.42-59.52-41.05-95.72H41.84v275.73h418.99V39.42Z"/>
    <path class="cls-3" d="M460.83,881.54v-275.73H41.84v275.73h71.51c.63-36.2,15.2-70.17,41.05-95.72,26.02-25.71,60.45-39.87,96.94-39.87s70.91,14.16,96.93,39.87c25.86,25.54,40.42,59.52,41.06,95.72h71.51Z"/>
    <path class="cls-3" d="M460.83,319.29H41.84v282.39h418.99v-282.39ZM251.34,477.89c-9.6,0-17.41-7.81-17.41-17.41s7.81-17.41,17.41-17.41,17.41,7.81,17.41,17.41-7.81,17.41-17.41,17.41Z"/>
    <path class="cls-3" d="M251.34,447.21c-7.32,0-13.27,5.95-13.27,13.27s5.95,13.27,13.27,13.27,13.27-5.95,13.27-13.27-5.96-13.27-13.27-13.27Z"/>
    <path class="cls-1" d="M464.97,35.29H37.71v850.39h427.26V35.29ZM261.81,872.51c0-5.78-4.7-10.47-10.47-10.47s-10.47,4.7-10.47,10.47c0,3.76,2.06,7.18,5.2,9.03H117.48c1.31-72.54,61.23-131.45,133.86-131.45s132.54,58.91,133.86,131.45h-128.58c3.13-1.85,5.2-5.27,5.2-9.03ZM251.34,878.85c-3.49,0-6.34-2.84-6.34-6.34s2.84-6.34,6.34-6.34,6.34,2.84,6.34,6.34-2.84,6.34-6.34,6.34ZM348.27,785.83c-26.02-25.71-60.45-39.87-96.93-39.87s-70.91,14.16-96.94,39.87c-25.86,25.54-40.42,59.52-41.05,95.72H41.84v-275.73h418.99v275.73h-71.51c-.63-36.2-15.2-70.17-41.06-95.72ZM41.84,601.68v-282.39h418.99v282.39H41.84ZM41.84,315.15V39.42h71.51c.63,36.2,15.2,70.17,41.05,95.72,26.02,25.71,60.45,39.87,96.94,39.87s70.91-14.16,96.94-39.87c25.86-25.54,40.42-59.52,41.05-95.72h71.51v275.73H41.84ZM240.86,48.45c0,5.77,4.7,10.47,10.47,10.47s10.47-4.7,10.47-10.47c0-3.76-2.06-7.18-5.2-9.03h128.58c-1.31,72.54-61.23,131.45-133.86,131.45S118.79,111.95,117.48,39.42h128.58c-3.13,1.85-5.2,5.27-5.2,9.03ZM251.34,42.11c3.49,0,6.34,2.84,6.34,6.34s-2.84,6.34-6.34,6.34-6.34-2.84-6.34-6.34,2.84-6.34,6.34-6.34Z"/>
    <path class="cls-1" d="M251.34,443.08c-9.6,0-17.41,7.81-17.41,17.41s7.81,17.41,17.41,17.41,17.41-7.81,17.41-17.41-7.81-17.41-17.41-17.41ZM251.34,473.76c-7.32,0-13.27-5.95-13.27-13.27s5.95-13.27,13.27-13.27,13.27,5.95,13.27,13.27-5.96,13.27-13.27,13.27Z"/>
  </g>
  <path class="cls-1" d="M37.7,35.29v850.39h427.26V35.29H37.7ZM251.34,42.11c3.49,0,6.34,2.84,6.34,6.34s-2.84,6.34-6.34,6.34-6.34-2.84-6.34-6.34,2.84-6.34,6.34-6.34ZM246.06,39.42c-3.13,1.85-5.2,5.27-5.2,9.03,0,5.78,4.7,10.47,10.47,10.47s10.47-4.7,10.47-10.47c0-3.76-2.06-7.18-5.2-9.03h128.58c-1.31,72.54-61.23,131.45-133.86,131.45S118.79,111.95,117.48,39.42h128.58ZM251.34,878.85c-3.49,0-6.34-2.84-6.34-6.34s2.84-6.34,6.34-6.34,6.34,2.84,6.34,6.34-2.84,6.34-6.34,6.34ZM256.61,881.54c3.13-1.85,5.2-5.27,5.2-9.03,0-5.78-4.7-10.47-10.47-10.47s-10.47,4.7-10.47,10.47c0,3.76,2.06,7.18,5.2,9.03H117.48c1.31-72.54,61.23-131.45,133.86-131.45s132.54,58.91,133.86,131.45h-128.58ZM460.83,881.54h-71.51c-.63-36.2-15.2-70.17-41.06-95.72-26.02-25.71-60.45-39.87-96.93-39.87s-70.91,14.16-96.94,39.87c-25.86,25.54-40.42,59.52-41.05,95.72H41.84v-275.73h418.99v275.73ZM460.83,601.68H41.84v-282.39h418.99v282.39ZM460.83,315.15H41.84V39.42h71.51c.63,36.2,15.2,70.17,41.05,95.72,26.02,25.71,60.45,39.87,96.94,39.87s70.91-14.16,96.94-39.87c25.86-25.54,40.42-59.52,41.05-95.72h71.51v275.73ZM251.34,477.89c9.6,0,17.41-7.81,17.41-17.41s-7.81-17.41-17.41-17.41-17.41,7.81-17.41,17.41,7.81,17.41,17.41,17.41ZM251.34,447.21c7.32,0,13.27,5.95,13.27,13.27s-5.96,13.27-13.27,13.27-13.27-5.95-13.27-13.27,5.95-13.27,13.27-13.27Z"/>
</svg>