<?xml version="1.0" encoding="UTF-8"?>
<svg id="Layer_1" data-name="Layer 1" xmlns="http://www.w3.org/2000/svg" viewBox="0 0 490 900">
  <defs>
    <style>
      .cls-1 {
        fill: #fff;
      }

      .cls-2 {
        fill: none;
      }

      .cls-3 {
        fill: gold;
      }
    </style>
  </defs>
  <g>
    <path class="cls-2" d="M245,741.61c-72.63,0-132.55,58.91-133.86,131.45h128.58c-3.13-1.85-5.2-5.27-5.2-9.03,0-5.78,4.7-10.47,10.47-10.47s10.47,4.7,10.47,10.47c0,3.76-2.06,7.18-5.2,9.03h128.58c-1.31-72.54-61.23-131.45-133.86-131.45Z"/>
    <path class="cls-2" d="M245,857.69c-3.49,0-6.34,2.84-6.34,6.34s2.84,6.34,6.34,6.34,6.34-2.84,6.34-6.34-2.84-6.34-6.34-6.34Z"/>
  </g>
  <g>
    <path class="cls-2" d="M245,162.38c72.63,0,132.54-58.91,133.86-131.45h-128.58c3.13,1.85,5.2,5.27,5.2,9.03,0,5.77-4.7,10.47-10.47,10.47s-10.47-4.7-10.47-10.47c0-3.76,2.06-7.18,5.2-9.03H111.14c1.31,72.54,61.23,131.45,133.86,131.45Z"/>
    <path class="cls-2" d="M245,46.31c3.49,0,6.34-2.84,6.34-6.34s-2.84-6.34-6.34-6.34-6.34,2.84-6.34,6.34,2.84,6.34,6.34,6.34Z"/>
  </g>
  <path class="cls-3" d="M454.5,30.94h-71.51c-.63,36.2-15.2,70.17-41.05,95.72-26.03,25.71-60.45,39.87-96.94,39.87s-70.91-14.16-96.94-39.87c-25.86-25.54-40.42-59.52-41.05-95.72H35.5v275.73h418.99V30.94Z"/>
  <path class="cls-2" d="M454.5,873.06v-275.73H35.5v275.73h71.51c.63-36.2,15.2-70.17,41.05-95.72,26.02-25.71,60.45-39.87,96.94-39.87s70.91,14.16,96.93,39.87c25.86,25.54,40.42,59.52,41.06,95.72h71.51Z"/>
  <path class="cls-3" d="M454.5,310.8H35.5v282.39h418.99v-282.39ZM245,469.41c-9.6,0-17.41-7.81-17.41-17.41s7.81-17.41,17.41-17.41,17.41,7.81,17.41,17.41-7.81,17.41-17.41,17.41Z"/>
  <path class="cls-3" d="M245,438.73c-7.32,0-13.27,5.95-13.27,13.27s5.95,13.27,13.27,13.27,13.27-5.95,13.27-13.27-5.96-13.27-13.27-13.27Z"/>
  <path class="cls-1" d="M458.63,26.8H31.37v850.39h427.26V26.8ZM255.47,864.03c0-5.78-4.7-10.47-10.47-10.47s-10.47,4.7-10.47,10.47c0,3.76,2.06,7.18,5.2,9.03H111.14c1.31-72.54,61.23-131.45,133.86-131.45s132.54,58.91,133.86,131.45h-128.58c3.13-1.85,5.2-5.27,5.2-9.03ZM245,870.37c-3.49,0-6.34-2.84-6.34-6.34s2.84-6.34,6.34-6.34,6.34,2.84,6.34,6.34-2.84,6.34-6.34,6.34ZM341.93,777.34c-26.02-25.71-60.45-39.87-96.93-39.87s-70.91,14.16-96.94,39.87c-25.86,25.54-40.42,59.52-41.05,95.72H35.5v-275.73h418.99v275.73h-71.51c-.63-36.2-15.2-70.17-41.06-95.72ZM35.5,593.19v-282.39h418.99v282.39H35.5ZM35.5,306.67V30.94h71.51c.63,36.2,15.2,70.17,41.05,95.72,26.02,25.71,60.45,39.87,96.94,39.87s70.91-14.16,96.94-39.87c25.86-25.54,40.42-59.52,41.05-95.72h71.51v275.73H35.5ZM234.53,39.97c0,5.77,4.7,10.47,10.47,10.47s10.47-4.7,10.47-10.47c0-3.76-2.06-7.18-5.2-9.03h128.58c-1.31,72.54-61.23,131.45-133.86,131.45S112.45,103.47,111.14,30.94h128.58c-3.13,1.85-5.2,5.27-5.2,9.03ZM245,33.63c3.49,0,6.34,2.84,6.34,6.34s-2.84,6.34-6.34,6.34-6.34-2.84-6.34-6.34,2.84-6.34,6.34-6.34Z"/>
  <path class="cls-1" d="M245,434.59c-9.6,0-17.41,7.81-17.41,17.41s7.81,17.41,17.41,17.41,17.41-7.81,17.41-17.41-7.81-17.41-17.41-17.41ZM245,465.27c-7.32,0-13.27-5.95-13.27-13.27s5.95-13.27,13.27-13.27,13.27,5.95,13.27,13.27-5.96,13.27-13.27,13.27Z"/>
</svg>