<?xml version="1.0" encoding="UTF-8"?>
<svg id="Layer_1" data-name="Layer 1" xmlns="http://www.w3.org/2000/svg" viewBox="0 0 490 900">
  <defs>
    <style>
      .cls-1 {
        fill: #fff;
      }

      .cls-2 {
        fill: #f32040;
      }

      .cls-3 {
        fill: none;
      }

      .cls-4 {
        fill: #f1f1f1;
      }
    </style>
  </defs>
  <g>
    <path class="cls-3" d="M255.67,741.09c-72.63,0-132.55,58.91-133.86,131.45h128.58c-3.13-1.85-5.2-5.27-5.2-9.03,0-5.78,4.7-10.47,10.47-10.47s10.47,4.7,10.47,10.47c0,3.76-2.06,7.18-5.2,9.03h128.58c-1.31-72.54-61.23-131.45-133.86-131.45Z"/>
    <path class="cls-3" d="M255.67,857.17c-3.49,0-6.34,2.84-6.34,6.34s2.84,6.34,6.34,6.34,6.34-2.84,6.34-6.34-2.84-6.34-6.34-6.34Z"/>
  </g>
  <path class="cls-3" d="M465.17,876.54v-275.73H46.17v275.73h71.51c.63-36.2,15.2-70.17,41.05-95.72,26.02-25.71,60.45-39.87,96.94-39.87s70.91,14.16,96.93,39.87c25.86,25.54,40.42,59.52,41.06,95.72h71.51Z"/>
  <path class="cls-3" d="M465.17,308.8H46.17v282.39h418.99v-282.39ZM255.67,467.41c-9.6,0-17.41-7.81-17.41-17.41s7.81-17.41,17.41-17.41,17.41,7.81,17.41,17.41-7.81,17.41-17.41,17.41Z"/>
  <path class="cls-3" d="M255.67,436.73c-7.32,0-13.27,5.95-13.27,13.27s5.95,13.27,13.27,13.27,13.27-5.95,13.27-13.27-5.96-13.27-13.27-13.27Z"/>
  <path class="cls-4" d="M255.67,432.59c-9.6,0-17.41,7.81-17.41,17.41s7.81,17.41,17.41,17.41,17.41-7.81,17.41-17.41-7.81-17.41-17.41-17.41ZM255.67,463.27c-7.32,0-13.27-5.95-13.27-13.27s5.95-13.27,13.27-13.27,13.27,5.95,13.27,13.27-5.96,13.27-13.27,13.27Z"/>
  <g>
    <g>
      <path class="cls-2" d="M255.67,161.1c72.63,0,132.54-58.91,133.86-131.45h-128.58c3.13,1.85,5.2,5.27,5.2,9.03,0,5.77-4.7,10.47-10.47,10.47s-10.47-4.7-10.47-10.47c0-3.76,2.06-7.18,5.2-9.03H121.81c1.31,72.54,61.23,131.45,133.86,131.45Z"/>
      <path class="cls-2" d="M255.67,45.02c3.49,0,6.34-2.84,6.34-6.34s-2.84-6.34-6.34-6.34-6.34,2.84-6.34,6.34,2.84,6.34,6.34,6.34Z"/>
    </g>
    <path class="cls-2" d="M465.16,29.65h-71.51c-.63,36.2-15.2,70.17-41.05,95.72-26.03,25.71-60.45,39.87-96.94,39.87s-70.91-14.16-96.94-39.87c-25.86-25.54-40.42-59.52-41.05-95.72H46.17v275.73h418.99V29.65Z"/>
  </g>
  <path class="cls-4" d="M469.3,25.51H42.04v850.39h427.26V25.51ZM266.14,862.74c0-5.78-4.7-10.47-10.47-10.47s-10.47,4.7-10.47,10.47c0,3.76,2.06,7.18,5.2,9.03H121.81c1.31-72.54,61.23-131.45,133.86-131.45s132.54,58.91,133.86,131.45h-128.58c3.13-1.85,5.2-5.27,5.2-9.03ZM255.67,869.08c-3.49,0-6.34-2.84-6.34-6.34s2.84-6.34,6.34-6.34,6.34,2.84,6.34,6.34-2.84,6.34-6.34,6.34ZM352.6,776.05c-26.02-25.71-60.45-39.87-96.93-39.87s-70.91,14.16-96.94,39.87c-25.86,25.54-40.42,59.52-41.05,95.72H46.17v-275.73h418.99v275.73h-71.51c-.63-36.2-15.2-70.17-41.06-95.72ZM46.17,591.9v-282.39h418.99v282.39H46.17ZM46.17,305.38V29.65h71.51c.63,36.2,15.2,70.17,41.05,95.72,26.02,25.71,60.45,39.87,96.94,39.87s70.91-14.16,96.94-39.87c25.86-25.54,40.42-59.52,41.05-95.72h71.51v275.73H46.17ZM245.2,38.68c0,5.77,4.7,10.47,10.47,10.47s10.47-4.7,10.47-10.47c0-3.76-2.06-7.18-5.2-9.03h128.58c-1.31,72.54-61.23,131.45-133.86,131.45S123.12,102.18,121.81,29.65h128.58c-3.13,1.85-5.2,5.27-5.2,9.03ZM255.67,32.34c3.49,0,6.34,2.84,6.34,6.34s-2.84,6.34-6.34,6.34-6.34-2.84-6.34-6.34,2.84-6.34,6.34-6.34Z"/>
  <path class="cls-1" d="M42.04,25.51v850.39h427.26V25.51H42.04ZM255.67,32.34c3.49,0,6.34,2.84,6.34,6.34s-2.84,6.34-6.34,6.34-6.34-2.84-6.34-6.34,2.84-6.34,6.34-6.34ZM250.39,29.65c-3.13,1.85-5.2,5.27-5.2,9.03,0,5.78,4.7,10.47,10.47,10.47s10.47-4.7,10.47-10.47c0-3.76-2.06-7.18-5.2-9.03h128.58c-1.31,72.54-61.23,131.45-133.86,131.45S123.12,102.18,121.81,29.65h128.58ZM255.67,869.08c-3.49,0-6.34-2.84-6.34-6.34s2.84-6.34,6.34-6.34,6.34,2.84,6.34,6.34-2.84,6.34-6.34,6.34ZM260.94,871.77c3.13-1.85,5.2-5.27,5.2-9.03,0-5.77-4.7-10.47-10.47-10.47s-10.47,4.7-10.47,10.47c0,3.76,2.06,7.18,5.2,9.03H121.81c1.31-72.54,61.23-131.45,133.86-131.45s132.54,58.91,133.86,131.45h-128.58ZM465.17,871.77h-71.51c-.63-36.2-15.2-70.17-41.06-95.72-26.02-25.71-60.45-39.87-96.93-39.87s-70.91,14.16-96.94,39.87c-25.86,25.54-40.42,59.52-41.05,95.72H46.17v-275.73h418.99v275.73ZM465.17,591.9H46.17v-282.39h418.99v282.39ZM465.17,305.38H46.17V29.65h71.51c.63,36.2,15.2,70.17,41.05,95.72,26.02,25.71,60.45,39.87,96.94,39.87s70.91-14.16,96.94-39.87c25.86-25.54,40.42-59.52,41.05-95.72h71.51v275.73ZM255.67,468.12c9.6,0,17.41-7.81,17.41-17.41s-7.81-17.41-17.41-17.41-17.41,7.81-17.41,17.41,7.81,17.41,17.41,17.41ZM255.67,437.44c7.32,0,13.27,5.95,13.27,13.27s-5.96,13.27-13.27,13.27-13.27-5.95-13.27-13.27,5.95-13.27,13.27-13.27Z"/>
</svg>