<?xml version="1.0" encoding="UTF-8"?>
<svg id="Layer_1" data-name="Layer 1" xmlns="http://www.w3.org/2000/svg" viewBox="0 0 100 100">
  <defs>
    <style>
      .cls-1 {
        fill: #f1f1f1;
      }

      .cls-2 {
        fill: #1a1a1a;
      }

      .cls-3 {
        fill: #2060ff;
      }
    </style>
  </defs>
  <path class="cls-1" d="M71.48,16.8H28.52c-6.46,0-11.72,5.26-11.72,11.72v42.96c0,6.46,5.26,11.72,11.72,11.72h42.96c6.46,0,11.72-5.26,11.72-11.72V28.52c0-6.46-5.26-11.72-11.72-11.72ZM47.31,64.56c-.81.73-2.06,1.33-3.72,1.81-1.67.49-3.44.73-5.31.73-3.26,0-6.18-.73-8.73-2.18h0s.01-.01.01-.01c-2.56-1.46-4.54-3.47-5.96-6.06-1.42-2.59-2.13-5.66-2.13-8.82s.71-6.05,2.13-8.67c1.42-2.61,3.4-4.67,5.96-6.19,2.55-1.51,5.44-2.27,8.67-2.27,1.44,0,2.89.16,4.33.47,1.43.32,2.63.77,3.6,1.34l.04,9.52c-1.09-.94-2.21-1.64-3.4-2.11-1.17-.46-2.43-.7-3.76-.7-1.64,0-3.06.38-4.27,1.14-1.21.76-2.13,1.82-2.79,3.18-.65,1.36-.97,2.92-.97,4.58s.3,3.14.89,4.44c.59,1.3,1.42,2.33,2.47,3.1s2.31,1.16,3.76,1.16c.41,0,.77-.04,1.09-.1v-4.62h-3.77v-7.53h11.83v17.77ZM69.15,66.46l-1.32-5.71h-8.08l-1.34,5.71h-9.25l8.7-32.92h0,11.97l8.7,32.92h-9.39Z"/>
  <polygon class="cls-1" points="61.42 53 66.22 53 63.8 41.76 61.42 53"/>
  <path class="cls-3" d="M70.59,8H29.41c-11.81,0-21.41,9.6-21.41,21.41v41.18c0,11.81,9.6,21.41,21.41,21.41h41.18c11.81,0,21.41-9.6,21.41-21.41V29.41c0-11.81-9.6-21.41-21.41-21.41ZM83.2,28.52v42.96c0,6.46-5.26,11.72-11.72,11.72H28.52c-6.46,0-11.72-5.26-11.72-11.72V28.52c0-6.46,5.26-11.72,11.72-11.72h42.96c6.46,0,11.72,5.26,11.72,11.72Z"/>
  <path class="cls-2" d="M35.48,54.32h3.77v4.62c-.32.06-.67.1-1.09.1-1.44,0-2.7-.39-3.76-1.16s-1.88-1.8-2.47-3.1c-.59-1.3-.89-2.79-.89-4.44s.32-3.22.97-4.58c.65-1.36,1.58-2.42,2.79-3.18,1.21-.76,2.63-1.14,4.27-1.14,1.33,0,2.59.24,3.76.7,1.19.47,2.31,1.17,3.4,2.11l-.04-9.52c-.97-.57-2.17-1.02-3.6-1.34-1.44-.32-2.88-.47-4.33-.47-3.24,0-6.13.76-8.67,2.27-2.56,1.52-4.54,3.58-5.96,6.19-1.42,2.62-2.13,5.51-2.13,8.67s.71,6.24,2.13,8.82c1.42,2.59,3.4,4.6,5.96,6.06h-.02c2.55,1.46,5.47,2.19,8.73,2.19,1.87,0,3.64-.24,5.31-.73,1.66-.49,2.9-1.09,3.72-1.81v-17.77h-11.83v7.53Z"/>
  <path class="cls-2" d="M57.87,33.54l-8.7,32.92h9.25l1.34-5.71h8.08l1.32,5.71h9.39l-8.7-32.92h-11.96ZM61.42,53l2.39-11.24,2.42,11.24h-4.8Z"/>
</svg>