<?xml version="1.0" encoding="UTF-8"?>
<svg id="Layer_1" data-name="Layer 1" xmlns="http://www.w3.org/2000/svg" viewBox="0 0 100 100">
  <defs>
    <style>
      .cls-1 {
        fill: #f2f2f2;
      }

      .cls-2 {
        fill: #1a1a1a;
      }
    </style>
  </defs>
  <path class="cls-2" d="M70.59,8H29.41c-11.81,0-21.41,9.6-21.41,21.41v41.18c0,11.81,9.6,21.41,21.41,21.41h41.18c11.81,0,21.41-9.6,21.41-21.41V29.41c0-11.81-9.6-21.41-21.41-21.41ZM16.8,71.48V28.52c0-6.46,5.26-11.72,11.72-11.72h42.96c6.46,0,11.72,5.26,11.72,11.72v42.96c0,6.46-5.26,11.72-11.72,11.72H28.52c-6.46,0-11.72-5.26-11.72-11.72Z"/>
  <path class="cls-2" d="M83.2,71.48V28.52c0-6.46-5.26-11.72-11.72-11.72H28.52c-6.46,0-11.72,5.26-11.72,11.72v42.96c0,6.46,5.26,11.72,11.72,11.72h42.96c6.46,0,11.72-5.26,11.72-11.72ZM47.83,64.55c-.81.73-2.06,1.33-3.72,1.81-1.67.49-3.44.73-5.31.73-3.26,0-6.18-.73-8.73-2.18-2.56-1.46-4.54-3.47-5.96-6.06-1.42-2.59-2.13-5.66-2.13-8.82s.71-6.05,2.13-8.67c1.42-2.61,3.4-4.67,5.96-6.19,2.55-1.51,5.44-2.27,8.67-2.27,1.44,0,2.89.16,4.33.47,1.43.32,2.63.77,3.6,1.34l.04,9.52c-1.09-.94-2.21-1.64-3.4-2.11-1.17-.46-2.43-.7-3.76-.7-1.63,0-3.05.38-4.26,1.14-1.2.76-2.12,1.81-2.77,3.17-.65,1.36-.97,2.92-.97,4.58s.3,3.14.89,4.44,1.42,2.33,2.47,3.1c1.05.79,2.31,1.16,3.76,1.16.41,0,.77-.04,1.09-.1v-4.62h-3.77v-7.53h11.83v17.77ZM63.58,66.46h-2.68,0s.01.02.01.02h-9.16v-32.92h11.65c2.81,0,5.32.67,7.55,1.99,2.23,1.33,3.96,3.24,5.22,5.71,1.25,2.47,1.88,5.36,1.88,8.62s-.64,6.15-1.91,8.67c-1.27,2.53-2.99,4.47-5.17,5.84-2.18,1.37-4.64,2.06-7.39,2.06Z"/>
  <path class="cls-2" d="M65.6,42.66c-.89-.59-1.91-.87-3.06-.87,0,0,0,.01,0,.01h-1.64v16.5h1.64c1.12,0,2.13-.3,3.04-.89.91-.59,1.62-1.5,2.16-2.74.53-1.23.79-2.79.79-4.67s-.26-3.42-.79-4.64c-.53-1.24-1.24-2.13-2.13-2.7Z"/>
  <path class="cls-1" d="M36,54.3h3.77v4.62c-.32.06-.67.1-1.09.1-1.44,0-2.7-.38-3.76-1.16-1.05-.77-1.88-1.8-2.47-3.1s-.89-2.79-.89-4.44.32-3.22.97-4.58c.65-1.36,1.57-2.4,2.77-3.17,1.21-.75,2.63-1.14,4.26-1.14,1.33,0,2.59.24,3.76.7,1.19.47,2.31,1.17,3.4,2.11l-.04-9.52c-.97-.57-2.17-1.02-3.6-1.34-1.44-.32-2.88-.47-4.33-.47-3.24,0-6.13.76-8.67,2.27-2.56,1.52-4.54,3.58-5.96,6.19-1.42,2.62-2.13,5.51-2.13,8.67s.71,6.24,2.13,8.82c1.42,2.59,3.4,4.6,5.96,6.06,2.55,1.44,5.47,2.18,8.73,2.18,1.87,0,3.64-.24,5.31-.73,1.66-.49,2.9-1.09,3.72-1.81v-17.77h-11.83v7.53Z"/>
  <path class="cls-1" d="M76.15,58.56c1.27-2.53,1.91-5.42,1.91-8.67s-.63-6.14-1.88-8.62c-1.26-2.47-2.99-4.39-5.22-5.71-2.23-1.33-4.74-1.99-7.55-1.99h-11.65v32.92h9.16-.01s0-.02,0-.02h2.68c2.75,0,5.22-.69,7.39-2.06,2.18-1.38,3.9-3.32,5.17-5.84ZM67.73,54.68c-.53,1.24-1.24,2.16-2.16,2.74-.9.59-1.92.89-3.04.89h-1.64v-16.5h1.64s0-.01,0-.01c1.15,0,2.17.28,3.06.87.89.57,1.6,1.47,2.13,2.7.53,1.22.79,2.77.79,4.64s-.26,3.44-.79,4.67Z"/>
</svg>