<?xml version="1.0" encoding="UTF-8"?>
<svg id="Layer_1" data-name="Layer 1" xmlns="http://www.w3.org/2000/svg" viewBox="0 0 100 100">
  <defs>
    <style>
      .cls-1 {
        fill: #fff;
      }

      .cls-2 {
        fill: #1a1a1a;
      }
    </style>
  </defs>
  <path class="cls-2" d="M70.59,8H29.41c-11.81,0-21.41,9.6-21.41,21.41v41.18c0,11.81,9.6,21.41,21.41,21.41h41.18c11.81,0,21.41-9.6,21.41-21.41V29.41c0-11.81-9.6-21.41-21.41-21.41ZM62.77,64.01c-1.23.97-2.69,1.72-4.37,2.23-1.67.51-3.48.77-5.42.77-2.89,0-5.63-.71-8.2-2.11s-4.63-3.36-6.19-5.89c-1.55-2.53-2.33-5.5-2.33-8.59s.73-5.96,2.18-8.65h-.03c1.46-2.68,3.48-4.82,6.1-6.4,2.62-1.59,5.57-2.39,8.87-2.39,1.64,0,3.3.22,4.99.67,1.69.45,3.24,1.13,4.67,2.04v10.53c-1.27-1.61-2.64-2.84-4.13-3.72-1.48-.88-3.06-1.32-4.72-1.32-1.56,0-3.01.39-4.33,1.16-1.32.77-2.37,1.83-3.16,3.16-.79,1.33-1.19,2.85-1.19,4.49s.39,3.13,1.16,4.47c.77,1.36,1.8,2.41,3.08,3.18,1.28.79,2.7,1.16,4.28,1.16,1.7,0,3.38-.45,5.04-1.34,1.66-.89,3.2-2.12,4.62-3.7l-.95,10.25Z"/>
  <path class="cls-1" d="M59.09,57.46c-1.66.89-3.34,1.34-5.04,1.34-1.58,0-3-.38-4.28-1.16-1.28-.77-2.31-1.82-3.08-3.18-.77-1.34-1.16-2.83-1.16-4.47s.39-3.16,1.19-4.49c.79-1.33,1.84-2.39,3.16-3.16,1.32-.77,2.76-1.16,4.33-1.16,1.66,0,3.24.44,4.72,1.32,1.48.88,2.86,2.11,4.13,3.72v-10.53c-1.42-.9-2.98-1.59-4.67-2.04-1.69-.45-3.36-.67-4.99-.67-3.3,0-6.24.79-8.87,2.39-2.62,1.59-4.64,3.72-6.1,6.39h.02s0,.01,0,.01c-1.44,2.68-2.18,5.56-2.18,8.65s.79,6.07,2.33,8.59c1.56,2.53,3.62,4.49,6.19,5.89,2.57,1.4,5.31,2.11,8.2,2.11,1.93,0,3.75-.26,5.42-.77,1.68-.51,3.14-1.26,4.37-2.23l.95-10.25c-1.42,1.58-2.96,2.81-4.62,3.7Z"/>
</svg>