<?xml version="1.0" encoding="UTF-8"?>
<svg id="Layer_1" data-name="Layer 1" xmlns="http://www.w3.org/2000/svg" viewBox="0 0 100 100">
  <defs>
    <style>
      .cls-1 {
        fill: #333;
      }

      .cls-2 {
        fill: #f2f2f2;
      }

      .cls-3 {
        fill: #1a1a1a;
      }
    </style>
  </defs>
  <path class="cls-3" d="M71.48,16.8H28.52c-6.46,0-11.72,5.26-11.72,11.72v42.96c0,6.46,5.26,11.72,11.72,11.72h42.96c6.46,0,11.72-5.26,11.72-11.72V28.52c0-6.46-5.26-11.72-11.72-11.72ZM50.64,64.56c-.81.73-2.06,1.33-3.72,1.81-1.67.49-3.44.73-5.31.73-3.26,0-6.18-.73-8.73-2.18h0s.01-.01.01-.01c-2.56-1.46-4.54-3.47-5.96-6.06-1.42-2.59-2.13-5.66-2.13-8.82s.71-6.05,2.13-8.67c1.42-2.61,3.4-4.67,5.96-6.19,2.55-1.51,5.44-2.27,8.67-2.27,1.44,0,2.9.16,4.33.47,1.43.32,2.63.77,3.6,1.34l.04,9.52c-1.09-.94-2.21-1.64-3.4-2.11-1.17-.46-2.43-.7-3.76-.7-1.64,0-3.06.38-4.27,1.14-1.21.76-2.13,1.82-2.79,3.18-.65,1.36-.97,2.92-.97,4.58s.3,3.14.89,4.44c.59,1.3,1.42,2.33,2.47,3.1,1.05.77,2.31,1.16,3.76,1.16.41,0,.77-.04,1.09-.1v-4.62h-3.77v-7.53h11.83v17.77ZM73.73,61.85c-.99,1.64-2.36,2.92-4.13,3.85s-3.77,1.41-6.01,1.41c-1.33,0-2.63-.18-3.9-.52-1.27-.36-2.39-.81-3.38-1.39s-1.76-1.24-2.33-1.99v-10.48c.63.99,1.46,1.98,2.47,2.93,1.01.95,2.13,1.75,3.36,2.39,1.22.63,2.41.95,3.56.95.6,0,1.09-.1,1.47-.27.38-.18.69-.43.91-.75.22-.32.34-.67.34-1.07,0-.64-.22-1.15-.67-1.54-.45-.39-1.22-.85-2.31-1.36-.78-.33-1.57-.73-2.36-1.22-1.5-.73-2.81-1.59-3.87-2.59h0s0,.02.01.03h-.01s0-.02,0-.02c-1.06-1-1.88-2.1-2.47-3.34-.59-1.23-.89-2.59-.89-4.03,0-1.93.5-3.65,1.52-5.17,1.01-1.52,2.37-2.68,4.1-3.5,1.73-.82,3.66-1.22,5.81-1.22,1.99,0,3.76.31,5.32.95,1.56.64,2.74,1.36,3.56,2.18l.45,9.52c-1.5-1.39-3.05-2.48-4.62-3.3-1.57-.82-3.1-1.22-4.58-1.22-.52,0-.97.06-1.36.18s-.69.34-.9.67c-.21.33-.32.67-.32,1.04,0,.59.22,1.06.67,1.44.46.37,1.27.85,2.45,1.42.55.18.95.36,1.22.52.27.16.66.34,1.17.52,1.46.78,2.72,1.62,3.77,2.51,1.05.89,1.9,1.93,2.51,3.1.61,1.17.93,2.53.93,4.03,0,1.93-.48,3.71-1.47,5.35Z"/>
  <path class="cls-3" d="M70.59,8H29.41c-11.81,0-21.41,9.6-21.41,21.41v41.18c0,11.81,9.6,21.41,21.41,21.41h41.18c11.81,0,21.41-9.6,21.41-21.41V29.41c0-11.81-9.6-21.41-21.41-21.41ZM83.2,28.52v42.96c0,6.46-5.26,11.72-11.72,11.72H28.52c-6.46,0-11.72-5.26-11.72-11.72V28.52c0-6.46,5.26-11.72,11.72-11.72h42.96c6.46,0,11.72,5.26,11.72,11.72Z"/>
  <path class="cls-2" d="M38.81,54.32h3.77v4.62c-.32.06-.67.1-1.09.1-1.44,0-2.7-.39-3.76-1.16-1.05-.77-1.88-1.8-2.47-3.1-.59-1.3-.89-2.79-.89-4.44s.32-3.22.97-4.58c.65-1.36,1.58-2.42,2.79-3.18,1.21-.76,2.63-1.14,4.27-1.14,1.33,0,2.59.24,3.76.7,1.19.47,2.31,1.17,3.4,2.11l-.04-9.52c-.97-.57-2.17-1.02-3.6-1.34-1.43-.32-2.88-.47-4.33-.47-3.24,0-6.13.76-8.67,2.27-2.56,1.52-4.54,3.58-5.96,6.19-1.42,2.62-2.13,5.51-2.13,8.67s.71,6.24,2.13,8.82c1.42,2.59,3.4,4.6,5.96,6.06h-.02c2.55,1.46,5.47,2.19,8.73,2.19,1.87,0,3.64-.24,5.31-.73,1.66-.49,2.9-1.09,3.72-1.81v-17.77h-11.83v7.53Z"/>
  <path class="cls-1" d="M56.88,50.22s0-.01-.01-.02h0s.01.02.01.02Z"/>
  <path class="cls-2" d="M71.76,49.37c-1.05-.89-2.31-1.73-3.77-2.51-.51-.18-.9-.36-1.17-.52-.27-.16-.67-.34-1.22-.52-1.19-.57-1.99-1.05-2.45-1.42-.45-.38-.67-.85-.67-1.44,0-.37.1-.71.32-1.04.21-.33.51-.56.9-.67s.84-.18,1.36-.18c1.48,0,3.01.4,4.58,1.22,1.57.82,3.12,1.92,4.62,3.3l-.45-9.52c-.81-.81-2-1.54-3.56-2.18-1.56-.64-3.33-.95-5.32-.95-2.15,0-4.07.4-5.81,1.22-1.73.81-3.1,1.98-4.1,3.5-1.02,1.52-1.52,3.24-1.52,5.17,0,1.44.3,2.8.89,4.03.59,1.24,1.42,2.34,2.47,3.34h0c1.07.98,2.37,1.84,3.87,2.57.79.49,1.58.89,2.36,1.22,1.09.51,1.86.97,2.31,1.36.45.39.67.9.67,1.54,0,.39-.12.75-.34,1.07-.22.32-.53.57-.91.75-.38.18-.87.27-1.47.27-1.15,0-2.33-.32-3.56-.95-1.22-.64-2.35-1.44-3.36-2.39-1.01-.95-1.84-1.93-2.47-2.93v10.48c.57.76,1.35,1.42,2.33,1.99s2.11,1.03,3.38,1.39c1.27.34,2.57.52,3.9.52,2.24,0,4.24-.47,6.01-1.41s3.14-2.21,4.13-3.85,1.47-3.42,1.47-5.35c0-1.5-.31-2.86-.93-4.03-.61-1.17-1.46-2.22-2.51-3.1Z"/>
</svg>