<?xml version="1.0" encoding="UTF-8"?>
<svg id="Layer_1" data-name="Layer 1" xmlns="http://www.w3.org/2000/svg" viewBox="0 0 100 100">
  <defs>
    <style>
      .cls-1 {
        fill: #f32040;
      }

      .cls-2 {
        fill: #f1f1f1;
      }

      .cls-3 {
        fill: #1a1a1a;
      }
    </style>
  </defs>
  <path class="cls-2" d="M70.72,16.8H29.28c-6.88,0-12.48,5.6-12.48,12.48v41.44c0,6.88,5.6,12.48,12.48,12.48h41.44c6.88,0,12.48-5.6,12.48-12.48V29.28c0-6.88-5.6-12.48-12.48-12.48ZM47.78,64.55c-.81.73-2.06,1.33-3.72,1.81-1.67.49-3.44.73-5.31.73-3.26,0-6.18-.73-8.73-2.18-2.56-1.46-4.54-3.47-5.96-6.06-1.42-2.59-2.13-5.66-2.13-8.82s.71-6.05,2.13-8.67c1.42-2.61,3.4-4.67,5.96-6.19,2.55-1.51,5.44-2.27,8.67-2.27,1.44,0,2.89.16,4.33.47,1.43.32,2.63.77,3.6,1.34l.04,9.52c-1.09-.94-2.21-1.64-3.4-2.11-1.17-.46-2.43-.7-3.76-.7-1.64,0-3.06.38-4.27,1.14-1.21.76-2.13,1.82-2.79,3.18-.65,1.36-.97,2.92-.97,4.58s.3,3.14.89,4.44c.59,1.3,1.42,2.33,2.47,3.1,1.05.79,2.31,1.16,3.76,1.16.41,0,.77-.04,1.09-.1v-4.62h-3.77,0s.01-.01.01-.01v-7.53h11.83v17.77ZM78,66.46h-10.42l-6.67-12.85v12.85h-9.19v-32.92h9.19v12.15l7.13-12.15h10.07l-9.87,15.56,9.77,17.36Z"/>
  <path class="cls-1" d="M70.59,8H29.41c-11.81,0-21.41,9.6-21.41,21.41v41.18c0,11.81,9.6,21.41,21.41,21.41h41.18c11.81,0,21.41-9.6,21.41-21.41V29.41c0-11.81-9.6-21.41-21.41-21.41ZM83.2,29.28v41.44c0,6.88-5.6,12.48-12.48,12.48H29.28c-6.88,0-12.48-5.6-12.48-12.48V29.28c0-6.88,5.6-12.48,12.48-12.48h41.44c6.88,0,12.48,5.6,12.48,12.48Z"/>
  <path class="cls-3" d="M35.95,54.3h-.02s3.77.01,3.77.01v4.62c-.32.06-.67.1-1.09.1-1.44,0-2.7-.38-3.76-1.16-1.05-.77-1.88-1.8-2.47-3.1-.59-1.3-.89-2.79-.89-4.44s.32-3.22.97-4.58c.65-1.36,1.58-2.42,2.79-3.18,1.21-.76,2.63-1.14,4.27-1.14,1.33,0,2.59.24,3.76.7,1.19.47,2.31,1.17,3.4,2.11l-.04-9.52c-.97-.57-2.17-1.02-3.6-1.34-1.44-.32-2.88-.47-4.33-.47-3.24,0-6.13.76-8.67,2.27-2.56,1.52-4.54,3.58-5.96,6.19-1.42,2.62-2.13,5.51-2.13,8.67s.71,6.24,2.13,8.82c1.42,2.59,3.4,4.6,5.96,6.06,2.55,1.44,5.47,2.18,8.73,2.18,1.87,0,3.64-.24,5.31-.73,1.66-.49,2.9-1.09,3.72-1.81v-17.77h-11.83v7.53Z"/>
  <polygon class="cls-3" points="68.03 33.54 60.9 45.69 60.9 33.54 51.71 33.54 51.71 66.46 60.9 66.46 60.9 53.61 67.58 66.46 78 66.46 68.23 49.1 78.1 33.54 68.03 33.54"/>
</svg>