<?xml version="1.0" encoding="UTF-8"?>
<svg id="Layer_1" data-name="Layer 1" xmlns="http://www.w3.org/2000/svg" viewBox="0 0 100 100">
  <defs>
    <style>
      .cls-1 {
        fill: #fff;
      }

      .cls-2 {
        fill: #1a1a1a;
      }
    </style>
  </defs>
  <g>
    <polygon class="cls-2" points="63.98 53.32 67.78 53.32 65.89 41.19 63.98 53.32"/>
    <path class="cls-2" d="M70.59,8H29.41c-11.81,0-21.41,9.6-21.41,21.41v41.18c0,11.81,9.6,21.41,21.41,21.41h41.18c11.81,0,21.41-9.6,21.41-21.41V29.41c0-11.81-9.6-21.41-21.41-21.41ZM21.39,33.54h8.56l2.28,19.71,3.44-19.71h4.81l3.53,19.34,2.23-19.34h8.57l-5.27,32.92h-8.47l-3.05-15.11-3.02,15.11h-8.3l-5.3-32.92ZM68.94,61.02h-6.23l-.93,5.44h-8.62l7.03-32.92h11.48l6.93,32.92h-8.75l-.91-5.44Z"/>
  </g>
  <polygon class="cls-1" points="46.24 33.54 44.01 52.88 40.48 33.54 35.67 33.54 32.23 53.25 29.95 33.54 21.39 33.54 26.69 66.46 34.99 66.46 38.02 51.36 41.07 66.46 49.54 66.46 54.81 33.54 46.24 33.54"/>
  <path class="cls-1" d="M60.19,33.54l-7.03,32.92h8.62l.93-5.44h6.23l.91,5.44h8.75l-6.93-32.92h-11.48ZM63.98,53.32l1.92-12.13,1.88,12.13h-3.8Z"/>
</svg>