<?xml version="1.0" encoding="UTF-8"?>
<svg id="Layer_1" data-name="Layer 1" xmlns="http://www.w3.org/2000/svg" viewBox="0 0 100 100">
  <defs>
    <style>
      .cls-1 {
        fill: #fff;
      }

      .cls-2 {
        fill: #f1f1f1;
      }

      .cls-3 {
        fill: #1a1a1a;
      }
    </style>
  </defs>
  <path class="cls-2" d="M67.98,42.32c-.68-.61-1.48-.93-2.39-.93h0v-.03h-.9v17.42h.9c.88,0,1.67-.32,2.39-.97.71-.64,1.28-1.64,1.68-2.99.41-1.34.61-2.89.61-4.82s-.21-3.54-.64-4.82c-.43-1.28-.98-2.24-1.66-2.86Z"/>
  <path class="cls-1" d="M83.2,71.48V28.52c0-6.46-5.26-11.72-11.72-11.72H28.52c-6.46,0-11.72,5.26-11.72,11.72v42.96c0,6.46,5.26,11.72,11.72,11.72h42.96c6.46,0,11.72-5.26,11.72-11.72ZM49.05,66.46h-8.47l-3.06-15.11-3.02,15.11h-8.3l-5.31-32.92h8.57l2.27,19.71,3.44-19.71h4.81l3.53,19.34,2.23-19.34h8.57l-5.27,32.92ZM64.69,66.46h-8.47v-32.92h10.02c2.4,0,4.57.66,6.53,1.97,1.96,1.31,3.5,3.22,4.64,5.71,1.13,2.5,1.7,5.43,1.7,8.65s-.56,6.1-1.7,8.65c-1.13,2.55-2.67,4.51-4.6,5.89-1.95,1.37-4.06,2.06-6.36,2.06h-1.76Z"/>
  <path class="cls-1" d="M70.59,8H29.41c-11.81,0-21.41,9.6-21.41,21.41v41.18c0,11.81,9.6,21.41,21.41,21.41h41.18c11.81,0,21.41-9.6,21.41-21.41V29.41c0-11.81-9.6-21.41-21.41-21.41ZM16.8,71.48V28.52c0-6.46,5.26-11.72,11.72-11.72h42.96c6.46,0,11.72,5.26,11.72,11.72v42.96c0,6.46-5.26,11.72-11.72,11.72H28.52c-6.46,0-11.72-5.26-11.72-11.72Z"/>
  <polygon class="cls-3" points="43.51 52.88 39.98 33.54 35.17 33.54 31.73 53.25 29.45 33.54 20.88 33.54 26.19 66.46 34.49 66.46 37.51 51.36 40.57 66.46 49.05 66.46 54.32 33.54 45.74 33.54 43.51 52.88"/>
  <path class="cls-3" d="M77.41,58.52c1.14-2.55,1.7-5.43,1.7-8.65s-.57-6.14-1.7-8.65c-1.14-2.49-2.68-4.4-4.64-5.71-1.96-1.31-4.13-1.97-6.53-1.97h-10.02v32.92h10.24c2.3,0,4.41-.69,6.36-2.06,1.93-1.38,3.47-3.34,4.6-5.89ZM69.66,54.83c-.4,1.35-.97,2.35-1.68,2.99-.71.65-1.5.97-2.39.97h-.9v-17.42h.9v.02h0c.9,0,1.7.32,2.39.93.68.61,1.23,1.58,1.66,2.86.43,1.28.64,2.89.64,4.82s-.2,3.48-.61,4.82Z"/>
</svg>