<?xml version="1.0" encoding="UTF-8"?>
<svg id="Layer_1" data-name="Layer 1" xmlns="http://www.w3.org/2000/svg" viewBox="0 0 100 100">
  <defs>
    <style>
      .cls-1 {
        fill: #fff;
      }

      .cls-2 {
        fill: #0052b3;
        stroke: #b3b3b3;
        stroke-linejoin: round;
        stroke-width: .25px;
      }
    </style>
  </defs>
  <g id="Blue_GA_Ice.svg">
    <g id="Layer_1-2" data-name="Layer 1-2">
      <g>
        <g>
          <rect class="cls-1" x="14.3" y="14.3" width="71.41" height="71.41" rx="14.22" ry="14.22"/>
          <path class="cls-2" d="M70.59,14.3c8.31,0,15.11,6.8,15.11,15.11v41.18c0,8.31-6.8,15.11-15.11,15.11H29.41c-8.31,0-15.11-6.8-15.11-15.11V29.41c0-8.31,6.8-15.11,15.11-15.11h41.18M70.59,8H29.41c-11.81,0-21.41,9.6-21.41,21.41v41.18c0,11.81,9.6,21.41,21.41,21.41h41.18c11.81,0,21.41-9.6,21.41-21.41V29.41c0-11.81-9.6-21.41-21.41-21.41h0Z"/>
        </g>
        <g>
          <path class="cls-2" d="M29.55,64.92c2.55,1.44,5.47,2.18,8.73,2.18,1.87,0,3.64-.24,5.31-.73,1.66-.49,2.9-1.09,3.72-1.81v-17.77h-11.83v7.53h3.77v4.62c-.32.06-.67.1-1.09.1-1.44,0-2.7-.39-3.76-1.16s-1.88-1.8-2.47-3.1-.89-2.79-.89-4.44.32-3.22.97-4.58c.65-1.36,1.58-2.42,2.79-3.18s2.63-1.14,4.27-1.14c1.33,0,2.59.24,3.76.7,1.19.47,2.31,1.17,3.4,2.11l-.04-9.52c-.97-.57-2.17-1.02-3.6-1.34-1.44-.32-2.88-.47-4.33-.47-3.24,0-6.13.76-8.67,2.27-2.56,1.52-4.54,3.58-5.96,6.19-1.42,2.62-2.13,5.51-2.13,8.67s.71,6.24,2.13,8.82c1.42,2.59,3.4,4.6,5.96,6.06h-.02Z"/>
          <path class="cls-2" d="M57.87,33.54l-8.7,32.92h9.25l1.34-5.71h8.08l1.32,5.71h9.39l-8.7-32.92h-11.97,0ZM66.23,53h-4.82l2.39-11.24,2.42,11.24s.01,0,.01,0Z"/>
        </g>
      </g>
    </g>
  </g>
</svg>