<?xml version="1.0" encoding="UTF-8"?>
<svg id="Layer_1" data-name="Layer 1" xmlns="http://www.w3.org/2000/svg" viewBox="0 0 100 100">
  <defs>
    <style>
      .cls-1 {
        fill: #fff;
      }

      .cls-2 {
        fill: #0052b3;
        stroke: #b3b3b3;
        stroke-linejoin: round;
        stroke-width: .25px;
      }

      .cls-3 {
        fill: #b3b3b3;
      }
    </style>
  </defs>
  <g id="Blue_GD_Fire.svg">
    <g id="Layer_1-2" data-name="Layer 1-2">
      <g>
        <rect class="cls-2" x="8" y="8" width="84" height="84" rx="21.41" ry="21.41"/>
        <g>
          <g>
            <path class="cls-1" d="M39.11,66.97c-3.23,0-6.15-.73-8.67-2.16-2.53-1.44-4.52-3.46-5.92-6-1.38-2.53-2.12-5.56-2.12-8.76s.71-6.05,2.12-8.62c1.41-2.58,3.4-4.64,5.92-6.14,2.51-1.49,5.41-2.25,8.62-2.25,1.45,0,2.9.16,4.3.47,1.37.3,2.55.73,3.5,1.28l.04,9.18c-1.05-.87-2.11-1.51-3.23-1.96-1.2-.47-2.49-.71-3.82-.71-1.64,0-3.1.39-4.33,1.15-.02.01-.04.03-.05.05-1.18.75-2.11,1.81-2.76,3.17-.66,1.36-.99,2.92-.99,4.63s.3,3.19.89,4.5c.59,1.32,1.41,2.36,2.51,3.16,1.07.78,2.37,1.18,3.85,1.18.38,0,.75-.03,1.1-.1.06-.01.1-.06.1-.12v-4.62c0-.07-.06-.12-.12-.12h-3.65v-7.27h11.59v17.59c-.8.69-1.98,1.27-3.63,1.75-1.63.48-3.4.72-5.27.72Z"/>
            <path class="cls-3" d="M39.06,33.16c1.44,0,2.88.16,4.27.47,1.33.29,2.47.7,3.4,1.23l.04,8.85c-.99-.8-2-1.39-3.06-1.81-1.22-.48-2.52-.72-3.86-.72-1.67,0-3.15.39-4.4,1.17-.03.02-.05.04-.07.06-1.2.76-2.13,1.84-2.78,3.21-.67,1.38-1,2.95-1,4.69s.3,3.22.9,4.55c.6,1.34,1.43,2.39,2.55,3.21,1.1.8,2.41,1.2,3.92,1.2.39,0,.77-.03,1.13-.1.12-.02.2-.13.2-.25v-4.62c0-.14-.11-.25-.25-.25h-3.52v-7.02h11.34v17.41c-.78.67-1.94,1.22-3.54,1.69-1.62.48-3.38.72-5.23.72-3.21,0-6.11-.72-8.6-2.15-2.51-1.43-4.49-3.43-5.87-5.96-1.38-2.51-2.1-5.52-2.1-8.7s.71-6,2.1-8.56c1.4-2.56,3.37-4.61,5.87-6.09,2.49-1.48,5.37-2.23,8.56-2.23M39.06,32.91c-3.23,0-6.13.75-8.68,2.27-2.55,1.51-4.54,3.58-5.96,6.19-1.42,2.61-2.13,5.5-2.13,8.68s.72,6.24,2.13,8.82,3.41,4.6,5.96,6.05c2.55,1.45,5.46,2.18,8.73,2.18,1.87,0,3.64-.24,5.3-.73,1.66-.49,2.9-1.08,3.72-1.82v-17.77h-11.84v7.52h3.77v4.62c-.32.06-.68.1-1.08.1-1.45,0-2.7-.38-3.77-1.16-1.06-.78-1.88-1.8-2.47-3.11-.59-1.3-.88-2.78-.88-4.45s.32-3.22.98-4.58c.64-1.36,1.57-2.42,2.79-3.17h-.04c1.21-.75,2.64-1.13,4.27-1.13,1.33,0,2.59.24,3.77.7,1.19.47,2.31,1.17,3.4,2.11l-.04-9.53c-.96-.57-2.17-1.02-3.6-1.33-1.43-.32-2.87-.47-4.33-.47h0Z"/>
          </g>
          <g>
            <path class="cls-1" d="M52.2,66.35v-32.67h11.52c2.79,0,5.31.66,7.49,1.97,2.19,1.31,3.93,3.22,5.16,5.66,1.24,2.45,1.87,5.33,1.87,8.56s-.64,6.14-1.89,8.63c-1.26,2.51-2.99,4.46-5.13,5.8-2.16,1.35-4.62,2.04-7.33,2.04h-11.69ZM61.23,41.68c-.07,0-.12.06-.12.12v16.5c0,.07.06.12.12.12h1.63c1.15,0,2.19-.3,3.11-.9.93-.6,1.67-1.54,2.2-2.8.54-1.25.81-2.8.81-4.72s-.27-3.45-.81-4.7c-.55-1.26-1.29-2.18-2.18-2.75-.92-.58-1.97-.88-3.13-.88-.02,0-.03,0-.04,0h-1.58Z"/>
            <path class="cls-3" d="M63.72,33.8c2.77,0,5.26.66,7.42,1.96,2.17,1.3,3.89,3.19,5.11,5.61,1.23,2.43,1.85,5.29,1.85,8.5s-.63,6.1-1.88,8.57c-1.25,2.49-2.96,4.42-5.08,5.75-2.17,1.36-4.54,2.02-7.26,2.02h-11.57v-32.42h11.4M62.8,41.56h-1.56c-.14,0-.25.11-.25.25v16.5c0,.14.11.25.25.25h1.63c1.17,0,2.24-.31,3.17-.92.95-.61,1.71-1.57,2.25-2.85.55-1.27.82-2.83.82-4.77s-.28-3.48-.82-4.75c-.56-1.28-1.31-2.22-2.23-2.81-.94-.6-2.01-.9-3.2-.9-.02,0-.04,0-.06,0M63.72,33.55h-11.65v32.92h9.16-.01,2.67c2.76,0,5.21-.69,7.39-2.06,2.18-1.37,3.9-3.33,5.17-5.85,1.27-2.53,1.9-5.42,1.9-8.68s-.63-6.14-1.88-8.62c-1.25-2.48-2.99-4.39-5.21-5.71-2.22-1.33-4.74-1.99-7.55-1.99h0ZM61.23,58.31v-16.5h1.63,0c1.14,0,2.17.28,3.07.85.9.57,1.6,1.48,2.13,2.7.53,1.23.8,2.78.8,4.65s-.26,3.43-.8,4.67c-.53,1.24-1.25,2.16-2.16,2.74-.9.59-1.92.88-3.04.88h-1.63Z"/>
          </g>
        </g>
      </g>
    </g>
  </g>
</svg>