<?xml version='1.0' encoding='UTF-8'?>
<svg xmlns="http://www.w3.org/2000/svg" xmlns:xlink="http://www.w3.org/1999/xlink" data-name="Layer 2" viewBox="0 0 452.28 805.93" preserveAspectRatio="xMidYMid meet">
  <defs>
    <style>
      .cls-1 {
        fill: #fff;
      }

      .cls-2 {
        fill: url(#linear-gradient);
      }
    </style>
    <linearGradient id="linear-gradient" x1="226.14" y1="805.93" x2="226.14" y2="0" gradientUnits="userSpaceOnUse">
      <stop offset=".05" stop-color="#639"/>
      <stop offset=".2" stop-color="#0052b3"/>
      <stop offset=".35" stop-color="#099"/>
      <stop offset=".5" stop-color="#093"/>
      <stop offset=".65" stop-color="#fa0"/>
      <stop offset=".8" stop-color="#ef6d22"/>
      <stop offset=".95" stop-color="#c33"/>
    </linearGradient>
  </defs>
  <g id="Layer_1-2" data-name="Layer 1">
    <g>
      <rect class="cls-2" width="452.28" height="805.93" fill="url(#linear-gradient)"/>
      <g>
        <rect class="cls-1" x="48.11" y="48.64" width="356.05" height="708.66" fill="#fff"/>
        <g>
          <path d="M48.11,757.3h356.05V48.64H48.11v708.66ZM226.14,751.61c-2.91,0-5.28-2.37-5.28-5.28s2.37-5.28,5.28-5.28,5.28,2.37,5.28,5.28-2.37,5.28-5.28,5.28ZM230.54,753.85c2.61-1.54,4.33-4.39,4.33-7.52,0-4.81-3.92-8.73-8.73-8.73s-8.73,3.91-8.73,8.73c0,3.13,1.72,5.99,4.33,7.52h-107.15c1.09-60.45,51.02-109.54,111.55-109.54s110.45,49.09,111.55,109.54h-107.15ZM226.14,54.33c2.91,0,5.28,2.37,5.28,5.28s-2.37,5.28-5.28,5.28-5.28-2.37-5.28-5.28,2.37-5.28,5.28-5.28ZM221.74,52.08c-2.61,1.54-4.33,4.39-4.33,7.53,0,4.81,3.91,8.73,8.73,8.73s8.73-3.91,8.73-8.73c0-3.13-1.72-5.99-4.33-7.53h107.15c-1.09,60.45-51.03,109.54-111.55,109.54s-110.45-49.09-111.55-109.54h107.15ZM51.56,52.08h59.59c.53,30.17,12.66,58.48,34.21,79.76,21.69,21.42,50.37,33.22,80.78,33.22s59.09-11.8,80.78-33.22c21.55-21.29,33.69-49.6,34.21-79.76h59.59v229.78H51.56V52.08ZM51.56,285.3h349.16v235.32H51.56v-235.32ZM51.56,524.07h349.16v229.78h-59.59c-.53-30.17-12.66-58.48-34.21-79.76-21.69-21.42-50.38-33.22-80.78-33.22s-59.09,11.8-80.78,33.22c-21.55,21.29-33.69,49.6-34.21,79.76h-59.59v-229.78Z"/>
          <path d="M226.14,388.46c-8,0-14.51,6.51-14.51,14.51s6.51,14.51,14.51,14.51,14.51-6.51,14.51-14.51-6.51-14.51-14.51-14.51ZM226.14,414.03c-6.1,0-11.06-4.96-11.06-11.06s4.96-11.06,11.06-11.06,11.06,4.96,11.06,11.06-4.96,11.06-11.06,11.06Z"/>
        </g>
      </g>
    </g>
  </g>
</svg>
