<?xml version="1.0" encoding="UTF-8"?>
<svg id="Layer_2" data-name="Layer 2" xmlns="http://www.w3.org/2000/svg" viewBox="0 0 373.54 512">
  <defs>
    <style>
      .cls-1 {
        stroke-width: 11.27px;
      }

      .cls-1, .cls-2 {
        fill: none;
        stroke: #001f2b;
        stroke-linecap: round;
        stroke-linejoin: round;
      }

      .cls-3 {
        fill: #639;
      }

      .cls-4 {
        fill: #093;
      }

      .cls-5 {
        fill: #ef6d22;
      }

      .cls-6 {
        fill: #fa0;
      }

      .cls-7 {
        fill: #0052b3;
      }

      .cls-8 {
        fill: #099;
      }

      .cls-2 {
        stroke-width: 9.47px;
      }

      .cls-9 {
        fill: #c33;
      }

      .cls-10 {
        fill: #80daec;
      }
    </style>
  </defs>
  <g id="Layer_1-2" data-name="Layer 1">
    <g>
      <g>
        <path class="cls-9" d="M304.98,379.57l-.38-.35-7.19-5.27-19-10.11-.44-.21c-.47-.25-.67-.85-.33-1.52l3.61-7.17c2.66.09,5.26-.08,8.25.49,16.66-10.06,33.97-23.71,39.8-42.01.52-1.64,1.19-5.19,1.19-6.14l.05-12.33c0-1.26-.9-3.87-.76-5.96-.71-1.37-1-3.52-1.19-5.91l-4.39,6.67c-3.9,5.92-11.89,11.75-12.75,7.36l-2.1-10.72-.38-1.8c-1.69-5.1-3.72-10.06-6.02-14.89l-2.96-6.21-1.61-4.35-.25-2.54c-.66-6.66-.93-9.6.9-17.27.05-.22-.33-.4-.06-.89.18-.33.4-.59.55-1.14l1.62-6c.18-.68.43-1.79.52-2.45l.8-6c.16-1.18.51-2.71.51-3.89l.06-11.94-.46-3.19-.61-2.82c-.97.67-1.44,1.37-1.99,2.41-4.5,8.52-12.4,15.26-21.88,16.91-13.6,2.36-25.2-5.71-29.34-18.47-6.66-20.54-1.14-39.43-25.41-64.25l-23.25-23.78c-8.03-8.22-14.74-17.03-20.22-26.99-1.82-3.31-2.74-6.61-5-9.51l-4.35,17.59-.47,2.46-1.81,12.46-.49,3.04-2.6,15.39c-.91,5.37-2.25,10.62-3.83,15.82l-1.79,5.92c-6.21,20.5-25.17,38.15-46.41,32.41-6.62-1.79-10.83-6.8-14.03-13.06-5,12.03-4.49,24.63-2.55,36.81.86,5.38.88,10.47.54,15.97-.04.68-.52,1.82-.6,2.55-.96,8.2-4.58,15.19-10.64,20.9-4.03,3.8-8.08,7.06-13.54,8.75l4.45,10.15c-4.32,4.94-11.18,5.78-17.28,3.05-7.11-3.18-11.81-9.26-15.04-16.19-.43-.93-.53-1.95-1.71-2.52l-3.36,11.94-.54,3.12-.8,9.19-.1,8.02c1.11,20.15,7.98,42.08,25.06,57.76,5.77,5.29,11.94,9.8,18.21,13.73l7.28-.3,5.76,11.48c-.2.08-.31.25-.26.43l-19.52,10.32-6.85,5.16-.38.29v.19s.02.03,0-.19c-.04-.12-.25-.16-.47-.13l-7.07-2.61c-32.45-16.96-52.81-50.03-53.97-86.54-.4-12.65.9-24.99,4.14-37.31,2.15-8.17,4.99-15.59,7.87-23.47,3.65-10.01,6.46-22.82,4.53-32.92l-3.99-20.94,12.61,8.36c7.62,5.05,13.1,12.3,16.69,20.68l4.29,10.02c1.45,3.38,4.66,6.96,8.76,6.79,3.88-.16,6.36-4.16,7.04-7.8.93-4.99.37-9.85-.78-14.88-4.21-18.5-3.75-36.25,3.3-54.02,5.9-14.86,19.04-28.58,20.93-38.79l4.23-22.94,11.72,17.57c8.46,14.76,4.1,31.16,7.18,40.58,1.19,3.65,4.37,7.27,8.58,6.87,11.86-1.11,14.16-19.15,14.43-30.75l.38-16.3c.88-38.11,21.97-67.67,52.94-88.87l10.05-6.88-2.87,25.81c-.53,25.6,14.33,43.59,32.08,60.41l8.02,7.6,4.35,3.81c14.73,12.9,26.3,29.35,27.43,49.02l.7,4.97-.05,14c-.01,4.15-.14,7.61.85,11.79,1.12,4.74,5.01,8.97,10.36,7.66,9.48-2.32,15.2-16.63,15.37-26.69l.24-13.96c.12-7.26,1.4-14.08,4.05-20.85l5.87-15.01,5,18.03c1.8,6.49,3.79,12.61,6.94,18.76l9.71,18.92c3.63,7.08,4.72,14.63,5.37,22.57,2.42,29.78-17.68,43.06-12.1,56.84,1.93,4.78,7.71,6.41,12.34,3.75,5.26-3.03,9.27-7.83,12.1-13.29l10.14-19.59,7.12,29.06c2.09,8.54,3.48,16.96,3.83,25.66l.45,4.55-.64,17.1c-3.21,34.15-24.05,63.61-54.27,79.98l-8.02,3.03Z"/>
        <path class="cls-8" d="M209.99,263.43l-2.08,13.15-.45,3.29-2.72,20.55-.42,3.25-.51,3.2c-.15.96-.3,2.62-.42,3.61l-1.66,13.3-.84,7.37c-.15,1.29-1.34,2.52-.33,4.2-.41,1.23-1.07,2.74-.51,4-1.08,2.15-.79,4.36-1.1,6.79l-.51,4.03-2.7,21-.5,4.28-1.6,15.94-.47,4.72-.47,4.62-.49,4.05-.5,4.52-.36,4.9c-.09,1.29-1.34,2.92-.22,4.48-.66,1.88-1.02,3.99-.38,5.88-1.64,1.36-.23,3.3-.68,4.41-.59,1.48-1.47,12.92-1.39,13.19.47,1.68-1.43,3.64-.33,5.81-.67,1.03-.81,2.52-.42,3.63-.95,1.73-.48,3.47-.65,5.36l-.5,5.5c-.42,4.65-.94,11.81.2,11.78,2.32-.08,4.24.56,6.24.16l-7.62,16.87-5.23-13.77c-4.65-12.25-10.91-23.56-17.9-34.84l-14.93-21.99-15.07,85.08h-.64s-19.39-99.53-19.39-99.53l-16.91,48.16-.81-.42-6.04-16.77-6.23-20.76c-3.35-11.17-7.25-21.83-12.41-32l10.63-.53c1.16-.03,1.99.16,3.32.22l9.31.38c3.15.13,6.21-.08,9.18.49l4.37-.18,14.68.99c1.38.09,2.89,0,4.53-.19l-20.2-15.35c-3.8-2.89-7.18-5.72-11.85-6.1-.05-.18.06-.34.26-.43-.2.08-.31.25-.26.43-.05-.18.06-.34.26-.43l-5.76-11.48-11.02-22.29c-1.28-2.59-2.77-4.87-3.35-7.5,2.38-.13,4.62.4,7.5-.64l23.25,7.14,10.55,3.48c.7.23,1.5.82,2.08.15l.82,2.69,12.29,32.14,1.63,4.23,7.36,18.47,14.15,15.26,12.27,13.52c.89-.8.51.4.95.51.27.06.46-.49.67-.75.09-.12-.17-.2-.64-.41l-.77-1.54-9.61-31.81c-4.76-15.75-8.53-31.19-11.96-47.28l-4.84-22.73-.1-.07-.09-.35c-.03-.25-.11-.48-.23-.7l-.13-.35c.23-.34-.17-.48-.28-.69l-.91-1.69.66-.58-.08-.39-3.03-19.82-3.78-29.51c2.02.29,4.31-.44,6.5.42-.38-1.61.7-3.36.07-4.32-.88-1.35-.32-2.45-.51-3.75l-.5-3.54c-.44-3.1-.97-7.13-.45-8.84l25.12,22.81,3.99,33.93.46,4.95,17.14,129.03,1.45,11.08c.84-1.73.83-3.23.84-4.62l.03-15.84-.57-8.97-3.15-26.18-8.47-63.87-.57-4.42-7.14-54.17c-.08-.6-.08-1.01-.54-1.48l6.63-12.2,13.77-26.13c.15.72.92.36,1.06.61l20.57,36.08c.64,1.13,1.17,2.15,2.43,2.12Z"/>
        <path class="cls-7" d="M243.79,236.86c.19,3.29-.36,6.59-.87,10.16l-6.54,45.43c0,7.17-2.7,13.5-4.21,20.12-.11.09-.11.24-.14.38l.43.5-.67,1.3-.28.34-.25,1.25.05.39-6.86,32.16c-4.38,20.53-9.44,40.46-15.91,60.07-.28.84,1.42,2.27-.1,1.9-.7-.17.26.49.21.69l-1.97,7.92c-.17.69.29,1.55-.09,2.55,2.86-2.18,4.32-4.54,6.28-7.04l21.97-27.96c1.22-1.55,2.08-2.66,2.7-4.46l3.14-9.05c.15-.42.09-.85.33-1.17.22-.3.3-.34.42-.69l9.8-27.96c1.02-2.91,1.57-5.78,2.81-8.61l5.24-11.93,1.35-3.28,4.27-10.82c.57-1.43,1.64-2.79,2.14-4.1l9.92-25.99c.05-1.12.71-3.55,2.37-2.85,1.99.15,3.69-.5,5.38-.03l11.28,34.89c1.04,3.21,1.97,6.17,1.58,9.3-1.47-.21-2.99.45-4.68-.21l-1.06.2c-.3.06-.07-.43-.5-1.21l-13.28,7.12,7.15.54c1.02.08.18,1.89.57,2.3.61.46.39,1.23.71,1.19l1.5-.17c1.97-.22,3.82-.37,5.5.58l-12.27,24.34-3.61,7.17c-.34.67-.14,1.27.33,1.52l.44.21-.44-.21c-.14.05-.78.55-.99.91-.15.26-.56-.33-1.16-.5l-5.75,2.61-5.66,3.94-24.86,15.99c4.15.5,8.49-.19,12.61-.48l11.6-.81,6.9-.52,16.8-1.25,4.61-.38,9.43.07c.72,0,1.27-.11,1.65.48l.18-.42-.18.42-26.77,61.26-16.79-38.8-20.53,99.43-.73.43-13.79-85.54-7.99,11.74c-9.18,13.48-16.74,27.52-23.38,42.21-1.99.39-3.92-.24-6.24-.16-1.15.04-.63-7.12-.2-11.78l.5-5.5c.17-1.89-.3-3.63.65-5.36-.39-1.11-.24-2.6.42-3.63-1.1-2.17.8-4.13.33-5.81-.08-.27.8-11.71,1.39-13.19.45-1.11-.96-3.05.68-4.41-.64-1.89-.28-4,.38-5.88-1.12-1.56.12-3.18.22-4.48l.36-4.9.5-4.52.49-4.05.47-4.62.47-4.72,1.6-15.94.5-4.28,2.7-21,.51-4.03c.31-2.43.02-4.64,1.1-6.79-.56-1.26.1-2.77.51-4-1.01-1.68.18-2.91.33-4.2l.84-7.37,1.66-13.3c.12-1,.27-2.66.42-3.61l.51-3.2.42-3.25,2.72-20.55.45-3.29,2.08-13.15c.19-1.2.82-1.67,1.89-2.71l2.61-2.54,23.4-21.34,5.92.02Z"/>
        <path class="cls-8" d="M278.41,363.84l19,10.11,7.19,5.27.38.35c-.02.11-.02.16-.03-.03l-1.63,3.72-.18.42c-.38-.59-.92-.48-1.65-.48l-9.43-.07-4.61.38-16.8,1.25-6.9.52-11.6.81c-4.13.29-8.46.98-12.61.48l24.86-15.99,5.66-3.94,5.75-2.61c.6.17,1.01.76,1.16.5.21-.36.85-.86.99-.91l.44.21Z"/>
        <path class="cls-10" d="M93.97,364.16c-.05-.18.06-.34.26-.43-.2.08-.31.25-.26.43,4.67.38,8.05,3.21,11.85,6.1l20.2,15.35c-1.64.18-3.15.28-4.53.19l-14.68-.99-4.37.18c-2.97-.57-6.02-.36-9.18-.49l-9.31-.38c-1.33-.05-2.16-.25-3.32-.22l-10.63.53-2.78-4.49c0,.14,0,.23,0,.19v-.19s.38-.29.38-.29l6.85-5.16,19.52-10.32Z"/>
        <path class="cls-5" d="M281.24,354.93l12.27-24.34c1.67-3.32,3.62-6.64,4.08-10.34.39-3.14-.54-6.09-1.58-9.3l-11.28-34.89-4.49-12.65-37.57,38.71c-3.57,3.68-7.28,6.61-9.8,10.66l-.71-.21c1.51-6.62,4.21-12.94,4.21-20.12l6.54-45.43c.51-3.58,1.06-6.87.87-10.16-.17-2.93-1.95-5.35-3.49-7.89l-6.35-10.45-38.71-65.45-8.45-15.66-6.16,11.52-45.81,77.32c-2.85,3.7-4.64,7.37-5.54,11.74l2.57,22.75,3.78,29.51,3.03,19.82-.77.63-3.67-4.55-26.05-26.03-.32-.32-15.52-15.56-3.77,9.56-13.97,42.56c-.69,2.09-.86,4.34-.47,6.12.58,2.63,2.07,4.91,3.35,7.5l11.02,22.29-7.28.3c-6.26-3.93-12.44-8.44-18.21-13.73-17.09-15.68-23.95-37.62-25.06-57.76l.1-8.02.8-9.19.54-3.12,3.36-11.94c1.18.57,1.28,1.59,1.71,2.52,3.22,6.93,7.93,13.01,15.04,16.19,6.1,2.73,12.96,1.89,17.28-3.05l-4.45-10.15c5.46-1.69,9.5-4.95,13.54-8.75,6.07-5.72,9.68-12.7,10.64-20.9.09-.73.56-1.87.6-2.55.34-5.5.32-10.58-.54-15.97-1.94-12.18-2.45-24.78,2.55-36.81,3.2,6.26,7.42,11.27,14.03,13.06,21.25,5.75,40.2-11.9,46.41-32.41l1.79-5.92c1.57-5.2,2.92-10.44,3.83-15.82l2.6-15.39.49-3.04,1.81-12.46.47-2.46,4.35-17.59c2.26,2.9,3.18,6.2,5,9.51,5.48,9.96,12.19,18.77,20.22,26.99l23.25,23.78c24.27,24.82,18.75,43.71,25.41,64.25,4.14,12.76,15.74,20.82,29.34,18.47,9.48-1.64,17.37-8.38,21.88-16.91.55-1.04,1.03-1.74,1.99-2.41l.61,2.82.46,3.19-.06,11.94c0,1.18-.36,2.71-.51,3.89l-.8,6c-.09.66-.33,1.77-.52,2.45l-1.62,6c-.15.56-.37.82-.55,1.14-.27.49.12.67.06.89-1.83,7.67-1.56,10.61-.9,17.27l.25,2.54,1.61,4.35,2.96,6.21c2.3,4.83,4.33,9.79,6.02,14.89l.38,1.8,2.1,10.72c.86,4.39,8.85-1.44,12.75-7.36l4.39-6.67c.19,2.39.48,4.54,1.19,5.91-.14,2.08.76,4.7.76,5.96l-.05,12.33c0,.96-.67,4.51-1.19,6.14-5.84,18.3-23.15,31.95-39.8,42.01-3-.57-5.6-.4-8.25-.49Z"/>
        <path class="cls-7" d="M108.15,280.1l26.05,26.03,3.67,4.55.77-.63.08.39-.66.58.91,1.69c.11.21.52.35.28.69l.13.35c.12.22.2.45.23.7l.09.35.1.07,4.84,22.73c3.43,16.09,7.2,31.53,11.96,47.28l9.61,31.81.77,1.54c.47.21.73.29.64.41-.21.26-.4.81-.67.75-.44-.11-.05-1.31-.95-.51l-12.27-13.52-14.15-15.26-7.36-18.47-1.63-4.23-12.29-32.14-.82-2.69-18.84-50.95c-.28-.77-.59-.92-.22-1.37.3-.37,5.78.53,9.42-.48l.32.32Z"/>
        <path class="cls-4" d="M108.15,280.1l-.32-.32c-3.64,1.01-9.11.11-9.42.48-.37.45-.06.61.22,1.37l18.84,50.95c-.57.66-1.38.08-2.08-.15l-10.55-3.48-23.25-7.14c-2.89,1.04-5.12.51-7.5.64-.39-1.78-.22-4.03.47-6.12l13.97-42.56,3.77-9.56,15.52,15.56.32.32Z"/>
        <path class="cls-4" d="M165.51,262.95c.46.46.46.88.54,1.48l7.14,54.17.57,4.42,8.47,63.87,3.15,26.18.57,8.97-.03,15.84c0,1.4,0,2.89-.84,4.62l-1.45-11.08-17.14-129.03-.46-4.95-3.99-33.93c.33.18.54-.8,1.27-.18l.95-.59c.39.31.81.29,1.24.2Z"/>
        <path class="cls-8" d="M232.17,312.57l.71.21c2.52-4.05,6.23-6.99,9.8-10.66l37.57-38.71,4.49,12.65c-1.69-.47-3.39.18-5.38.03-1.66-.7-2.32,1.73-2.37,2.85l-9.92,25.99c-.5,1.31-1.58,2.67-2.14,4.1l-4.27,10.82-1.35,3.28-5.24,11.93c-1.24,2.83-1.79,5.7-2.81,8.61l-9.8,27.96c-.12.35-.2.39-.42.69-.24.33-.19.75-.33,1.17l-3.14,9.05c-.62,1.8-1.48,2.91-2.7,4.46l-21.97,27.96c-1.96,2.5-3.42,4.86-6.28,7.04.38-1-.08-1.86.09-2.55l1.97-7.92c.05-.19-.91-.86-.21-.69,1.52.37-.17-1.06.1-1.9,6.47-19.61,11.53-39.54,15.91-60.07l6.86-32.16-.05-.39.25-1.25.28-.34.67-1.3-.43-.5c.03-.14.03-.29.14-.38Z"/>
        <path class="cls-8" d="M195.23,153.06l38.71,65.45,6.35,10.45c1.55,2.55,3.33,4.96,3.49,7.89l-5.92-.02-23.4,21.34c-.22-.45-.8-.49-1.06-.86-9.04-13.06-17.29-26.4-25.57-40.27l-.03-63.52c0-.58.81-.95.82-.7.05.87,3.07-.04,6.59.23Z"/>
        <path class="cls-3" d="M297.59,320.26c-.46,3.69-2.41,7.02-4.08,10.34-1.68-.96-3.53-.81-5.5-.58l-1.5.17c-.32.04-.1-.73-.71-1.19-.38-.41.45-2.22-.57-2.3l-7.15-.54,13.28-7.12c.43.78.2,1.27.5,1.21l1.06-.2c1.69.66,3.21,0,4.68.21Z"/>
        <g>
          <path class="cls-6" d="M195.23,153.06c-3.53-.27-6.54.64-6.59-.23-.01-.25-.82.12-.82.7l.03,63.52c8.28,13.87,16.53,27.21,25.57,40.27.26.37.83.41,1.06.86l-2.61,2.54c-1.07,1.04-1.7,1.51-1.89,2.71-1.25.03-1.78-.99-2.43-2.12l-20.57-36.08c-.14-.25-.92.11-1.06-.61l-13.77,26.13-6.63,12.2c-.43.08-.85.11-1.24-.2l-.95.59c-.72-.62-.94.36-1.27.18l-25.12-22.81c-.51,1.71.02,5.73.45,8.84l.5,3.54c.18,1.3-.38,2.4.51,3.75.63.96-.45,2.71-.07,4.32-2.19-.86-4.48-.13-6.5-.42l-2.57-22.75c.9-4.37,2.7-8.04,5.54-11.74l45.81-77.32,6.16-11.52,8.45,15.66Z"/>
          <path class="cls-4" d="M184.63,217.81l-8.58,16.8c-1.06,1.49-1.76,3.26-2.5,4.98l-10.62,20.02-23.47-22.99,29.92-48.9,16.14-25.76c0,2.31-.65,4.63.03,6.75.43,1.34-.12,2.31-.15,3.43l-.42,17.89c-.02.96-.25,2.15-.06,2.89l-.29,24.88Z"/>
        </g>
      </g>
      <g>
        <path class="cls-1" d="M231.21,316.62l.05-.28.25-1.25.52-2.14c.03-.14.03-.29.14-.38,1.51-6.62,4.21-12.94,4.21-20.12l6.54-45.43c.51-3.58,1.06-6.87.87-10.16-.17-2.93-1.95-5.35-3.49-7.89l-6.35-10.45-38.71-65.45-8.45-15.66-6.16,11.52-45.81,77.32c-2.85,3.7-4.64,7.37-5.54,11.74l2.57,22.75,3.78,29.51,3.03,19.82.08.39,1.09,4.44,4.84,22.73c3.43,16.09,7.2,31.53,11.96,47.28l9.61,31.81"/>
        <path class="cls-1" d="M67.22,379.93l-.47-.12-7.07-2.61c-32.45-16.96-52.81-50.03-53.97-86.54-.4-12.65.9-24.99,4.14-37.31,2.15-8.17,4.99-15.59,7.87-23.47,3.65-10.01,6.46-22.82,4.53-32.92l-3.99-20.94,12.61,8.36c7.62,5.05,13.1,12.3,16.69,20.68l4.29,10.02c1.45,3.38,4.66,6.96,8.76,6.79,3.88-.16,6.36-4.16,7.04-7.8.93-4.99.37-9.85-.78-14.88-4.21-18.5-3.75-36.25,3.3-54.02,5.9-14.86,19.04-28.58,20.93-38.79l4.23-22.94,11.72,17.57c8.46,14.76,4.1,31.16,7.18,40.58,1.19,3.65,4.37,7.27,8.58,6.87,11.86-1.11,14.16-19.15,14.43-30.75l.38-16.3c.88-38.11,21.97-67.67,52.94-88.87l10.05-6.88-2.87,25.81c-.53,25.6,14.33,43.59,32.08,60.41l8.02,7.6,4.35,3.81c14.73,12.9,26.3,29.35,27.43,49.02l.7,4.97-.05,14c-.01,4.15-.14,7.61.85,11.79,1.12,4.74,5.01,8.97,10.36,7.66,9.48-2.32,15.2-16.63,15.37-26.69l.24-13.96c.12-7.26,1.4-14.08,4.05-20.85l5.87-15.01,5,18.03c1.8,6.49,3.79,12.61,6.94,18.76l9.71,18.92c3.63,7.08,4.72,14.63,5.37,22.57,2.42,29.78-17.68,43.06-12.1,56.84,1.93,4.78,7.71,6.41,12.34,3.75,5.26-3.03,9.27-7.83,12.1-13.29l10.14-19.59,7.12,29.06c2.09,8.54,3.48,16.96,3.83,25.66l.45,4.55-.64,17.1c-3.21,34.15-24.05,63.61-54.27,79.98l-8.02,3.03"/>
        <path class="cls-1" d="M208.54,408.97c6.47-19.61,11.53-39.54,15.91-60.07l6.86-32.16c.14-.65.15-1.33.48-1.98l.67-1.3.41-.67c2.52-4.05,6.23-6.99,9.8-10.66l37.57-38.71,4.49,12.65,11.28,34.89c1.04,3.21,1.97,6.17,1.58,9.3-.46,3.69-2.41,7.02-4.08,10.34l-12.27,24.34-3.61,7.17c-.34.67-.14,1.27.33,1.52l.44.21,19,10.11,7.19,5.27.36.32"/>
        <path class="cls-1" d="M139.71,314.82l-.09-.35-.23-.7-.13-.35-.28-.69-.91-1.69-.2-.35-3.67-4.55-26.05-26.03-.32-.32-15.52-15.56-3.77,9.56-13.97,42.56c-.69,2.09-.86,4.34-.47,6.12.58,2.63,2.07,4.91,3.35,7.5l11.02,22.29,5.76,11.48c-.2.08-.31.25-.26.43l-19.52,10.32-6.85,5.16-.38.48"/>
        <path class="cls-2" d="M304.95,379.54l-1.63,3.72-.18.42-26.77,61.26-16.79-38.8-20.53,99.43-.42,1.71c-.27-.39-.24-.85-.31-1.28l-13.79-85.54-7.99,11.74c-9.18,13.48-16.74,27.52-23.38,42.21l-7.62,16.87-5.23-13.77c-4.65-12.25-10.91-23.56-17.9-34.84l-14.93-21.99-15.07,85.08-.14.84c-.04.25-.21.52-.27.27l-.24-1.1-19.39-99.53-16.91,48.16c-.05.16-.19.4-.32.33-.23-.13-.47-.63-.49-.75l-6.04-16.77-6.23-20.76c-3.35-11.17-7.25-21.83-12.41-32l-2.78-4.49"/>
      </g>
    </g>
  </g>
</svg>