<?xml version="1.0" encoding="UTF-8"?>
<svg id="Layer_2" data-name="Layer 2" xmlns="http://www.w3.org/2000/svg" xmlns:xlink="http://www.w3.org/1999/xlink" viewBox="0 0 403.64 512">
  <defs>
    <style>
      .cls-1 {
        fill: url(#linear-gradient-2);
      }

      .cls-2 {
        fill: #095699;
      }

      .cls-3 {
        fill: #639;
      }

      .cls-4 {
        fill: #3469b6;
      }

      .cls-5 {
        fill: #1f6e5d;
      }

      .cls-6 {
        fill: #807cdb;
      }

      .cls-7 {
        fill: url(#linear-gradient-4);
      }

      .cls-8 {
        fill: #0c7886;
      }

      .cls-9 {
        fill: #279350;
      }

      .cls-10 {
        fill: url(#linear-gradient-3);
      }

      .cls-11 {
        fill: url(#linear-gradient-5);
      }

      .cls-12 {
        fill: #6669bb;
      }

      .cls-13 {
        fill: #093;
      }

      .cls-14 {
        fill: #348eb4;
      }

      .cls-15 {
        fill: #6a7247;
      }

      .cls-16 {
        fill: #ef6d22;
      }

      .cls-17 {
        fill: #fa0;
      }

      .cls-18 {
        fill: #0052b3;
      }

      .cls-19 {
        fill: #7ac2bf;
      }

      .cls-20 {
        fill: #3596ad;
      }

      .cls-21 {
        fill: #5447a8;
      }

      .cls-22 {
        fill: #3495d4;
      }

      .cls-23 {
        fill: #099;
      }

      .cls-24 {
        fill: #c33;
      }

      .cls-25 {
        fill: url(#linear-gradient);
      }

      .cls-26 {
        fill: #80daec;
      }

      .cls-27 {
        fill: #094599;
      }

      .cls-28 {
        fill: #b2e0d0;
      }
    </style>
    <linearGradient id="linear-gradient" x1="279.54" y1="85.48" x2="193.03" y2="349.03" gradientUnits="userSpaceOnUse">
      <stop offset=".27" stop-color="#e87719"/>
      <stop offset="1" stop-color="#df4728"/>
    </linearGradient>
    <linearGradient id="linear-gradient-2" x1="181.95" y1="283.02" x2="187.26" y2="384.08" gradientUnits="userSpaceOnUse">
      <stop offset="0" stop-color="#53b8b8"/>
      <stop offset="1" stop-color="#2b9db1"/>
    </linearGradient>
    <linearGradient id="linear-gradient-3" x1="210.4" y1="104.13" x2="214.53" y2="308.67" gradientUnits="userSpaceOnUse">
      <stop offset="0" stop-color="#efc802"/>
      <stop offset="1" stop-color="#ec930d"/>
    </linearGradient>
    <linearGradient id="linear-gradient-4" x1="184.91" y1="147.01" x2="171.23" y2="319.74" gradientUnits="userSpaceOnUse">
      <stop offset="0" stop-color="#6fb631"/>
      <stop offset="1" stop-color="#0d896b"/>
    </linearGradient>
    <linearGradient id="linear-gradient-5" x1="296.13" y1="259.76" x2="296" y2="318" gradientUnits="userSpaceOnUse">
      <stop offset="0" stop-color="#159640"/>
      <stop offset="1" stop-color="#0f8b63"/>
    </linearGradient>
  </defs>
  <g id="Layer_1-2" data-name="Layer 1">
    <g>
      <path class="cls-24" d="M282.6,428.86c1.84,1.41,2.15,3.28,2.73,5.47l3.27,12.29,8.48-31.05,1.34-3.17c.22.17.77.05,1.03-.22.2-.2.4-.4.5-.68.55-.08.91.35.76.52-2.46,2.94-4.09,6.35-3.84,10.81-.98.27-.99.7-1.31.91-.61.4.28,2.33.75,2.07,6.99-3.94,13.86-6.61,21.48-8.76,16.82-4.75,32.61-12.45,44.75-25.77-8.95.7-16.74-.11-22.03-6.05-7.56-8.49-7.98-19.77-2.17-29.13,3.38-5.44,7.08-10.05,11.51-14.72,22.43-23.6,32.44-43.63,32.69-77.51.08-10.64-.85-20.75-4.33-30.62-2.61,4.72-4.43,9.64-8.46,12.77-7.04,5.46-16.05,7.75-24.46,4.46-12.94-5.06-13.18-22.42-8.39-36.16l5.34-15.32c6.7-19.21,3.92-40.59-7.06-57.6l-3.01-3.42c3.47,22.2-11.66,46.42-30.18,57.14l-11.87,6.87c.53-17.6-3.29-34.5-12.51-48.86-5.32-8.29-11.88-14.71-19.3-20.84l-17.15-14.19c-23.54-19.47-42.1-45.87-36.27-77.83-2.67.38-3.51,1.96-4.95,3.38l-13.87,13.7c-11.81,13.8-18.57,30.2-20.28,48.29l-.31,22.13c-.15,10.48-3.4,20.5-9.75,29.1-8.91,12.07-27.89,19.72-42.1,10.05-13.54-9.22-15.64-26.58-13.1-43.09l-7.99,11.27c-8.66,16.25-10.25,34.97-5.79,52.99,2.23,9.01,5.33,17.02,6.33,26.27,1.81,16.89-2.51,35.74-16.33,45.24-8.29,5.71-18.32,4.22-24.57-3.66-3.67-4.63-4.58-10.38-6.37-16.97-5.9,15.77-5.29,32.6-.59,48.84,9.2,31.78,26.24,39.87,35.48,58.27,1.37,2.73,1.84,5.51,2.43,8.02,1.89,8.07.02,16.99-6.4,22.83-5.27,4.8-11.95,5.84-19.7,6.2,6,8.51,14.45,13.64,23.83,16.86l18.39,6.33c5.99,2.06,11.45,5.05,16.32,9.14l6.05,4.94,2.99,13.84,1.73,10.09c.59,3.44,1.76,6.49.74,9.71-6.11-11.85-12.44-21.01-25.29-25.46l-16.76-5.81c-32.59-11.29-55.64-44.64-57.33-79.55,6.12,6.12,8.81,12.81,15.08,16.97,3.37,3.47,7.64,5.76,12.59,4.98,2.82-.44,4.75-2.31,4.62-5.26-.15-3.37-1.13-6.77-3.46-9.17l-16.07-16.58c-16.94-19.72-23.84-46.24-17.95-71.69l4.72-20.43c2.1-9.07,3.2-18.2,2.35-27.43-.8-8.71-5.01-16.01-12.81-21.7,14.65-4.34,30.29,7.55,35.5,20.92l6.54,16.78c1.13,2.9,4.69,6.85,8.29,5.68,9.18-2.98,11.13-18.37,8.45-29.9l-5.09-21.94c-5.12-22.06-1.52-44.49,11.14-63.3,5.99-8.9,12.32-16.96,20.38-24.01,7.41-6.47,14.38-12.75,23.8-17.43l-6.92,16.7c-4.8,11.57-7.01,27.82-1.03,38.68,2.26,4.11,5.99,6.68,10.1,7.03,4.74.41,9.1-1.73,12.14-5.59,10.58-13.41,6.8-47.04,16.78-69.75C170.05,36.69,196.48,13.98,226.88,0c-4.35,13.05-7.92,24.09-6.41,36.71,1.34,14.03,7.58,26.13,16.26,37.14,8.75,10.29,18.84,18.33,29.63,26.32,23.76,16.94,38.09,34.61,37.45,65.83,13.37-11.34,17-29.14,12.8-45.5l-3.97-15.45c-1.43-9.26-.09-19.02,6.31-26.61.5,11.35,3.76,20.95,11,28.87l15.93,17.43c15.65,17.12,20.76,43.89,14.56,66.28l-5.83,21.09c-2.13,7.71-.66,15.76,4.8,16.89,12.35,2.56,10.42-23.27,16.54-36.99,3.77-8.46,9.89-15.61,19.08-18.91-.01,2.61-1.36,4.86-2.36,7.15-5.93,13.52-1.77,30.11,1.97,44.99l5.14,20.44c4.43,17.64,5.43,35.92,1.07,53.51-2.9,11.7-8.62,21.82-15.67,31.6l-19.21,22.3c-4.82,5.59-11.5,12.4-6.66,18.41,3.3,4.1,9.01,3.05,14.25-.67,7.64-5.42,11.51-13.12,16.93-21.13-.14,40.22-22.11,75.57-59.37,87.93l-23.55,7.81c-18.17,6.03-30.6,18.43-40.8,35.34-2.2-1.48-.67-3.42-.38-5.14,2.73-16.3,7.45-31.62,15.15-46.05.25-.46.61-.66,1.08-.75Z"/>
      <path class="cls-3" d="M257.79,262.45c-.36,2.37-.89,5.09-.6,7.94.22,2.16-1.17,4.11-1.26,5.8-.27,4.98-1.79,15.18-2.89,18.38s.5,6.88-1.28,9.95l-1.01,7.45c-1.77,2.97-.47,6.27-1.21,9.31-.58,2.39-.89,4.04-1.29,6.72l-.84,9.05-7.86,49.23c-.35,2.17-.66,4.19-1.02,6.55l-1.44,9.5c-.39,2.56-1.12,5.29-1.54,7.79-.61,3.6-.2,6.52-1.37,10.03-.96,2.87-.03,6.74-1.8,9.64-1.79.87-1.63,3.57-1.99,5.12l-17.83,75.75c-.67-.11-.72-.57-.68-1.5l.07-81.47v-2.92c1-.34.81-1.7.98-2.75l9.77-59.89,13.84-85.92,18.33-12.36c1.03-.7,1.84-1.44,2.92-1.37Z"/>
      <path class="cls-27" d="M202.67,380.4l6.58,38.45,2.69,8.82-.07,81.47c-.04.93.02,1.39.68,1.5-.12.5-.34,1.36-1.34,1.37l-15.07-57.55-5.63-18.84c-.17.09-.49.53-.61,1.15l-7.9-6.22-38.47-31.79c-.52-.38-.57-.98-.34-1.5.43-.98.31-2.06.34-3.09l.88-24.38,30.87,41.91,9.94,13.77c.47.65,2.54-.15,3.07-.75.43-.49.54-1.68.71-2.69l10.47-60.89,3.2,19.25Z"/>
      <path class="cls-3" d="M302.98,398.05l3.24.23c-.25.43-.11,1.38-.78,1.59-.33.11-.54.15-1.2.59l-24.07,16.03-7.75,5.38c-1.49,1.03-1.74,1.34-2.26,2.72-1.82-.37-2.6.65-3.76,1.4l-11.12,7.25,1.03,13.98.5,2.2c-.58,10.61-2.57,20.49-4.73,30.17l-3.28-14.7c-.58-2.59-3.11-7.16-6.11-6.67-4.75,2.69-6.33,8.44-8.49,12.82-4.17,8.46-6.79,17.13-12.6,25.58l10.18-61.91c.46-2.8,3.1-5.33,5.43-7.24l15.37-12.59c-.02.88.76,1.55,1.58,1.21l12.86-5.33,22.28-8.35c1.13-.42,3.03.04,4.26-1.05.91-.81,3.59.31,4.24-2.12-3.35-1.27-5.86-.16-4.78-1.88l9.96.7Z"/>
      <path class="cls-12" d="M143.53,398.75l38.47,31.79,7.9,6.22,1.17,6.89,9.4,45.81c-1.81-.23-2.23-1.72-3.01-2.98l-20.22-32.79c-.62-1.01-1.94-1.58-2.8-1.41-2.66.52-6.07,5.94-7.18,10.11l-2.53,9.5c-.8,0-.98-.54-.8-1.24l.28-9.87.76-7.24c.46-4.34.91-8.98,4.99-12.05-4.13-4.79-8.96-7.57-13.94-11.11l-39.96-28.84c-.13-.6-.28-1.33.1-1.71,1.57.04,2.38-.17,3.14-.4.03.1.12.39.27.61,8.47.58,16.11-.83,23.96-1.27Z"/>
      <path class="cls-14" d="M164.74,471.89l-3.87,17.44c-.19.84-1.27.95-1.63.72s-.57-.5-.71-1.2l-8.7-41.3c-1.43-6.77-4.91-17.54-8.9-17.19-5.8.5-7.93,32.53-9.43,33.79-.35.29-1.51-.16-1.76-1.02l-2.65-9.09c1.02-3.22-.15-6.27-.74-9.71l-1.73-10.09-2.99-13.84-1.59-5.89c-1.74-6.45-4.64-10.44-5.31-12.9l1.34-.08,39.96,28.84c4.98,3.54,9.81,6.32,13.94,11.11-4.08,3.06-4.53,7.71-4.99,12.05l-.76,7.24-.28,9.87c-.17.71,0,1.24.8,1.24ZM124.65,415.17l5.39,28.59c2.27-10.89-.19-19.62-5.39-28.59ZM158.56,450.23c-.57-6.21-1.63-12.13-5.84-17.01l6.44,36.72c1.03-6.77.02-13.03-.6-19.71Z"/>
      <path class="cls-20" d="M304.23,400.47c-.21.67-.31,1.77-.56,2.41-2.06,3.26-3.87,6.25-5.25,9.52l-1.34,3.17-8.48,31.05-3.27-12.29c-.58-2.19-.88-4.06-2.73-5.47-.93-.71-1.68-2.01-3.25-1.59-5.69,1.54-10.5,15.27-12.4,23.42l-2.32,9.96-8.18,37.97c-2.94-6.52-3.01-12.96-4.36-19.02,2.16-9.68,4.15-19.56,4.73-30.17l-.5-2.2,1.63-.71c-.45,3.79.42,7.73,1.87,11.33,2.16-12.2,6.29-22.66,10.35-33.26.53-1.38.78-1.69,2.26-2.72l7.75-5.38,24.07-16.03Z"/>
      <path class="cls-20" d="M277.12,388.49c-.03,2.06-1.29,4.34-.48,6.41.08.2.08.47-.11.57l-23.95,19.41-15.37,12.59c-2.33,1.91-4.97,4.43-5.43,7.24-.5-.09-.88-.02-1.39.17.37-1.55.2-4.25,1.99-5.12,1.12-.54,1.05-1.32,1.81-2.39l17.86-25.13,24.45-34.44.88.38-.25,20.31Z"/>
      <path class="cls-23" d="M133.4,40.07c4.51-1.64,9.1,1.06,10.46,5.27s-.85,8.97-5.61,10.48c-3.6,1.14-8.33-.82-9.94-4.93s.21-9.06,5.09-10.82Z"/>
      <path class="cls-16" d="M6.86,313.71c4.82-.75,8.56,2.44,9.34,6.64.83,4.44-2.18,8.75-6.35,9.64-4.44.94-8.65-2.14-9.6-6.18-1.12-4.77,1.71-9.34,6.61-10.1Z"/>
      <path class="cls-27" d="M46.63,164.44c4.35-1.94,9.13.23,10.8,4.3,1.61,3.93,0,8.62-4.01,10.48s-8.5.12-10.42-3.27c-2.34-4.15-.99-9.45,3.62-11.51Z"/>
      <path class="cls-18" d="M250.04,16.51c2.94-.95,5.95.97,6.87,3.82s-.76,5.92-4.18,7.15c-2.53.91-5.66-.75-6.83-4.11-.84-2.4.95-5.84,4.14-6.87Z"/>
      <path class="cls-3" d="M390.35,142.74c3.04-1.88,6.22-.71,7.79,2.07,1.39,2.45.61,6.02-1.76,7.55-2.66,1.71-5.91.87-7.42-1.17-2.06-2.76-1.72-6.54,1.39-8.45Z"/>
      <path class="cls-27" d="M41.9,132.43c2.93-1.36,5.8.02,7.17,2.77s.18,5.93-2.5,7.38c-2.87,1.54-6.08.13-7.52-2.57-1.51-2.83-.2-6.16,2.85-7.58Z"/>
      <path class="cls-25" d="M299.95,411.49c6.97-5.93,15.35-9.16,24.04-12.22l9.87-3.48c.56-1.33-1.74-1.36-2.43-1.58-7.42-2.37-11.77-8.54-13.99-15.31l13.98-24.04c1.24-2.14,2.91-4.21,2.89-6.53,0-.37.07-.8-.26-1.52l-11.47,3.97c-.31-.23-.52-.38-.49-.46,1.7-4.4,4.36-7.94,7.07-11.46.46-.59.82-1.98,1.88-2.47,2.09-.98,2.66-3.2,4.1-4.61,6.68-6.57,12.89-12.73,18.08-20.58,9.52-14.37,14.23-31.09,14.99-49.09-9.92,8.17-22.26,8.27-31.86.17-6.7-5.65-10.4-13.46-12.83-21.99-3.64-13.32-1.62-27.08,4.34-39.79,2.99-6.37,5.75-12.27,4.65-19.84l-2.26,4.97c-1.29,2.84-2.68,5.82-4.94,8.04l-9.5,9.34-9.04,7.34c-8.81,7.15-13.09,18-14.24,29.53l-3.09-4.99c-2.03-3.27-6.44-5.31-10.52-5.88l-4.91,1.01c4.75-25.05.84-50.23-15.86-69.27l-11.55-11.57-22.75-18.91-14.79-14.94c-8.47-10.06-13.07-21.77-12.61-34.88-9.24,11.33-14.2,24.94-14.75,39.47l-.67,17.68c-.45,11.96-5.55,22.79-13.85,31.33l-17.9,18.4c-11.24,11.56-16.23,23.86-19.27,40.58-3.66-13.24-9.7-24.37-18.86-34.3-5.53-6-10.22-12.5-12.53-20.13-2.92,15.03,8.26,25.94,7.27,43.52l-.61,10.98c-3.12,16.13-9.27,31.51-19.21,44.68-3.1,4.1-8.37,6.65-13.07,8.1s-8.83-.33-13.7-2.65c2.47,19.25,11.62,35.94,24.06,50.04l5.96,6.76c4.06,4.6,8.29,8.75,10.35,14.95.19.56.41,1.1.2,1.69s-.95.68-1.75.67l-8.4-2.75-2.94-2.18c-2.46,1.23-1.34,3.1-.91,4.61-.39-.29-1.93-.17-1.9.68.03.97-.22,1.44-.82,1.52-.59-2.51-1.06-5.29-2.43-8.02-9.23-18.4-26.28-26.48-35.48-58.27-4.7-16.24-5.31-33.08.59-48.84,1.79,6.6,2.69,12.34,6.37,16.97,6.26,7.88,16.28,9.37,24.57,3.66,13.81-9.51,18.14-28.36,16.33-45.24-.99-9.25-4.1-17.27-6.33-26.27-4.46-18.01-2.86-36.74,5.79-52.99l7.99-11.27c-2.54,16.51-.44,33.87,13.1,43.09,14.21,9.67,33.19,2.02,42.1-10.05,6.35-8.6,9.61-18.62,9.75-29.1l.31-22.13c1.72-18.09,8.48-34.49,20.28-48.29l13.87-13.7c1.44-1.43,2.28-3.01,4.95-3.38-5.83,31.96,12.73,58.36,36.27,77.83l17.15,14.19c7.41,6.13,13.97,12.55,19.3,20.84,9.22,14.36,13.04,31.26,12.51,48.86l11.87-6.87c18.52-10.72,33.65-34.94,30.18-57.14l3.01,3.42c10.97,17.01,13.75,38.39,7.06,57.6l-5.34,15.32c-4.79,13.74-4.55,31.09,8.39,36.16,8.41,3.29,17.41,1,24.46-4.46,4.03-3.12,5.85-8.05,8.46-12.77,3.47,9.87,4.41,19.98,4.33,30.62-.25,33.88-10.26,53.91-32.69,77.51-4.44,4.67-8.13,9.28-11.51,14.72-5.82,9.36-5.4,20.65,2.17,29.13,5.29,5.93,13.08,6.75,22.03,6.05-12.14,13.33-27.93,21.02-44.75,25.77-7.62,2.15-14.49,4.82-21.48,8.76-.47.27-1.36-1.66-.75-2.07.31-.21.32-.64,1.31-.91-.25-4.46,1.37-7.87,3.84-10.81.15-.18-.21-.61-.76-.52Z"/>
      <path class="cls-16" d="M85.87,351.9c.37,1.31,1.41,2.04,1.89,2.93l10.08,18.77c-1.65,5.63-7.86,7.59-11.45,11.99,10.08,1.69,19.24,5.6,25.96,12.27.85.84,2.06,2.58,2.37,3.75.67,2.46,3.57,6.45,5.31,12.9l1.59,5.89-6.05-4.94c-4.87-4.09-10.33-7.08-16.32-9.14l-18.39-6.33c-9.38-3.23-17.83-8.35-23.83-16.86,7.75-.37,14.43-1.4,19.7-6.2,6.42-5.85,8.3-14.77,6.4-22.83.6-.07.85-.55.82-1.52-.02-.85,1.51-.97,1.9-.68Z"/>
      <path class="cls-18" d="M299.95,411.49c-.1.29-.31.48-.5.68-.26.27-.81.39-1.03.22,1.38-3.27,3.19-6.26,5.25-9.52.26-.64.36-1.74.56-2.41.66-.44.87-.48,1.2-.59.67-.21.53-1.16.78-1.59l11.21-19.39c2.22,6.77,6.57,12.95,13.99,15.31.69.22,2.99.24,2.43,1.58l-9.87,3.48c-8.69,3.07-17.06,6.29-24.04,12.22Z"/>
      <path class="cls-23" d="M233.06,272.01c-1.4-.73-1.82-1.88-2.78-3.19l-11.16-15.13c-2.17-2.95-4.1-6.09-7.17-8.32v179.37s0,2.92,0,2.92l-2.69-8.82-6.58-38.45c1.26-1.74.24-4.06-.02-6.1l-12.29-97.49,21.42-34.14.18-54.55c.37-.04,1.4.71,1.43,1.41l.65,14.63,3.47,36.47,14.01,26.84c.81,1.55,1.63,3,1.54,4.53Z"/>
      <path class="cls-12" d="M233.06,272.01c1.25.65,2.07,2.9,2.61,4.26l.87-.09-13.84,85.92-9.77,59.89c-.17,1.06.02,2.41-.99,2.75v-179.37c3.09,2.23,5.01,5.37,7.19,8.32l11.16,15.13c.97,1.31,1.38,2.45,2.78,3.19Z"/>
      <path class="cls-14" d="M217.1,182.34l39.32,75.44c.99,1.89,1.65,2.82,1.37,4.67-1.09-.08-1.89.67-2.92,1.37l-18.33,12.36-.87.09c-.54-1.36-1.36-3.61-2.61-4.26.09-1.54-.73-2.99-1.54-4.53l-14.01-26.84-3.47-36.47-.65-14.63c-.03-.7-1.06-1.45-1.43-1.41l.13-11.85c1.79-.08,2.11,2.69,5.02,6.08Z"/>
      <path class="cls-8" d="M251.81,233.96c.21,1.05.84,2.3,1.49,3.06l.61,2.25c.91,3.34,3.58,6.94,5.93,10.01l6.67,8.72c4.45,5.81,6.34,12.3,7.59,19.5l.48,12.58c.03.74.66,1.08,1.32,1.01l-8.9,7.24c-1.6,1.3-3.64,2.18-4.45,4.06l-7.37,17.07-7.79,17.57.84-9.05c.4-2.68.71-4.34,1.29-6.72.74-3.04-.57-6.34,1.21-9.31l1.01-7.45c1.78-3.06.2-6.82,1.28-9.95s2.62-13.4,2.89-18.38c.09-1.69,1.48-3.64,1.26-5.8-.29-2.85.24-5.57.6-7.94.28-1.85-.38-2.78-1.37-4.67l-39.32-75.44,23.44,27.33c6.11,7.13,9.53,15.42,11.28,24.29Z"/>
      <path class="cls-20" d="M273.11,332.43c-.09.18-.1.36-.08.46-.98.43-1.19,1.31-1.65,2.06l-31.82,51.32,7.86-49.23,7.79-17.57,7.37-17.07,9.71,29.8c.11.36.77.38.84.23Z"/>
      <path class="cls-2" d="M252.04,402.25l-17.86,25.13c-.76,1.07-.69,1.85-1.81,2.39,1.78-2.9.84-6.77,1.8-9.64,1.18-3.51.76-6.43,1.37-10.03.42-2.49,1.15-5.22,1.54-7.79l1.44-9.5c.36-2.36.67-4.38,1.02-6.55l31.82-51.32c1.06,2.23-.22,3.7-.85,5.59l-11.83,35.41-6.26,19.69c-.68,2.14-2.17,4.59-.4,6.6Z"/>
      <path class="cls-1" d="M199.48,361.15l-10.47,60.89c-.17,1.01-.27,2.2-.71,2.69-.52.59-2.6,1.39-3.07.75l-9.94-13.77c.62-1.53,2.44-2.68,3.9-2.94,1.51,3.23,2.87,6.85,6.06,9.73l-7.54-53.36c.26-.01.9-.24.82-.78l-2.04-12.37c1.26-2.38.18-5.12-.07-8.09l-6.59-77,15.83,10.9,13.82,83.36Z"/>
      <path class="cls-28" d="M212.08,176.26l-.13,11.85-.18,54.55-21.42,34.14,12.29,97.49c.26,2.04,1.28,4.35.02,6.1l-3.2-19.25-13.82-83.36-15.83-10.9,6.59,77c.25,2.97,1.33,5.71.07,8.09-.32-1.92-.91-3.89-1.01-5.87l-11.82-84.44,34.59-63.98,13.35-24.22.49,2.81ZM195.88,257.63l10.76-16.51,2.6-39.91c.23-3.51,1.47-6.96-.45-10.44l-29.5,53.42-8.68,16.15c5.61,3.66,10.66,6.86,16.63,9.83l8.65-12.54Z"/>
      <path class="cls-22" d="M143.47,332.43l19.92,42.57,15.8,33.76c-1.46.26-3.28,1.41-3.9,2.94l-30.87-41.91-3.87-3.03-19.61-46.57,22.54,12.24Z"/>
      <path class="cls-19" d="M143.53,394.16c-.03,1.03.09,2.1-.34,3.09l-5.48-4.64-12.8-10.57c.44-.05.85-.36.87-.63.02-.24-.66-.48-.85-.77-3.31-5.3-8.12-8.67-12.56-12.9-2.65-2.52-6.21-4.05-7.73-7.98l21.11,7.8,13.32,5.46,3.31,19.94c.12.74.57,1.24,1.14,1.21Z"/>
      <path class="cls-28" d="M98.12,352.23l12.64,4.71,12.5,4.42,14.31,5.3c.45.17,1.33.85,1.82.59.3-.16.67-.65,1.16-.48l3.87,3.03-.88,24.38c-.57.03-1.02-.46-1.14-1.21l-3.31-19.94-13.32-5.46-21.11-7.8c1.52,3.93,5.09,5.46,7.73,7.98,4.44,4.23,9.25,7.6,12.56,12.9.18.29.87.53.85.77-.02.27-.43.58-.87.63l-27.03-23.1-5.86-5.1-2.94-3c-.46-.46-.25-1.32.63-1.36l8.4,2.75Z"/>
      <path class="cls-14" d="M143.19,397.25c-.23.52-.19,1.12.34,1.5-7.84.44-15.48,1.86-23.96,1.27-.15-.22-.24-.51-.27-.61l16.93-5.14c1.02-.31,1.49-.85,1.49-1.66l5.48,4.64Z"/>
      <path class="cls-12" d="M317.43,378.9l-11.21,19.39-3.24-.23-17.26-6.53,12.6-12.13,22.67-20.31,13.31-10.76c.02,2.32-1.65,4.39-2.89,6.53l-13.98,24.04Z"/>
      <path class="cls-19" d="M334.31,348.33l-13.31,10.76-22.67,20.31-12.6,12.13,17.26,6.53-9.96-.7-16.49-1.89c.19-.1.19-.37.11-.57l7-5.48,36.59-34.05-38.1,12.91-5,20.21.25-20.31-.88-.38c.57-.8,1.04-2.21,2.4-2.66l18.15-5.98,13.9-4.83c-.4-.96.28-1.25.58-1.22.26.03.61-.38.75-.44.02.48-.09.74.08,1.05.22.39.66.06.88-.06l4.93-1.47c1.89-.56,3.16-.99,4.4-1.42l11.47-3.97c.33.72.25,1.15.26,1.52Z"/>
      <path class="cls-21" d="M293.02,397.36c-1.08,1.72,1.42.62,4.78,1.88-.66,2.43-3.34,1.32-4.24,2.12-1.23,1.09-3.13.63-4.26,1.05l-22.28,8.35-12.86,5.33c-.81.34-1.6-.33-1.58-1.21l23.95-19.41,16.49,1.89Z"/>
      <path class="cls-23" d="M270.15,424.6c-4.06,10.61-8.18,21.07-10.35,33.26-1.45-3.6-2.32-7.54-1.87-11.33.19-1.63.83-3.8,1.64-5.48l6.82-15.05c1.16-.76,1.94-1.77,3.76-1.4Z"/>
      <path class="cls-6" d="M257.93,446.53l-1.63.71-1.03-13.98,11.12-7.25-6.82,15.05c-.81,1.69-1.45,3.85-1.64,5.48Z"/>
      <path class="cls-27" d="M124.92,382.04l12.8,10.57c0,.81-.47,1.35-1.49,1.66l-16.93,5.14c-.76.23-1.57.44-3.14.4-.39.39-.24,1.11-.1,1.71l-1.34.08c-.32-1.16-1.52-2.91-2.37-3.75-.17-.71-.26-1.67-.18-2.3l-8.97-23-4.36-9.51-.96-4.11,27.03,23.1Z"/>
      <path class="cls-19" d="M158.56,450.23c.61,6.68,1.62,12.95.6,19.71l-6.44-36.72c4.21,4.88,5.27,10.79,5.84,17.01Z"/>
      <path class="cls-26" d="M124.65,415.17c5.2,8.98,7.66,17.7,5.39,28.59l-5.39-28.59Z"/>
      <path class="cls-3" d="M301.38,321.08c.24,1.72-1.09,3.15-1.93,4.7l-10.29,18.95-8.89,16c-.82,1.47-1.99,2.5-1.38,4.43-1.36.45-1.84,1.86-2.4,2.66l-24.45,34.44c-1.77-2-.28-4.46.4-6.6l6.26-19.69,11.83-35.41c.63-1.89,1.91-3.36.85-5.59.46-.75.67-1.63,1.65-2.06l22.7-9.99c2.02-.89,3.57-2.1,5.65-1.82Z"/>
      <path class="cls-23" d="M276.64,394.91c-.81-2.07.46-4.35.48-6.41l5-20.21,38.1-12.91-36.59,34.05-7,5.48Z"/>
      <path class="cls-10" d="M329.16,338.86c-.39.09-.88-.12-.99-.43-.32-.92,1.91-1.91,1.7-2.15-.17-.2-1.15-.93-1-1.16,3.51-5.28,6.45-10.45,7.85-16.79.45-2.03,2.34-4.5.46-6.43.5-4.03,1.37-8.49,1.06-12.79-.5-6.91-.91-13.34-3.97-19.84l-2.34,6.98c-2.3,6.85-6.01,13.35-13.42,16.6,4.36-9.05,5.22-17.57,2.64-26.6l-3.12-10.89c-3.27-11.42-10.08-24.24-5.7-37.92.42-1.32.8-2.91.63-4.41-5.2,4.67-8.72,10.61-10.2,17.37l-2.86,13.07c-1.77,8.1-6.95,15.14-15.64,18.13-1.7-23.47-16.31-30.25-18.49-34.73-4.35-8.93,7.89-27.32-21.06-62.5l-4.36-5.3-25.87-25.67-11.87-11.49c-1.06-1.03-2.36-1.8-4.15-2.73,6.14,17.64-3.85,38.09-16.37,50.96l-19.38,19.92c-2.66,2.73-5.06,5.49-7.47,8.44-20.07,24.64-12.24,49.38-13.52,51.6-.17.3-.71.84-1.28.35l-8.25-7.07c-6.72-7.43-11.76-15.62-14.93-25.06-.16-.47-.86-.91-1.14-.89-.69.04-.79.45-.8,1.44-.09,9.18-2.69,17.43-6.6,25.57l-8.99,18.71c-4.08,8.49-4.09,22.9-.07,31.86-7.28-3.73-10.07-9.89-12.1-17.17-4.97,11.11-2.78,30.03,2.72,38.62,1.97,3.07,3.27,6.01,4.86,9.07,3.96,7.58,12.6,14.16,15.64,21.4l-12.64-4.71c.8,0,1.54-.09,1.75-.67s-.01-1.13-.2-1.69c-2.06-6.2-6.29-10.35-10.35-14.95l-5.96-6.76c-12.44-14.1-21.6-30.79-24.06-50.04,4.87,2.33,8.97,4.12,13.7,2.65s9.97-4,13.07-8.1c9.94-13.17,16.08-28.54,19.21-44.68l.61-10.98c.98-17.57-10.2-28.48-7.27-43.52,2.32,7.63,7,14.13,12.53,20.13,9.16,9.93,15.2,21.05,18.86,34.3,3.04-16.72,8.02-29.02,19.27-40.58l17.9-18.4c8.3-8.53,13.4-19.37,13.85-31.33l.67-17.68c.55-14.54,5.51-28.15,14.75-39.47-.46,13.11,4.14,24.82,12.61,34.88l14.79,14.94,22.75,18.91,11.55,11.57c16.7,19.04,20.62,44.22,15.86,69.27l4.91-1.01c4.08.56,8.49,2.6,10.52,5.88l3.09,4.99c1.15-11.53,5.43-22.38,14.24-29.53l9.04-7.34,9.5-9.34c2.26-2.22,3.65-5.2,4.94-8.04l2.26-4.97c1.1,7.57-1.67,13.47-4.65,19.84-5.96,12.71-7.98,26.47-4.34,39.79,2.43,8.53,6.14,16.34,12.83,21.99,9.6,8.1,21.94,8,31.86-.17-.76,18-5.47,34.72-14.99,49.09-5.2,7.85-11.4,14.01-18.08,20.58-1.44,1.41-2.01,3.63-4.1,4.61-1.06.5-1.43,1.88-1.88,2.47Z"/>
      <path class="cls-17" d="M329.16,338.86c-2.71,3.51-5.37,7.06-7.07,11.46-.03.08.19.22.49.46-1.24.43-2.52.86-4.4,1.42l-4.93,1.47c-.22.12-.66.45-.88.06-.17-.3-.06-.57-.08-1.05,1.91-3.22,4.89-6.28,7.84-9.23,8.95-8.96,15.52-19.16,17.06-31.55,1.88,1.93,0,4.4-.46,6.43-1.41,6.34-4.34,11.51-7.85,16.79-.15.23.83.96,1,1.16.21.24-2.02,1.23-1.7,2.15.11.31.6.52.99.43Z"/>
      <path class="cls-5" d="M89.72,349.48c-.88.04-1.09.9-.63,1.36l2.94,3c-.45.22-1.61.11-1.77.55l-.53.96c-.24-.4-1.15-.71-.93-2.07-.89.35-.85.95-1.05,1.55-.48-.89-1.51-1.62-1.89-2.93-.43-1.51-1.55-3.38.91-4.61l2.94,2.18Z"/>
      <path class="cls-18" d="M99.74,374.72l10.35,18.57c.58,1.04.91,2.07,2.09,2.26-.08.63.01,1.6.18,2.3-6.73-6.67-15.88-10.58-25.96-12.27,3.59-4.4,9.8-6.36,11.45-11.99.88-.05,1.3.51,1.9,1.12Z"/>
      <path class="cls-15" d="M89.73,355.35c-.24,1.14.39,1.69.98,2.69l8.1,13.62.92,3.07c-.6-.61-1.01-1.18-1.9-1.12l-10.08-18.77c.2-.6.16-1.19,1.05-1.55-.22,1.35.69,1.67.93,2.07Z"/>
      <path class="cls-7" d="M265.74,236.87l-3.04,2.62c-5.55,2.18-9.53,1.22-7.74-.03.24-.16-.56-.67-1.05-.19.49-1.12.33-2.08-.61-2.25-.11-.46.05-1.55.15-1.95.2-.78-.58-1.53-1.64-1.11-1.75-8.87-5.17-17.17-11.28-24.29l-23.44-27.33c-2.9-3.38-3.22-6.16-5.02-6.08l-.49-2.81-13.35,24.22c-1.92.77-3.01,2.65-4.52,4.3l-8.01,8.75-10.57,11.14-7.46,9.56c-5.81,7.45-12.73,20.23-14.37,29.4-1.17,6.51-2.8,16.05-1.55,20.9.52,2.01.58,3.86.24,6.14-3.27.15-6.44-.72-9.13-2.22l-6.7-3.71c-3.81-2.11-7.51-4.51-11.04-7.01l-6.31-4.46c.06,1,.05,1.66-.45,2.35-1.01-2.41-.95-5.4-3.49-7.21l-4.05,48.24c-.03.37.65.83.77,1.07l6.31,12.93c-4.86-.16-9.31-1.72-13.53-4.68-1.11-.78-2.33-1.61-3.87-.96,1.97,9.61,6.89,17.63,12.58,25.13l10.15,14.02-12.5-4.42c-3.04-7.24-11.68-13.82-15.64-21.4-1.6-3.06-2.89-5.99-4.86-9.07-5.5-8.59-7.7-27.51-2.72-38.62,2.03,7.29,4.82,13.45,12.1,17.17-4.01-8.96-4-23.38.07-31.86l8.99-18.71c3.91-8.14,6.51-16.39,6.6-25.57,0-.99.1-1.4.8-1.44.28-.02.98.42,1.14.89,3.17,9.44,8.22,17.63,14.93,25.06l8.25,7.07c.58.49,1.11-.05,1.28-.35,1.29-2.22-6.55-26.96,13.52-51.6,2.41-2.96,4.81-5.71,7.47-8.44l19.38-19.92c12.52-12.87,22.51-33.32,16.37-50.96,1.79.93,3.09,1.71,4.15,2.73l11.87,11.49,25.87,25.67,4.36,5.3c28.95,35.18,16.71,53.57,21.06,62.5Z"/>
      <path class="cls-11" d="M337.18,311.89c-1.54,12.39-8.1,22.59-17.06,31.55-2.95,2.95-5.93,6.01-7.84,9.23-.14.05-.5.46-.75.44-.3-.03-.99.27-.58,1.22l-13.9,4.83,10.93-14.56c4.89-6.34,8.9-13.11,10.81-21.09-4.12.9-7.55,4.95-12.19,3.76,0-2.79,0-5.18.7-7.54,1.23-4.14.93-8.86.02-13.22-.85-4.07-.42-8.44-2.17-12.88-2.98-7.57-.08-13.73-3.6-19.64.49-.9,1.42-1.9.88-3.54l-4.87,4.01-21.64,16.63c-.66.07-1.29-.28-1.32-1.01l-.48-12.58c-1.25-7.19-3.15-13.69-7.59-19.5l-6.67-8.72c-2.35-3.07-5.02-6.67-5.93-10.01.49-.48,1.28.03,1.05.19-1.79,1.25,2.19,2.2,7.74.03l3.04-2.62c2.18,4.48,16.79,11.26,18.49,34.73,8.7-3,13.87-10.03,15.64-18.13l2.86-13.07c1.48-6.76,5-12.7,10.2-17.37.18,1.5-.2,3.09-.63,4.41-4.38,13.67,2.43,26.5,5.7,37.92l3.12,10.89c2.59,9.03,1.73,17.55-2.64,26.6,7.42-3.24,11.13-9.75,13.42-16.6l2.34-6.98c3.07,6.5,3.47,12.93,3.97,19.84.31,4.3-.56,8.76-1.06,12.79Z"/>
      <path class="cls-19" d="M278.79,320.66l-5.69,11.77c-.07.15-.73.14-.84-.23l-9.71-29.8c.81-1.89,2.85-2.76,4.45-4.06.32.92.8.91,1.52.42l5.45-2.7,16.04-9.53c-.02,3.03-.96,4.94-1.81,7.15l-9.45,24.78c-.19.49-.29.8-.56,1.11-.37.42.08,1.23.6,1.09Z"/>
      <path class="cls-28" d="M301.54,274l-1.92,3.53-20.83,43.13c-.51.14-.97-.67-.6-1.09.27-.31.37-.62.56-1.11l9.45-24.78c.84-2.21,1.79-4.12,1.81-7.15l-16.04,9.53-5.45,2.7c-.72.49-1.19.5-1.52-.42l8.9-7.24,21.64-16.63,4.87-4.01c.54,1.64-.39,2.64-.88,3.54Z"/>
      <path class="cls-9" d="M253.3,237.02c-.65-.76-1.28-2-1.49-3.06,1.06-.42,1.84.33,1.64,1.11-.1.4-.26,1.49-.15,1.95Z"/>
      <path class="cls-13" d="M253.92,239.27l-.61-2.25c.94.17,1.11,1.14.61,2.25Z"/>
      <path class="cls-2" d="M301.38,321.08c-2.08-.28-3.63.93-5.65,1.82l-22.7,9.99c-.02-.1,0-.28.08-.46l5.69-11.77,20.83-43.13c.78.22,1.27-.26,1.77-.76,1.49,4.49.16,8.93,1.2,12.8.58,2.17,1.19,3.95,1.13,6.34l-.62,23.33-1.72,1.83Z"/>
      <path class="cls-4" d="M177.71,365.12l7.54,53.36c-3.19-2.88-4.54-6.49-6.06-9.73l-15.8-33.76-19.92-42.57c.2-.5.1-1.29-.05-1.73-.1-.31,1.18-.43,1.29-.76l7.56-22.51c1.62-.42,2.45,2.64,4.37,7.25l3.7,8.89c.92,2.2.84,5.15,3.53,6.72-.53,3.12,1.61,5.19,2.47,7.53l5.01,11.89c.81,1.92,1.16,4.06,1.91,5.63,2.76,5.81,2.5,9.19,4.45,9.79Z"/>
      <path class="cls-23" d="M142.89,285.66c-.09.34-.82.8-.8,1.14.02.36.83.98,1.23,1.21l5.49,3.18c4.05,2.35,5.73,6.05,7.39,10.26l15.01,38.06c.24.61.69.95,1.01.83.27-.1.27-.84,1.19-.73-.43,1.55.65,3.1.66,4.29v1.82c0,.41.84.63,1.43.39.1,1.98.7,3.95,1.01,5.87l2.04,12.37c.09.54-.55.77-.82.78-1.94-.6-1.69-3.97-4.45-9.79-.74-1.56-1.1-3.71-1.91-5.63l-5.01-11.89c-.86-2.34-3-4.41-2.47-7.53-2.69-1.58-2.61-4.52-3.53-6.72l-3.7-8.89c-1.92-4.6-2.75-7.67-4.37-7.25.9-2.69,1.21-4.83-1.33-6.64l-21.76-15.45,9.75,34.64-5.04-10.21-15.5-36.93c.5-.69.51-1.35.45-2.35l6.31,4.46c3.52,2.49,7.23,4.89,11.04,7.01l6.7,3.71Z"/>
      <path class="cls-8" d="M175.48,346.1c-.59.24-1.42.02-1.42-.39v-1.82c-.01-1.18-1.09-2.74-.66-4.29-.92-.1-.93.63-1.19.73-.32.12-.77-.22-1.01-.83l-15.01-38.06c-1.66-4.21-3.34-7.91-7.39-10.26l-5.49-3.18c-.4-.23-1.2-.85-1.23-1.21-.02-.34.71-.8.8-1.14,2.69,1.49,5.86,2.37,9.13,2.22.34-2.28.27-4.13-.24-6.14-1.25-4.85.38-14.39,1.55-20.9,1.64-9.17,8.56-21.96,14.37-29.4l7.46-9.56,10.57-11.14,8.01-8.75c1.51-1.65,2.6-3.53,4.52-4.3l-34.59,63.98,11.82,84.44Z"/>
      <path class="cls-19" d="M195.88,257.63l-8.65,12.54c-5.97-2.97-11.02-6.17-16.63-9.83l8.68-16.15,29.5-53.42c1.92,3.48.68,6.93.45,10.44l-2.6,39.91-10.76,16.51Z"/>
      <path class="cls-19" d="M133.88,309.75l5.04,10.21c1.04,3.69,2.6,7.42,4.49,10.73.15.45.25,1.24.05,1.73l-22.54-12.24,19.61,46.57c-.49-.17-.86.32-1.16.48-.48.26-1.37-.42-1.82-.59.56.03.86-.31.68-.64l-5.11-9.61-15.22-28.54-6.31-12.93c.55-.55,1-.82,2.34-.27l4.57-30.88,14.18,26.59,1.19-.6Z"/>
      <path class="cls-2" d="M117.92,327.85l15.22,28.54,5.11,9.61c.18.33-.12.68-.68.64l-14.31-5.3-10.15-14.02c-5.69-7.5-10.61-15.52-12.58-25.13,1.54-.64,2.76.18,3.87.96,4.22,2.96,8.67,4.53,13.53,4.68Z"/>
      <path class="cls-23" d="M92.03,353.84l5.86,5.1.96,4.11,4.36,9.51,8.97,23c-1.18-.19-1.51-1.22-2.09-2.26l-10.35-18.57-.92-3.07-8.1-13.62c-.59-1-1.22-1.54-.98-2.69l.53-.96c.16-.43,1.32-.33,1.77-.55Z"/>
      <path class="cls-2" d="M297.05,359.18l-18.15,5.98c-.61-1.93.56-2.96,1.38-4.43l8.89-16,10.29-18.95c.84-1.55,2.17-2.97,1.93-4.7l1.72-1.83.62-23.33c.06-2.39-.55-4.17-1.13-6.34-1.04-3.86.29-8.31-1.2-12.8-.5.5-.99.98-1.77.76l1.92-3.53c3.52,5.91.62,12.08,3.6,19.64,1.74,4.43,1.32,8.8,2.17,12.88.91,4.36,1.21,9.08-.02,13.22-.7,2.36-.69,4.75-.7,7.54,4.65,1.19,8.07-2.86,12.19-3.76-1.91,7.98-5.92,14.75-10.81,21.09l-10.93,14.56Z"/>
      <path class="cls-28" d="M118.38,272.82l15.5,36.93-1.19.6-14.18-26.59-4.57,30.88c-1.34-.55-1.78-.27-2.34.27-.12-.24-.8-.7-.77-1.07l4.05-48.24c2.54,1.81,2.48,4.8,3.49,7.21Z"/>
      <path class="cls-23" d="M152.27,307.42l-7.56,22.51c-.11.33-1.39.45-1.29.76-1.89-3.31-3.46-7.04-4.49-10.73l-9.75-34.64,21.76,15.45c2.55,1.81,2.24,3.95,1.33,6.64Z"/>
    </g>
  </g>
</svg>