<?xml version='1.0' encoding='UTF-8'?>
<svg xmlns="http://www.w3.org/2000/svg" xmlns:xlink="http://www.w3.org/1999/xlink" data-name="Layer 2" viewBox="0 0 778.12 271.5" preserveAspectRatio="xMidYMid meet">
  <defs>
    <style>
      .cls-1 {
        fill: #099;
      }

      .cls-1, .cls-2, .cls-3, .cls-4, .cls-5, .cls-6, .cls-7 {
        fill-rule: evenodd;
      }

      .cls-2 {
        fill: #639;
      }

      .cls-3 {
        fill: #fa0;
      }

      .cls-4 {
        fill: #0052b3;
      }

      .cls-5 {
        fill: #ef6d22;
      }

      .cls-6 {
        fill: #c33;
      }

      .cls-7 {
        fill: #093;
      }
    </style>
  </defs>
  <g id="Layer_1-2" data-name="Layer 1">
    <g>
      <g>
        <path class="cls-6" d="M49.27,27.47v184.34c7.42,3.41,12.58,10.91,12.58,19.61,0,11.91-9.67,21.57-21.57,21.57s-21.57-9.67-21.57-21.57c0-8.07,4.44-15.11,11-18.81V27.47h19.57Z" fill-rule="evenodd" fill="#c33"/>
        <path d="M86.9,35.5v-8h-18.95c-.24-7.24-3.17-14.01-8.32-19.16C54.25,2.96,47.09,0,39.49,0s-14.76,2.96-20.14,8.34c-5.38,5.38-8.34,12.53-8.34,20.14v175.09c-7.02,7.44-11,17.38-11,27.65,0,22.21,18.07,40.27,40.27,40.27s40.27-18.07,40.27-40.27c0-11.13-4.55-21.63-12.58-29.23v-7.23h18.93v-8h-18.93v-18.54h13.93v-8h-13.93v-18.54h13.93v-8h-13.93v-18.54h18.93v-8h-18.93v-18.54h13.93v-8h-13.93v-18.54h13.93v-8h-13.93v-18.54h18.93ZM70.55,231.23c0,16.71-13.57,30.27-30.27,30.27s-30.27-13.57-30.27-30.27c0-8.73,3.7-16.6,9.62-22.12.88-.83,1.39-1.98,1.39-3.19V28.48c0-4.9,1.95-9.6,5.41-13.07,3.47-3.47,8.17-5.41,13.07-5.41h0c4.9,0,9.6,1.95,13.07,5.41,3.47,3.47,5.41,8.17,5.41,13.07v176.05h0c0,1.3.58,2.54,1.58,3.37,6.71,5.55,10.99,13.95,10.99,23.33Z"/>
      </g>
      <g>
        <path d="M202.1,35.5v-8h-18.95c-.24-7.24-3.17-14.01-8.32-19.16-5.38-5.38-12.53-8.34-20.14-8.34s-14.76,2.96-20.14,8.34c-5.38,5.38-8.34,12.53-8.34,20.14v175.09c-7.02,7.44-11,17.38-11,27.65,0,22.21,18.07,40.27,40.27,40.27s40.27-18.07,40.27-40.27c0-11.13-4.55-21.63-12.58-29.23v-7.23h18.93v-8h-18.93v-18.54h13.93v-8h-13.93v-18.54h13.93v-8h-13.93v-18.54h18.93v-8h-18.93v-18.54h13.93v-8h-13.93v-18.54h13.93v-8h-13.93v-18.54h18.93ZM185.75,231.23c0,16.71-13.57,30.27-30.27,30.27s-30.27-13.57-30.27-30.27c0-8.73,3.7-16.6,9.62-22.12.88-.83,1.39-1.98,1.39-3.19V28.48c0-4.9,1.95-9.6,5.41-13.07,3.47-3.47,8.17-5.41,13.07-5.41h0c4.9,0,9.6,1.95,13.07,5.41,3.47,3.47,5.41,8.17,5.41,13.07v176.05h0c0,1.3.58,2.54,1.58,3.37,6.71,5.55,10.99,13.95,10.99,23.33Z"/>
        <path class="cls-5" d="M164.47,54.22v157.6c7.42,3.41,12.58,10.91,12.58,19.61,0,11.91-9.67,21.57-21.57,21.57s-21.57-9.67-21.57-21.57c0-8.07,4.44-15.11,11-18.81V54.22h19.57Z" fill-rule="evenodd" fill="#ef6d22"/>
      </g>
      <g>
        <path d="M317.3,35.5v-8h-18.95c-.24-7.24-3.17-14.01-8.32-19.16-5.38-5.38-12.53-8.34-20.14-8.34s-14.76,2.96-20.14,8.34c-5.38,5.38-8.34,12.53-8.34,20.14v175.09c-7.02,7.44-11,17.38-11,27.65,0,22.21,18.07,40.27,40.27,40.27s40.27-18.07,40.27-40.27c0-11.13-4.55-21.63-12.58-29.23v-7.23h18.93v-8h-18.93v-18.54h13.93v-8h-13.93v-18.54h13.93v-8h-13.93v-18.54h18.93v-8h-18.93v-18.54h13.93v-8h-13.93v-18.54h13.93v-8h-13.93v-18.54h18.93ZM300.95,231.23c0,16.71-13.57,30.27-30.27,30.27s-30.27-13.57-30.27-30.27c0-8.73,3.7-16.6,9.62-22.12.88-.83,1.39-1.98,1.39-3.19V28.48c0-4.9,1.95-9.6,5.41-13.07,3.47-3.47,8.17-5.41,13.07-5.41h0c4.9,0,9.6,1.95,13.07,5.41,3.47,3.47,5.41,8.17,5.41,13.07v176.05h0c0,1.3.58,2.54,1.58,3.37,6.71,5.55,10.99,13.95,10.99,23.33Z"/>
        <path class="cls-3" d="M279.68,80.14v131.6c7.42,3.41,12.58,10.91,12.58,19.61,0,11.91-9.67,21.57-21.57,21.57s-21.57-9.67-21.57-21.57c0-8.07,4.44-15.11,11-18.81V80.14h19.57Z" fill-rule="evenodd" fill="#fa0"/>
      </g>
      <g>
        <path d="M432.51,35.5v-8h-18.95c-.24-7.24-3.17-14.01-8.32-19.16-5.38-5.38-12.53-8.34-20.14-8.34s-14.76,2.96-20.14,8.34c-5.38,5.38-8.34,12.53-8.34,20.14v175.09c-7.02,7.44-11,17.38-11,27.65,0,22.21,18.07,40.27,40.27,40.27s40.27-18.07,40.27-40.27c0-11.13-4.55-21.63-12.58-29.23v-7.23h18.93v-8h-18.93v-18.54h13.93v-8h-13.93v-18.54h13.93v-8h-13.93v-18.54h18.93v-8h-18.93v-18.54h13.93v-8h-13.93v-18.54h13.93v-8h-13.93v-18.54h18.93ZM416.16,231.23c0,16.71-13.57,30.27-30.27,30.27s-30.27-13.57-30.27-30.27c0-8.73,3.7-16.6,9.62-22.12.88-.83,1.39-1.98,1.39-3.19V28.48c0-4.9,1.95-9.6,5.41-13.07,3.47-3.47,8.17-5.41,13.07-5.41h0c4.9,0,9.6,1.95,13.07,5.41,3.47,3.47,5.41,8.17,5.41,13.07v176.05h0c0,1.3.58,2.54,1.58,3.37,6.71,5.55,10.99,13.95,10.99,23.33Z"/>
        <path class="cls-7" d="M394.88,107.22v104.59c7.42,3.41,12.58,10.91,12.58,19.61,0,11.91-9.67,21.57-21.57,21.57s-21.57-9.67-21.57-21.57c0-8.07,4.44-15.11,11-18.81v-105.4h19.57Z" fill-rule="evenodd" fill="#093"/>
      </g>
      <g>
        <path d="M547.71,35.5v-8h-18.95c-.24-7.24-3.17-14.01-8.32-19.16-5.38-5.38-12.53-8.34-20.14-8.34s-14.76,2.96-20.14,8.34c-5.38,5.38-8.34,12.53-8.34,20.14v175.09c-7.02,7.44-11,17.38-11,27.65,0,22.21,18.07,40.27,40.27,40.27s40.27-18.07,40.27-40.27c0-11.13-4.55-21.63-12.58-29.23v-7.23h18.93v-8h-18.93v-18.54h13.93v-8h-13.93v-18.54h13.93v-8h-13.93v-18.54h18.93v-8h-18.93v-18.54h13.93v-8h-13.93v-18.54h13.93v-8h-13.93v-18.54h18.93ZM531.36,231.23c0,16.71-13.57,30.27-30.27,30.27s-30.27-13.57-30.27-30.27c0-8.73,3.7-16.6,9.62-22.12.88-.83,1.39-1.98,1.39-3.19V28.48c0-4.9,1.95-9.6,5.41-13.07,3.47-3.47,8.17-5.41,13.07-5.41h0c4.9,0,9.6,1.95,13.07,5.41,3.47,3.47,5.41,8.17,5.41,13.07v176.05h0c0,1.3.58,2.54,1.58,3.37,6.71,5.55,10.99,13.95,10.99,23.33Z"/>
        <path class="cls-1" d="M510.08,133.97v77.6c7.42,3.41,12.58,10.91,12.58,19.61,0,11.91-9.67,21.57-21.57,21.57s-21.57-9.67-21.57-21.57c0-8.07,4.44-15.11,11-18.81v-78.4h19.57Z" fill="#099" fill-rule="evenodd"/>
      </g>
      <g>
        <path d="M662.91,35.5v-8h-18.95c-.24-7.24-3.17-14.01-8.32-19.16-5.38-5.38-12.53-8.34-20.14-8.34s-14.76,2.96-20.14,8.34c-5.38,5.38-8.34,12.53-8.34,20.14v175.09c-7.02,7.44-11,17.38-11,27.65,0,22.21,18.07,40.27,40.27,40.27s40.27-18.07,40.27-40.27c0-11.13-4.55-21.63-12.58-29.23v-7.23h18.93v-8h-18.93v-18.54h13.93v-8h-13.93v-18.54h13.93v-8h-13.93v-18.54h18.93v-8h-18.93v-18.54h13.93v-8h-13.93v-18.54h13.93v-8h-13.93v-18.54h18.93ZM646.56,231.23c0,16.71-13.57,30.27-30.27,30.27s-30.27-13.57-30.27-30.27c0-8.73,3.7-16.6,9.62-22.12.88-.83,1.39-1.98,1.39-3.19V28.48c0-4.9,1.95-9.6,5.41-13.07,3.47-3.47,8.17-5.41,13.07-5.41h0c4.9,0,9.6,1.95,13.07,5.41,3.47,3.47,5.41,8.17,5.41,13.07v176.05h0c0,1.3.58,2.54,1.58,3.37,6.71,5.55,10.99,13.95,10.99,23.33Z"/>
        <path class="cls-4" d="M625.28,159.68v51.86c7.42,3.41,12.58,10.91,12.58,19.61,0,11.91-9.67,21.57-21.57,21.57s-21.57-9.67-21.57-21.57c0-8.07,4.44-15.11,11-18.81v-52.67h19.57Z" fill-rule="evenodd" fill="#0052b3"/>
      </g>
      <g>
        <path d="M778.12,35.5v-8h-18.95c-.24-7.24-3.17-14.01-8.32-19.16-5.38-5.38-12.53-8.34-20.14-8.34s-14.76,2.96-20.14,8.34c-5.38,5.38-8.34,12.53-8.34,20.14v175.09c-7.02,7.44-11,17.38-11,27.65,0,22.21,18.07,40.27,40.27,40.27s40.27-18.07,40.27-40.27c0-11.13-4.55-21.63-12.58-29.23v-7.23h18.93v-8h-18.93v-18.54h13.93v-8h-13.93v-18.54h13.93v-8h-13.93v-18.54h18.93v-8h-18.93v-18.54h13.93v-8h-13.93v-18.54h13.93v-8h-13.93v-18.54h18.93ZM761.76,231.23c0,16.71-13.57,30.27-30.27,30.27s-30.27-13.57-30.27-30.27c0-8.73,3.7-16.6,9.62-22.12.88-.83,1.39-1.98,1.39-3.19V28.48c0-4.9,1.95-9.6,5.41-13.07,3.47-3.47,8.17-5.41,13.07-5.41h0c4.9,0,9.6,1.95,13.07,5.41,3.47,3.47,5.41,8.17,5.41,13.07v176.05h0c0,1.3.58,2.54,1.58,3.37,6.71,5.55,10.99,13.95,10.99,23.33Z"/>
        <path class="cls-2" d="M740.49,187.64v23.9c7.42,3.41,12.58,10.91,12.58,19.61,0,11.91-9.67,21.57-21.57,21.57s-21.57-9.67-21.57-21.57c0-8.07,4.44-15.11,11-18.81v-24.7h19.57Z" fill-rule="evenodd" fill="#639"/>
      </g>
    </g>
  </g>
</svg>
