<?xml version="1.0" encoding="UTF-8"?>
<svg id="Layer_1" data-name="Layer 1" xmlns="http://www.w3.org/2000/svg" viewBox="0 0 900 330">
  <defs>
    <style>
      .cls-1 {
        fill: #099;
      }

      .cls-1, .cls-2, .cls-3, .cls-4, .cls-5, .cls-6, .cls-7 {
        fill-rule: evenodd;
      }

      .cls-2 {
        fill: #639;
      }

      .cls-3 {
        fill: #f93;
      }

      .cls-8 {
        fill: #333;
      }

      .cls-4 {
        fill: #06c;
      }

      .cls-5 {
        fill: #f63;
      }

      .cls-6 {
        fill: #c33;
      }

      .cls-7 {
        fill: #093;
      }
    </style>
  </defs>
  <g>
    <path class="cls-6" d="M110.21,56.72v184.34c7.42,3.41,12.58,10.91,12.58,19.61,0,11.91-9.67,21.57-21.57,21.57s-21.57-9.67-21.57-21.57c0-8.07,4.44-15.11,11-18.81V56.72h19.57Z"/>
    <path class="cls-8" d="M147.84,64.75v-8h-18.95c-.24-7.24-3.17-14.01-8.32-19.16-5.38-5.38-12.53-8.34-20.14-8.34s-14.76,2.96-20.14,8.34c-5.38,5.38-8.34,12.53-8.34,20.14v175.09c-7.02,7.44-11,17.38-11,27.65,0,22.21,18.07,40.27,40.27,40.27s40.27-18.07,40.27-40.27c0-11.13-4.55-21.63-12.58-29.23v-7.23h18.93v-8h-18.93v-18.54h13.93v-8h-13.93v-18.54h13.93v-8h-13.93v-18.54h18.93v-8h-18.93v-18.54h13.93v-8h-13.93v-18.54h13.93v-8h-13.93v-18.54h18.93ZM131.49,260.48c0,16.71-13.57,30.27-30.27,30.27s-30.27-13.57-30.27-30.27c0-8.73,3.7-16.6,9.62-22.12.88-.83,1.39-1.98,1.39-3.19V57.73c0-4.9,1.95-9.6,5.41-13.07,3.47-3.47,8.17-5.41,13.07-5.41h0c4.9,0,9.6,1.95,13.07,5.41,3.47,3.47,5.41,8.17,5.41,13.07v176.05h0c0,1.3.58,2.54,1.58,3.37,6.71,5.55,10.99,13.95,10.99,23.33Z"/>
  </g>
  <g>
    <path class="cls-8" d="M263.04,64.75v-8h-18.95c-.24-7.24-3.17-14.01-8.32-19.16-5.38-5.38-12.53-8.34-20.14-8.34s-14.76,2.96-20.14,8.34c-5.38,5.38-8.34,12.53-8.34,20.14v175.09c-7.02,7.44-11,17.38-11,27.65,0,22.21,18.07,40.27,40.27,40.27s40.27-18.07,40.27-40.27c0-11.13-4.55-21.63-12.58-29.23v-7.23h18.93v-8h-18.93v-18.54h13.93v-8h-13.93v-18.54h13.93v-8h-13.93v-18.54h18.93v-8h-18.93v-18.54h13.93v-8h-13.93v-18.54h13.93v-8h-13.93v-18.54h18.93ZM246.69,260.48c0,16.71-13.57,30.27-30.27,30.27s-30.27-13.57-30.27-30.27c0-8.73,3.7-16.6,9.62-22.12.88-.83,1.39-1.98,1.39-3.19V57.73c0-4.9,1.95-9.6,5.41-13.07,3.47-3.47,8.17-5.41,13.07-5.41h0c4.9,0,9.6,1.95,13.07,5.41,3.47,3.47,5.41,8.17,5.41,13.07v176.05h0c0,1.3.58,2.54,1.58,3.37,6.71,5.55,10.99,13.95,10.99,23.33Z"/>
    <path class="cls-5" d="M225.42,83.46v157.6c7.42,3.41,12.58,10.91,12.58,19.61,0,11.91-9.67,21.57-21.57,21.57s-21.57-9.67-21.57-21.57c0-8.07,4.44-15.11,11-18.81V83.46h19.57Z"/>
  </g>
  <g>
    <path class="cls-8" d="M378.25,64.75v-8h-18.95c-.24-7.24-3.17-14.01-8.32-19.16-5.38-5.38-12.53-8.34-20.14-8.34s-14.76,2.96-20.14,8.34c-5.38,5.38-8.34,12.53-8.34,20.14v175.09c-7.02,7.44-11,17.38-11,27.65,0,22.21,18.07,40.27,40.27,40.27s40.27-18.07,40.27-40.27c0-11.13-4.55-21.63-12.58-29.23v-7.23h18.93v-8h-18.93v-18.54h13.93v-8h-13.93v-18.54h13.93v-8h-13.93v-18.54h18.93v-8h-18.93v-18.54h13.93v-8h-13.93v-18.54h13.93v-8h-13.93v-18.54h18.93ZM361.89,260.48c0,16.71-13.57,30.27-30.27,30.27s-30.27-13.57-30.27-30.27c0-8.73,3.7-16.6,9.62-22.12.88-.83,1.39-1.98,1.39-3.19V57.73c0-4.9,1.95-9.6,5.41-13.07,3.47-3.47,8.17-5.41,13.07-5.41h0c4.9,0,9.6,1.95,13.07,5.41,3.47,3.47,5.41,8.17,5.41,13.07v176.05h0c0,1.3.58,2.54,1.58,3.37,6.71,5.55,10.99,13.95,10.99,23.33Z"/>
    <path class="cls-3" d="M340.62,109.39v131.6c7.42,3.41,12.58,10.91,12.58,19.61,0,11.91-9.67,21.57-21.57,21.57s-21.57-9.67-21.57-21.57c0-8.07,4.44-15.11,11-18.81V109.39h19.57Z"/>
  </g>
  <g>
    <path class="cls-8" d="M493.45,64.75v-8h-18.95c-.24-7.24-3.17-14.01-8.32-19.16-5.38-5.38-12.53-8.34-20.14-8.34s-14.76,2.96-20.14,8.34c-5.38,5.38-8.34,12.53-8.34,20.14v175.09c-7.02,7.44-11,17.38-11,27.65,0,22.21,18.07,40.27,40.27,40.27s40.27-18.07,40.27-40.27c0-11.13-4.55-21.63-12.58-29.23v-7.23h18.93v-8h-18.93v-18.54h13.93v-8h-13.93v-18.54h13.93v-8h-13.93v-18.54h18.93v-8h-18.93v-18.54h13.93v-8h-13.93v-18.54h13.93v-8h-13.93v-18.54h18.93ZM477.1,260.48c0,16.71-13.57,30.27-30.27,30.27s-30.27-13.57-30.27-30.27c0-8.73,3.7-16.6,9.62-22.12.88-.83,1.39-1.98,1.39-3.19V57.73c0-4.9,1.95-9.6,5.41-13.07,3.47-3.47,8.17-5.41,13.07-5.41h0c4.9,0,9.6,1.95,13.07,5.41,3.47,3.47,5.41,8.17,5.41,13.07v176.05h0c0,1.3.58,2.54,1.58,3.37,6.71,5.55,10.99,13.95,10.99,23.33Z"/>
    <path class="cls-7" d="M455.82,136.47v104.59c7.42,3.41,12.58,10.91,12.58,19.61,0,11.91-9.67,21.57-21.57,21.57s-21.57-9.67-21.57-21.57c0-8.07,4.44-15.11,11-18.81v-105.4h19.57Z"/>
  </g>
  <g>
    <path class="cls-8" d="M608.65,64.75v-8h-18.95c-.24-7.24-3.17-14.01-8.32-19.16-5.38-5.38-12.53-8.34-20.14-8.34s-14.76,2.96-20.14,8.34c-5.38,5.38-8.34,12.53-8.34,20.14v175.09c-7.02,7.44-11,17.38-11,27.65,0,22.21,18.07,40.27,40.27,40.27s40.27-18.07,40.27-40.27c0-11.13-4.55-21.63-12.58-29.23v-7.23h18.93v-8h-18.93v-18.54h13.93v-8h-13.93v-18.54h13.93v-8h-13.93v-18.54h18.93v-8h-18.93v-18.54h13.93v-8h-13.93v-18.54h13.93v-8h-13.93v-18.54h18.93ZM592.3,260.48c0,16.71-13.57,30.27-30.27,30.27s-30.27-13.57-30.27-30.27c0-8.73,3.7-16.6,9.62-22.12.88-.83,1.39-1.98,1.39-3.19V57.73c0-4.9,1.95-9.6,5.41-13.07,3.47-3.47,8.17-5.41,13.07-5.41h0c4.9,0,9.6,1.95,13.07,5.41,3.47,3.47,5.41,8.17,5.41,13.07v176.05h0c0,1.3.58,2.54,1.58,3.37,6.71,5.55,10.99,13.95,10.99,23.33Z"/>
    <path class="cls-1" d="M571.02,163.22v77.6c7.42,3.41,12.58,10.91,12.58,19.61,0,11.91-9.67,21.57-21.57,21.57s-21.57-9.67-21.57-21.57c0-8.07,4.44-15.11,11-18.81v-78.4h19.57Z"/>
  </g>
  <g>
    <path class="cls-8" d="M723.86,64.75v-8h-18.95c-.24-7.24-3.17-14.01-8.32-19.16-5.38-5.38-12.53-8.34-20.14-8.34s-14.76,2.96-20.14,8.34c-5.38,5.38-8.34,12.53-8.34,20.14v175.09c-7.02,7.44-11,17.38-11,27.65,0,22.21,18.07,40.27,40.27,40.27s40.27-18.07,40.27-40.27c0-11.13-4.55-21.63-12.58-29.23v-7.23h18.93v-8h-18.93v-18.54h13.93v-8h-13.93v-18.54h13.93v-8h-13.93v-18.54h18.93v-8h-18.93v-18.54h13.93v-8h-13.93v-18.54h13.93v-8h-13.93v-18.54h18.93ZM707.5,260.48c0,16.71-13.57,30.27-30.27,30.27s-30.27-13.57-30.27-30.27c0-8.73,3.7-16.6,9.62-22.12.88-.83,1.39-1.98,1.39-3.19V57.73c0-4.9,1.95-9.6,5.41-13.07,3.47-3.47,8.17-5.41,13.07-5.41h0c4.9,0,9.6,1.95,13.07,5.41,3.47,3.47,5.41,8.17,5.41,13.07v176.05h0c0,1.3.58,2.54,1.58,3.37,6.71,5.55,10.99,13.95,10.99,23.33Z"/>
    <path class="cls-4" d="M686.23,188.93v51.86c7.42,3.41,12.58,10.91,12.58,19.61,0,11.91-9.67,21.57-21.57,21.57s-21.57-9.67-21.57-21.57c0-8.07,4.44-15.11,11-18.81v-52.67h19.57Z"/>
  </g>
  <g>
    <path class="cls-8" d="M839.06,64.75v-8h-18.95c-.24-7.24-3.17-14.01-8.32-19.16-5.38-5.38-12.53-8.34-20.14-8.34s-14.76,2.96-20.14,8.34c-5.38,5.38-8.34,12.53-8.34,20.14v175.09c-7.02,7.44-11,17.38-11,27.65,0,22.21,18.07,40.27,40.27,40.27s40.27-18.07,40.27-40.27c0-11.13-4.55-21.63-12.58-29.23v-7.23h18.93v-8h-18.93v-18.54h13.93v-8h-13.93v-18.54h13.93v-8h-13.93v-18.54h18.93v-8h-18.93v-18.54h13.93v-8h-13.93v-18.54h13.93v-8h-13.93v-18.54h18.93ZM822.71,260.48c0,16.71-13.57,30.27-30.27,30.27s-30.27-13.57-30.27-30.27c0-8.73,3.7-16.6,9.62-22.12.88-.83,1.39-1.98,1.39-3.19V57.73c0-4.9,1.95-9.6,5.41-13.07,3.47-3.47,8.17-5.41,13.07-5.41h0c4.9,0,9.6,1.95,13.07,5.41,3.47,3.47,5.41,8.17,5.41,13.07v176.05h0c0,1.3.58,2.54,1.58,3.37,6.71,5.55,10.99,13.95,10.99,23.33Z"/>
    <path class="cls-2" d="M801.43,216.89v23.9c7.42,3.41,12.58,10.91,12.58,19.61,0,11.91-9.67,21.57-21.57,21.57s-21.57-9.67-21.57-21.57c0-8.07,4.44-15.11,11-18.81v-24.7h19.57Z"/>
  </g>
</svg>