<?xml version='1.0' encoding='UTF-8'?>
<svg xmlns="http://www.w3.org/2000/svg" xmlns:xlink="http://www.w3.org/1999/xlink" data-name="Layer 2" viewBox="0 0 934.65 1950.69" preserveAspectRatio="xMidYMid meet">
  <defs>
    <style>
      .cls-1 {
        fill: #ef6d22;
      }

      .cls-2 {
        fill: #009949;
      }

      .cls-3 {
        fill: #639;
      }

      .cls-4 {
        fill: #fff;
      }

      .cls-5 {
        fill: #093;
      }

      .cls-6 {
        fill: #fa0;
      }

      .cls-7 {
        fill: #099;
      }

      .cls-8 {
        fill: #0052b3;
      }

      .cls-9 {
        fill: #c33;
      }
    </style>
  </defs>
  <g id="Layer_1-2" data-name="Layer 1">
    <g>
      <g>
        <rect class="cls-4" x="354.69" y="-90.91" width="225.26" height="407.07" transform="translate(579.95 -354.69) rotate(90)" fill="#fff"/>
        <g>
          <path class="cls-9" d="M288.57,112.63c0,1.54-1.25,2.79-2.79,2.79s-2.79-1.25-2.79-2.79,1.25-2.79,2.79-2.79,2.79,1.25,2.79,2.79Z" fill="#c33"/>
          <path class="cls-4" d="M646.08,112.63c0-1.54,1.25-2.79,2.79-2.79s2.79,1.25,2.79,2.79-1.25,2.79-2.79,2.79-2.79-1.25-2.79-2.79Z" fill="#fff"/>
          <path class="cls-4" d="M594.93,112.63c0-32,25.96-58.4,57.92-58.98v56.65c-.81-1.38-2.32-2.29-3.98-2.29-2.54,0-4.61,2.07-4.61,4.61s2.07,4.61,4.61,4.61c1.66,0,3.17-.91,3.98-2.29v56.65c-31.96-.58-57.92-26.98-57.92-58.98Z" fill="#fff"/>
          <path class="cls-4" d="M652.85,20.32v31.51c-15.95.28-30.92,6.7-42.17,18.09-11.33,11.47-17.57,26.64-17.57,42.71s6.24,31.24,17.57,42.71c11.25,11.39,26.22,17.81,42.17,18.09v31.51h-121.49V20.32h121.49Z" fill="#fff"/>
          <path class="cls-4" d="M529.53,20.32v184.61h-124.42V20.32h124.42ZM459.65,112.63c0,4.23,3.44,7.67,7.67,7.67s7.67-3.44,7.67-7.67-3.44-7.67-7.67-7.67-7.67,3.44-7.67,7.67Z" fill="#fff"/>
          <path class="cls-9" d="M323.97,155.34c11.33-11.47,17.57-26.64,17.57-42.71s-6.24-31.24-17.57-42.71c-11.25-11.39-26.22-17.81-42.17-18.09v-31.51h121.49v184.61h-121.49v-31.51c15.95-.28,30.92-6.7,42.17-18.09Z" fill="#c33"/>
          <path class="cls-4" d="M473.09,111.64c.66,4-2.76,7.42-6.76,6.76-2.42-.4-4.37-2.35-4.78-4.77-.66-4,2.76-7.42,6.76-6.76,2.42.4,4.37,2.35,4.78,4.77Z" fill="#fff"/>
          <path class="cls-9" d="M339.71,112.63c0,32-25.96,58.4-57.92,58.98v-56.65c.81,1.38,2.32,2.29,3.98,2.29,2.54,0,4.61-2.07,4.61-4.61s-2.07-4.61-4.61-4.61c-1.66,0-3.17.91-3.98,2.29v-56.65c31.96.58,57.92,26.98,57.92,58.98Z" fill="#c33"/>
          <path d="M474.99,112.63c0,4.23-3.44,7.67-7.67,7.67s-7.67-3.44-7.67-7.67,3.44-7.67,7.67-7.67,7.67,3.44,7.67,7.67ZM461.47,112.63c0,3.22,2.62,5.85,5.85,5.85s5.85-2.62,5.85-5.85-2.62-5.85-5.85-5.85-5.85,2.62-5.85,5.85Z"/>
          <path d="M279.97,18.5h374.7v188.26h-374.7V18.5ZM282.98,112.63c0,1.54,1.25,2.79,2.79,2.79s2.79-1.25,2.79-2.79-1.25-2.79-2.79-2.79-2.79,1.25-2.79,2.79ZM281.8,110.31c.81-1.38,2.32-2.29,3.98-2.29,2.54,0,4.61,2.07,4.61,4.61s-2.07,4.61-4.61,4.61c-1.66,0-3.17-.91-3.98-2.29v56.65c31.96-.58,57.92-26.98,57.92-58.98s-25.96-58.4-57.92-58.98v56.65ZM651.66,112.63c0-1.54-1.25-2.79-2.79-2.79s-2.79,1.25-2.79,2.79,1.25,2.79,2.79,2.79,2.79-1.25,2.79-2.79ZM652.85,114.95c-.81,1.38-2.32,2.29-3.98,2.29-2.54,0-4.61-2.07-4.61-4.61s2.07-4.61,4.61-4.61c1.66,0,3.17.91,3.98,2.29v-56.65c-31.96.58-57.92,26.98-57.92,58.98s25.96,58.4,57.92,58.98v-56.65ZM652.85,204.94v-31.51c-15.95-.28-30.92-6.7-42.17-18.09-11.33-11.47-17.57-26.64-17.57-42.71s6.24-31.24,17.57-42.71c11.25-11.39,26.22-17.81,42.17-18.09v-31.51h-121.49v184.61h121.49ZM529.53,204.94V20.32h-124.42v184.61h124.42ZM403.29,204.94V20.32h-121.49v31.51c15.95.28,30.92,6.7,42.17,18.09,11.33,11.47,17.57,26.64,17.57,42.71s-6.24,31.24-17.57,42.71c-11.25,11.39-26.22,17.81-42.17,18.09v31.51h121.49Z"/>
        </g>
      </g>
      <g>
        <g>
          <rect class="cls-4" x="767.88" y="36" width="153.25" height="153.25" rx="30.53" ry="30.53" fill="#fff"/>
          <path class="cls-9" d="M888.7,36c17.83,0,32.44,14.6,32.44,32.44v88.38c0,17.83-14.6,32.44-32.44,32.44h-88.38c-17.83,0-32.44-14.6-32.44-32.44v-88.38c0-17.83,14.6-32.44,32.44-32.44h88.38M888.7,22.5h-88.38c-25.34,0-45.94,20.61-45.94,45.94v88.38c0,25.34,20.61,45.94,45.94,45.94h88.38c25.34,0,45.94-20.61,45.94-45.94v-88.38c0-25.34-20.61-45.94-45.94-45.94h0Z" fill="#c33"/>
        </g>
        <g>
          <path class="cls-9" d="M814.31,121.89h8.09v9.92c-.69.13-1.45.2-2.34.2-3.1,0-5.8-.81-8.06-2.49-2.26-1.65-4.04-3.87-5.32-6.67s-1.91-5.98-1.91-9.54.69-6.92,2.09-9.82c1.4-2.93,3.38-5.19,5.98-6.82s5.65-2.44,9.16-2.44c2.85,0,5.55.51,8.06,1.5,2.54,1.02,4.96,2.52,7.3,4.53l-.1-20.43c-2.09-1.22-4.66-2.19-7.73-2.87-3.08-.69-6.18-1.02-9.29-1.02-6.95,0-13.15,1.63-18.62,4.86-5.5,3.26-9.74,7.68-12.8,13.28-3.05,5.62-4.58,11.83-4.58,18.62s1.53,13.38,4.58,18.93c3.05,5.55,7.3,9.87,12.8,13,5.47,3.1,11.73,4.68,18.72,4.68,4.02,0,7.81-.51,11.4-1.55,3.56-1.04,6.23-2.34,7.99-3.89v-38.13h-25.39v16.15h-.03Z" fill="#c33"/>
          <polygon class="cls-9" points="883.21 77.32 867.92 103.39 867.92 77.32 848.17 77.32 848.17 147.97 867.92 147.97 867.92 120.39 882.24 147.97 904.6 147.97 883.64 110.7 904.8 77.32 883.21 77.32" fill="#c33"/>
        </g>
      </g>
      <g>
        <g>
          <rect class="cls-9" x="13.51" y="36" width="153.23" height="153.23" rx="30.7" ry="30.7" fill="#c33"/>
          <path class="cls-4" d="M134.32,36c17.83,0,32.44,14.58,32.44,32.44v88.37c0,17.83-14.58,32.44-32.44,32.44H45.95c-17.83,0-32.44-14.58-32.44-32.44v-88.37c0-17.83,14.58-32.44,32.44-32.44h88.37M134.32,22.5H45.95C20.62,22.5,0,43.12,0,68.45v88.37c0,25.33,20.62,45.95,45.95,45.95h88.37c25.33,0,45.95-20.62,45.95-45.95v-88.37c0-25.33-20.62-45.95-45.95-45.95h0Z" fill="#fff"/>
        </g>
        <g>
          <path class="cls-4" d="M53.4,144.64c5.48,3.12,11.72,4.68,18.73,4.68,4.02,0,7.8-.51,11.39-1.56,3.56-1.05,6.22-2.33,7.98-3.89v-38.15h-25.41v16.14h8.08v9.93c-.69.13-1.46.2-2.33.2-3.12,0-5.81-.82-8.08-2.48-2.28-1.66-4.04-3.89-5.3-6.68s-1.89-5.96-1.89-9.54.69-6.91,2.1-9.82c1.38-2.92,3.38-5.19,5.99-6.81,2.58-1.61,5.65-2.43,9.16-2.43,2.87,0,5.55.51,8.08,1.51,2.53,1,4.96,2.51,7.29,4.53l-.1-20.44c-2.07-1.23-4.66-2.2-7.73-2.87-3.07-.69-6.17-1.02-9.29-1.02-6.93,0-13.15,1.61-18.63,4.86-5.48,3.25-9.75,7.68-12.79,13.28-3.04,5.6-4.58,11.82-4.58,18.63s1.54,13.38,4.58,18.93c3.04,5.55,7.32,9.88,12.79,13h-.05Z" fill="#fff"/>
          <path class="cls-4" d="M104.87,113.01c2.3,2.15,5.07,3.99,8.31,5.55,1.69,1.05,3.38,1.92,5.07,2.64,2.33,1.1,3.99,2.07,4.96,2.92s1.46,1.94,1.46,3.3c0,.84-.23,1.61-.72,2.28-.49.69-1.13,1.23-1.94,1.61s-1.87.59-3.17.59c-2.46,0-5.01-.69-7.65-2.05-2.64-1.36-5.01-3.07-7.19-5.12-2.17-2.05-3.94-4.14-5.3-6.27v22.49c1.23,1.61,2.89,3.04,5.01,4.27,2.1,1.23,4.53,2.23,7.24,2.97,2.71.74,5.53,1.13,8.37,1.13,4.81,0,9.11-1,12.89-3.02,3.79-2.02,6.75-4.76,8.85-8.26s3.17-7.34,3.17-11.49c0-3.25-.67-6.14-2-8.65-1.33-2.53-3.12-4.76-5.4-6.68-2.28-1.92-4.96-3.71-8.08-5.4-1.1-.38-1.94-.77-2.53-1.13-.59-.36-1.46-.74-2.64-1.13-2.53-1.23-4.27-2.25-5.24-3.07-.97-.82-1.46-1.84-1.46-3.07,0-.77.23-1.54.69-2.23.46-.72,1.1-1.2,1.94-1.46s1.82-.38,2.92-.38c3.17,0,6.45.87,9.82,2.64,3.38,1.77,6.68,4.12,9.93,7.11l-.97-20.44c-1.77-1.77-4.3-3.3-7.65-4.68-3.35-1.36-7.14-2.05-11.44-2.05-4.61,0-8.75.87-12.46,2.64-3.71,1.77-6.63,4.25-8.8,7.5s-3.25,6.93-3.25,11.1c0,3.12.64,6.01,1.89,8.65,1.25,2.66,3.04,5.07,5.35,7.19Z" fill="#fff"/>
        </g>
      </g>
    </g>
    <g>
      <g>
        <rect class="cls-4" x="356.7" y="196.67" width="225.26" height="407.07" transform="translate(869.53 -69.13) rotate(90)" fill="#fff"/>
        <g>
          <path class="cls-1" d="M290.58,400.2c0,1.54-1.25,2.79-2.79,2.79s-2.79-1.25-2.79-2.79c0-1.54,1.25-2.79,2.79-2.79s2.79,1.25,2.79,2.79Z" fill="#ef6d22"/>
          <path class="cls-4" d="M648.09,400.2c0-1.54,1.25-2.79,2.79-2.79s2.79,1.25,2.79,2.79-1.25,2.79-2.79,2.79-2.79-1.25-2.79-2.79Z" fill="#fff"/>
          <path class="cls-4" d="M596.94,400.2c0-32,25.96-58.4,57.92-58.98v56.65c-.81-1.38-2.32-2.29-3.98-2.29-2.54,0-4.61,2.07-4.61,4.61s2.07,4.61,4.61,4.61c1.66,0,3.17-.91,3.98-2.29v56.65c-31.96-.58-57.92-26.98-57.92-58.98Z" fill="#fff"/>
          <path class="cls-4" d="M654.86,307.89v31.51c-15.95.28-30.92,6.7-42.17,18.09-11.33,11.47-17.57,26.64-17.57,42.71,0,16.08,6.24,31.24,17.57,42.71,11.25,11.39,26.22,17.81,42.17,18.09v31.51s-121.49,0-121.49,0v-184.61s121.49,0,121.49,0Z" fill="#fff"/>
          <path class="cls-1" d="M531.54,307.89v184.61s-124.42,0-124.42,0v-184.61s124.42,0,124.42,0ZM461.66,400.2c0,4.23,3.44,7.67,7.67,7.67s7.67-3.44,7.67-7.67c0-4.23-3.44-7.67-7.67-7.67s-7.67,3.44-7.67,7.67Z" fill="#ef6d22"/>
          <path class="cls-1" d="M325.98,442.91c11.33-11.47,17.57-26.64,17.57-42.71s-6.24-31.24-17.57-42.71c-11.25-11.39-26.22-17.81-42.17-18.09v-31.51s121.49,0,121.49,0v184.61s-121.49,0-121.49,0v-31.51c15.95-.28,30.92-6.7,42.17-18.09Z" fill="#ef6d22"/>
          <path class="cls-1" d="M475.1,399.21c.66,4-2.76,7.42-6.76,6.76-2.42-.4-4.37-2.35-4.78-4.77-.66-4,2.76-7.42,6.76-6.76,2.42.4,4.37,2.35,4.78,4.77Z" fill="#ef6d22"/>
          <path class="cls-1" d="M341.72,400.2c0,32-25.96,58.4-57.92,58.98v-56.65c.81,1.38,2.32,2.29,3.98,2.29,2.54,0,4.61-2.07,4.61-4.61s-2.07-4.61-4.61-4.61c-1.66,0-3.17.91-3.98,2.29v-56.65c31.96.58,57.92,26.98,57.92,58.98Z" fill="#ef6d22"/>
          <path d="M477,400.2c0,4.23-3.44,7.67-7.67,7.67s-7.67-3.44-7.67-7.67c0-4.23,3.44-7.67,7.67-7.67s7.67,3.44,7.67,7.67ZM463.48,400.2c0,3.22,2.62,5.85,5.85,5.85,3.23,0,5.85-2.62,5.85-5.85,0-3.22-2.62-5.85-5.85-5.85-3.23,0-5.85,2.62-5.85,5.85Z"/>
          <path d="M281.98,306.07h374.7s0,188.26,0,188.26h-374.7s0-188.26,0-188.26ZM284.99,400.2c0,1.54,1.25,2.79,2.79,2.79s2.79-1.25,2.79-2.79c0-1.54-1.25-2.79-2.79-2.79s-2.79,1.25-2.79,2.79ZM283.8,397.88c.81-1.38,2.32-2.29,3.98-2.29,2.54,0,4.61,2.07,4.61,4.61s-2.07,4.61-4.61,4.61c-1.66,0-3.17-.91-3.98-2.29v56.65c31.96-.58,57.92-26.98,57.92-58.98,0-32-25.96-58.4-57.92-58.98v56.65ZM653.67,400.2c0-1.54-1.25-2.79-2.79-2.79s-2.79,1.25-2.79,2.79c0,1.54,1.25,2.79,2.79,2.79s2.79-1.25,2.79-2.79ZM654.86,402.53c-.81,1.38-2.32,2.29-3.98,2.29-2.54,0-4.61-2.07-4.61-4.61s2.07-4.61,4.61-4.61c1.66,0,3.17.91,3.98,2.29v-56.65c-31.96.58-57.92,26.98-57.92,58.98,0,32,25.96,58.4,57.92,58.98v-56.65ZM654.86,492.51v-31.51c-15.95-.28-30.92-6.7-42.17-18.09-11.33-11.47-17.57-26.64-17.57-42.71,0-16.08,6.24-31.24,17.57-42.71,11.25-11.39,26.22-17.81,42.17-18.09v-31.51s-121.49,0-121.49,0v184.61s121.49,0,121.49,0ZM531.54,492.51v-184.61s-124.42,0-124.42,0v184.61s124.42,0,124.42,0ZM405.3,492.51v-184.61s-121.49,0-121.49,0v31.51c15.95.28,30.92,6.7,42.17,18.09,11.33,11.47,17.57,26.64,17.57,42.71s-6.24,31.24-17.57,42.71c-11.25,11.39-26.22,17.81-42.17,18.09v31.51s121.49,0,121.49,0Z"/>
        </g>
      </g>
      <g>
        <g>
          <rect class="cls-4" x="767.88" y="323.58" width="153.25" height="153.25" rx="30.53" ry="30.53" fill="#fff"/>
          <path class="cls-1" d="M888.7,323.58c17.83,0,32.44,14.6,32.44,32.44v88.38c0,17.83-14.6,32.44-32.44,32.44h-88.38c-17.83,0-32.44-14.6-32.44-32.44v-88.38c0-17.83,14.6-32.44,32.44-32.44h88.38M888.7,310.07h-88.38c-25.34,0-45.94,20.61-45.94,45.94v88.38c0,25.34,20.61,45.94,45.94,45.94h88.38c25.34,0,45.94-20.61,45.94-45.94v-88.38c0-25.34-20.61-45.94-45.94-45.94h0Z" fill="#ef6d22"/>
        </g>
        <g>
          <path class="cls-1" d="M812.94,384.25c2.59-1.63,5.65-2.44,9.16-2.44,2.85,0,5.55.51,8.06,1.5,2.54,1.02,4.96,2.52,7.3,4.53l-.1-20.43c-2.09-1.22-4.66-2.19-7.73-2.87-3.08-.69-6.18-1.02-9.29-1.02-6.95,0-13.15,1.63-18.62,4.86-5.5,3.26-9.74,7.68-12.8,13.28-3.05,5.62-4.58,11.83-4.58,18.62s1.53,13.38,4.58,18.93c3.05,5.55,7.3,9.87,12.8,13,5.47,3.1,11.73,4.68,18.72,4.68,4.02,0,7.81-.51,11.4-1.55,3.56-1.04,6.23-2.34,7.99-3.89v-38.13h-25.39v16.15h8.09v9.92c-.69.13-1.45.2-2.34.2-3.1,0-5.8-.81-8.06-2.49-2.26-1.65-4.04-3.87-5.32-6.67-1.27-2.8-1.91-5.98-1.91-9.54s.69-6.92,2.09-9.82c1.4-2.93,3.38-5.19,5.98-6.82h-.03Z" fill="#ef6d22"/>
          <path class="cls-1" d="M867.92,435.54h5.75c5.9,0,11.19-1.48,15.87-4.43,4.68-2.95,8.37-7.12,11.09-12.54,2.72-5.42,4.1-11.63,4.1-18.62s-1.35-13.18-4.04-18.5c-2.7-5.32-6.41-9.41-11.19-12.26-4.78-2.85-10.18-4.27-16.21-4.27h-25.01v70.65h19.67l-.03-.03ZM871.43,382.6c2.47,0,4.66.61,6.56,1.86,1.91,1.22,3.43,3.15,4.58,5.8,1.14,2.62,1.7,5.95,1.7,9.97s-.56,7.38-1.7,10.02c-1.14,2.67-2.67,4.63-4.63,5.88-1.93,1.27-4.12,1.91-6.51,1.91h-3.51v-35.41h3.51v-.03Z" fill="#ef6d22"/>
        </g>
      </g>
      <g>
        <g>
          <rect class="cls-1" x="17.53" y="323.58" width="153.23" height="153.23" rx="30.7" ry="30.7" fill="#ef6d22"/>
          <path class="cls-4" d="M138.34,323.58c17.83,0,32.44,14.58,32.44,32.44v88.37c0,17.83-14.58,32.44-32.44,32.44H49.97c-17.83,0-32.44-14.58-32.44-32.44v-88.37c0-17.83,14.58-32.44,32.44-32.44h88.37M138.34,310.07H49.97c-25.33,0-45.95,20.62-45.95,45.95v88.37c0,25.33,20.62,45.95,45.95,45.95h88.37c25.33,0,45.95-20.62,45.95-45.95v-88.37c0-25.33-20.62-45.95-45.95-45.95h0Z" fill="#fff"/>
        </g>
        <g>
          <path class="cls-4" d="M50.27,432.21c5.48,3.12,11.72,4.68,18.73,4.68,4.02,0,7.8-.51,11.39-1.56,3.56-1.05,6.22-2.33,7.98-3.89v-38.15h-25.41v16.14h8.08v9.93c-.69.13-1.46.2-2.33.2-3.12,0-5.81-.82-8.08-2.48-2.28-1.66-4.04-3.89-5.3-6.68s-1.89-5.96-1.89-9.54.69-6.91,2.1-9.82c1.38-2.92,3.38-5.19,5.99-6.81,2.58-1.61,5.65-2.43,9.16-2.43,2.87,0,5.55.51,8.08,1.51s4.96,2.51,7.29,4.53l-.1-20.44c-2.07-1.23-4.66-2.2-7.73-2.87-3.07-.69-6.17-1.02-9.29-1.02-6.93,0-13.15,1.61-18.63,4.86-5.48,3.25-9.75,7.68-12.79,13.28s-4.58,11.82-4.58,18.63,1.54,13.38,4.58,18.93c3.04,5.55,7.32,9.88,12.79,13h-.05Z" fill="#fff"/>
          <path class="cls-4" d="M111.04,364.87l-18.68,70.64h19.85l2.89-12.26h17.35l2.84,12.26h20.14l-18.68-70.64h-25.71ZM128.97,406.62h-10.31l5.12-24.13,5.19,24.13Z" fill="#fff"/>
        </g>
      </g>
    </g>
    <g>
      <g>
        <rect class="cls-4" x="356.7" y="484.24" width="225.26" height="407.07" transform="translate(1157.1 218.44) rotate(90)" fill="#fff"/>
        <g>
          <path class="cls-4" d="M290.58,687.77c0,1.54-1.25,2.79-2.79,2.79s-2.79-1.25-2.79-2.79,1.25-2.79,2.79-2.79,2.79,1.25,2.79,2.79Z" fill="#fff"/>
          <path class="cls-4" d="M648.09,687.77c0-1.54,1.25-2.79,2.79-2.79s2.79,1.25,2.79,2.79-1.25,2.79-2.79,2.79-2.79-1.25-2.79-2.79Z" fill="#fff"/>
          <path class="cls-4" d="M596.94,687.77c0-32,25.96-58.4,57.92-58.98v56.65c-.81-1.38-2.32-2.29-3.98-2.29-2.54,0-4.61,2.07-4.61,4.61s2.07,4.61,4.61,4.61c1.66,0,3.17-.91,3.98-2.29v56.65c-31.96-.58-57.92-26.98-57.92-58.98Z" fill="#fff"/>
          <path class="cls-4" d="M654.86,595.47v31.51c-15.95.28-30.92,6.7-42.17,18.09-11.33,11.47-17.57,26.64-17.57,42.71s6.24,31.24,17.57,42.71c11.25,11.39,26.22,17.81,42.17,18.09v31.51h-121.49v-184.61h121.49Z" fill="#fff"/>
          <path class="cls-6" d="M531.54,595.47v184.61h-124.42v-184.61h124.42ZM461.66,687.77c0,4.23,3.44,7.67,7.67,7.67s7.67-3.44,7.67-7.67-3.44-7.67-7.67-7.67-7.67,3.44-7.67,7.67Z" fill="#fa0"/>
          <path class="cls-6" d="M325.98,730.49c11.33-11.47,17.57-26.64,17.57-42.71s-6.24-31.24-17.57-42.71c-11.25-11.39-26.22-17.81-42.17-18.09v-31.51h121.49v184.61h-121.49v-31.51c15.95-.28,30.92-6.7,42.17-18.09Z" fill="#fa0"/>
          <path class="cls-6" d="M475.1,686.78c.66,4-2.76,7.42-6.76,6.76-2.42-.4-4.37-2.35-4.78-4.77-.66-4,2.76-7.42,6.76-6.76,2.42.4,4.37,2.35,4.78,4.77Z" fill="#fa0"/>
          <path class="cls-4" d="M341.72,687.77c0,32-25.96,58.4-57.92,58.98v-56.65c.81,1.38,2.32,2.29,3.98,2.29,2.54,0,4.61-2.07,4.61-4.61s-2.07-4.61-4.61-4.61c-1.66,0-3.17.91-3.98,2.29v-56.65c31.96.58,57.92,26.98,57.92,58.98Z" fill="#fff"/>
          <path d="M477,687.77c0,4.23-3.44,7.67-7.67,7.67s-7.67-3.44-7.67-7.67,3.44-7.67,7.67-7.67,7.67,3.44,7.67,7.67ZM463.48,687.77c0,3.22,2.62,5.85,5.85,5.85s5.85-2.62,5.85-5.85-2.62-5.85-5.85-5.85-5.85,2.62-5.85,5.85Z"/>
          <path d="M281.98,593.64h374.7v188.26h-374.7v-188.26ZM284.99,687.77c0,1.54,1.25,2.79,2.79,2.79s2.79-1.25,2.79-2.79-1.25-2.79-2.79-2.79-2.79,1.25-2.79,2.79ZM283.8,685.45c.81-1.38,2.32-2.29,3.98-2.29,2.54,0,4.61,2.07,4.61,4.61s-2.07,4.61-4.61,4.61c-1.66,0-3.17-.91-3.98-2.29v56.65c31.96-.58,57.92-26.98,57.92-58.98s-25.96-58.4-57.92-58.98v56.65ZM653.67,687.77c0-1.54-1.25-2.79-2.79-2.79s-2.79,1.25-2.79,2.79,1.25,2.79,2.79,2.79,2.79-1.25,2.79-2.79ZM654.86,690.1c-.81,1.38-2.32,2.29-3.98,2.29-2.54,0-4.61-2.07-4.61-4.61s2.07-4.61,4.61-4.61c1.66,0,3.17.91,3.98,2.29v-56.65c-31.96.58-57.92,26.98-57.92,58.98s25.96,58.4,57.92,58.98v-56.65ZM654.86,780.08v-31.51c-15.95-.28-30.92-6.7-42.17-18.09-11.33-11.47-17.57-26.64-17.57-42.71s6.24-31.24,17.57-42.71c11.25-11.39,26.22-17.81,42.17-18.09v-31.51h-121.49v184.61h121.49ZM531.54,780.08v-184.61h-124.42v184.61h124.42ZM405.3,780.08v-184.61h-121.49v31.51c15.95.28,30.92,6.7,42.17,18.09,11.33,11.47,17.57,26.64,17.57,42.71s-6.24,31.24-17.57,42.71c-11.25,11.39-26.22,17.81-42.17,18.09v31.51h121.49Z"/>
        </g>
      </g>
      <g>
        <g>
          <rect class="cls-4" x="767.88" y="611.15" width="153.25" height="153.25" rx="30.53" ry="30.53" fill="#fff"/>
          <path class="cls-6" d="M888.7,611.15c17.83,0,32.44,14.6,32.44,32.44v88.38c0,17.83-14.6,32.44-32.44,32.44h-88.38c-17.83,0-32.44-14.6-32.44-32.44v-88.38c0-17.83,14.6-32.44,32.44-32.44h88.38M888.7,597.64h-88.38c-25.34,0-45.94,20.61-45.94,45.94v88.38c0,25.34,20.61,45.94,45.94,45.94h88.38c25.34,0,45.94-20.61,45.94-45.94v-88.38c0-25.34-20.61-45.94-45.94-45.94h0Z" fill="#fa0"/>
        </g>
        <g>
          <polygon class="cls-6" points="835.38 652.46 830.59 693.96 823.01 652.46 812.68 652.46 805.31 694.74 800.42 652.46 782.03 652.46 793.43 723.11 811.23 723.11 817.72 690.7 824.29 723.11 842.48 723.11 853.77 652.46 835.38 652.46" fill="#fa0"/>
          <path class="cls-6" d="M876.06,723.11h3.79c4.94,0,9.46-1.48,13.64-4.43,4.15-2.95,7.45-7.17,9.87-12.64,2.44-5.47,3.66-11.65,3.66-18.55s-1.22-13.18-3.66-18.55c-2.44-5.34-5.75-9.44-9.97-12.26-4.22-2.82-8.88-4.22-14.02-4.22h-21.5v70.65s18.19,0,18.19,0ZM877.99,669.3c1.93,0,3.66.66,5.11,1.98s2.65,3.38,3.56,6.13c.92,2.75,1.37,6.21,1.37,10.35s-.43,7.48-1.32,10.35c-.86,2.9-2.09,5.04-3.61,6.41-1.53,1.4-3.23,2.09-5.11,2.09h-1.93v-37.37h1.93v.05Z" fill="#fa0"/>
        </g>
      </g>
      <g>
        <g>
          <rect class="cls-6" x="17.53" y="611.15" width="153.23" height="153.23" rx="30.7" ry="30.7" fill="#fa0"/>
          <path class="cls-4" d="M138.34,611.15c17.83,0,32.44,14.58,32.44,32.44v88.37c0,17.83-14.58,32.44-32.44,32.44H49.97c-17.83,0-32.44-14.58-32.44-32.44v-88.37c0-17.83,14.58-32.44,32.44-32.44h88.37M138.34,597.64H49.97c-25.33,0-45.95,20.62-45.95,45.95v88.37c0,25.33,20.62,45.95,45.95,45.95h88.37c25.33,0,45.95-20.62,45.95-45.95v-88.37c0-25.33-20.62-45.95-45.95-45.95h0Z" fill="#fff"/>
        </g>
        <g>
          <polygon class="cls-4" points="61.94 723.08 68.41 690.66 74.99 723.08 93.18 723.08 104.46 652.44 86.07 652.44 81.28 693.94 73.71 652.44 63.4 652.44 56 694.71 51.14 652.44 32.75 652.44 44.13 723.08 61.94 723.08" fill="#fff"/>
          <path class="cls-4" d="M121.48,711.41h13.33l1.97,11.67h18.78l-14.89-70.64h-24.61l-15.09,70.64h18.5l2.02-11.67ZM124.14,694.86l4.12-26.02,4.04,26.02h-8.16Z" fill="#fff"/>
        </g>
      </g>
    </g>
    <g>
      <g>
        <rect class="cls-4" x="356.7" y="1346.95" width="225.26" height="407.07" transform="translate(2019.82 1081.16) rotate(90)" fill="#fff"/>
        <g>
          <path class="cls-8" d="M648.09,1550.49c0,1.54,1.25,2.79,2.79,2.79s2.79-1.25,2.79-2.79-1.25-2.79-2.79-2.79-2.79,1.25-2.79,2.79Z" fill="#0052b3"/>
          <path class="cls-4" d="M290.58,1550.49c0-1.54-1.25-2.79-2.79-2.79s-2.79,1.25-2.79,2.79,1.25,2.79,2.79,2.79,2.79-1.25,2.79-2.79Z" fill="#fff"/>
          <path class="cls-4" d="M341.72,1550.49c0-32-25.96-58.4-57.92-58.98v56.65c.81-1.38,2.32-2.29,3.98-2.29,2.54,0,4.61,2.07,4.61,4.61s-2.07,4.61-4.61,4.61c-1.66,0-3.17-.91-3.98-2.29v56.65c31.96-.58,57.92-26.98,57.92-58.98Z" fill="#fff"/>
          <path class="cls-4" d="M283.8,1458.18v31.51c15.95.28,30.92,6.7,42.17,18.09,11.33,11.47,17.57,26.64,17.57,42.71s-6.24,31.24-17.57,42.71c-11.25,11.39-26.22,17.81-42.17,18.09v31.51h121.49v-184.61h-121.49Z" fill="#fff"/>
          <path class="cls-8" d="M407.12,1458.18v184.61h124.42v-184.61h-124.42ZM477,1550.49c0,4.23-3.44,7.67-7.67,7.67s-7.67-3.44-7.67-7.67,3.44-7.67,7.67-7.67,7.67,3.44,7.67,7.67Z" fill="#0052b3"/>
          <path class="cls-8" d="M612.68,1593.2c-11.33-11.47-17.57-26.64-17.57-42.71s6.24-31.24,17.57-42.71c11.25-11.39,26.22-17.81,42.17-18.09v-31.51h-121.49v184.61h121.49v-31.51c-15.95-.28-30.92-6.7-42.17-18.09Z" fill="#0052b3"/>
          <path class="cls-8" d="M463.56,1549.5c-.66,4,2.76,7.42,6.76,6.76,2.42-.4,4.37-2.35,4.78-4.77.66-4-2.76-7.42-6.76-6.76-2.42.4-4.37,2.35-4.78,4.77Z" fill="#0052b3"/>
          <path class="cls-8" d="M596.94,1550.49c0,32,25.96,58.4,57.92,58.98v-56.65c-.81,1.38-2.32,2.29-3.98,2.29-2.54,0-4.61-2.07-4.61-4.61s2.07-4.61,4.61-4.61c1.66,0,3.17.91,3.98,2.29v-56.65c-31.96.58-57.92,26.98-57.92,58.98Z" fill="#0052b3"/>
          <path d="M461.66,1550.49c0,4.23,3.44,7.67,7.67,7.67s7.67-3.44,7.67-7.67-3.44-7.67-7.67-7.67-7.67,3.44-7.67,7.67ZM475.18,1550.49c0,3.22-2.62,5.85-5.85,5.85s-5.85-2.62-5.85-5.85,2.62-5.85,5.85-5.85,5.85,2.62,5.85,5.85Z"/>
          <path d="M656.68,1456.36h-374.7v188.26h374.7v-188.26ZM653.67,1550.49c0,1.54-1.25,2.79-2.79,2.79s-2.79-1.25-2.79-2.79,1.25-2.79,2.79-2.79,2.79,1.25,2.79,2.79ZM654.86,1548.16c-.81-1.38-2.32-2.29-3.98-2.29-2.54,0-4.61,2.07-4.61,4.61s2.07,4.61,4.61,4.61c1.66,0,3.17-.91,3.98-2.29v56.65c-31.96-.58-57.92-26.98-57.92-58.98s25.96-58.4,57.92-58.98v56.65ZM284.99,1550.49c0-1.54,1.25-2.79,2.79-2.79s2.79,1.25,2.79,2.79-1.25,2.79-2.79,2.79-2.79-1.25-2.79-2.79ZM283.8,1552.81c.81,1.38,2.32,2.29,3.98,2.29,2.54,0,4.61-2.07,4.61-4.61s-2.07-4.61-4.61-4.61c-1.66,0-3.17.91-3.98,2.29v-56.65c31.96.58,57.92,26.98,57.92,58.98s-25.96,58.4-57.92,58.98v-56.65ZM283.8,1642.8v-31.51c15.95-.28,30.92-6.7,42.17-18.09,11.33-11.47,17.57-26.64,17.57-42.71s-6.24-31.24-17.57-42.71c-11.25-11.39-26.22-17.81-42.17-18.09v-31.51h121.49v184.61h-121.49ZM407.12,1642.8v-184.61h124.42v184.61h-124.42ZM533.36,1642.8v-184.61h121.49v31.51c-15.95.28-30.92,6.7-42.17,18.09-11.33,11.47-17.57,26.64-17.57,42.71s6.24,31.24,17.57,42.71c11.25,11.39,26.22,17.81,42.17,18.09v31.51h-121.49Z"/>
        </g>
      </g>
      <g>
        <g>
          <rect class="cls-4" x="767.88" y="1473.86" width="153.25" height="153.25" rx="30.53" ry="30.53" fill="#fff"/>
          <path class="cls-8" d="M888.7,1473.86c17.83,0,32.44,14.6,32.44,32.44v88.38c0,17.83-14.6,32.44-32.44,32.44h-88.38c-17.83,0-32.44-14.6-32.44-32.44v-88.38c0-17.83,14.6-32.44,32.44-32.44h88.38M888.7,1460.35h-88.38c-25.34,0-45.94,20.61-45.94,45.94v88.38c0,25.34,20.61,45.94,45.94,45.94h88.38c25.34,0,45.94-20.61,45.94-45.94v-88.38c0-25.34-20.61-45.94-45.94-45.94h0Z" fill="#0052b3"/>
        </g>
        <g>
          <path class="cls-8" d="M800.63,1582.52c5.47,3.1,11.73,4.68,18.72,4.68,4.02,0,7.81-.51,11.4-1.55,3.56-1.04,6.23-2.34,7.99-3.89v-38.13h-25.39v16.15h8.09v9.92c-.69.13-1.45.2-2.34.2-3.1,0-5.8-.84-8.06-2.49-2.26-1.65-4.04-3.87-5.32-6.67-1.27-2.8-1.91-5.98-1.91-9.54s.69-6.92,2.09-9.82c1.4-2.93,3.38-5.19,5.98-6.82,2.59-1.63,5.65-2.44,9.16-2.44,2.85,0,5.55.51,8.06,1.5,2.54,1.02,4.96,2.52,7.3,4.53l-.1-20.43c-2.09-1.22-4.66-2.19-7.73-2.87-3.08-.69-6.18-1.02-9.29-1.02-6.95,0-13.15,1.63-18.62,4.86-5.5,3.26-9.74,7.68-12.8,13.28-3.05,5.62-4.58,11.83-4.58,18.62s1.53,13.38,4.58,18.93c3.05,5.55,7.3,9.87,12.8,13h-.03Z" fill="#0052b3"/>
          <path class="cls-8" d="M861.4,1515.18l-18.67,70.65h19.84l2.87-12.26h17.35l2.82,12.26h20.15l-18.67-70.65h-25.69ZM879.36,1556.93h-10.33l5.11-24.12,5.19,24.12h.03Z" fill="#0052b3"/>
        </g>
      </g>
      <g>
        <g>
          <rect class="cls-8" x="17.53" y="1473.86" width="153.23" height="153.23" rx="30.7" ry="30.7" fill="#0052b3"/>
          <path class="cls-4" d="M138.34,1473.86c17.83,0,32.44,14.58,32.44,32.44v88.37c0,17.83-14.58,32.44-32.44,32.44H49.97c-17.83,0-32.44-14.58-32.44-32.44v-88.37c0-17.83,14.58-32.44,32.44-32.44h88.37M138.34,1460.35H49.97c-25.33,0-45.95,20.62-45.95,45.95v88.37c0,25.33,20.62,45.95,45.95,45.95h88.37c25.33,0,45.95-20.62,45.95-45.95v-88.37c0-25.33-20.62-45.95-45.95-45.95h0Z" fill="#fff"/>
        </g>
        <g>
          <path class="cls-4" d="M63.25,1534.52c2.58-1.61,5.65-2.43,9.16-2.43,2.87,0,5.55.51,8.08,1.51,2.53,1,4.96,2.51,7.29,4.53l-.1-20.44c-2.07-1.23-4.66-2.2-7.73-2.87-3.07-.69-6.17-1.02-9.29-1.02-6.93,0-13.15,1.61-18.63,4.86-5.48,3.25-9.75,7.68-12.79,13.28-3.04,5.6-4.58,11.82-4.58,18.63s1.54,13.38,4.58,18.93c3.04,5.55,7.32,9.88,12.79,13,5.48,3.12,11.72,4.68,18.73,4.68,4.02,0,7.8-.51,11.39-1.56,3.56-1.05,6.22-2.33,7.98-3.89v-38.15h-25.41v16.14h8.08v9.93c-.69.13-1.46.2-2.33.2-3.12,0-5.81-.82-8.08-2.48-2.28-1.66-4.04-3.86-5.3-6.68-1.25-2.79-1.89-5.96-1.89-9.54s.69-6.91,2.1-9.82c1.38-2.92,3.38-5.19,5.99-6.81h-.05Z" fill="#fff"/>
          <path class="cls-4" d="M118.23,1585.82h5.73c5.91,0,11.18-1.48,15.86-4.43,4.68-2.94,8.37-7.14,11.1-12.56,2.74-5.42,4.09-11.62,4.09-18.63s-1.36-13.18-4.04-18.5c-2.69-5.32-6.42-9.42-11.18-12.25-4.76-2.87-10.18-4.27-16.2-4.27h-25v70.64h19.65-.03ZM121.73,1532.89c2.46,0,4.66.61,6.58,1.84,1.92,1.23,3.43,3.17,4.58,5.78,1.13,2.64,1.71,5.96,1.71,9.98s-.56,7.37-1.71,10.03c-1.13,2.66-2.69,4.63-4.63,5.88-1.94,1.28-4.12,1.89-6.52,1.89h-3.51v-35.41h3.51Z" fill="#fff"/>
        </g>
      </g>
    </g>
    <g>
      <g>
        <rect class="cls-4" x="356.7" y="1634.52" width="225.26" height="407.07" transform="translate(2307.39 1368.73) rotate(90)" fill="#fff"/>
        <g>
          <path class="cls-3" d="M648.09,1838.06c0,1.54,1.25,2.79,2.79,2.79s2.79-1.25,2.79-2.79-1.25-2.79-2.79-2.79-2.79,1.25-2.79,2.79Z" fill="#639"/>
          <path class="cls-4" d="M290.58,1838.06c0-1.54-1.25-2.79-2.79-2.79s-2.79,1.25-2.79,2.79,1.25,2.79,2.79,2.79,2.79-1.25,2.79-2.79Z" fill="#fff"/>
          <path class="cls-4" d="M341.72,1838.06c0-32-25.96-58.4-57.92-58.98v56.65c.81-1.38,2.32-2.29,3.98-2.29,2.54,0,4.61,2.07,4.61,4.61s-2.07,4.61-4.61,4.61c-1.66,0-3.17-.91-3.98-2.29v56.65c31.96-.58,57.92-26.98,57.92-58.98Z" fill="#fff"/>
          <path class="cls-4" d="M283.8,1745.75v31.51c15.95.28,30.92,6.7,42.17,18.09,11.33,11.47,17.57,26.64,17.57,42.71s-6.24,31.24-17.57,42.71c-11.25,11.39-26.22,17.81-42.17,18.09v31.51h121.49v-184.61h-121.49Z" fill="#fff"/>
          <path class="cls-4" d="M407.12,1745.75v184.61h124.42v-184.61h-124.42ZM477,1838.06c0,4.23-3.44,7.67-7.67,7.67s-7.67-3.44-7.67-7.67,3.44-7.67,7.67-7.67,7.67,3.44,7.67,7.67Z" fill="#fff"/>
          <path class="cls-3" d="M612.68,1880.77c-11.33-11.47-17.57-26.64-17.57-42.71s6.24-31.24,17.57-42.71c11.25-11.39,26.22-17.81,42.17-18.09v-31.51h-121.49v184.61h121.49v-31.51c-15.95-.28-30.92-6.7-42.17-18.09Z" fill="#639"/>
          <path class="cls-4" d="M463.56,1837.07c-.66,4,2.76,7.42,6.76,6.76,2.42-.4,4.37-2.35,4.78-4.77.66-4-2.76-7.42-6.76-6.76-2.42.4-4.37,2.35-4.78,4.77Z" fill="#fff"/>
          <path class="cls-3" d="M596.94,1838.06c0,32,25.96,58.4,57.92,58.98v-56.65c-.81,1.38-2.32,2.29-3.98,2.29-2.54,0-4.61-2.07-4.61-4.61s2.07-4.61,4.61-4.61c1.66,0,3.17.91,3.98,2.29v-56.65c-31.96.58-57.92,26.98-57.92,58.98Z" fill="#639"/>
          <path d="M461.66,1838.06c0,4.23,3.44,7.67,7.67,7.67s7.67-3.44,7.67-7.67-3.44-7.67-7.67-7.67-7.67,3.44-7.67,7.67ZM475.18,1838.06c0,3.22-2.62,5.85-5.85,5.85s-5.85-2.62-5.85-5.85,2.62-5.85,5.85-5.85,5.85,2.62,5.85,5.85Z"/>
          <path d="M656.68,1743.93h-374.7v188.26h374.7v-188.26ZM653.67,1838.06c0,1.54-1.25,2.79-2.79,2.79s-2.79-1.25-2.79-2.79,1.25-2.79,2.79-2.79,2.79,1.25,2.79,2.79ZM654.86,1835.74c-.81-1.38-2.32-2.29-3.98-2.29-2.54,0-4.61,2.07-4.61,4.61s2.07,4.61,4.61,4.61c1.66,0,3.17-.91,3.98-2.29v56.65c-31.96-.58-57.92-26.98-57.92-58.98s25.96-58.4,57.92-58.98v56.65ZM284.99,1838.06c0-1.54,1.25-2.79,2.79-2.79s2.79,1.25,2.79,2.79-1.25,2.79-2.79,2.79-2.79-1.25-2.79-2.79ZM283.8,1840.39c.81,1.38,2.32,2.29,3.98,2.29,2.54,0,4.61-2.07,4.61-4.61s-2.07-4.61-4.61-4.61c-1.66,0-3.17.91-3.98,2.29v-56.65c31.96.58,57.92,26.98,57.92,58.98s-25.96,58.4-57.92,58.98v-56.65ZM283.8,1930.37v-31.51c15.95-.28,30.92-6.7,42.17-18.09,11.33-11.47,17.57-26.64,17.57-42.71s-6.24-31.24-17.57-42.71c-11.25-11.39-26.22-17.81-42.17-18.09v-31.51h121.49v184.61h-121.49ZM407.12,1930.37v-184.61h124.42v184.61h-124.42ZM533.36,1930.37v-184.61h121.49v31.51c-15.95.28-30.92,6.7-42.17,18.09-11.33,11.47-17.57,26.64-17.57,42.71s6.24,31.24,17.57,42.71c11.25,11.39,26.22,17.81,42.17,18.09v31.51h-121.49Z"/>
        </g>
      </g>
      <g>
        <g>
          <rect class="cls-4" x="767.88" y="1761.44" width="153.25" height="153.25" rx="30.53" ry="30.53" fill="#fff"/>
          <path class="cls-3" d="M888.7,1761.44c17.83,0,32.44,14.6,32.44,32.44v88.38c0,17.83-14.6,32.44-32.44,32.44h-88.38c-17.83,0-32.44-14.6-32.44-32.44v-88.38c0-17.83,14.6-32.44,32.44-32.44h88.38M888.7,1747.93h-88.38c-25.34,0-45.94,20.61-45.94,45.94v88.38c0,25.34,20.61,45.94,45.94,45.94h88.38c25.34,0,45.94-20.61,45.94-45.94v-88.38c0-25.34-20.61-45.94-45.94-45.94h0Z" fill="#639"/>
        </g>
        <g>
          <path class="cls-3" d="M807.77,1870.09c5.47,3.1,11.73,4.68,18.72,4.68,4.02,0,7.81-.51,11.4-1.55,3.56-1.04,6.23-2.34,7.99-3.89v-38.13h-25.39v16.15h8.09v9.92c-.69.13-1.45.2-2.34.2-3.1,0-5.8-.84-8.06-2.49-2.26-1.65-4.04-3.87-5.32-6.67s-1.91-5.98-1.91-9.54.69-6.92,2.09-9.82c1.4-2.93,3.38-5.19,5.98-6.82,2.59-1.63,5.65-2.44,9.16-2.44,2.85,0,5.55.51,8.06,1.5,2.54,1.02,4.96,2.52,7.3,4.53l-.1-20.43c-2.09-1.22-4.66-2.19-7.73-2.87-3.08-.69-6.18-1.02-9.29-1.02-6.95,0-13.15,1.63-18.62,4.86-5.5,3.26-9.74,7.68-12.8,13.28-3.05,5.62-4.58,11.83-4.58,18.62s1.53,13.38,4.58,18.93c3.05,5.55,7.3,9.87,12.8,13h-.03Z" fill="#639"/>
          <path class="cls-3" d="M859.27,1838.47c2.29,2.14,5.09,3.99,8.32,5.55,1.68,1.04,3.38,1.91,5.06,2.62,2.34,1.09,3.99,2.09,4.96,2.93.97.84,1.45,1.93,1.45,3.31,0,.84-.25,1.6-.74,2.29-.48.69-1.14,1.22-1.96,1.6-.81.38-1.86.59-3.15.59-2.47,0-5.01-.69-7.63-2.04-2.62-1.37-5.04-3.08-7.2-5.11-2.16-2.04-3.94-4.15-5.29-6.28v22.49c1.22,1.63,2.9,3.05,5.01,4.27,2.11,1.22,4.53,2.21,7.25,2.98,2.72.74,5.52,1.12,8.37,1.12,4.81,0,9.11-1.02,12.9-3.03,3.79-2.01,6.74-4.76,8.85-8.27,2.11-3.51,3.15-7.33,3.15-11.47,0-3.23-.66-6.13-1.98-8.65-1.32-2.52-3.13-4.76-5.39-6.67-2.26-1.91-4.96-3.71-8.09-5.39-1.09-.38-1.93-.76-2.52-1.12-.59-.36-1.45-.74-2.62-1.12-2.54-1.22-4.27-2.26-5.27-3.05-.97-.81-1.45-1.83-1.45-3.08,0-.79.23-1.53.69-2.24s1.09-1.2,1.93-1.45,1.81-.38,2.93-.38c3.18,0,6.46.87,9.82,2.62s6.69,4.12,9.92,7.1l-.97-20.43c-1.76-1.76-4.3-3.31-7.63-4.68-3.33-1.37-7.15-2.04-11.42-2.04-4.6,0-8.75.87-12.47,2.62-3.71,1.76-6.64,4.25-8.8,7.5-2.19,3.26-3.26,6.95-3.26,11.09,0,3.1.64,6,1.91,8.65,1.27,2.67,3.05,5.06,5.34,7.2l-.03-.03Z" fill="#639"/>
        </g>
      </g>
      <g>
        <g>
          <rect class="cls-3" x="17.53" y="1761.44" width="153.23" height="153.23" rx="30.7" ry="30.7" fill="#639"/>
          <path class="cls-4" d="M138.34,1761.44c17.83,0,32.44,14.58,32.44,32.44v88.37c0,17.83-14.58,32.44-32.44,32.44H49.97c-17.83,0-32.44-14.58-32.44-32.44v-88.37c0-17.83,14.58-32.44,32.44-32.44h88.37M138.34,1747.93H49.97c-25.33,0-45.95,20.62-45.95,45.95v88.37c0,25.33,20.62,45.95,45.95,45.95h88.37c25.33,0,45.95-20.62,45.95-45.95v-88.37c0-25.33-20.62-45.95-45.95-45.95h0Z" fill="#fff"/>
        </g>
        <g>
          <path class="cls-4" d="M63.94,1847.3h8.08v9.93c-.69.13-1.46.2-2.33.2-3.12,0-5.81-.82-8.08-2.48-2.28-1.66-4.04-3.86-5.3-6.68-1.25-2.79-1.89-5.96-1.89-9.54s.69-6.91,2.1-9.82c1.38-2.92,3.38-5.19,5.99-6.81,2.58-1.61,5.65-2.43,9.16-2.43,2.87,0,5.55.51,8.08,1.51s4.96,2.51,7.29,4.53l-.1-20.44c-2.07-1.23-4.66-2.2-7.73-2.87-3.07-.69-6.17-1.02-9.29-1.02-6.93,0-13.15,1.61-18.63,4.86-5.48,3.25-9.75,7.68-12.79,13.28-3.04,5.6-4.58,11.82-4.58,18.63s1.54,13.38,4.58,18.93c3.04,5.55,7.32,9.88,12.79,13,5.48,3.12,11.72,4.68,18.73,4.68,4.02,0,7.8-.51,11.39-1.56,3.56-1.05,6.22-2.33,7.98-3.89v-38.15h-25.41v16.14h-.05Z" fill="#fff"/>
          <polygon class="cls-4" points="132.84 1802.73 117.56 1828.82 117.56 1802.73 97.81 1802.73 97.81 1873.37 117.56 1873.37 117.56 1845.79 131.86 1873.37 154.22 1873.37 133.27 1836.12 154.43 1802.73 132.84 1802.73" fill="#fff"/>
        </g>
      </g>
    </g>
    <g>
      <g>
        <rect class="cls-4" x="356.7" y="1059.38" width="225.26" height="407.07" transform="translate(1732.25 793.59) rotate(90)" fill="#fff"/>
        <g>
          <path class="cls-4" d="M648.09,1262.92c0,1.54,1.25,2.79,2.79,2.79s2.79-1.25,2.79-2.79-1.25-2.79-2.79-2.79-2.79,1.25-2.79,2.79Z" fill="#fff"/>
          <path class="cls-4" d="M290.58,1262.92c0-1.54-1.25-2.79-2.79-2.79s-2.79,1.25-2.79,2.79,1.25,2.79,2.79,2.79,2.79-1.25,2.79-2.79Z" fill="#fff"/>
          <path class="cls-4" d="M341.72,1262.92c0-32-25.96-58.4-57.92-58.98v56.65c.81-1.38,2.32-2.29,3.98-2.29,2.54,0,4.61,2.07,4.61,4.61s-2.07,4.61-4.61,4.61c-1.66,0-3.17-.91-3.98-2.29v56.65c31.96-.58,57.92-26.98,57.92-58.98Z" fill="#fff"/>
          <path class="cls-4" d="M283.8,1170.61v31.51c15.95.28,30.92,6.7,42.17,18.09,11.33,11.47,17.57,26.64,17.57,42.71s-6.24,31.24-17.57,42.71c-11.25,11.39-26.22,17.81-42.17,18.09v31.51h121.49v-184.61h-121.49Z" fill="#fff"/>
          <path class="cls-7" d="M407.12,1170.61v184.61h124.42v-184.61h-124.42ZM477,1262.92c0,4.23-3.44,7.67-7.67,7.67s-7.67-3.44-7.67-7.67,3.44-7.67,7.67-7.67,7.67,3.44,7.67,7.67Z" fill="#099"/>
          <path class="cls-7" d="M612.68,1305.63c-11.33-11.47-17.57-26.64-17.57-42.71s6.24-31.24,17.57-42.71c11.25-11.39,26.22-17.81,42.17-18.09v-31.51h-121.49v184.61h121.49v-31.51c-15.95-.28-30.92-6.7-42.17-18.09Z" fill="#099"/>
          <path class="cls-7" d="M463.56,1261.92c-.66,4,2.76,7.42,6.76,6.76,2.42-.4,4.37-2.35,4.78-4.77.66-4-2.76-7.42-6.76-6.76-2.42.4-4.37,2.35-4.78,4.77Z" fill="#099"/>
          <path class="cls-4" d="M596.94,1262.92c0,32,25.96,58.4,57.92,58.98v-56.65c-.81,1.38-2.32,2.29-3.98,2.29-2.54,0-4.61-2.07-4.61-4.61s2.07-4.61,4.61-4.61c1.66,0,3.17.91,3.98,2.29v-56.65c-31.96.58-57.92,26.98-57.92,58.98Z" fill="#fff"/>
          <path d="M461.66,1262.92c0,4.23,3.44,7.67,7.67,7.67s7.67-3.44,7.67-7.67-3.44-7.67-7.67-7.67-7.67,3.44-7.67,7.67ZM475.18,1262.92c0,3.22-2.62,5.85-5.85,5.85s-5.85-2.62-5.85-5.85,2.62-5.85,5.85-5.85,5.85,2.62,5.85,5.85Z"/>
          <path d="M656.68,1168.79h-374.7v188.26h374.7v-188.26ZM653.67,1262.92c0,1.54-1.25,2.79-2.79,2.79s-2.79-1.25-2.79-2.79,1.25-2.79,2.79-2.79,2.79,1.25,2.79,2.79ZM654.86,1260.59c-.81-1.38-2.32-2.29-3.98-2.29-2.54,0-4.61,2.07-4.61,4.61s2.07,4.61,4.61,4.61c1.66,0,3.17-.91,3.98-2.29v56.65c-31.96-.58-57.92-26.98-57.92-58.98s25.96-58.4,57.92-58.98v56.65ZM284.99,1262.92c0-1.54,1.25-2.79,2.79-2.79s2.79,1.25,2.79,2.79-1.25,2.79-2.79,2.79-2.79-1.25-2.79-2.79ZM283.8,1265.24c.81,1.38,2.32,2.29,3.98,2.29,2.54,0,4.61-2.07,4.61-4.61s-2.07-4.61-4.61-4.61c-1.66,0-3.17.91-3.98,2.29v-56.65c31.96.58,57.92,26.98,57.92,58.98s-25.96,58.4-57.92,58.98v-56.65ZM283.8,1355.22v-31.51c15.95-.28,30.92-6.7,42.17-18.09,11.33-11.47,17.57-26.64,17.57-42.71s-6.24-31.24-17.57-42.71c-11.25-11.39-26.22-17.81-42.17-18.09v-31.51h121.49v184.61h-121.49ZM407.12,1355.22v-184.61h124.42v184.61h-124.42ZM533.36,1355.22v-184.61h121.49v31.51c-15.95.28-30.92,6.7-42.17,18.09-11.33,11.47-17.57,26.64-17.57,42.71s6.24,31.24,17.57,42.71c11.25,11.39,26.22,17.81,42.17,18.09v31.51h-121.49Z"/>
        </g>
      </g>
      <g>
        <g>
          <rect class="cls-4" x="767.88" y="1186.29" width="153.25" height="153.25" rx="30.53" ry="30.53" fill="#fff"/>
          <path class="cls-7" d="M888.7,1186.29c17.83,0,32.44,14.6,32.44,32.44v88.38c0,17.83-14.6,32.44-32.44,32.44h-88.38c-17.83,0-32.44-14.6-32.44-32.44v-88.38c0-17.83,14.6-32.44,32.44-32.44h88.38M888.7,1172.78h-88.38c-25.34,0-45.94,20.61-45.94,45.94v88.38c0,25.34,20.61,45.94,45.94,45.94h88.38c25.34,0,45.94-20.61,45.94-45.94v-88.38c0-25.34-20.61-45.94-45.94-45.94h0Z" fill="#099"/>
        </g>
        <g>
          <polygon class="cls-7" points="812.3 1298.25 818.79 1265.84 825.35 1298.25 843.54 1298.25 854.84 1227.61 836.45 1227.61 831.66 1269.1 824.08 1227.61 813.75 1227.61 806.38 1269.89 801.49 1227.61 783.12 1227.61 794.5 1298.25 812.3 1298.25" fill="#099"/>
          <path class="cls-7" d="M871.83,1286.58h13.33l1.96,11.68h18.77l-14.88-70.65h-24.63l-15.09,70.65h18.5l2.01-11.68h.03ZM874.5,1270.04l4.12-26.03,4.04,26.03h-8.17Z" fill="#099"/>
        </g>
      </g>
      <g>
        <g>
          <rect class="cls-7" x="17.53" y="1186.32" width="153.23" height="153.23" rx="30.7" ry="30.7" fill="#099"/>
          <path class="cls-4" d="M138.34,1186.32c17.83,0,32.44,14.58,32.44,32.44v88.37c0,17.83-14.58,32.44-32.44,32.44H49.97c-17.83,0-32.44-14.58-32.44-32.44v-88.37c0-17.83,14.58-32.44,32.44-32.44h88.37M138.34,1172.78H49.97c-25.33,0-45.95,20.62-45.95,45.95v88.37c0,25.33,20.62,45.95,45.95,45.95h88.37c25.33,0,45.95-20.62,45.95-45.95v-88.37c0-25.33-20.62-45.95-45.95-45.95h0Z" fill="#fff"/>
        </g>
        <g>
          <polygon class="cls-4" points="84.81 1227.61 80.03 1269.11 72.46 1227.61 62.15 1227.61 54.75 1269.88 49.86 1227.61 31.49 1227.61 42.88 1298.25 60.69 1298.25 67.16 1265.83 73.71 1298.25 91.9 1298.25 103.21 1227.61 84.81 1227.61" fill="#fff"/>
          <path class="cls-4" d="M125.49,1298.25h3.79c4.94,0,9.47-1.48,13.61-4.43,4.14-2.94,7.45-7.16,9.88-12.64,2.43-5.48,3.66-11.67,3.66-18.52s-1.23-13.18-3.66-18.55c-2.43-5.35-5.76-9.44-9.98-12.26-4.22-2.81-8.88-4.22-14.02-4.22h-21.52v70.64h18.19l.05-.03ZM127.44,1244.45c1.94,0,3.66.67,5.12,2s2.64,3.38,3.56,6.14c.9,2.76,1.36,6.22,1.36,10.36s-.43,7.47-1.3,10.36c-.87,2.89-2.07,5.04-3.61,6.42-1.54,1.41-3.22,2.1-5.12,2.1h-1.94v-37.35h1.94v-.03Z" fill="#fff"/>
        </g>
      </g>
    </g>
    <g>
      <g>
        <rect class="cls-4" x="356.7" y="771.81" width="225.26" height="407.07" transform="translate(-506.01 1444.68) rotate(-90)" fill="#fff"/>
        <g>
          <path class="cls-4" d="M648.09,975.35c0-1.54,1.25-2.79,2.79-2.79,1.54,0,2.79,1.25,2.79,2.79,0,1.54-1.25,2.79-2.79,2.79s-2.79-1.25-2.79-2.79Z" fill="#fff"/>
          <path class="cls-4" d="M290.58,975.35c0,1.54-1.25,2.79-2.79,2.79s-2.79-1.25-2.79-2.79,1.25-2.79,2.79-2.79c1.54,0,2.79,1.25,2.79,2.79Z" fill="#fff"/>
          <path class="cls-4" d="M341.72,975.35c0,32-25.96,58.4-57.92,58.98v-56.65c.81,1.38,2.32,2.29,3.98,2.29,2.54,0,4.61-2.07,4.61-4.61,0-2.54-2.07-4.61-4.61-4.61-1.66,0-3.17.91-3.98,2.29v-56.65c31.96.58,57.92,26.98,57.92,58.98Z" fill="#fff"/>
          <path class="cls-5" d="M283.8,1067.65v-31.51c15.95-.28,30.92-6.7,42.17-18.09,11.33-11.47,17.57-26.64,17.57-42.71,0-16.08-6.24-31.24-17.57-42.71-11.25-11.39-26.22-17.81-42.17-18.09v-31.51s121.49,0,121.49,0v184.61s-121.49,0-121.49,0Z" fill="#093"/>
          <path class="cls-2" d="M407.12,1067.65v-184.61s124.42,0,124.42,0v184.61s-124.42,0-124.42,0ZM477,975.35c0-4.23-3.44-7.67-7.67-7.67-4.23,0-7.67,3.44-7.67,7.67,0,4.23,3.44,7.67,7.67,7.67,4.23,0,7.67-3.44,7.67-7.67Z" fill="#009949"/>
          <path class="cls-5" d="M612.68,932.63c-11.33,11.47-17.57,26.64-17.57,42.71,0,16.08,6.24,31.24,17.57,42.71,11.25,11.39,26.22,17.81,42.17,18.09v31.51s-121.49,0-121.49,0v-184.61s121.49,0,121.49,0v31.51c-15.95.28-30.92,6.7-42.17,18.09Z" fill="#093"/>
          <path class="cls-5" d="M463.56,976.34c-.66-4,2.76-7.42,6.76-6.76,2.42.4,4.37,2.35,4.78,4.77.66,4-2.76,7.42-6.76,6.76-2.42-.4-4.37-2.35-4.78-4.77Z" fill="#093"/>
          <path class="cls-4" d="M596.94,975.35c0-32,25.96-58.4,57.92-58.98v56.65c-.81-1.38-2.32-2.29-3.98-2.29-2.54,0-4.61,2.07-4.61,4.61,0,2.54,2.07,4.61,4.61,4.61,1.66,0,3.17-.91,3.98-2.29v56.65c-31.96-.58-57.92-26.98-57.92-58.98Z" fill="#fff"/>
          <path d="M461.66,975.35c0-4.23,3.44-7.67,7.67-7.67,4.23,0,7.67,3.44,7.67,7.67,0,4.23-3.44,7.67-7.67,7.67-4.23,0-7.67-3.44-7.67-7.67ZM475.18,975.35c0-3.22-2.62-5.85-5.85-5.85-3.23,0-5.85,2.62-5.85,5.85,0,3.22,2.62,5.85,5.85,5.85,3.23,0,5.85-2.62,5.85-5.85Z"/>
          <path d="M656.68,1069.48h-374.7s0-188.26,0-188.26h374.7s0,188.26,0,188.26ZM653.67,975.35c0-1.54-1.25-2.79-2.79-2.79-1.54,0-2.79,1.25-2.79,2.79s1.25,2.79,2.79,2.79,2.79-1.25,2.79-2.79ZM654.86,977.67c-.81,1.38-2.32,2.29-3.98,2.29-2.54,0-4.61-2.07-4.61-4.61,0-2.54,2.07-4.61,4.61-4.61,1.66,0,3.17.91,3.98,2.29v-56.65c-31.96.58-57.92,26.98-57.92,58.98,0,32,25.96,58.4,57.92,58.98v-56.65ZM284.99,975.35c0,1.54,1.25,2.79,2.79,2.79s2.79-1.25,2.79-2.79-1.25-2.79-2.79-2.79c-1.54,0-2.79,1.25-2.79,2.79ZM283.8,973.02c.81-1.38,2.32-2.29,3.98-2.29,2.54,0,4.61,2.07,4.61,4.61,0,2.54-2.07,4.61-4.61,4.61-1.66,0-3.17-.91-3.98-2.29v56.65c31.96-.58,57.92-26.98,57.92-58.98,0-32-25.96-58.4-57.92-58.98v56.65ZM283.8,883.04v31.51c15.95.28,30.92,6.7,42.17,18.09,11.33,11.47,17.57,26.64,17.57,42.71,0,16.08-6.24,31.24-17.57,42.71-11.25,11.39-26.22,17.81-42.17,18.09v31.51s121.49,0,121.49,0v-184.61s-121.49,0-121.49,0ZM407.12,883.04v184.61s124.42,0,124.42,0v-184.61s-124.42,0-124.42,0ZM533.36,883.04v184.61s121.49,0,121.49,0v-31.51c-15.95-.28-30.92-6.7-42.17-18.09-11.33-11.47-17.57-26.64-17.57-42.71,0-16.08,6.24-31.24,17.57-42.71,11.25-11.39,26.22-17.81,42.17-18.09v-31.51s-121.49,0-121.49,0Z"/>
        </g>
      </g>
      <g>
        <g>
          <rect class="cls-4" x="767.88" y="898.72" width="153.25" height="153.25" rx="30.53" ry="30.53" fill="#fff"/>
          <path class="cls-5" d="M888.7,898.72c17.83,0,32.44,14.6,32.44,32.44v88.38c0,17.83-14.6,32.44-32.44,32.44h-88.38c-17.83,0-32.44-14.6-32.44-32.44v-88.38c0-17.83,14.6-32.44,32.44-32.44h88.38M888.7,885.21h-88.38c-25.34,0-45.94,20.61-45.94,45.94v88.38c0,25.34,20.61,45.94,45.94,45.94h88.38c25.34,0,45.94-20.61,45.94-45.94v-88.38c0-25.34-20.61-45.94-45.94-45.94h0Z" fill="#093"/>
        </g>
        <path class="cls-5" d="M819.71,957.69c-3.1,5.75-4.68,11.93-4.68,18.55s1.68,13.03,5.01,18.44c3.33,5.42,7.76,9.64,13.28,12.64,5.52,3,11.4,4.53,17.6,4.53,4.15,0,8.04-.56,11.63-1.65,3.61-1.09,6.74-2.7,9.39-4.78l2.04-21.98c-3.05,3.38-6.36,6.03-9.92,7.94-3.56,1.91-7.17,2.87-10.81,2.87-3.38,0-6.44-.81-9.18-2.49-2.75-1.65-4.96-3.92-6.61-6.82-1.65-2.87-2.49-6.08-2.49-9.59s.84-6.77,2.54-9.64c1.68-2.85,3.94-5.11,6.77-6.77,2.82-1.65,5.93-2.49,9.29-2.49,3.56,0,6.95.94,10.13,2.82,3.18,1.88,6.13,4.53,8.85,7.99v-22.59c-3.05-1.93-6.39-3.41-10.02-4.38-3.64-.97-7.2-1.45-10.71-1.45-7.07,0-13.41,1.7-19.03,5.11-5.62,3.41-9.97,7.99-13.1,13.71l.05.03Z" fill="#093"/>
      </g>
      <g>
        <g>
          <rect class="cls-5" x="17.53" y="898.75" width="153.23" height="153.23" rx="30.7" ry="30.7" fill="#093"/>
          <path class="cls-4" d="M138.34,898.75c17.83,0,32.44,14.58,32.44,32.44v88.37c0,17.83-14.58,32.44-32.44,32.44H49.97c-17.83,0-32.44-14.58-32.44-32.44v-88.37c0-17.83,14.58-32.44,32.44-32.44h88.37M138.34,885.21H49.97c-25.33,0-45.95,20.62-45.95,45.95v88.37c0,25.33,20.62,45.95,45.95,45.95h88.37c25.33,0,45.95-20.62,45.95-45.95v-88.37c0-25.33-20.62-45.95-45.95-45.95h0Z" fill="#fff"/>
        </g>
        <path class="cls-4" d="M69.33,957.69c-3.12,5.73-4.68,11.92-4.68,18.55s1.66,13.02,5.01,18.45c3.35,5.42,7.78,9.62,13.28,12.64,5.5,3.02,11.39,4.53,17.6,4.53,4.14,0,8.03-.56,11.62-1.66,3.61-1.1,6.73-2.69,9.39-4.76l2.05-22c-3.04,3.38-6.37,6.01-9.93,7.93-3.56,1.92-7.16,2.87-10.8,2.87-3.38,0-6.45-.82-9.18-2.48-2.76-1.66-4.96-3.91-6.63-6.81-1.66-2.89-2.48-6.09-2.48-9.59s.84-6.78,2.53-9.62c1.69-2.87,3.94-5.12,6.75-6.75,2.81-1.66,5.91-2.48,9.29-2.48,3.56,0,6.93.95,10.13,2.81,3.2,1.87,6.14,4.53,8.85,7.98v-22.57c-3.04-1.94-6.4-3.4-10.03-4.37-3.63-.97-7.19-1.46-10.69-1.46-7.06,0-13.41,1.71-19.03,5.12-5.6,3.4-9.98,7.98-13.1,13.71l.05-.03Z" fill="#fff"/>
      </g>
    </g>
  </g>
</svg>
