<?xml version="1.0" encoding="UTF-8"?>
<svg id="Layer_1" data-name="Layer 1" xmlns="http://www.w3.org/2000/svg" viewBox="0 0 100 100">
  <defs>
    <style>
      .cls-1 {
        fill: #093;
        stroke: #b3b3b3;
        stroke-linejoin: round;
        stroke-width: .25px;
      }

      .cls-2 {
        fill: #fff;
      }

      .cls-3 {
        fill: #b3b3b3;
      }
    </style>
  </defs>
  <g id="Green_C_Fire.svg">
    <g id="Layer_1-2" data-name="Layer 1-2">
      <g>
        <rect class="cls-1" x="8" y="8" width="84" height="84" rx="21.41" ry="21.41"/>
        <g>
          <path class="cls-2" d="M52.98,66.89c-2.87,0-5.61-.71-8.14-2.1-2.55-1.4-4.61-3.37-6.14-5.85-1.51-2.46-2.31-5.41-2.31-8.53s.73-5.94,2.16-8.58c0-.01.01-.03.01-.05,1.43-2.61,3.46-4.73,6.03-6.29,2.6-1.57,5.56-2.37,8.8-2.37,1.62,0,3.24.22,4.95.68,1.66.44,3.2,1.11,4.58,1.99v10.09c-1.22-1.49-2.54-2.66-3.94-3.47-1.51-.88-3.12-1.33-4.78-1.33s-3.08.39-4.39,1.17c-1.32.77-2.4,1.84-3.19,3.19-.79,1.34-1.2,2.87-1.2,4.55s.39,3.18,1.17,4.53c.79,1.37,1.81,2.42,3.13,3.22,1.27.78,2.74,1.17,4.35,1.17,1.73,0,3.44-.45,5.09-1.35,1.59-.86,3.07-2.02,4.4-3.45l-.92,9.88c-1.19.87-2.65,1.61-4.29,2.11-1.66.51-3.47.77-5.38.77Z"/>
          <path class="cls-3" d="M53.39,33.27c1.61,0,3.22.22,4.92.67,1.62.43,3.13,1.08,4.49,1.93v9.67c-1.17-1.38-2.43-2.46-3.75-3.23-1.53-.89-3.16-1.35-4.84-1.35s-3.12.4-4.45,1.19c-1.34.78-2.43,1.87-3.24,3.24-.8,1.36-1.21,2.91-1.21,4.61s.4,3.22,1.19,4.59c.8,1.39,1.84,2.45,3.18,3.26,1.3.79,2.78,1.19,4.41,1.19,1.75,0,3.48-.46,5.15-1.36,1.5-.82,2.91-1.89,4.19-3.21l-.88,9.42c-1.21.92-2.62,1.62-4.21,2.11-1.64.51-3.44.77-5.34.77-2.85,0-5.57-.7-8.08-2.08-2.53-1.39-4.58-3.34-6.09-5.8-1.5-2.44-2.3-5.37-2.3-8.46s.72-5.88,2.13-8.49c.02-.03.04-.06.04-.1,1.42-2.58,3.43-4.67,5.97-6.21,2.58-1.56,5.52-2.35,8.74-2.35M53.39,33.02c-3.29,0-6.25.8-8.87,2.39-2.61,1.59-4.65,3.72-6.1,6.39h.02s0-.02,0-.02h0s0,.01,0,.01c-1.45,2.66-2.17,5.55-2.17,8.63s.78,6.07,2.33,8.59c1.56,2.53,3.62,4.48,6.19,5.89,2.56,1.41,5.3,2.11,8.2,2.11,1.93,0,3.74-.26,5.42-.78,1.68-.51,3.13-1.25,4.38-2.22l.96-10.25c-1.42,1.57-2.97,2.8-4.62,3.7-1.65.9-3.34,1.33-5.03,1.33-1.57,0-3.01-.38-4.28-1.16-1.29-.78-2.31-1.82-3.09-3.17-.78-1.35-1.16-2.84-1.16-4.47s.39-3.16,1.18-4.48c.79-1.33,1.84-2.39,3.15-3.15,1.31-.78,2.76-1.16,4.33-1.16,1.66,0,3.23.44,4.72,1.31,1.49.87,2.86,2.11,4.13,3.72v-10.51c-1.42-.9-2.98-1.59-4.67-2.04-1.7-.45-3.35-.68-4.99-.68h0Z"/>
        </g>
      </g>
    </g>
  </g>
</svg>