<?xml version='1.0' encoding='UTF-8'?>
<svg xmlns="http://www.w3.org/2000/svg" xmlns:xlink="http://www.w3.org/1999/xlink" data-name="Layer 2" viewBox="0 0 361.19 87.43" preserveAspectRatio="xMidYMid meet">
  <defs>
    <style>
      .cls-1 {
        fill: #079a48;
      }

      .cls-2 {
        fill: #fff;
      }

      .cls-3 {
        filter: url(#outer-glow-1);
      }

      .cls-4 {
        fill: #059948;
      }
    </style>
    <filter id="outer-glow-1" x="-17.23" y="-17.04" width="395.52" height="121.68" filterUnits="userSpaceOnUse">
      <feOffset dx="0" dy="0"/>
      <feGaussianBlur result="blur" stdDeviation="5.67"/>
      <feFlood flood-color="#000" flood-opacity=".49"/>
      <feComposite in2="blur" operator="in"/>
      <feComposite in="SourceGraphic"/>
    </filter>
  </defs>
  <g id="Layer_1-2" data-name="Layer 1">
    <g class="cls-3" filter="url(#outer-glow-1)">
      <g>
        <g>
          <rect class="cls-2" x="136.88" y="-35.28" width="87.43" height="157.99" transform="translate(136.88 224.31) rotate(-90)" fill="#fff"/>
          <g>
            <path class="cls-2" d="M249.97,43.71c0-.6.49-1.08,1.08-1.08s1.08.49,1.08,1.08-.49,1.08-1.08,1.08-1.08-.49-1.08-1.08Z" fill="#fff"/>
            <path class="cls-2" d="M111.22,43.71c0,.6-.49,1.08-1.08,1.08s-1.08-.49-1.08-1.08.49-1.08,1.08-1.08,1.08.49,1.08,1.08Z" fill="#fff"/>
            <path class="cls-2" d="M131.07,43.71c0,12.42-10.07,22.67-22.48,22.89v-21.99c.32.54.9.89,1.54.89.99,0,1.79-.8,1.79-1.79s-.8-1.79-1.79-1.79c-.64,0-1.23.35-1.54.89v-21.99c12.4.22,22.48,10.47,22.48,22.89Z" fill="#fff"/>
            <path class="cls-4" d="M108.59,79.54v-12.23c6.19-.11,12-2.6,16.37-7.02,4.4-4.45,6.82-10.34,6.82-16.58,0-6.24-2.42-12.13-6.82-16.58-4.37-4.42-10.18-6.91-16.37-7.02V7.89s47.15,0,47.15,0v71.65s-47.15,0-47.15,0Z" fill="#059948"/>
            <path class="cls-4" d="M156.45,79.54V7.89s48.29,0,48.29,0v71.65s-48.29,0-48.29,0ZM183.57,43.71c0-1.64-1.34-2.98-2.98-2.98s-2.98,1.34-2.98,2.98,1.34,2.98,2.98,2.98,2.98-1.34,2.98-2.98Z" fill="#059948"/>
            <path class="cls-4" d="M236.23,27.14c-4.4,4.45-6.82,10.34-6.82,16.58,0,6.24,2.42,12.13,6.82,16.58,4.37,4.42,10.18,6.91,16.37,7.02v12.23s-47.15,0-47.15,0V7.89s47.15,0,47.15,0v12.23c-6.19.11-12,2.6-16.37,7.02Z" fill="#059948"/>
            <path class="cls-4" d="M178.36,44.1c-.26-1.55,1.07-2.88,2.62-2.62.94.16,1.7.91,1.85,1.85.26,1.55-1.07,2.88-2.62,2.62-.94-.16-1.7-.91-1.85-1.85Z" fill="#059948"/>
            <path class="cls-2" d="M230.12,43.71c0-12.42,10.07-22.67,22.48-22.89v21.99c-.32-.54-.9-.89-1.54-.89-.99,0-1.79.8-1.79,1.79s.8,1.79,1.79,1.79c.64,0,1.23-.35,1.54-.89v21.99c-12.4-.22-22.48-10.47-22.48-22.89Z" fill="#fff"/>
            <path d="M177.62,43.71c0-1.64,1.34-2.98,2.98-2.98s2.98,1.34,2.98,2.98-1.34,2.98-2.98,2.98-2.98-1.34-2.98-2.98ZM182.86,43.71c0-1.25-1.02-2.27-2.27-2.27-1.25,0-2.27,1.02-2.27,2.27s1.02,2.27,2.27,2.27,2.27-1.02,2.27-2.27Z"/>
            <path d="M253.31,80.25H107.88s0-73.07,0-73.07h145.42s0,73.07,0,73.07ZM252.14,43.71c0-.6-.49-1.08-1.08-1.08s-1.08.49-1.08,1.08.49,1.08,1.08,1.08,1.08-.49,1.08-1.08ZM252.6,44.62c-.32.54-.9.89-1.54.89-.99,0-1.79-.8-1.79-1.79s.8-1.79,1.79-1.79c.64,0,1.23.35,1.54.89v-21.99c-12.4.22-22.48,10.47-22.48,22.89,0,12.42,10.07,22.67,22.48,22.89v-21.99ZM109.05,43.71c0,.6.49,1.08,1.08,1.08s1.08-.49,1.08-1.08-.49-1.08-1.08-1.08-1.08.49-1.08,1.08ZM108.59,42.81c.32-.54.9-.89,1.54-.89.99,0,1.79.8,1.79,1.79s-.8,1.79-1.79,1.79c-.64,0-1.23-.35-1.54-.89v21.99c12.4-.22,22.48-10.47,22.48-22.89,0-12.42-10.07-22.67-22.48-22.89v21.99ZM108.59,7.89v12.23c6.19.11,12,2.6,16.37,7.02,4.4,4.45,6.82,10.34,6.82,16.58,0,6.24-2.42,12.13-6.82,16.58-4.37,4.42-10.18,6.91-16.37,7.02v12.23s47.15,0,47.15,0V7.89s-47.15,0-47.15,0ZM156.45,7.89v71.65s48.29,0,48.29,0V7.89s-48.29,0-48.29,0ZM205.45,7.89v71.65s47.15,0,47.15,0v-12.23c-6.19-.11-12-2.6-16.37-7.02-4.4-4.45-6.82-10.34-6.82-16.58,0-6.24,2.42-12.13,6.82-16.58,4.37-4.42,10.18-6.91,16.37-7.02V7.89s-47.15,0-47.15,0Z"/>
          </g>
        </g>
        <g>
          <g>
            <rect class="cls-2" x="296.47" y="13.97" width="59.48" height="59.48" rx="11.85" ry="11.85" fill="#fff"/>
            <path class="cls-1" d="M343.36,13.97c6.92,0,12.59,5.67,12.59,12.59v34.3c0,6.92-5.67,12.59-12.59,12.59h-34.3c-6.92,0-12.59-5.67-12.59-12.59V26.56c0-6.92,5.67-12.59,12.59-12.59h34.3M343.36,8.73h-34.3c-9.83,0-17.83,8-17.83,17.83v34.3c0,9.83,8,17.83,17.83,17.83h34.3c9.83,0,17.83-8,17.83-17.83V26.56c0-9.83-8-17.83-17.83-17.83h0Z" fill="#079a48"/>
          </g>
          <path class="cls-1" d="M316.58,36.86c-1.2,2.23-1.82,4.63-1.82,7.2s.65,5.06,1.95,7.16,3.01,3.74,5.15,4.91c2.14,1.17,4.42,1.76,6.83,1.76,1.61,0,3.12-.22,4.51-.64,1.4-.42,2.62-1.05,3.64-1.86l.79-8.53c-1.18,1.31-2.47,2.34-3.85,3.08s-2.78,1.12-4.2,1.12c-1.31,0-2.5-.32-3.56-.97-1.07-.64-1.93-1.52-2.57-2.65-.64-1.12-.97-2.36-.97-3.72s.33-2.63.99-3.74c.65-1.11,1.53-1.98,2.63-2.63s2.3-.97,3.6-.97c1.38,0,2.7.37,3.93,1.1s2.38,1.76,3.44,3.1v-8.77c-1.18-.75-2.48-1.32-3.89-1.7s-2.79-.56-4.16-.56c-2.74,0-5.2.66-7.39,1.98-2.18,1.32-3.87,3.1-5.08,5.32h.02Z" fill="#079a48"/>
        </g>
        <g>
          <g>
            <rect class="cls-1" x="5.24" y="13.98" width="59.47" height="59.47" rx="11.92" ry="11.92" fill="#079a48"/>
            <path class="cls-2" d="M52.13,13.98c6.92,0,12.59,5.66,12.59,12.59v34.3c0,6.92-5.66,12.59-12.59,12.59H17.83c-6.92,0-12.59-5.66-12.59-12.59V26.57c0-6.92,5.66-12.59,12.59-12.59h34.3M52.13,8.73H17.83C8,8.73,0,16.73,0,26.56v34.3c0,9.83,8,17.83,17.83,17.83h34.3c9.83,0,17.83-8,17.83-17.83V26.56c0-9.83-8-17.83-17.83-17.83h0Z" fill="#fff"/>
          </g>
          <path class="cls-2" d="M25.35,36.86c-1.21,2.22-1.82,4.63-1.82,7.2s.65,5.05,1.95,7.16,3.02,3.73,5.15,4.91c2.13,1.17,4.42,1.76,6.83,1.76,1.61,0,3.12-.22,4.51-.65,1.4-.43,2.61-1.04,3.64-1.85l.79-8.54c-1.18,1.31-2.47,2.33-3.85,3.08s-2.78,1.11-4.19,1.11c-1.31,0-2.5-.32-3.56-.96-1.07-.65-1.93-1.52-2.57-2.64-.65-1.12-.96-2.36-.96-3.72s.33-2.63.98-3.73c.66-1.11,1.53-1.99,2.62-2.62,1.09-.65,2.29-.96,3.6-.96,1.38,0,2.69.37,3.93,1.09s2.38,1.76,3.44,3.1v-8.76c-1.18-.75-2.48-1.32-3.89-1.7s-2.79-.57-4.15-.57c-2.74,0-5.2.67-7.39,1.99-2.17,1.32-3.87,3.1-5.08,5.32h.02Z" fill="#fff"/>
        </g>
      </g>
    </g>
  </g>
</svg>
