<?xml version='1.0' encoding='UTF-8'?>
<svg xmlns="http://www.w3.org/2000/svg" xmlns:xlink="http://www.w3.org/1999/xlink" data-name="Layer 2" viewBox="0 0 930.63 225.26" preserveAspectRatio="xMidYMid meet">
  <defs>
    <style>
      .cls-1 {
        fill: #009949;
      }

      .cls-2 {
        fill: #fff;
      }

      .cls-3 {
        fill: #093;
      }
    </style>
  </defs>
  <g id="Layer_1-2" data-name="Layer 1">
    <g>
      <g>
        <rect class="cls-2" x="352.68" y="-90.91" width="225.26" height="407.07" transform="translate(352.68 577.94) rotate(-90)" fill="#fff"/>
        <g>
          <path class="cls-2" d="M644.07,112.63c0-1.54,1.25-2.79,2.79-2.79,1.54,0,2.79,1.25,2.79,2.79,0,1.54-1.25,2.79-2.79,2.79s-2.79-1.25-2.79-2.79Z" fill="#fff"/>
          <path class="cls-2" d="M286.56,112.63c0,1.54-1.25,2.79-2.79,2.79s-2.79-1.25-2.79-2.79,1.25-2.79,2.79-2.79c1.54,0,2.79,1.25,2.79,2.79Z" fill="#fff"/>
          <path class="cls-2" d="M337.71,112.63c0,32-25.96,58.4-57.92,58.98v-56.65c.81,1.38,2.32,2.29,3.98,2.29,2.54,0,4.61-2.07,4.61-4.61,0-2.54-2.07-4.61-4.61-4.61-1.66,0-3.17.91-3.98,2.29v-56.65c31.96.58,57.92,26.98,57.92,58.98Z" fill="#fff"/>
          <path class="cls-3" d="M279.79,204.94v-31.51c15.95-.28,30.92-6.7,42.17-18.09,11.33-11.47,17.57-26.64,17.57-42.71,0-16.08-6.24-31.24-17.57-42.71-11.25-11.39-26.22-17.81-42.17-18.09v-31.51s121.49,0,121.49,0v184.61s-121.49,0-121.49,0Z" fill="#093"/>
          <path class="cls-1" d="M403.1,204.94V20.32s124.42,0,124.42,0v184.61s-124.42,0-124.42,0ZM472.98,112.63c0-4.23-3.44-7.67-7.67-7.67-4.23,0-7.67,3.44-7.67,7.67,0,4.23,3.44,7.67,7.67,7.67,4.23,0,7.67-3.44,7.67-7.67Z" fill="#009949"/>
          <path class="cls-3" d="M608.67,69.92c-11.33,11.47-17.57,26.64-17.57,42.71,0,16.08,6.24,31.24,17.57,42.71,11.25,11.39,26.22,17.81,42.17,18.09v31.51s-121.49,0-121.49,0V20.32s121.49,0,121.49,0v31.51c-15.95.28-30.92,6.7-42.17,18.09Z" fill="#093"/>
          <path class="cls-3" d="M459.55,113.62c-.66-4,2.76-7.42,6.76-6.76,2.42.4,4.37,2.35,4.78,4.77.66,4-2.76,7.42-6.76,6.76-2.42-.4-4.37-2.35-4.78-4.77Z" fill="#093"/>
          <path class="cls-2" d="M592.92,112.63c0-32,25.96-58.4,57.92-58.98v56.65c-.81-1.38-2.32-2.29-3.98-2.29-2.54,0-4.61,2.07-4.61,4.61,0,2.54,2.07,4.61,4.61,4.61,1.66,0,3.17-.91,3.98-2.29v56.65c-31.96-.58-57.92-26.98-57.92-58.98Z" fill="#fff"/>
          <path d="M457.64,112.63c0-4.23,3.44-7.67,7.67-7.67,4.23,0,7.67,3.44,7.67,7.67,0,4.23-3.44,7.67-7.67,7.67-4.23,0-7.67-3.44-7.67-7.67ZM471.16,112.63c0-3.22-2.62-5.85-5.85-5.85-3.23,0-5.85,2.62-5.85,5.85,0,3.22,2.62,5.85,5.85,5.85,3.23,0,5.85-2.62,5.85-5.85Z"/>
          <path d="M652.66,206.76h-374.7s0-188.26,0-188.26h374.7s0,188.26,0,188.26ZM649.65,112.63c0-1.54-1.25-2.79-2.79-2.79-1.54,0-2.79,1.25-2.79,2.79s1.25,2.79,2.79,2.79,2.79-1.25,2.79-2.79ZM650.84,114.95c-.81,1.38-2.32,2.29-3.98,2.29-2.54,0-4.61-2.07-4.61-4.61,0-2.54,2.07-4.61,4.61-4.61,1.66,0,3.17.91,3.98,2.29v-56.65c-31.96.58-57.92,26.98-57.92,58.98,0,32,25.96,58.4,57.92,58.98v-56.65ZM280.97,112.63c0,1.54,1.25,2.79,2.79,2.79s2.79-1.25,2.79-2.79-1.25-2.79-2.79-2.79c-1.54,0-2.79,1.25-2.79,2.79ZM279.79,110.31c.81-1.38,2.32-2.29,3.98-2.29,2.54,0,4.61,2.07,4.61,4.61,0,2.54-2.07,4.61-4.61,4.61-1.66,0-3.17-.91-3.98-2.29v56.65c31.96-.58,57.92-26.98,57.92-58.98,0-32-25.96-58.4-57.92-58.98v56.65ZM279.79,20.32v31.51c15.95.28,30.92,6.7,42.17,18.09,11.33,11.47,17.57,26.64,17.57,42.71,0,16.08-6.24,31.24-17.57,42.71-11.25,11.39-26.22,17.81-42.17,18.09v31.51s121.49,0,121.49,0V20.32s-121.49,0-121.49,0ZM403.1,20.32v184.61s124.42,0,124.42,0V20.32s-124.42,0-124.42,0ZM529.35,20.32v184.61s121.49,0,121.49,0v-31.51c-15.95-.28-30.92-6.7-42.17-18.09-11.33-11.47-17.57-26.64-17.57-42.71,0-16.08,6.24-31.24,17.57-42.71,11.25-11.39,26.22-17.81,42.17-18.09v-31.51s-121.49,0-121.49,0Z"/>
        </g>
      </g>
      <g>
        <g>
          <rect class="cls-2" x="763.87" y="36" width="153.25" height="153.25" rx="30.53" ry="30.53" fill="#fff"/>
          <path class="cls-3" d="M884.68,36c17.83,0,32.44,14.6,32.44,32.44v88.38c0,17.83-14.6,32.44-32.44,32.44h-88.38c-17.83,0-32.44-14.6-32.44-32.44v-88.38c0-17.83,14.6-32.44,32.44-32.44h88.38M884.68,22.5h-88.38c-25.34,0-45.94,20.61-45.94,45.94v88.38c0,25.34,20.61,45.94,45.94,45.94h88.38c25.34,0,45.94-20.61,45.94-45.94v-88.38c0-25.34-20.61-45.94-45.94-45.94h0Z" fill="#093"/>
        </g>
        <path class="cls-3" d="M815.69,94.97c-3.1,5.75-4.68,11.93-4.68,18.55s1.68,13.03,5.01,18.44c3.33,5.42,7.76,9.64,13.28,12.64,5.52,3,11.4,4.53,17.6,4.53,4.15,0,8.04-.56,11.63-1.65,3.61-1.09,6.74-2.7,9.39-4.78l2.04-21.98c-3.05,3.38-6.36,6.03-9.92,7.94-3.56,1.91-7.17,2.87-10.81,2.87-3.38,0-6.44-.81-9.18-2.49-2.75-1.65-4.96-3.92-6.61-6.82-1.65-2.87-2.49-6.08-2.49-9.59s.84-6.77,2.54-9.64c1.68-2.85,3.94-5.11,6.77-6.77,2.82-1.65,5.93-2.49,9.29-2.49,3.56,0,6.95.94,10.13,2.82,3.18,1.88,6.13,4.53,8.85,7.99v-22.59c-3.05-1.93-6.39-3.41-10.02-4.38-3.64-.97-7.2-1.45-10.71-1.45-7.07,0-13.41,1.7-19.03,5.11-5.62,3.41-9.97,7.99-13.1,13.71l.05.03Z" fill="#093"/>
      </g>
      <g>
        <g>
          <rect class="cls-3" x="13.51" y="36.03" width="153.23" height="153.23" rx="30.7" ry="30.7" fill="#093"/>
          <path class="cls-2" d="M134.32,36.03c17.83,0,32.44,14.58,32.44,32.44v88.37c0,17.83-14.58,32.44-32.44,32.44H45.95c-17.83,0-32.44-14.58-32.44-32.44v-88.37c0-17.83,14.58-32.44,32.44-32.44h88.37M134.32,22.5H45.95C20.62,22.5,0,43.12,0,68.45v88.37c0,25.33,20.62,45.95,45.95,45.95h88.37c25.33,0,45.95-20.62,45.95-45.95v-88.37c0-25.33-20.62-45.95-45.95-45.95h0Z" fill="#fff"/>
        </g>
        <path class="cls-2" d="M65.32,94.98c-3.12,5.73-4.68,11.92-4.68,18.55s1.66,13.02,5.01,18.45c3.35,5.42,7.78,9.62,13.28,12.64,5.5,3.02,11.39,4.53,17.6,4.53,4.14,0,8.03-.56,11.62-1.66,3.61-1.1,6.73-2.69,9.39-4.76l2.05-22c-3.04,3.38-6.37,6.01-9.93,7.93-3.56,1.92-7.16,2.87-10.8,2.87-3.38,0-6.45-.82-9.18-2.48-2.76-1.66-4.96-3.91-6.63-6.81-1.66-2.89-2.48-6.09-2.48-9.59s.84-6.78,2.53-9.62c1.69-2.87,3.94-5.12,6.75-6.75,2.81-1.66,5.91-2.48,9.29-2.48,3.56,0,6.93.95,10.13,2.81,3.2,1.87,6.14,4.53,8.85,7.98v-22.57c-3.04-1.94-6.4-3.4-10.03-4.37-3.63-.97-7.19-1.46-10.69-1.46-7.06,0-13.41,1.71-19.03,5.12-5.6,3.4-9.98,7.98-13.1,13.71l.05-.03Z" fill="#fff"/>
      </g>
    </g>
  </g>
</svg>
