<?xml version="1.0" encoding="UTF-8"?>
<svg id="Layer_2" data-name="Layer 2" xmlns="http://www.w3.org/2000/svg" viewBox="0 0 427.26 850.39">
  <defs>
    <style>
      .cls-1 {
        fill: #fff;
      }
    </style>
  </defs>
  <g id="Layer_1-2" data-name="Layer 1">
    <g>
      <path class="cls-1" d="M0,0v850.39h427.26V0H0ZM213.63,6.83c3.49,0,6.34,2.84,6.34,6.34s-2.84,6.34-6.34,6.34-6.34-2.84-6.34-6.34,2.84-6.34,6.34-6.34ZM208.36,4.13c-3.13,1.85-5.2,5.27-5.2,9.03,0,5.77,4.7,10.47,10.47,10.47s10.47-4.7,10.47-10.47c0-3.76-2.06-7.18-5.2-9.03h128.58c-1.31,72.54-61.23,131.45-133.86,131.45S81.09,76.67,79.78,4.13h128.58ZM213.63,843.57c-3.49,0-6.34-2.84-6.34-6.34s2.84-6.34,6.34-6.34,6.34,2.84,6.34,6.34-2.84,6.34-6.34,6.34ZM218.91,846.26c3.13-1.85,5.2-5.27,5.2-9.03,0-5.77-4.7-10.47-10.47-10.47s-10.47,4.7-10.47,10.47c0,3.76,2.06,7.18,5.2,9.03H79.78c1.31-72.54,61.23-131.45,133.86-131.45s132.54,58.91,133.86,131.45h-128.58ZM423.13,846.26h-71.5c-.63-36.2-15.2-70.17-41.06-95.72-26.02-25.71-60.45-39.87-96.94-39.87s-70.91,14.16-96.94,39.87c-25.86,25.54-40.42,59.52-41.05,95.72H4.14v-275.73h418.99v275.73ZM423.13,566.39H4.14v-282.39h418.99v282.39ZM423.13,279.87H4.14V4.13h71.51c.63,36.2,15.2,70.17,41.05,95.72,26.02,25.71,60.45,39.87,96.94,39.87s70.91-14.16,96.94-39.87c25.86-25.54,40.42-59.52,41.06-95.72h71.5v275.73Z"/>
      <path class="cls-1" d="M213.63,442.6c9.6,0,17.41-7.81,17.41-17.41s-7.81-17.41-17.41-17.41-17.41,7.81-17.41,17.41,7.81,17.41,17.41,17.41ZM213.63,411.92c7.32,0,13.27,5.95,13.27,13.27s-5.95,13.27-13.27,13.27-13.27-5.95-13.27-13.27,5.96-13.27,13.27-13.27Z"/>
    </g>
  </g>
</svg>