<?xml version="1.0" encoding="UTF-8"?>
<svg id="Layer_2" data-name="Layer 2" xmlns="http://www.w3.org/2000/svg" xmlns:xlink="http://www.w3.org/1999/xlink" viewBox="0 0 514.51 931.08">
  <defs>
    <style>
      .cls-1 {
        fill: none;
      }

      .cls-2 {
        fill: #fff;
        stroke: #fff;
        stroke-miterlimit: 10;
        stroke-width: 2px;
      }

      .cls-3 {
        clip-path: url(#clippath);
      }
    </style>
    <clipPath id="clippath">
      <rect class="cls-1" width="514.51" height="931.08"/>
    </clipPath>
  </defs>
  <g id="Layer_1-2" data-name="Layer 1">
    <g class="cls-3">
      <g>
        <path class="cls-2" d="M43.62,40.34v850.39h427.26V40.34H43.62ZM257.26,47.17c3.49,0,6.34,2.84,6.34,6.34s-2.84,6.34-6.34,6.34-6.34-2.84-6.34-6.34,2.84-6.34,6.34-6.34ZM251.98,44.48c-3.13,1.85-5.2,5.27-5.2,9.03,0,5.77,4.7,10.47,10.47,10.47s10.47-4.7,10.47-10.47c0-3.76-2.06-7.18-5.2-9.03h128.58c-1.31,72.54-61.23,131.45-133.86,131.45S124.71,117.01,123.4,44.48h128.58ZM257.26,883.91c-3.49,0-6.34-2.84-6.34-6.34s2.84-6.34,6.34-6.34,6.34,2.84,6.34,6.34-2.84,6.34-6.34,6.34ZM262.53,886.6c3.13-1.85,5.2-5.27,5.2-9.03,0-5.77-4.7-10.47-10.47-10.47s-10.47,4.7-10.47,10.47c0,3.76,2.06,7.18,5.2,9.03H123.4c1.31-72.54,61.23-131.45,133.86-131.45s132.54,58.91,133.86,131.45h-128.58ZM466.75,886.6h-71.5c-.63-36.2-15.2-70.17-41.06-95.72-26.02-25.71-60.45-39.87-96.94-39.87s-70.91,14.16-96.94,39.87c-25.86,25.54-40.42,59.52-41.05,95.72H47.76v-275.73h418.99v275.73ZM466.75,606.73H47.76v-282.39h418.99v282.39ZM466.75,320.21H47.76V44.48h71.51c.63,36.2,15.2,70.17,41.05,95.72,26.02,25.71,60.45,39.87,96.94,39.87s70.91-14.16,96.94-39.87c25.86-25.54,40.42-59.52,41.06-95.72h71.5v275.73Z"/>
        <path class="cls-2" d="M257.25,482.95c9.6,0,17.41-7.81,17.41-17.41s-7.81-17.41-17.41-17.41-17.41,7.81-17.41,17.41,7.81,17.41,17.41,17.41ZM257.25,452.27c7.32,0,13.27,5.95,13.27,13.27s-5.95,13.27-13.27,13.27-13.27-5.95-13.27-13.27,5.96-13.27,13.27-13.27Z"/>
      </g>
    </g>
  </g>
</svg>