<?xml version='1.0' encoding='UTF-8'?>
<svg xmlns="http://www.w3.org/2000/svg" xmlns:xlink="http://www.w3.org/1999/xlink" data-name="Layer 2" viewBox="0 0 571.99 571.99" preserveAspectRatio="xMidYMid meet">
  <defs>
    <style>
      .cls-1 {
        fill: #414042;
      }
    </style>
  </defs>
  <g id="Layer_1-2" data-name="Layer 1">
    <path class="cls-1" d="M285.99,0c-76.39,0-148.21,29.75-202.23,83.77C29.76,137.77.01,209.57,0,285.94v.11c.01,76.37,29.76,148.17,83.77,202.17,54.02,54.02,125.83,83.76,202.22,83.77h0c76.39,0,148.21-29.75,202.22-83.77,54.02-54.02,83.77-125.84,83.77-202.23s-29.75-148.21-83.77-202.23C434.21,29.75,362.39,0,285.99,0ZM457.24,502.99c-28.44,22.51-61.41,39.53-97.28,49.48l-13.72-76.72c6.82-3.51,14.6-7.04,23.3-10.26,11.96-4.43,23.06-7.32,32.75-9.23,8.61-.03,18.78.54,30.06,2.38,10.35,1.69,19.45,4.08,27.13,6.58l-2.24,37.78ZM463.91,456.14c-8.48-2.79-18.53-5.47-29.96-7.38-12.23-2.04-23.27-2.73-32.66-2.77-10.43,2.13-22.37,5.31-35.23,10.12-9.84,3.68-18.6,7.71-26.24,11.7-11.97-1.94-22.32-2.92-30.46-3.45-10.29-.67-18.28-.68-23.08-.68s-12.79.01-23.08.68c-8.14.53-18.49,1.51-30.46,3.45-8.47-4.45-17.28-8.38-26.24-11.7-11.26-4.17-22.96-7.46-34.77-9.76-9.39-.14-20.61.39-33.12,2.41-11.52,1.86-21.58,4.58-29.96,7.38-9.46-6.75-17.94-14.76-25.21-23.82-6.8-8.47-12.49-17.8-16.92-27.73.21-8.58.94-17.21,2.17-25.66,1.85-12.72,4.87-25.35,8.97-37.6,22.21,4.1,44.76,7.59,67.12,10.38,0,0,69.61,8.68,141.51,8.97,1.17,0,2.35,0,2.35,0,.82,0,1.57,0,2.36,0v-.03c45.57-.31,91.6-3.31,136.78-8.95,22.36-2.79,44.91-6.29,67.12-10.38,4.11,12.25,7.13,24.87,8.97,37.6,1.23,8.45,1.96,17.08,2.17,25.66-4.43,9.94-10.12,19.26-16.92,27.73-7.27,9.06-15.75,17.06-25.21,23.82ZM113.09,465.21c7.68-2.5,16.78-4.9,27.13-6.58,11.27-1.84,21.44-2.41,30.06-2.38,9.69,1.91,20.79,4.8,32.75,9.23,8.7,3.23,16.48,6.76,23.3,10.26l-13.72,76.73c-35.88-9.95-68.84-26.97-97.28-49.47l-2.24-37.78ZM498.02,285.99c.03,16.27-1.27,28.34-1.59,31.28-.63,5.64-1.35,10.4-1.94,13.97-22.46,4.17-45.3,7.71-67.95,10.54-46,5.74-92.88,8.73-139.36,8.9-47.1-.09-94.57-3.08-141.16-8.9-22.63-2.82-45.47-6.37-67.94-10.54-.59-3.55-1.31-8.32-1.94-13.97-.32-2.89-1.59-14.76-1.6-30.77,0-16.04,1.27-27.94,1.6-30.84.63-5.65,1.35-10.42,1.94-13.97,22.47-4.17,45.31-7.72,67.94-10.54,46.54-5.81,93.95-8.79,140.99-8.9,46.53.16,93.47,3.15,139.53,8.9,22.64,2.83,45.48,6.37,67.95,10.54.59,3.53,1.31,8.3,1.94,13.97.31,2.82,1.57,14.52,1.59,30.32ZM494.9,231.61c-17.41-3.22-40.23-7.02-67.12-10.38-64.32-8.03-115.2-8.92-139.94-8.96-25.47-.04-77.43.76-143.05,8.96-26.79,3.34-49.59,7.14-67.12,10.38-4.11-12.25-7.13-24.87-8.97-37.6-1.23-8.46-1.96-17.09-2.17-25.66,4.43-9.94,10.12-19.26,16.92-27.73,7.27-9.06,15.74-17.06,25.21-23.82,8.48,2.79,18.53,5.47,29.96,7.38,12.25,2.05,23.32,2.74,32.73,2.78,10.42-2.14,22.33-5.33,35.16-10.13,9.84-3.68,18.59-7.71,26.24-11.7,11.84,1.85,22.16,2.87,30.46,3.45,11.77.82,20.61.85,23.08.85s11.31-.03,23.08-.85c8.31-.58,18.63-1.6,30.46-3.45,7.58,3.98,16.33,8.03,26.24,11.7,12.74,4.72,24.53,7.76,34.77,9.76,9.39.14,20.61-.39,33.12-2.41,11.52-1.86,21.58-4.58,29.96-7.38,9.47,6.75,17.94,14.76,25.21,23.82,6.8,8.47,12.49,17.79,16.92,27.73-.21,8.58-.94,17.21-2.17,25.66-1.85,12.73-4.86,25.35-8.97,37.6ZM115.33,70.24c28.44-22.5,61.41-39.53,97.28-49.47l13.72,76.73c-6.82,3.51-14.6,7.04-23.3,10.26-11.96,4.43-23.06,7.32-32.75,9.23-8.61.03-18.78-.54-30.06-2.38-10.35-1.69-19.45-4.08-27.13-6.58l2.24-37.78ZM459.47,108.03c-7.67,2.5-16.78,4.89-27.13,6.58-11.02,1.8-20.97,2.38-29.43,2.38-9.82-1.85-21.15-4.72-33.38-9.23-8.72-3.22-16.5-6.75-23.3-10.26l13.72-76.73c35.88,9.95,68.84,26.97,97.29,49.48l2.24,37.78ZM350.24,17.98l-13.87,77.57c-10.8,1.61-20.17,2.52-27.62,3.07-5.53.4-12.74.92-22.35.92-9.72,0-17.01-.51-22.59-.92-7.44-.54-16.81-1.46-27.62-3.07l-13.87-77.57c20.54-4.89,41.95-7.5,63.96-7.5s43.42,2.61,63.96,7.5ZM10.29,286.47c0-82.76,36.62-157.12,94.5-207.75l-1.77,29.85c-5.14,3.66-10.01,7.65-14.58,11.95-2.36,2.22-7.4,7.13-12.79,13.84-5.35,6.65-12.75,17.21-19.16,31.99.13,8.74.77,18.52,2.31,29.1,2.32,15.95,6.09,29.78,10.01,41.14-1.07,5.93-1.95,11.98-2.61,17.96-1.18,10.55-1.73,21.27-1.66,31.95-.06,10.66.48,21.35,1.66,31.88.67,5.99,1.55,12.03,2.61,17.97-3.93,11.36-7.69,25.19-10.01,41.14-1.54,10.58-2.19,20.36-2.31,29.1,3.67,8.63,9.61,20.1,19.16,31.99,9.65,12.01,19.68,20.33,27.37,25.79l1.77,29.85c-57.88-50.63-94.5-124.99-94.5-207.75ZM222.32,554.97l13.87-77.57c10.48-1.61,19.8-2.53,27.62-3.07,10.23-.7,18.3-.79,22.47-.79s12.24.08,22.47.79c7.82.54,17.14,1.46,27.62,3.07l13.87,77.57c-20.54,4.89-41.95,7.5-63.96,7.5s-43.42-2.61-63.96-7.5ZM467.77,494.22l1.77-29.85c7.69-5.46,17.73-13.78,27.37-25.79,9.55-11.89,15.49-23.36,19.16-31.99-.13-8.74-.77-18.52-2.31-29.1-2.32-15.95-6.09-29.78-10.01-41.14,1.07-5.93,1.95-11.98,2.61-17.96,1.18-10.56,1.73-21.27,1.66-31.94.06-10.65-.48-21.34-1.66-31.88-.67-5.97-1.55-12.02-2.61-17.96,3.93-11.36,7.69-25.19,10.01-41.14,1.54-10.58,2.19-20.36,2.31-29.1-3.67-8.63-9.61-20.1-19.16-31.99-9.65-12.01-19.68-20.33-27.37-25.79l-1.77-29.85c57.88,50.63,94.5,124.99,94.5,207.75s-36.62,157.12-94.5,207.75Z" fill="#414042"/>
  </g>
</svg>
