<?xml version='1.0' encoding='UTF-8'?>
<svg xmlns="http://www.w3.org/2000/svg" xmlns:xlink="http://www.w3.org/1999/xlink" data-name="Layer 1" viewBox="0 0 100 100" preserveAspectRatio="xMidYMid meet">
  <defs>
    <style>
      .cls-1 {
        fill: #fff;
      }

      .cls-2, .cls-3 {
        fill: none;
      }

      .cls-3 {
        stroke: #231f20;
        stroke-miterlimit: 10;
        stroke-width: 1.47px;
      }

      .cls-4 {
        clip-path: url(#clippath-1);
      }

      .cls-5 {
        clip-path: url(#clippath-3);
      }

      .cls-6 {
        clip-path: url(#clippath-2);
      }

      .cls-7 {
        clip-path: url(#clippath);
      }
    </style>
    <clipPath id="clippath">
      <rect class="cls-2" x="6.71" y="8.88" width="82.24" height="82.24" fill="none"/>
    </clipPath>
    <clipPath id="clippath-1">
      <rect class="cls-2" x="6.71" y="8.88" width="82.24" height="82.24" fill="none"/>
    </clipPath>
    <clipPath id="clippath-2">
      <rect class="cls-2" x="5.83" y="8" width="84" height="84" fill="none"/>
    </clipPath>
    <clipPath id="clippath-3">
      <rect class="cls-2" x="5.83" y="8" width="84" height="84" fill="none"/>
    </clipPath>
  </defs>
  <g id="Netball">
    <g class="cls-7" clip-path="url(#clippath)">
      <g class="cls-4" clip-path="url(#clippath-1)">
        <path d="M76.83,21c-7.75-7.75-18.05-12.01-29-12.01s-21.25,4.27-29,12.01c-7.75,7.75-12.01,18.05-12.01,29s4.27,21.25,12.01,29c7.75,7.75,18.05,12.01,29,12.01s21.25-4.27,29-12.01c7.75-7.75,12.01-18.05,12.01-29s-4.27-21.25-12.01-29"/>
        <path class="cls-1" d="M79.38,48.98s.01-.03.01-.05c-.02-1.18-.1-2.36-.23-3.52-.08-.69-.17-1.39-.29-2.08,0-.04-.04-.08-.08-.09-3.34-.62-6.74-1.15-10.1-1.57-6.85-.85-13.83-1.3-20.75-1.32-7,.02-14.05.46-20.96,1.32-3.36.42-6.76.95-10.1,1.57-.04,0-.08.04-.08.09-.11.69-.21,1.39-.29,2.08-.13,1.16-.21,2.34-.23,3.52,0,.02,0,.04.01.05,0,.31-.02.64-.02,1.02,0,.38,0,.71.02,1.02,0,.02-.01.03-.01.05.02,1.18.1,2.36.23,3.52.08.69.17,1.39.29,2.08,0,.04.04.08.08.09,3.34.62,6.74,1.15,10.1,1.57,6.91.86,13.96,1.31,20.96,1.32h0c6.92-.02,13.9-.47,20.75-1.32,3.36-.42,6.76-.95,10.1-1.57.04,0,.08-.04.08-.09.11-.69.21-1.39.29-2.08.13-1.16.21-2.34.23-3.52,0-.02,0-.04-.01-.05,0-.31.02-.63.02-1.02,0-.39,0-.71-.02-1.02" fill="#fff"/>
        <path class="cls-1" d="M17.6,28.26c-1.02,1.26-1.87,2.66-2.53,4.14,0,.01,0,.03,0,.05.03,1.28.14,2.56.32,3.83.27,1.89.72,3.78,1.34,5.61.01.04.06.07.1.07,0,0,.01,0,.02,0,3.31-.61,6.66-1.13,9.97-1.54,6.93-.86,14-1.31,21.02-1.33,0,0,0,0,.01,0h.09s.16,0,.16,0c.07,0,.14,0,.21,0h.18s.02,0,.03,0c6.79.05,13.63.49,20.33,1.33,3.3.41,6.66.93,9.97,1.54,0,0,.01,0,.02,0,.04,0,.09-.03.1-.07.61-1.83,1.06-3.72,1.34-5.61.18-1.26.29-2.55.32-3.83,0-.02,0-.03,0-.05-.66-1.48-1.51-2.88-2.53-4.14-1.09-1.35-2.35-2.55-3.77-3.56-.02-.01-.04-.02-.06-.02-.01,0-.02,0-.03,0-1.44.48-2.94.85-4.44,1.09-1.51.25-3.08.37-4.66.37h-.17s-.06-.01-.06-.01c-1.75-.34-3.48-.83-5.15-1.45-1.33-.49-2.63-1.07-3.89-1.73-.02,0-.03-.01-.05-.01,0,0-.01,0-.02,0-1.49.25-3.01.42-4.52.51-.89.05-1.79.08-2.69.08-.24,0-.49,0-.73,0-.24,0-.49,0-.73,0-.89,0-1.8-.03-2.69-.08-1.51-.09-3.02-.26-4.52-.51,0,0-.01,0-.02,0-.02,0-.03,0-.05.01-1.25.66-2.56,1.24-3.89,1.73-1.67.62-3.4,1.1-5.15,1.45h-.06s-.17.01-.22.01c-1.54,0-3.09-.12-4.6-.37-1.5-.24-2.99-.61-4.44-1.09-.01,0-.02,0-.03,0-.02,0-.04,0-.06.02-1.41,1.01-2.68,2.21-3.77,3.56" fill="#fff"/>
        <path class="cls-1" d="M78.05,71.74c1.02-1.26,1.87-2.66,2.53-4.14,0-.01,0-.03,0-.05-.03-1.28-.14-2.56-.32-3.83-.27-1.89-.72-3.78-1.34-5.61-.01-.04-.06-.07-.1-.07,0,0-.01,0-.02,0-3.31.61-6.66,1.13-9.97,1.54-6.7.84-13.54,1.28-20.33,1.33-.01,0-.02,0-.03,0h-.18c-.07,0-.14,0-.21,0h-.16s-.09,0-.09,0c0,0,0,0-.01,0-7.02-.02-14.09-.47-21.02-1.33-3.3-.41-6.66-.93-9.97-1.54,0,0-.01,0-.02,0-.04,0-.09.03-.1.07-.61,1.83-1.06,3.72-1.34,5.61-.18,1.26-.29,2.55-.32,3.83,0,.02,0,.03,0,.05.66,1.48,1.51,2.88,2.53,4.14,1.09,1.35,2.35,2.55,3.77,3.56.02.01.04.02.06.02.01,0,.02,0,.03,0,1.44-.48,2.94-.85,4.43-1.09,1.51-.25,3.08-.37,4.66-.37h.11s.06,0,.06,0h.06c1.75.35,3.48.84,5.15,1.46,1.33.49,2.63,1.07,3.89,1.73.02,0,.03.01.05.01,0,0,.01,0,.02,0,1.49-.25,3.01-.42,4.52-.51.89-.05,1.79-.08,2.69-.08.24,0,.49,0,.74,0,.24,0,.49,0,.73,0,.9,0,1.8.03,2.69.08,1.51.09,3.02.26,4.52.51,0,0,.01,0,.02,0,.02,0,.03,0,.05-.01,1.25-.66,2.56-1.24,3.89-1.73,1.67-.62,3.4-1.1,5.15-1.45h.06s.06-.01.06-.01c.05,0,.1,0,.15,0,1.55,0,3.1.12,4.62.37,1.5.24,2.99.61,4.44,1.09.01,0,.02,0,.03,0,.02,0,.04,0,.06-.02,1.41-1.01,2.68-2.21,3.77-3.56" fill="#fff"/>
        <path class="cls-1" d="M73.59,76.46c-1.32-.43-2.68-.76-4.05-.98-1.44-.24-2.93-.35-4.42-.35h-.06s-.01,0-.02,0c-1.66.33-3.3.79-4.88,1.38-1.18.44-2.35.95-3.47,1.53-.04.02-.06.07-.06.11l2.04,11.4s.02.05.05.07c.02.01.04.02.06.02,0,0,.02,0,.03,0,5.29-1.47,10.17-3.95,14.49-7.37.02-.02.04-.05.04-.08l.33-5.61s-.03-.09-.07-.11" fill="#fff"/>
        <path class="cls-1" d="M38.97,78.03c-1.12-.58-2.29-1.09-3.47-1.53-1.58-.59-3.23-1.05-4.88-1.38,0,0-.01,0-.02,0h-.1c-1.47,0-2.94.12-4.39.35-1.37.22-2.73.55-4.05.98-.05.01-.08.06-.07.11l.33,5.61s.02.06.04.08c4.33,3.42,9.2,5.9,14.49,7.37,0,0,.02,0,.03,0,.02,0,.04,0,.06-.02.03-.02.04-.04.05-.07l2.04-11.4s-.01-.09-.06-.11" fill="#fff"/>
        <path class="cls-1" d="M22.06,23.54c1.32.43,2.68.76,4.05.98,1.45.24,2.91.36,4.34.36.05,0,.09,0,.14,0,0,0,.01,0,.02,0,1.66-.33,3.3-.79,4.88-1.38,1.18-.44,2.35-.95,3.47-1.53.04-.02.06-.07.06-.11l-2.04-11.4s-.02-.05-.05-.07c-.02-.01-.04-.02-.06-.02,0,0-.02,0-.03,0-5.29,1.47-10.17,3.95-14.49,7.37-.02.02-.04.05-.04.08l-.33,5.61s.03.09.07.11" fill="#fff"/>
        <path class="cls-1" d="M85.14,32.73c-1.21-2.6-2.7-5.09-4.44-7.4-1.72-2.29-3.68-4.4-5.84-6.28-.02-.02-.04-.03-.07-.03-.02,0-.03,0-.05.01-.04.02-.06.06-.06.1l.26,4.44s.02.06.04.08c1.53,1.08,2.89,2.37,4.05,3.81,1.12,1.4,2.05,2.94,2.77,4.58l.06.13v.14c-.03,1.39-.14,2.78-.34,4.15-.3,2.05-.8,4.1-1.48,6.09,0,.02,0,.04,0,.05.16.88.29,1.78.39,2.66.17,1.55.26,3.14.25,4.73,0,1.59-.07,3.18-.25,4.73-.1.89-.23,1.78-.39,2.66,0,.02,0,.04,0,.05.69,1.99,1.19,4.04,1.48,6.09.2,1.37.31,2.76.34,4.15v.14s-.05.13-.05.13c-.72,1.64-1.65,3.19-2.77,4.58-1.16,1.44-2.52,2.73-4.05,3.81-.03.02-.04.05-.04.08l-.26,4.44s.02.08.06.1c.01,0,.03.01.05.01.02,0,.05,0,.07-.03,2.15-1.88,4.12-4,5.84-6.28,1.73-2.3,3.23-4.79,4.44-7.4,2.53-5.43,3.81-11.24,3.81-17.27s-1.28-11.84-3.81-17.27" fill="#fff"/>
        <path class="cls-1" d="M56.69,21.97c1.13.58,2.29,1.09,3.47,1.53,1.58.59,3.22,1.05,4.88,1.38,0,0,.01,0,.02,0,.05,0,.14,0,.14,0,1.44,0,2.9-.12,4.34-.36,1.37-.22,2.73-.55,4.05-.98.05-.01.08-.06.07-.11l-.33-5.61s-.02-.06-.04-.08c-4.33-3.42-9.2-5.9-14.49-7.37,0,0-.02,0-.03,0-.02,0-.04,0-.06.02-.03.02-.04.04-.05.07l-2.04,11.4s.01.09.06.11" fill="#fff"/>
        <path class="cls-1" d="M55.37,78.35s-.04-.08-.09-.09c-1.36-.22-2.74-.37-4.11-.45-.87-.05-1.75-.08-2.62-.08-.24,0-.49,0-.74,0,0,0,0,0,0,0-.23,0-.47,0-.7,0-.87,0-1.75.03-2.62.08-1.34.08-2.73.24-4.11.46-.04,0-.08.04-.09.09l-2.06,11.53c0,.06.02.11.08.12,3.11.74,6.32,1.12,9.53,1.12s6.42-.38,9.53-1.12c.05-.01.09-.07.08-.12l-2.06-11.53Z" fill="#fff"/>
        <path class="cls-1" d="M20.65,76.35c-1.53-1.09-2.89-2.37-4.05-3.81-1.12-1.4-2.05-2.94-2.77-4.58l-.06-.13v-.14c.03-1.39.14-2.78.34-4.15.3-2.05.8-4.1,1.48-6.09,0-.02,0-.04,0-.05-.16-.88-.29-1.78-.39-2.66-.17-1.55-.26-3.14-.25-4.73,0-1.59.07-3.18.25-4.73.1-.89.23-1.78.39-2.66,0-.02,0-.04,0-.05-.69-1.99-1.19-4.04-1.48-6.09-.2-1.37-.31-2.76-.34-4.15v-.14s.05-.13.05-.13c.72-1.64,1.65-3.19,2.77-4.58,1.16-1.44,2.52-2.73,4.05-3.81.03-.02.04-.05.04-.08l.26-4.44s-.02-.08-.06-.1c-.01,0-.03-.01-.05-.01-.03,0-.05,0-.07.03-2.15,1.88-4.12,4-5.84,6.28-1.73,2.3-3.23,4.79-4.44,7.4-2.53,5.43-3.81,11.24-3.81,17.27s1.28,11.84,3.81,17.27c1.21,2.6,2.7,5.09,4.44,7.4,1.72,2.29,3.68,4.4,5.84,6.28.02.02.04.03.07.03.02,0,.03,0,.05-.01.04-.02.06-.06.06-.1l-.26-4.44s-.02-.06-.04-.08" fill="#fff"/>
        <path class="cls-1" d="M40.28,21.65s.04.08.09.09c1.39.22,2.77.37,4.11.46.86.05,1.74.08,2.61.08.24,0,.47,0,.71,0,0,0,0,0,.01,0,.24,0,.49,0,.73,0,.88,0,1.76-.03,2.63-.08,1.37-.08,2.75-.24,4.11-.45.04,0,.08-.04.09-.09l2.06-11.53c0-.06-.03-.11-.08-.12-3.11-.74-6.32-1.12-9.53-1.12s-6.42.38-9.53,1.12c-.05.01-.09.07-.08.12l2.06,11.53Z" fill="#fff"/>
      </g>
    </g>
  </g>
  <g id="Netball_Outline">
    <g class="cls-6" clip-path="url(#clippath-2)">
      <g class="cls-5" clip-path="url(#clippath-3)">
        <circle class="cls-3" cx="47.83" cy="50" r="41.27" transform="translate(-.13 .12)" fill="none" stroke="#231f20" stroke-miterlimit="10" stroke-width="1.47px" vector-effect="non-scaling-stroke" stroke-linecap="round" stroke-linejoin="round"/>
        <path class="cls-3" d="M48.5,39.83c-6.51,0-13.68.35-21.37,1.31-3.68.46-7.19,1.02-10.52,1.65-.15.82-.28,1.69-.38,2.6-.23,2.07-.28,3.98-.22,5.69" fill="none" stroke="#231f20" stroke-miterlimit="10" stroke-width="1.47px" vector-effect="non-scaling-stroke" stroke-linecap="round" stroke-linejoin="round"/>
        <path class="cls-3" d="M16.74,42.88c-.63-1.74-1.23-3.87-1.59-6.35-.21-1.45-.31-2.8-.33-4.02.52-1.2,1.35-2.77,2.65-4.39,1.46-1.82,3-3.06,4.16-3.85,1.28.44,2.83.88,4.63,1.17,1.73.28,3.29.37,4.61.36,1.46-.29,3.16-.72,4.99-1.4,1.52-.56,2.85-1.19,3.98-1.8,1.4.24,2.96.44,4.64.54,1.18.07,2.3.09,3.34.07" fill="none" stroke="#231f20" stroke-miterlimit="10" stroke-width="1.47px" vector-effect="non-scaling-stroke" stroke-linecap="round" stroke-linejoin="round"/>
        <path class="cls-3" d="M39.84,22.6c-.76-4.25-1.52-8.5-2.28-12.76" fill="none" stroke="#231f20" stroke-miterlimit="10" stroke-width="1.47px" vector-effect="non-scaling-stroke" stroke-linecap="round" stroke-linejoin="round"/>
        <path class="cls-3" d="M22.02,17.55c-.13,2.24-.27,4.48-.4,6.72" fill="none" stroke="#231f20" stroke-miterlimit="10" stroke-width="1.47px" vector-effect="non-scaling-stroke" stroke-linecap="round" stroke-linejoin="round"/>
        <path class="cls-3" d="M47.83,39.84c6.32.02,13.26.39,20.69,1.31,3.68.46,7.19,1.02,10.52,1.65.15.82.28,1.69.38,2.6.23,2.07.28,3.98.22,5.69" fill="none" stroke="#231f20" stroke-miterlimit="10" stroke-width="1.47px" vector-effect="non-scaling-stroke" stroke-linecap="round" stroke-linejoin="round"/>
        <path class="cls-3" d="M78.92,42.88c.63-1.74,1.23-3.87,1.59-6.35.21-1.45.31-2.8.33-4.02-.52-1.2-1.35-2.77-2.65-4.39-1.46-1.82-3-3.06-4.16-3.85-1.28.44-2.83.88-4.63,1.17-1.73.28-3.29.37-4.61.36-1.46-.29-3.16-.72-4.99-1.4-1.52-.56-2.85-1.19-3.98-1.8-1.4.24-2.96.44-4.64.54-1.18.07-2.3.09-3.35.07" fill="none" stroke="#231f20" stroke-miterlimit="10" stroke-width="1.47px" vector-effect="non-scaling-stroke" stroke-linecap="round" stroke-linejoin="round"/>
        <path class="cls-3" d="M55.81,22.6c.76-4.25,1.52-8.5,2.28-12.76" fill="none" stroke="#231f20" stroke-miterlimit="10" stroke-width="1.47px" vector-effect="non-scaling-stroke" stroke-linecap="round" stroke-linejoin="round"/>
        <path class="cls-3" d="M73.63,17.55c.13,2.24.27,4.48.4,6.72" fill="none" stroke="#231f20" stroke-miterlimit="10" stroke-width="1.47px" vector-effect="non-scaling-stroke" stroke-linecap="round" stroke-linejoin="round"/>
        <path class="cls-3" d="M48.5,60.17c-6.51,0-13.68-.35-21.37-1.31-3.68-.46-7.19-1.02-10.52-1.65-.15-.82-.28-1.69-.38-2.6-.23-2.07-.28-3.98-.22-5.69" fill="none" stroke="#231f20" stroke-miterlimit="10" stroke-width="1.47px" vector-effect="non-scaling-stroke" stroke-linecap="round" stroke-linejoin="round"/>
        <path class="cls-3" d="M16.74,57.12c-.63,1.74-1.23,3.87-1.59,6.35-.21,1.45-.31,2.8-.33,4.02.52,1.2,1.35,2.77,2.65,4.39,1.46,1.82,3,3.06,4.16,3.85,1.28-.44,2.83-.88,4.63-1.17,1.73-.28,3.29-.37,4.61-.36,1.46.29,3.16.72,4.99,1.4,1.52.56,2.85,1.19,3.98,1.8,1.4-.24,2.96-.44,4.64-.54,1.18-.07,2.3-.09,3.34-.07" fill="none" stroke="#231f20" stroke-miterlimit="10" stroke-width="1.47px" vector-effect="non-scaling-stroke" stroke-linecap="round" stroke-linejoin="round"/>
        <path class="cls-3" d="M39.84,77.4c-.76,4.25-1.52,8.5-2.28,12.76" fill="none" stroke="#231f20" stroke-miterlimit="10" stroke-width="1.47px" vector-effect="non-scaling-stroke" stroke-linecap="round" stroke-linejoin="round"/>
        <path class="cls-3" d="M22.02,82.45c-.13-2.24-.27-4.48-.4-6.72" fill="none" stroke="#231f20" stroke-miterlimit="10" stroke-width="1.47px" vector-effect="non-scaling-stroke" stroke-linecap="round" stroke-linejoin="round"/>
        <path class="cls-3" d="M47.83,60.16c6.32-.02,13.26-.39,20.69-1.31,3.68-.46,7.19-1.02,10.52-1.65.15-.82.28-1.69.38-2.6.23-2.07.28-3.98.22-5.69" fill="none" stroke="#231f20" stroke-miterlimit="10" stroke-width="1.47px" vector-effect="non-scaling-stroke" stroke-linecap="round" stroke-linejoin="round"/>
        <path class="cls-3" d="M78.92,57.12c.63,1.74,1.23,3.87,1.59,6.35.21,1.45.31,2.8.33,4.02-.52,1.2-1.35,2.77-2.65,4.39-1.46,1.82-3,3.06-4.16,3.85-1.28-.44-2.83-.88-4.63-1.17-1.73-.28-3.29-.37-4.61-.36-1.46.29-3.16.72-4.99,1.4-1.52.56-2.85,1.19-3.98,1.8-1.4-.24-2.96-.44-4.64-.54-1.18-.07-2.3-.09-3.35-.07" fill="none" stroke="#231f20" stroke-miterlimit="10" stroke-width="1.47px" vector-effect="non-scaling-stroke" stroke-linecap="round" stroke-linejoin="round"/>
        <path class="cls-3" d="M55.81,77.4c.76,4.25,1.52,8.5,2.28,12.76" fill="none" stroke="#231f20" stroke-miterlimit="10" stroke-width="1.47px" vector-effect="non-scaling-stroke" stroke-linecap="round" stroke-linejoin="round"/>
        <path class="cls-3" d="M73.63,82.45c.13-2.24.27-4.48.4-6.72" fill="none" stroke="#231f20" stroke-miterlimit="10" stroke-width="1.47px" vector-effect="non-scaling-stroke" stroke-linecap="round" stroke-linejoin="round"/>
      </g>
    </g>
  </g>
</svg>
