<?xml version="1.0" encoding="UTF-8"?>
<svg id="Layer_1" data-name="Layer 1" xmlns="http://www.w3.org/2000/svg" viewBox="0 0 100 100">
  <defs>
    <style>
      .cls-1 {
        fill: #fff;
      }

      .cls-2 {
        fill: #b3b3b3;
      }

      .cls-3 {
        fill: #ef6d22;
        stroke: #b3b3b3;
        stroke-linejoin: round;
        stroke-width: .25px;
      }
    </style>
  </defs>
  <g id="Orange_GA_Fire.svg">
    <g id="Layer_1-2" data-name="Layer 1-2">
      <g>
        <rect class="cls-3" x="8" y="8" width="84" height="84" rx="21.41" ry="21.41"/>
        <g>
          <g>
            <path class="cls-1" d="M38.28,66.97c-3.2,0-6.09-.71-8.59-2.12,0-.02-.02-.03-.04-.04-2.53-1.44-4.52-3.46-5.92-6-1.39-2.53-2.12-5.56-2.12-8.76s.71-6.05,2.12-8.62c1.41-2.58,3.4-4.64,5.92-6.14,2.51-1.49,5.41-2.25,8.62-2.25,1.45,0,2.9.16,4.3.47,1.37.3,2.55.73,3.5,1.28l.04,9.18c-1.05-.87-2.11-1.51-3.23-1.96-1.2-.47-2.49-.71-3.82-.71-1.64,0-3.1.39-4.33,1.15-1.22.75-2.18,1.83-2.84,3.22-.66,1.36-.99,2.92-.99,4.63s.3,3.18.89,4.5c.59,1.32,1.44,2.38,2.51,3.16,1.09.79,2.35,1.18,3.84,1.18.39,0,.76-.03,1.1-.1.06-.01.1-.06.1-.12v-4.62c0-.07-.06-.12-.12-.12h-3.65v-7.27h11.59v17.59c-.8.69-1.98,1.27-3.63,1.75-1.63.48-3.4.72-5.27.72Z"/>
            <path class="cls-2" d="M38.27,33.15c1.44,0,2.88.16,4.27.47,1.33.29,2.47.7,3.4,1.23l.04,8.85c-.99-.8-2-1.39-3.06-1.81-1.22-.48-2.51-.72-3.86-.72-1.67,0-3.15.39-4.4,1.17-1.24.76-2.22,1.86-2.89,3.28-.67,1.38-1,2.95-1,4.69s.3,3.22.9,4.55c.6,1.34,1.46,2.42,2.55,3.21,1.1.8,2.41,1.2,3.92,1.2.39,0,.77-.03,1.13-.1.12-.02.2-.13.2-.25v-4.62c0-.14-.11-.25-.25-.25h-3.52v-7.02h11.34v17.41c-.78.67-1.94,1.22-3.54,1.69-1.62.48-3.38.72-5.23.72-3.16,0-6.02-.7-8.5-2.08-.02-.02-.04-.05-.07-.06-2.51-1.43-4.49-3.43-5.87-5.96-1.38-2.51-2.1-5.52-2.1-8.7s.71-6,2.1-8.56c1.4-2.56,3.37-4.61,5.87-6.09,2.49-1.48,5.37-2.23,8.56-2.23M38.27,32.9c-3.23,0-6.13.75-8.68,2.27-2.55,1.51-4.54,3.58-5.96,6.19-1.42,2.61-2.13,5.5-2.13,8.68s.72,6.24,2.13,8.82c1.42,2.59,3.41,4.6,5.96,6.05h-.04c2.55,1.45,5.46,2.18,8.73,2.18,1.87,0,3.64-.24,5.3-.73,1.66-.49,2.9-1.08,3.72-1.82v-17.77h-11.84v7.52h3.77v4.62c-.32.06-.68.1-1.08.1-1.45,0-2.7-.38-3.77-1.16-1.07-.78-1.88-1.82-2.47-3.11s-.88-2.78-.88-4.45.32-3.22.98-4.58c.64-1.36,1.57-2.42,2.79-3.17,1.21-.75,2.64-1.13,4.27-1.13,1.33,0,2.59.24,3.77.7,1.19.47,2.31,1.17,3.4,2.11l-.04-9.53c-.96-.57-2.17-1.02-3.6-1.33-1.43-.32-2.87-.47-4.33-.47h0Z"/>
          </g>
          <g>
            <path class="cls-1" d="M69.27,66.33l-1.3-5.62c-.01-.06-.06-.1-.12-.1h-8.08c-.06,0-.11.04-.12.1l-1.33,5.62h-8.99l8.64-32.67h11.79l8.64,32.67h-9.12ZM63.8,41.63c-.06,0-.11.04-.12.1l-2.38,11.24s0,.08.03.11c.02.03.06.05.1.05h4.81s.07-.02.1-.05c.02-.03.03-.07.02-.1l-2.42-11.24c-.01-.06-.06-.1-.12-.1h0Z"/>
            <path class="cls-2" d="M69.66,33.79l8.57,32.42h-8.86l-1.28-5.52c-.03-.11-.13-.19-.24-.19h-8.08c-.12,0-.22.08-.24.19l-1.3,5.52h-8.73l8.57-32.42h11.6M61.42,53.24h4.81c.08,0,.15-.03.19-.09.05-.06.07-.14.05-.21l-2.42-11.24c-.02-.12-.13-.2-.24-.2h0c-.12,0-.22.08-.24.2l-2.39,11.24c-.02.07,0,.15.05.21.05.06.12.09.19.09M69.85,33.54h-11.98l-8.71,32.92h9.25l1.35-5.71h8.08l1.33,5.71h9.38l-8.71-32.92h0ZM61.42,52.99l2.39-11.24,2.42,11.24h-4.81Z"/>
          </g>
        </g>
      </g>
    </g>
  </g>
</svg>