<?xml version='1.0' encoding='UTF-8'?>
<svg xmlns="http://www.w3.org/2000/svg" xmlns:xlink="http://www.w3.org/1999/xlink" data-name="Layer 2" viewBox="0 0 930.63 225.26" preserveAspectRatio="xMidYMid meet">
  <defs>
    <style>
      .cls-1 {
        fill: #ef6d22;
      }

      .cls-2 {
        fill: #fff;
      }
    </style>
  </defs>
  <g id="Layer_1-2" data-name="Layer 1">
    <g>
      <g>
        <rect class="cls-2" x="352.68" y="-90.91" width="225.26" height="407.07" transform="translate(577.95 -352.68) rotate(90)" fill="#fff"/>
        <g>
          <path class="cls-1" d="M286.56,112.63c0,1.54-1.25,2.79-2.79,2.79s-2.79-1.25-2.79-2.79c0-1.54,1.25-2.79,2.79-2.79s2.79,1.25,2.79,2.79Z" fill="#ef6d22"/>
          <path class="cls-2" d="M644.07,112.63c0-1.54,1.25-2.79,2.79-2.79s2.79,1.25,2.79,2.79-1.25,2.79-2.79,2.79-2.79-1.25-2.79-2.79Z" fill="#fff"/>
          <path class="cls-2" d="M592.92,112.63c0-32,25.96-58.4,57.92-58.98v56.65c-.81-1.38-2.32-2.29-3.98-2.29-2.54,0-4.61,2.07-4.61,4.61s2.07,4.61,4.61,4.61c1.66,0,3.17-.91,3.98-2.29v56.65c-31.96-.58-57.92-26.98-57.92-58.98Z" fill="#fff"/>
          <path class="cls-2" d="M650.84,20.32v31.51c-15.95.28-30.92,6.7-42.17,18.09-11.33,11.47-17.57,26.64-17.57,42.71,0,16.08,6.24,31.24,17.57,42.71,11.25,11.39,26.22,17.81,42.17,18.09v31.51s-121.49,0-121.49,0V20.32s121.49,0,121.49,0Z" fill="#fff"/>
          <path class="cls-1" d="M527.53,20.32v184.61s-124.42,0-124.42,0V20.32s124.42,0,124.42,0ZM457.64,112.63c0,4.23,3.44,7.67,7.67,7.67s7.67-3.44,7.67-7.67c0-4.23-3.44-7.67-7.67-7.67s-7.67,3.44-7.67,7.67Z" fill="#ef6d22"/>
          <path class="cls-1" d="M321.96,155.34c11.33-11.47,17.57-26.64,17.57-42.71s-6.24-31.24-17.57-42.71c-11.25-11.39-26.22-17.81-42.17-18.09v-31.51s121.49,0,121.49,0v184.61s-121.49,0-121.49,0v-31.51c15.95-.28,30.92-6.7,42.17-18.09Z" fill="#ef6d22"/>
          <path class="cls-1" d="M471.08,111.64c.66,4-2.76,7.42-6.76,6.76-2.42-.4-4.37-2.35-4.78-4.77-.66-4,2.76-7.42,6.76-6.76,2.42.4,4.37,2.35,4.78,4.77Z" fill="#ef6d22"/>
          <path class="cls-1" d="M337.71,112.63c0,32-25.96,58.4-57.92,58.98v-56.65c.81,1.38,2.32,2.29,3.98,2.29,2.54,0,4.61-2.07,4.61-4.61s-2.07-4.61-4.61-4.61c-1.66,0-3.17.91-3.98,2.29v-56.65c31.96.58,57.92,26.98,57.92,58.98Z" fill="#ef6d22"/>
          <path d="M472.98,112.63c0,4.23-3.44,7.67-7.67,7.67s-7.67-3.44-7.67-7.67c0-4.23,3.44-7.67,7.67-7.67s7.67,3.44,7.67,7.67ZM459.47,112.63c0,3.22,2.62,5.85,5.85,5.85,3.23,0,5.85-2.62,5.85-5.85,0-3.22-2.62-5.85-5.85-5.85-3.23,0-5.85,2.62-5.85,5.85Z"/>
          <path d="M277.97,18.5h374.7s0,188.26,0,188.26h-374.7s0-188.26,0-188.26ZM280.97,112.63c0,1.54,1.25,2.79,2.79,2.79s2.79-1.25,2.79-2.79c0-1.54-1.25-2.79-2.79-2.79s-2.79,1.25-2.79,2.79ZM279.79,110.31c.81-1.38,2.32-2.29,3.98-2.29,2.54,0,4.61,2.07,4.61,4.61s-2.07,4.61-4.61,4.61c-1.66,0-3.17-.91-3.98-2.29v56.65c31.96-.58,57.92-26.98,57.92-58.98,0-32-25.96-58.4-57.92-58.98v56.65ZM649.65,112.63c0-1.54-1.25-2.79-2.79-2.79s-2.79,1.25-2.79,2.79c0,1.54,1.25,2.79,2.79,2.79s2.79-1.25,2.79-2.79ZM650.84,114.95c-.81,1.38-2.32,2.29-3.98,2.29-2.54,0-4.61-2.07-4.61-4.61s2.07-4.61,4.61-4.61c1.66,0,3.17.91,3.98,2.29v-56.65c-31.96.58-57.92,26.98-57.92,58.98,0,32,25.96,58.4,57.92,58.98v-56.65ZM650.84,204.94v-31.51c-15.95-.28-30.92-6.7-42.17-18.09-11.33-11.47-17.57-26.64-17.57-42.71,0-16.08,6.24-31.24,17.57-42.71,11.25-11.39,26.22-17.81,42.17-18.09v-31.51s-121.49,0-121.49,0v184.61s121.49,0,121.49,0ZM527.53,204.94V20.32s-124.42,0-124.42,0v184.61s124.42,0,124.42,0ZM401.28,204.94V20.32s-121.49,0-121.49,0v31.51c15.95.28,30.92,6.7,42.17,18.09,11.33,11.47,17.57,26.64,17.57,42.71s-6.24,31.24-17.57,42.71c-11.25,11.39-26.22,17.81-42.17,18.09v31.51s121.49,0,121.49,0Z"/>
        </g>
      </g>
      <g>
        <g>
          <rect class="cls-2" x="763.87" y="36" width="153.25" height="153.25" rx="30.53" ry="30.53" fill="#fff"/>
          <path class="cls-1" d="M884.68,36c17.83,0,32.44,14.6,32.44,32.44v88.38c0,17.83-14.6,32.44-32.44,32.44h-88.38c-17.83,0-32.44-14.6-32.44-32.44v-88.38c0-17.83,14.6-32.44,32.44-32.44h88.38M884.68,22.5h-88.38c-25.34,0-45.94,20.61-45.94,45.94v88.38c0,25.34,20.61,45.94,45.94,45.94h88.38c25.34,0,45.94-20.61,45.94-45.94v-88.38c0-25.34-20.61-45.94-45.94-45.94h0Z" fill="#ef6d22"/>
        </g>
        <g>
          <path class="cls-1" d="M808.92,96.68c2.59-1.63,5.65-2.44,9.16-2.44,2.85,0,5.55.51,8.06,1.5,2.54,1.02,4.96,2.52,7.3,4.53l-.1-20.43c-2.09-1.22-4.66-2.19-7.73-2.87-3.08-.69-6.18-1.02-9.29-1.02-6.95,0-13.15,1.63-18.62,4.86-5.5,3.26-9.74,7.68-12.8,13.28-3.05,5.62-4.58,11.83-4.58,18.62s1.53,13.38,4.58,18.93c3.05,5.55,7.3,9.87,12.8,13,5.47,3.1,11.73,4.68,18.72,4.68,4.02,0,7.81-.51,11.4-1.55,3.56-1.04,6.23-2.34,7.99-3.89v-38.13h-25.39v16.15h8.09v9.92c-.69.13-1.45.2-2.34.2-3.1,0-5.8-.81-8.06-2.49-2.26-1.65-4.04-3.87-5.32-6.67-1.27-2.8-1.91-5.98-1.91-9.54s.69-6.92,2.09-9.82c1.4-2.93,3.38-5.19,5.98-6.82h-.03Z" fill="#ef6d22"/>
          <path class="cls-1" d="M863.9,147.97h5.75c5.9,0,11.19-1.48,15.87-4.43,4.68-2.95,8.37-7.12,11.09-12.54,2.72-5.42,4.1-11.63,4.1-18.62s-1.35-13.18-4.04-18.5c-2.7-5.32-6.41-9.41-11.19-12.26-4.78-2.85-10.18-4.27-16.21-4.27h-25.01v70.65h19.67l-.03-.03ZM867.41,95.03c2.47,0,4.66.61,6.56,1.86,1.91,1.22,3.43,3.15,4.58,5.8,1.14,2.62,1.7,5.95,1.7,9.97s-.56,7.38-1.7,10.02c-1.14,2.67-2.67,4.63-4.63,5.88-1.93,1.27-4.12,1.91-6.51,1.91h-3.51v-35.41h3.51v-.03Z" fill="#ef6d22"/>
        </g>
      </g>
      <g>
        <g>
          <rect class="cls-1" x="13.51" y="36" width="153.23" height="153.23" rx="30.7" ry="30.7" fill="#ef6d22"/>
          <path class="cls-2" d="M134.32,36c17.83,0,32.44,14.58,32.44,32.44v88.37c0,17.83-14.58,32.44-32.44,32.44H45.95c-17.83,0-32.44-14.58-32.44-32.44v-88.37c0-17.83,14.58-32.44,32.44-32.44h88.37M134.32,22.5H45.95C20.62,22.5,0,43.12,0,68.45v88.37c0,25.33,20.62,45.95,45.95,45.95h88.37c25.33,0,45.95-20.62,45.95-45.95v-88.37c0-25.33-20.62-45.95-45.95-45.95h0Z" fill="#fff"/>
        </g>
        <g>
          <path class="cls-2" d="M46.26,144.64c5.48,3.12,11.72,4.68,18.73,4.68,4.02,0,7.8-.51,11.39-1.56,3.56-1.05,6.22-2.33,7.98-3.89v-38.15h-25.41v16.14h8.08v9.93c-.69.13-1.46.2-2.33.2-3.12,0-5.81-.82-8.08-2.48-2.28-1.66-4.04-3.89-5.3-6.68s-1.89-5.96-1.89-9.54.69-6.91,2.1-9.82c1.38-2.92,3.38-5.19,5.99-6.81,2.58-1.61,5.65-2.43,9.16-2.43,2.87,0,5.55.51,8.08,1.51s4.96,2.51,7.29,4.53l-.1-20.44c-2.07-1.23-4.66-2.2-7.73-2.87-3.07-.69-6.17-1.02-9.29-1.02-6.93,0-13.15,1.61-18.63,4.86-5.48,3.25-9.75,7.68-12.79,13.28s-4.58,11.82-4.58,18.63,1.54,13.38,4.58,18.93c3.04,5.55,7.32,9.88,12.79,13h-.05Z" fill="#fff"/>
          <path class="cls-2" d="M107.02,77.3l-18.68,70.64h19.85l2.89-12.26h17.35l2.84,12.26h20.14l-18.68-70.64h-25.71ZM124.96,119.05h-10.31l5.12-24.13,5.19,24.13Z" fill="#fff"/>
        </g>
      </g>
    </g>
  </g>
</svg>
