<?xml version="1.0" encoding="UTF-8"?>
<svg id="Layer_1" data-name="Layer 1" xmlns="http://www.w3.org/2000/svg" viewBox="0 0 100 100">
  <defs>
    <style>
      .cls-1 {
        fill: #fff;
      }

      .cls-2 {
        fill: #ef6d22;
        stroke: #b3b3b3;
        stroke-linejoin: round;
        stroke-width: .25px;
      }
    </style>
  </defs>
  <g id="Orange_GD_Ice.svg">
    <g id="Layer_1-2" data-name="Layer 1-2">
      <g>
        <g>
          <rect class="cls-1" x="14.3" y="14.3" width="71.41" height="71.41" rx="14.22" ry="14.22"/>
          <path class="cls-2" d="M70.59,14.3c8.31,0,15.11,6.8,15.11,15.11v41.18c0,8.31-6.8,15.11-15.11,15.11H29.41c-8.31,0-15.11-6.8-15.11-15.11V29.41c0-8.31,6.8-15.11,15.11-15.11h41.18M70.59,8H29.41c-11.81,0-21.41,9.6-21.41,21.41v41.18c0,11.81,9.6,21.41,21.41,21.41h41.18c11.81,0,21.41-9.6,21.41-21.41V29.41c0-11.81-9.6-21.41-21.41-21.41h0Z"/>
        </g>
        <g>
          <path class="cls-2" d="M35.29,42.57c1.21-.76,2.63-1.14,4.27-1.14,1.33,0,2.59.24,3.76.7,1.19.47,2.31,1.17,3.4,2.11l-.04-9.52c-.97-.57-2.17-1.02-3.6-1.34-1.44-.32-2.88-.47-4.33-.47-3.24,0-6.13.76-8.67,2.27-2.56,1.52-4.54,3.58-5.96,6.19-1.42,2.62-2.13,5.51-2.13,8.67s.71,6.24,2.13,8.82c1.42,2.59,3.4,4.6,5.96,6.06,2.55,1.44,5.47,2.18,8.73,2.18,1.87,0,3.64-.24,5.31-.73,1.66-.49,2.9-1.09,3.72-1.81v-17.77h-11.83v7.53h3.77v4.62c-.32.06-.67.1-1.09.1-1.44,0-2.7-.38-3.76-1.16-1.05-.77-1.88-1.8-2.47-3.1s-.89-2.79-.89-4.44.32-3.22.97-4.58c.65-1.36,1.58-2.42,2.79-3.18h-.02Z"/>
          <path class="cls-2" d="M60.9,66.46h2.68c2.75,0,5.22-.69,7.39-2.06,2.18-1.38,3.9-3.32,5.17-5.84,1.27-2.53,1.91-5.42,1.91-8.67s-.63-6.14-1.88-8.62c-1.26-2.47-2.99-4.39-5.22-5.71-2.23-1.33-4.74-1.99-7.55-1.99h-11.65v32.92h9.16-.01s0-.02,0-.02ZM62.54,41.8c1.15,0,2.17.28,3.06.87.89.57,1.6,1.47,2.13,2.7.53,1.22.79,2.77.79,4.64s-.26,3.44-.79,4.67c-.53,1.24-1.24,2.16-2.16,2.74-.9.59-1.92.89-3.04.89h-1.64v-16.5h1.64s0-.01,0-.01Z"/>
        </g>
      </g>
    </g>
  </g>
</svg>