<?xml version='1.0' encoding='UTF-8'?>
<svg xmlns="http://www.w3.org/2000/svg" xmlns:xlink="http://www.w3.org/1999/xlink" data-name="Layer 2" viewBox="0 0 361.19 87.43" preserveAspectRatio="xMidYMid meet">
  <defs>
    <style>
      .cls-1 {
        fill: #fff;
      }

      .cls-2 {
        fill: #f2673a;
      }

      .cls-3 {
        fill: #f26739;
      }

      .cls-4 {
        filter: url(#outer-glow-1);
      }
    </style>
    <filter id="outer-glow-1" x="-17.23" y="-17.02" width="395.52" height="121.68" filterUnits="userSpaceOnUse">
      <feOffset dx="0" dy="0"/>
      <feGaussianBlur result="blur" stdDeviation="5.67"/>
      <feFlood flood-color="#000" flood-opacity=".49"/>
      <feComposite in2="blur" operator="in"/>
      <feComposite in="SourceGraphic"/>
    </filter>
  </defs>
  <g id="Layer_1-2" data-name="Layer 1">
    <g class="cls-4" filter="url(#outer-glow-1)">
      <g>
        <g>
          <rect class="cls-1" x="136.88" y="-35.28" width="87.43" height="157.99" transform="translate(224.31 -136.88) rotate(90)" fill="#fff"/>
          <g>
            <path class="cls-3" d="M111.22,43.71c0,.6-.49,1.08-1.08,1.08s-1.08-.49-1.08-1.08.49-1.08,1.08-1.08,1.08.49,1.08,1.08Z" fill="#f26739"/>
            <path class="cls-1" d="M249.97,43.71c0-.6.49-1.08,1.08-1.08s1.08.49,1.08,1.08-.49,1.08-1.08,1.08-1.08-.49-1.08-1.08Z" fill="#fff"/>
            <path class="cls-1" d="M230.12,43.71c0-12.42,10.07-22.67,22.48-22.89v21.99c-.32-.54-.9-.89-1.54-.89-.99,0-1.79.8-1.79,1.79s.8,1.79,1.79,1.79c.64,0,1.23-.35,1.54-.89v21.99c-12.4-.22-22.48-10.47-22.48-22.89Z" fill="#fff"/>
            <path class="cls-1" d="M252.6,7.89v12.23c-6.19.11-12,2.6-16.37,7.02-4.4,4.45-6.82,10.34-6.82,16.58,0,6.24,2.42,12.13,6.82,16.58,4.37,4.42,10.18,6.91,16.37,7.02v12.23s-47.15,0-47.15,0V7.89s47.15,0,47.15,0Z" fill="#fff"/>
            <path class="cls-3" d="M204.74,7.89v71.65s-48.29,0-48.29,0V7.89s48.29,0,48.29,0ZM177.62,43.71c0,1.64,1.34,2.98,2.98,2.98s2.98-1.34,2.98-2.98-1.34-2.98-2.98-2.98-2.98,1.34-2.98,2.98Z" fill="#f26739"/>
            <path class="cls-3" d="M124.96,60.29c4.4-4.45,6.82-10.34,6.82-16.58s-2.42-12.13-6.82-16.58c-4.37-4.42-10.18-6.91-16.37-7.02V7.89s47.15,0,47.15,0v71.65s-47.15,0-47.15,0v-12.23c6.19-.11,12-2.6,16.37-7.02Z" fill="#f26739"/>
            <path class="cls-3" d="M182.83,43.33c.26,1.55-1.07,2.88-2.62,2.62-.94-.16-1.7-.91-1.85-1.85-.26-1.55,1.07-2.88,2.62-2.62.94.16,1.7.91,1.85,1.85Z" fill="#f26739"/>
            <path class="cls-3" d="M131.07,43.71c0,12.42-10.07,22.67-22.48,22.89v-21.99c.32.54.9.89,1.54.89.99,0,1.79-.8,1.79-1.79s-.8-1.79-1.79-1.79c-.64,0-1.23.35-1.54.89v-21.99c12.4.22,22.48,10.47,22.48,22.89Z" fill="#f26739"/>
            <path d="M183.57,43.71c0,1.64-1.34,2.98-2.98,2.98s-2.98-1.34-2.98-2.98,1.34-2.98,2.98-2.98,2.98,1.34,2.98,2.98ZM178.32,43.71c0,1.25,1.02,2.27,2.27,2.27,1.25,0,2.27-1.02,2.27-2.27s-1.02-2.27-2.27-2.27-2.27,1.02-2.27,2.27Z"/>
            <path d="M107.88,7.18h145.42s0,73.07,0,73.07H107.88s0-73.07,0-73.07ZM109.05,43.71c0,.6.49,1.08,1.08,1.08s1.08-.49,1.08-1.08-.49-1.08-1.08-1.08-1.08.49-1.08,1.08ZM108.59,42.81c.32-.54.9-.89,1.54-.89.99,0,1.79.8,1.79,1.79s-.8,1.79-1.79,1.79c-.64,0-1.23-.35-1.54-.89v21.99c12.4-.22,22.48-10.47,22.48-22.89,0-12.42-10.07-22.67-22.48-22.89v21.99ZM252.14,43.71c0-.6-.49-1.08-1.08-1.08s-1.08.49-1.08,1.08.49,1.08,1.08,1.08,1.08-.49,1.08-1.08ZM252.6,44.62c-.32.54-.9.89-1.54.89-.99,0-1.79-.8-1.79-1.79s.8-1.79,1.79-1.79c.64,0,1.23.35,1.54.89v-21.99c-12.4.22-22.48,10.47-22.48,22.89,0,12.42,10.07,22.67,22.48,22.89v-21.99ZM252.6,79.54v-12.23c-6.19-.11-12-2.6-16.37-7.02-4.4-4.45-6.82-10.34-6.82-16.58,0-6.24,2.42-12.13,6.82-16.58,4.37-4.42,10.18-6.91,16.37-7.02V7.89s-47.15,0-47.15,0v71.65s47.15,0,47.15,0ZM204.74,79.54V7.89s-48.29,0-48.29,0v71.65s48.29,0,48.29,0ZM155.74,79.54V7.89s-47.15,0-47.15,0v12.23c6.19.11,12,2.6,16.37,7.02,4.4,4.45,6.82,10.34,6.82,16.58s-2.42,12.13-6.82,16.58c-4.37,4.42-10.18,6.91-16.37,7.02v12.23s47.15,0,47.15,0Z"/>
          </g>
        </g>
        <g>
          <g>
            <rect class="cls-1" x="296.47" y="13.97" width="59.48" height="59.48" rx="11.85" ry="11.85" fill="#fff"/>
            <path class="cls-2" d="M343.36,13.97c6.92,0,12.59,5.67,12.59,12.59v34.3c0,6.92-5.67,12.59-12.59,12.59h-34.3c-6.92,0-12.59-5.67-12.59-12.59V26.56c0-6.92,5.67-12.59,12.59-12.59h34.3M343.36,8.73h-34.3c-9.83,0-17.83,8-17.83,17.83v34.3c0,9.83,8,17.83,17.83,17.83h34.3c9.83,0,17.83-8,17.83-17.83V26.56c0-9.83-8-17.83-17.83-17.83h0Z" fill="#f2673a"/>
          </g>
          <g>
            <path class="cls-2" d="M313.95,37.52c1.01-.63,2.19-.95,3.55-.95,1.11,0,2.15.2,3.13.58.99.39,1.93.98,2.83,1.76l-.04-7.93c-.81-.47-1.81-.85-3-1.12-1.19-.27-2.4-.39-3.6-.39-2.7,0-5.1.63-7.23,1.89-2.13,1.26-3.78,2.98-4.97,5.15-1.18,2.18-1.78,4.59-1.78,7.23s.59,5.19,1.78,7.35c1.18,2.15,2.83,3.83,4.97,5.05,2.12,1.2,4.55,1.82,7.27,1.82,1.56,0,3.03-.2,4.42-.6,1.38-.4,2.42-.91,3.1-1.51v-14.8h-9.85v6.27h3.14v3.85c-.27.05-.56.08-.91.08-1.2,0-2.25-.32-3.13-.97-.88-.64-1.57-1.5-2.06-2.59-.49-1.09-.74-2.32-.74-3.7s.27-2.69.81-3.81c.54-1.14,1.31-2.01,2.32-2.65h0Z" fill="#f2673a"/>
            <path class="cls-2" d="M335.29,57.43h2.23c2.29,0,4.34-.57,6.16-1.72,1.82-1.15,3.25-2.76,4.3-4.87,1.06-2.1,1.59-4.51,1.59-7.23s-.52-5.11-1.57-7.18c-1.05-2.06-2.49-3.65-4.34-4.76-1.86-1.11-3.95-1.66-6.29-1.66h-9.71v27.42h7.63,0ZM336.65,36.88c.96,0,1.81.24,2.55.72.74.47,1.33,1.22,1.78,2.25.44,1.02.66,2.31.66,3.87s-.22,2.86-.66,3.89c-.44,1.04-1.04,1.8-1.8,2.28-.75.49-1.6.74-2.53.74h-1.36v-13.74h1.36Z" fill="#f2673a"/>
          </g>
        </g>
        <g>
          <g>
            <rect class="cls-2" x="5.24" y="13.97" width="59.47" height="59.47" rx="11.92" ry="11.92" fill="#f2673a"/>
            <path class="cls-1" d="M52.13,13.97c6.92,0,12.59,5.66,12.59,12.59v34.3c0,6.92-5.66,12.59-12.59,12.59H17.83c-6.92,0-12.59-5.66-12.59-12.59V26.56c0-6.92,5.66-12.59,12.59-12.59h34.3M52.13,8.73H17.83C8,8.73,0,16.73,0,26.56v34.3c0,9.83,8,17.83,17.83,17.83h34.3c9.83,0,17.83-8,17.83-17.83V26.56c0-9.83-8-17.83-17.83-17.83h0Z" fill="#fff"/>
          </g>
          <g>
            <path class="cls-1" d="M17.95,56.14c2.12,1.21,4.55,1.82,7.27,1.82,1.56,0,3.03-.2,4.42-.61,1.38-.41,2.41-.9,3.1-1.51v-14.81h-9.86v6.27h3.14v3.85c-.27.05-.57.08-.9.08-1.21,0-2.25-.32-3.14-.96s-1.57-1.51-2.06-2.59-.73-2.31-.73-3.7.27-2.68.81-3.81c.54-1.13,1.31-2.02,2.32-2.64,1-.63,2.19-.94,3.55-.94,1.11,0,2.15.2,3.14.59s1.93.97,2.83,1.76l-.04-7.93c-.8-.48-1.81-.85-3-1.11-1.19-.27-2.39-.4-3.6-.4-2.69,0-5.1.63-7.23,1.89-2.12,1.26-3.78,2.98-4.96,5.15s-1.78,4.59-1.78,7.23.6,5.19,1.78,7.35c1.18,2.15,2.84,3.83,4.96,5.04h-.02Z" fill="#fff"/>
            <path class="cls-1" d="M41.54,30l-7.25,27.42h7.71l1.12-4.76h6.73l1.1,4.76h7.81l-7.25-27.42h-9.98ZM48.5,46.21h-4l1.99-9.36,2.02,9.36Z" fill="#fff"/>
          </g>
        </g>
      </g>
    </g>
  </g>
</svg>
