<?xml version="1.0" encoding="UTF-8"?>
<svg id="Layer_1" data-name="Layer 1" xmlns="http://www.w3.org/2000/svg" viewBox="0 0 100 100">
  <defs>
    <style>
      .cls-1 {
        fill: #fff;
      }

      .cls-2 {
        stroke: #b3b3b3;
        stroke-linejoin: round;
        stroke-width: .25px;
      }

      .cls-2, .cls-3 {
        fill: #639;
      }

      .cls-4 {
        fill: #b3b3b3;
      }
    </style>
  </defs>
  <g id="Purple_GS_Ice.svg">
    <g id="Layer_1-2" data-name="Layer 1-2">
      <g>
        <g>
          <rect class="cls-1" x="14.3" y="14.3" width="71.41" height="71.41" rx="14.22" ry="14.22"/>
          <path class="cls-2" d="M70.59,14.3c8.31,0,15.11,6.8,15.11,15.11v41.18c0,8.31-6.8,15.11-15.11,15.11H29.41c-8.31,0-15.11-6.8-15.11-15.11V29.41c0-8.31,6.8-15.11,15.11-15.11h41.18M70.59,8H29.41c-11.81,0-21.41,9.6-21.41,21.41v41.18c0,11.81,9.6,21.41,21.41,21.41h41.18c11.81,0,21.41-9.6,21.41-21.41V29.41c0-11.81-9.6-21.41-21.41-21.41h0Z"/>
        </g>
        <g>
          <g>
            <path class="cls-3" d="M41.61,67.23c-3.26,0-6.22-.74-8.79-2.2-.02-.01-.04-.03-.05-.06-2.53-1.46-4.52-3.5-5.94-6.06-1.41-2.56-2.15-5.63-2.15-8.88s.72-6.11,2.15-8.73c1.43-2.62,3.45-4.72,6.01-6.23,2.55-1.52,5.5-2.28,8.74-2.28,1.47,0,2.93.16,4.35.48s2.64.77,3.64,1.36c.04.02.06.06.06.11l.04,9.52s-.03.09-.07.11c-.02,0-.04.01-.05.01-.03,0-.06-.01-.08-.03-1.08-.93-2.18-1.61-3.37-2.09-1.16-.46-2.41-.69-3.71-.69-1.61,0-3.02.38-4.2,1.12-1.2.76-2.09,1.78-2.74,3.13-.64,1.32-.96,2.84-.96,4.53s.3,3.11.88,4.39c.57,1.26,1.39,2.29,2.43,3.06,1.03.76,2.27,1.14,3.68,1.14.34,0,.66-.03.96-.08v-4.39h-3.65c-.07,0-.12-.06-.12-.12v-7.53c0-.07.06-.12.12-.12h11.83c.07,0,.12.06.12.12v17.77s-.02.07-.04.09c-.83.73-2.06,1.34-3.77,1.84-1.69.49-3.43.73-5.35.73Z"/>
            <path class="cls-4" d="M41.58,32.9c1.44,0,2.9.16,4.33.47,1.43.32,2.63.77,3.6,1.34l.04,9.52c-1.09-.94-2.22-1.64-3.4-2.11-1.17-.46-2.43-.7-3.76-.7-1.64,0-3.06.38-4.27,1.14-1.21.76-2.13,1.81-2.79,3.18-.65,1.36-.97,2.92-.97,4.58s.3,3.14.89,4.44c.59,1.3,1.42,2.33,2.47,3.1s2.31,1.16,3.76,1.16c.41,0,.77-.04,1.09-.1v-4.62h-3.77v-7.53h11.83v17.77c-.81.73-2.06,1.33-3.72,1.82-1.67.49-3.44.73-5.31.73-3.26,0-6.18-.73-8.73-2.18h0s.01-.01.01-.01c-2.56-1.46-4.54-3.47-5.96-6.06-1.42-2.59-2.13-5.66-2.13-8.82s.71-6.05,2.13-8.67c1.42-2.61,3.4-4.67,5.96-6.19,2.55-1.51,5.44-2.27,8.67-2.27M41.58,32.65c-3.27,0-6.23.77-8.8,2.3-2.58,1.53-4.62,3.64-6.06,6.28-1.44,2.65-2.16,5.61-2.16,8.79s.75,6.37,2.16,8.94c1.42,2.58,3.43,4.63,5.96,6.1.02.03.05.05.08.07,2.59,1.47,5.56,2.21,8.85,2.21,1.93,0,3.69-.24,5.38-.74,1.73-.51,2.98-1.12,3.81-1.87.05-.05.08-.12.08-.19v-17.77c0-.14-.11-.25-.25-.25h-11.83c-.14,0-.25.11-.25.25v7.53c0,.14.11.25.25.25h3.52v4.16c-.27.04-.54.06-.84.06-1.38,0-2.6-.38-3.61-1.11-1.02-.75-1.83-1.76-2.39-3.01-.57-1.27-.87-2.73-.87-4.34s.32-3.16.95-4.47c.63-1.32,1.51-2.33,2.69-3.08,1.16-.73,2.55-1.1,4.13-1.1,1.28,0,2.52.23,3.66.68,1.17.47,2.26,1.14,3.33,2.07.05.04.1.06.16.06.04,0,.07,0,.1-.02.09-.04.15-.13.15-.23l-.04-9.52c0-.09-.05-.17-.12-.21-1-.59-2.24-1.05-3.67-1.37-1.43-.32-2.9-.48-4.38-.48h0Z"/>
          </g>
          <g>
            <path class="cls-3" d="M63.6,67.23c-1.32,0-2.64-.18-3.93-.52-1.28-.36-2.43-.83-3.41-1.4-.99-.58-1.79-1.26-2.37-2.03l-.03-10.56c0-.06.04-.1.09-.12.01,0,.02,0,.04,0,.04,0,.08.02.11.06.62.99,1.45,1.96,2.45,2.9,1,.94,2.12,1.74,3.33,2.37,1.2.62,2.38.93,3.5.93.57,0,1.04-.09,1.41-.26.36-.17.65-.41.86-.71.21-.3.32-.64.32-1,0-.6-.21-1.08-.63-1.45-.45-.39-1.22-.85-2.28-1.34-.84-.36-1.64-.77-2.37-1.23-1.48-.71-2.77-1.57-3.83-2.54-.02,0-.04-.01-.06-.03-1.08-1.01-1.93-2.15-2.52-3.39-.6-1.24-.9-2.61-.9-4.08,0-1.96.52-3.72,1.54-5.24,1.02-1.53,2.41-2.72,4.16-3.54,1.75-.83,3.67-1.23,5.86-1.23,2.01,0,3.81.32,5.37.96,1.56.64,2.77,1.38,3.6,2.2l.49,9.6c0,.05-.03.1-.07.12-.02,0-.04.01-.05.01-.03,0-.06-.01-.08-.03-1.47-1.35-3.01-2.46-4.59-3.29-1.53-.8-3.05-1.21-4.52-1.21-.5,0-.95.06-1.33.17-.36.11-.64.31-.83.62-.2.31-.3.63-.3.98,0,.55.21.99.63,1.34.48.39,1.32.87,2.43,1.41.51.16.93.34,1.23.52.27.17.67.34,1.15.51,1.46.78,2.74,1.63,3.81,2.53,1.06.9,1.92,1.96,2.54,3.14.62,1.19.94,2.57.94,4.09,0,1.96-.5,3.78-1.48,5.41-.99,1.64-2.39,2.96-4.17,3.9-1.78.94-3.82,1.42-6.07,1.42Z"/>
            <path class="cls-4" d="M64.93,32.94c1.99,0,3.76.31,5.32.95s2.74,1.36,3.56,2.18l.45,9.52c-1.5-1.39-3.05-2.48-4.62-3.3-1.57-.82-3.1-1.22-4.58-1.22-.52,0-.97.06-1.36.18s-.69.34-.9.67-.32.67-.32,1.04c0,.59.22,1.06.67,1.44.46.37,1.27.85,2.45,1.42.55.18.95.36,1.22.52.27.16.66.34,1.17.52,1.46.78,2.72,1.62,3.77,2.51s1.9,1.93,2.51,3.1c.61,1.17.93,2.53.93,4.03,0,1.93-.48,3.71-1.47,5.35-.99,1.64-2.36,2.92-4.13,3.85-1.76.93-3.77,1.41-6.01,1.41-1.33,0-2.63-.18-3.9-.52-1.27-.36-2.39-.81-3.38-1.39-.99-.57-1.76-1.24-2.33-1.99v-10.48c.63.99,1.46,1.98,2.47,2.93,1.01.95,2.13,1.75,3.36,2.39,1.22.63,2.41.95,3.56.95.6,0,1.09-.1,1.47-.27.38-.18.69-.43.91-.75.22-.32.34-.67.34-1.07,0-.64-.22-1.15-.67-1.54s-1.22-.85-2.31-1.36c-.78-.33-1.57-.73-2.36-1.22-1.5-.73-2.81-1.59-3.87-2.59h0s.01.03.01.03c-1.07-1-1.9-2.11-2.49-3.36-.59-1.23-.89-2.59-.89-4.03,0-1.93.5-3.65,1.52-5.17,1.01-1.52,2.37-2.68,4.1-3.5,1.73-.82,3.66-1.22,5.81-1.22M64.93,32.69c-2.21,0-4.15.41-5.92,1.25-1.76.83-3.18,2.03-4.21,3.58-1.04,1.54-1.56,3.32-1.56,5.31,0,1.49.31,2.88.91,4.14.6,1.25,1.45,2.41,2.54,3.43.02.02.05.04.08.05,1.06.97,2.36,1.83,3.85,2.55.71.45,1.52.86,2.37,1.23,1.04.49,1.8.94,2.25,1.32.4.34.59.79.59,1.35,0,.33-.1.64-.3.92-.19.28-.47.5-.81.67-.35.17-.81.25-1.36.25-1.1,0-2.26-.31-3.44-.92-1.2-.63-2.31-1.41-3.3-2.35-.99-.93-1.81-1.9-2.43-2.88-.05-.07-.13-.12-.21-.12-.02,0-.05,0-.07,0-.11.03-.18.13-.18.24v10.48c0,.05.02.11.05.15.59.78,1.4,1.48,2.41,2.06.99.57,2.15,1.05,3.44,1.41,1.3.35,2.64.53,3.96.53,2.26,0,4.32-.48,6.12-1.44,1.8-.95,3.22-2.28,4.22-3.94,1-1.66,1.5-3.5,1.5-5.48,0-1.55-.32-2.94-.95-4.15-.63-1.2-1.5-2.27-2.57-3.18-1.08-.91-2.36-1.77-3.81-2.54-.51-.18-.9-.35-1.16-.51-.32-.19-.75-.37-1.28-.54-1.36-.66-2.04-1.11-2.37-1.38-.39-.33-.58-.73-.58-1.24,0-.32.09-.62.28-.91.18-.28.43-.47.77-.57.37-.11.8-.17,1.29-.17,1.45,0,2.95.4,4.46,1.19,1.57.82,3.11,1.92,4.57,3.27.05.04.11.07.17.07.04,0,.07,0,.11-.02.09-.04.15-.14.14-.24l-.45-9.52c0-.06-.03-.12-.07-.16-.83-.83-2.06-1.59-3.64-2.23-1.57-.64-3.39-.97-5.41-.97h0Z"/>
          </g>
        </g>
      </g>
    </g>
  </g>
</svg>