<?xml version='1.0' encoding='UTF-8'?>
<svg xmlns="http://www.w3.org/2000/svg" xmlns:xlink="http://www.w3.org/1999/xlink" data-name="Layer 2" viewBox="0 0 361.19 87.43" preserveAspectRatio="xMidYMid meet">
  <defs>
    <style>
      .cls-1 {
        fill: #fff;
      }

      .cls-2 {
        filter: url(#outer-glow-1);
      }

      .cls-3 {
        fill: #663795;
      }
    </style>
    <filter id="outer-glow-1" x="-17.23" y="-17.07" width="395.52" height="121.68" filterUnits="userSpaceOnUse">
      <feOffset dx="0" dy="0"/>
      <feGaussianBlur result="blur" stdDeviation="5.67"/>
      <feFlood flood-color="#000" flood-opacity=".49"/>
      <feComposite in2="blur" operator="in"/>
      <feComposite in="SourceGraphic"/>
    </filter>
  </defs>
  <g id="Layer_1-2" data-name="Layer 1">
    <g class="cls-2" filter="url(#outer-glow-1)">
      <g>
        <g>
          <rect class="cls-1" x="136.88" y="-35.28" width="87.43" height="157.99" transform="translate(224.31 -136.88) rotate(90)" fill="#fff"/>
          <g>
            <path class="cls-3" d="M249.97,43.71c0,.6.49,1.08,1.08,1.08s1.08-.49,1.08-1.08-.49-1.08-1.08-1.08-1.08.49-1.08,1.08Z" fill="#663795"/>
            <path class="cls-1" d="M111.22,43.71c0-.6-.49-1.08-1.08-1.08s-1.08.49-1.08,1.08.49,1.08,1.08,1.08,1.08-.49,1.08-1.08Z" fill="#fff"/>
            <path class="cls-1" d="M131.07,43.71c0-12.42-10.07-22.67-22.48-22.89v21.99c.32-.54.9-.89,1.54-.89.99,0,1.79.8,1.79,1.79s-.8,1.79-1.79,1.79c-.64,0-1.23-.35-1.54-.89v21.99c12.4-.22,22.48-10.47,22.48-22.89Z" fill="#fff"/>
            <path class="cls-1" d="M108.59,7.89v12.23c6.19.11,12,2.6,16.37,7.02,4.4,4.45,6.82,10.34,6.82,16.58s-2.42,12.13-6.82,16.58c-4.37,4.42-10.18,6.91-16.37,7.02v12.23h47.15V7.89h-47.15Z" fill="#fff"/>
            <path class="cls-1" d="M156.45,7.89v71.65h48.29V7.89h-48.29ZM183.57,43.71c0,1.64-1.34,2.98-2.98,2.98s-2.98-1.34-2.98-2.98,1.34-2.98,2.98-2.98,2.98,1.34,2.98,2.98Z" fill="#fff"/>
            <path class="cls-3" d="M236.23,60.29c-4.4-4.45-6.82-10.34-6.82-16.58s2.42-12.13,6.82-16.58c4.37-4.42,10.18-6.91,16.37-7.02V7.89h-47.15v71.65h47.15v-12.23c-6.19-.11-12-2.6-16.37-7.02Z" fill="#663795"/>
            <path class="cls-1" d="M178.36,43.33c-.26,1.55,1.07,2.88,2.62,2.62.94-.16,1.7-.91,1.85-1.85.26-1.55-1.07-2.88-2.62-2.62-.94.16-1.7.91-1.85,1.85Z" fill="#fff"/>
            <path class="cls-3" d="M230.12,43.71c0,12.42,10.07,22.67,22.48,22.89v-21.99c-.32.54-.9.89-1.54.89-.99,0-1.79-.8-1.79-1.79s.8-1.79,1.79-1.79c.64,0,1.23.35,1.54.89v-21.99c-12.4.22-22.48,10.47-22.48,22.89Z" fill="#663795"/>
            <path d="M177.62,43.71c0,1.64,1.34,2.98,2.98,2.98s2.98-1.34,2.98-2.98-1.34-2.98-2.98-2.98-2.98,1.34-2.98,2.98ZM182.86,43.71c0,1.25-1.02,2.27-2.27,2.27s-2.27-1.02-2.27-2.27,1.02-2.27,2.27-2.27,2.27,1.02,2.27,2.27Z"/>
            <path d="M253.31,7.18H107.88v73.07h145.42V7.18ZM252.14,43.71c0,.6-.49,1.08-1.08,1.08s-1.08-.49-1.08-1.08.49-1.08,1.08-1.08,1.08.49,1.08,1.08ZM252.6,42.81c-.32-.54-.9-.89-1.54-.89-.99,0-1.79.8-1.79,1.79s.8,1.79,1.79,1.79c.64,0,1.23-.35,1.54-.89v21.99c-12.4-.22-22.48-10.47-22.48-22.89s10.07-22.67,22.48-22.89v21.99ZM109.05,43.71c0-.6.49-1.08,1.08-1.08s1.08.49,1.08,1.08-.49,1.08-1.08,1.08-1.08-.49-1.08-1.08ZM108.59,44.62c.32.54.9.89,1.54.89.99,0,1.79-.8,1.79-1.79s-.8-1.79-1.79-1.79c-.64,0-1.23.35-1.54.89v-21.99c12.4.22,22.48,10.47,22.48,22.89s-10.07,22.67-22.48,22.89v-21.99ZM108.59,79.54v-12.23c6.19-.11,12-2.6,16.37-7.02,4.4-4.45,6.82-10.34,6.82-16.58s-2.42-12.13-6.82-16.58c-4.37-4.42-10.18-6.91-16.37-7.02V7.89h47.15v71.65h-47.15ZM156.45,79.54V7.89h48.29v71.65h-48.29ZM205.45,79.54V7.89h47.15v12.23c-6.19.11-12,2.6-16.37,7.02-4.4,4.45-6.82,10.34-6.82,16.58s2.42,12.13,6.82,16.58c4.37,4.42,10.18,6.91,16.37,7.02v12.23h-47.15Z"/>
          </g>
        </g>
        <g>
          <g>
            <rect class="cls-1" x="296.47" y="13.97" width="59.48" height="59.48" rx="11.85" ry="11.85" fill="#fff"/>
            <path class="cls-3" d="M343.36,13.97c6.92,0,12.59,5.67,12.59,12.59v34.3c0,6.92-5.67,12.59-12.59,12.59h-34.3c-6.92,0-12.59-5.67-12.59-12.59V26.56c0-6.92,5.67-12.59,12.59-12.59h34.3M343.36,8.73h-34.3c-9.83,0-17.83,8-17.83,17.83v34.3c0,9.83,8,17.83,17.83,17.83h34.3c9.83,0,17.83-8,17.83-17.83V26.56c0-9.83-8-17.83-17.83-17.83h0Z" fill="#663795"/>
          </g>
          <g>
            <path class="cls-3" d="M311.95,56.14c2.12,1.2,4.55,1.82,7.27,1.82,1.56,0,3.03-.2,4.42-.6,1.38-.4,2.42-.91,3.1-1.51v-14.8h-9.85v6.27h3.14v3.85c-.27.05-.56.08-.91.08-1.2,0-2.25-.33-3.13-.97-.88-.64-1.57-1.5-2.06-2.59s-.74-2.32-.74-3.7.27-2.69.81-3.81c.54-1.14,1.31-2.01,2.32-2.65s2.19-.95,3.55-.95c1.11,0,2.15.2,3.13.58.99.39,1.93.98,2.83,1.76l-.04-7.93c-.81-.47-1.81-.85-3-1.12s-2.4-.39-3.6-.39c-2.7,0-5.1.63-7.23,1.89-2.13,1.26-3.78,2.98-4.97,5.15-1.18,2.18-1.78,4.59-1.78,7.23s.59,5.19,1.78,7.35c1.18,2.15,2.83,3.83,4.97,5.05h0Z" fill="#663795"/>
            <path class="cls-3" d="M331.93,43.87c.89.83,1.97,1.55,3.23,2.15.65.4,1.31.74,1.96,1.02.91.42,1.55.81,1.93,1.14s.56.75.56,1.28c0,.33-.1.62-.29.89-.19.27-.44.47-.76.62s-.72.23-1.22.23c-.96,0-1.95-.27-2.96-.79-1.02-.53-1.95-1.19-2.79-1.98-.84-.79-1.53-1.61-2.05-2.44v8.73c.47.63,1.13,1.18,1.95,1.66s1.76.86,2.81,1.16c1.06.29,2.14.43,3.25.43,1.87,0,3.53-.39,5.01-1.17s2.62-1.85,3.44-3.21c.82-1.36,1.22-2.84,1.22-4.45,0-1.25-.26-2.38-.77-3.36-.51-.98-1.21-1.85-2.09-2.59s-1.93-1.44-3.14-2.09c-.42-.15-.75-.3-.98-.43-.23-.14-.56-.29-1.02-.43-.99-.47-1.66-.88-2.04-1.18-.38-.32-.56-.71-.56-1.19,0-.31.09-.59.27-.87s.42-.46.75-.56.7-.15,1.14-.15c1.23,0,2.51.34,3.81,1.02s2.6,1.6,3.85,2.75l-.38-7.93c-.68-.68-1.67-1.28-2.96-1.82-1.29-.53-2.77-.79-4.43-.79-1.79,0-3.4.34-4.84,1.02-1.44.68-2.58,1.65-3.42,2.91-.85,1.26-1.26,2.7-1.26,4.3,0,1.2.25,2.33.74,3.36.49,1.04,1.18,1.96,2.07,2.79h0Z" fill="#663795"/>
          </g>
        </g>
        <g>
          <g>
            <rect class="cls-3" x="5.24" y="13.97" width="59.47" height="59.47" rx="11.92" ry="11.92" fill="#663795"/>
            <path class="cls-1" d="M52.13,13.97c6.92,0,12.59,5.66,12.59,12.59v34.3c0,6.92-5.66,12.59-12.59,12.59H17.83c-6.92,0-12.59-5.66-12.59-12.59V26.56c0-6.92,5.66-12.59,12.59-12.59h34.3M52.13,8.73H17.83C8,8.73,0,16.73,0,26.56v34.3c0,9.83,8,17.83,17.83,17.83h34.3c9.83,0,17.83-8,17.83-17.83V26.56c0-9.83-8-17.83-17.83-17.83h0Z" fill="#fff"/>
          </g>
          <g>
            <path class="cls-1" d="M23.26,47.3h3.14v3.85c-.27.05-.57.08-.9.08-1.21,0-2.25-.32-3.14-.96-.88-.65-1.57-1.5-2.06-2.59-.49-1.08-.73-2.31-.73-3.7s.27-2.68.81-3.81c.54-1.13,1.31-2.02,2.32-2.64,1-.63,2.19-.94,3.55-.94,1.11,0,2.15.2,3.14.59s1.93.97,2.83,1.76l-.04-7.93c-.8-.48-1.81-.85-3-1.11-1.19-.27-2.39-.4-3.6-.4-2.69,0-5.1.63-7.23,1.89-2.12,1.26-3.78,2.98-4.96,5.15s-1.78,4.59-1.78,7.23.6,5.19,1.78,7.35c1.18,2.15,2.84,3.83,4.96,5.04,2.12,1.21,4.55,1.82,7.27,1.82,1.56,0,3.03-.2,4.42-.61,1.38-.41,2.41-.9,3.1-1.51v-14.81h-9.86v6.27h-.02Z" fill="#fff"/>
            <polygon class="cls-1" points="50 30 44.07 40.13 44.07 30 36.4 30 36.4 57.42 44.07 57.42 44.07 46.71 49.62 57.42 58.3 57.42 50.16 42.96 58.38 30 50 30" fill="#fff"/>
          </g>
        </g>
      </g>
    </g>
  </g>
</svg>
