<?xml version='1.0' encoding='UTF-8'?>
<svg xmlns="http://www.w3.org/2000/svg" xmlns:xlink="http://www.w3.org/1999/xlink" data-name="Layer 2" viewBox="0 0 930.63 225.26" preserveAspectRatio="xMidYMid meet">
  <defs>
    <style>
      .cls-1 {
        fill: #639;
      }

      .cls-2 {
        fill: #fff;
      }
    </style>
  </defs>
  <g id="Layer_1-2" data-name="Layer 1">
    <g>
      <g>
        <rect class="cls-2" x="352.68" y="-90.91" width="225.26" height="407.07" transform="translate(577.94 -352.68) rotate(90)" fill="#fff"/>
        <g>
          <path class="cls-1" d="M644.07,112.63c0,1.54,1.25,2.79,2.79,2.79s2.79-1.25,2.79-2.79-1.25-2.79-2.79-2.79-2.79,1.25-2.79,2.79Z" fill="#639"/>
          <path class="cls-2" d="M286.56,112.63c0-1.54-1.25-2.79-2.79-2.79s-2.79,1.25-2.79,2.79,1.25,2.79,2.79,2.79,2.79-1.25,2.79-2.79Z" fill="#fff"/>
          <path class="cls-2" d="M337.71,112.63c0-32-25.96-58.4-57.92-58.98v56.65c.81-1.38,2.32-2.29,3.98-2.29,2.54,0,4.61,2.07,4.61,4.61s-2.07,4.61-4.61,4.61c-1.66,0-3.17-.91-3.98-2.29v56.65c31.96-.58,57.92-26.98,57.92-58.98Z" fill="#fff"/>
          <path class="cls-2" d="M279.79,20.32v31.51c15.95.28,30.92,6.7,42.17,18.09,11.33,11.47,17.57,26.64,17.57,42.71s-6.24,31.24-17.57,42.71c-11.25,11.39-26.22,17.81-42.17,18.09v31.51h121.49V20.32h-121.49Z" fill="#fff"/>
          <path class="cls-2" d="M403.1,20.32v184.61h124.42V20.32h-124.42ZM472.98,112.63c0,4.23-3.44,7.67-7.67,7.67s-7.67-3.44-7.67-7.67,3.44-7.67,7.67-7.67,7.67,3.44,7.67,7.67Z" fill="#fff"/>
          <path class="cls-1" d="M608.67,155.34c-11.33-11.47-17.57-26.64-17.57-42.71s6.24-31.24,17.57-42.71c11.25-11.39,26.22-17.81,42.17-18.09v-31.51h-121.49v184.61h121.49v-31.51c-15.95-.28-30.92-6.7-42.17-18.09Z" fill="#639"/>
          <path class="cls-2" d="M459.55,111.64c-.66,4,2.76,7.42,6.76,6.76,2.42-.4,4.37-2.35,4.78-4.77.66-4-2.76-7.42-6.76-6.76-2.42.4-4.37,2.35-4.78,4.77Z" fill="#fff"/>
          <path class="cls-1" d="M592.92,112.63c0,32,25.96,58.4,57.92,58.98v-56.65c-.81,1.38-2.32,2.29-3.98,2.29-2.54,0-4.61-2.07-4.61-4.61s2.07-4.61,4.61-4.61c1.66,0,3.17.91,3.98,2.29v-56.65c-31.96.58-57.92,26.98-57.92,58.98Z" fill="#639"/>
          <path d="M457.64,112.63c0,4.23,3.44,7.67,7.67,7.67s7.67-3.44,7.67-7.67-3.44-7.67-7.67-7.67-7.67,3.44-7.67,7.67ZM471.16,112.63c0,3.22-2.62,5.85-5.85,5.85s-5.85-2.62-5.85-5.85,2.62-5.85,5.85-5.85,5.85,2.62,5.85,5.85Z"/>
          <path d="M652.66,18.5h-374.7v188.26h374.7V18.5ZM649.65,112.63c0,1.54-1.25,2.79-2.79,2.79s-2.79-1.25-2.79-2.79,1.25-2.79,2.79-2.79,2.79,1.25,2.79,2.79ZM650.84,110.31c-.81-1.38-2.32-2.29-3.98-2.29-2.54,0-4.61,2.07-4.61,4.61s2.07,4.61,4.61,4.61c1.66,0,3.17-.91,3.98-2.29v56.65c-31.96-.58-57.92-26.98-57.92-58.98s25.96-58.4,57.92-58.98v56.65ZM280.97,112.63c0-1.54,1.25-2.79,2.79-2.79s2.79,1.25,2.79,2.79-1.25,2.79-2.79,2.79-2.79-1.25-2.79-2.79ZM279.79,114.95c.81,1.38,2.32,2.29,3.98,2.29,2.54,0,4.61-2.07,4.61-4.61s-2.07-4.61-4.61-4.61c-1.66,0-3.17.91-3.98,2.29v-56.65c31.96.58,57.92,26.98,57.92,58.98s-25.96,58.4-57.92,58.98v-56.65ZM279.79,204.94v-31.51c15.95-.28,30.92-6.7,42.17-18.09,11.33-11.47,17.57-26.64,17.57-42.71s-6.24-31.24-17.57-42.71c-11.25-11.39-26.22-17.81-42.17-18.09v-31.51h121.49v184.61h-121.49ZM403.1,204.94V20.32h124.42v184.61h-124.42ZM529.35,204.94V20.32h121.49v31.51c-15.95.28-30.92,6.7-42.17,18.09-11.33,11.47-17.57,26.64-17.57,42.71s6.24,31.24,17.57,42.71c11.25,11.39,26.22,17.81,42.17,18.09v31.51h-121.49Z"/>
        </g>
      </g>
      <g>
        <g>
          <rect class="cls-2" x="763.87" y="36" width="153.25" height="153.25" rx="30.53" ry="30.53" fill="#fff"/>
          <path class="cls-1" d="M884.68,36c17.83,0,32.44,14.6,32.44,32.44v88.38c0,17.83-14.6,32.44-32.44,32.44h-88.38c-17.83,0-32.44-14.6-32.44-32.44v-88.38c0-17.83,14.6-32.44,32.44-32.44h88.38M884.68,22.5h-88.38c-25.34,0-45.94,20.61-45.94,45.94v88.38c0,25.34,20.61,45.94,45.94,45.94h88.38c25.34,0,45.94-20.61,45.94-45.94v-88.38c0-25.34-20.61-45.94-45.94-45.94h0Z" fill="#639"/>
        </g>
        <g>
          <path class="cls-1" d="M803.76,144.66c5.47,3.1,11.73,4.68,18.72,4.68,4.02,0,7.81-.51,11.4-1.55,3.56-1.04,6.23-2.34,7.99-3.89v-38.13h-25.39v16.15h8.09v9.92c-.69.13-1.45.2-2.34.2-3.1,0-5.8-.84-8.06-2.49-2.26-1.65-4.04-3.87-5.32-6.67s-1.91-5.98-1.91-9.54.69-6.92,2.09-9.82c1.4-2.93,3.38-5.19,5.98-6.82,2.59-1.63,5.65-2.44,9.16-2.44,2.85,0,5.55.51,8.06,1.5,2.54,1.02,4.96,2.52,7.3,4.53l-.1-20.43c-2.09-1.22-4.66-2.19-7.73-2.87-3.08-.69-6.18-1.02-9.29-1.02-6.95,0-13.15,1.63-18.62,4.86-5.5,3.26-9.74,7.68-12.8,13.28-3.05,5.62-4.58,11.83-4.58,18.62s1.53,13.38,4.58,18.93c3.05,5.55,7.3,9.87,12.8,13h-.03Z" fill="#639"/>
          <path class="cls-1" d="M855.25,113.04c2.29,2.14,5.09,3.99,8.32,5.55,1.68,1.04,3.38,1.91,5.06,2.62,2.34,1.09,3.99,2.09,4.96,2.93.97.84,1.45,1.93,1.45,3.31,0,.84-.25,1.6-.74,2.29-.48.69-1.14,1.22-1.96,1.6-.81.38-1.86.59-3.15.59-2.47,0-5.01-.69-7.63-2.04-2.62-1.37-5.04-3.08-7.2-5.11-2.16-2.04-3.94-4.15-5.29-6.28v22.49c1.22,1.63,2.9,3.05,5.01,4.27,2.11,1.22,4.53,2.21,7.25,2.98,2.72.74,5.52,1.12,8.37,1.12,4.81,0,9.11-1.02,12.9-3.03,3.79-2.01,6.74-4.76,8.85-8.27,2.11-3.51,3.15-7.33,3.15-11.47,0-3.23-.66-6.13-1.98-8.65-1.32-2.52-3.13-4.76-5.39-6.67-2.26-1.91-4.96-3.71-8.09-5.39-1.09-.38-1.93-.76-2.52-1.12-.59-.36-1.45-.74-2.62-1.12-2.54-1.22-4.27-2.26-5.27-3.05-.97-.81-1.45-1.83-1.45-3.08,0-.79.23-1.53.69-2.24s1.09-1.2,1.93-1.45,1.81-.38,2.93-.38c3.18,0,6.46.87,9.82,2.62s6.69,4.12,9.92,7.1l-.97-20.43c-1.76-1.76-4.3-3.31-7.63-4.68-3.33-1.37-7.15-2.04-11.42-2.04-4.6,0-8.75.87-12.47,2.62-3.71,1.76-6.64,4.25-8.8,7.5-2.19,3.26-3.26,6.95-3.26,11.09,0,3.1.64,6,1.91,8.65,1.27,2.67,3.05,5.06,5.34,7.2l-.03-.03Z" fill="#639"/>
        </g>
      </g>
      <g>
        <g>
          <rect class="cls-1" x="13.51" y="36" width="153.23" height="153.23" rx="30.7" ry="30.7" fill="#639"/>
          <path class="cls-2" d="M134.32,36c17.83,0,32.44,14.58,32.44,32.44v88.37c0,17.83-14.58,32.44-32.44,32.44H45.95c-17.83,0-32.44-14.58-32.44-32.44v-88.37c0-17.83,14.58-32.44,32.44-32.44h88.37M134.32,22.5H45.95C20.62,22.5,0,43.12,0,68.45v88.37c0,25.33,20.62,45.95,45.95,45.95h88.37c25.33,0,45.95-20.62,45.95-45.95v-88.37c0-25.33-20.62-45.95-45.95-45.95h0Z" fill="#fff"/>
        </g>
        <g>
          <path class="cls-2" d="M59.92,121.87h8.08v9.93c-.69.13-1.46.2-2.33.2-3.12,0-5.81-.82-8.08-2.48-2.28-1.66-4.04-3.86-5.3-6.68-1.25-2.79-1.89-5.96-1.89-9.54s.69-6.91,2.1-9.82c1.38-2.92,3.38-5.19,5.99-6.81,2.58-1.61,5.65-2.43,9.16-2.43,2.87,0,5.55.51,8.08,1.51s4.96,2.51,7.29,4.53l-.1-20.44c-2.07-1.23-4.66-2.2-7.73-2.87-3.07-.69-6.17-1.02-9.29-1.02-6.93,0-13.15,1.61-18.63,4.86-5.48,3.25-9.75,7.68-12.79,13.28-3.04,5.6-4.58,11.82-4.58,18.63s1.54,13.38,4.58,18.93c3.04,5.55,7.32,9.88,12.79,13,5.48,3.12,11.72,4.68,18.73,4.68,4.02,0,7.8-.51,11.39-1.56,3.56-1.05,6.22-2.33,7.98-3.89v-38.15h-25.41v16.14h-.05Z" fill="#fff"/>
          <polygon class="cls-2" points="128.82 77.3 113.54 103.39 113.54 77.3 93.79 77.3 93.79 147.94 113.54 147.94 113.54 120.36 127.85 147.94 150.21 147.94 129.25 110.69 150.41 77.3 128.82 77.3" fill="#fff"/>
        </g>
      </g>
    </g>
  </g>
</svg>
