<?xml version="1.0" encoding="UTF-8"?>
<svg id="Layer_1" data-name="Layer 1" xmlns="http://www.w3.org/2000/svg" viewBox="0 0 100 100">
  <defs>
    <style>
      .cls-1 {
        fill: #fff;
      }

      .cls-2 {
        fill: #639;
        stroke: #b3b3b3;
        stroke-linejoin: round;
        stroke-width: .25px;
      }

      .cls-3 {
        fill: #b3b3b3;
      }
    </style>
  </defs>
  <g id="Purple_GK_Fire.svg">
    <g id="Layer_1-2" data-name="Layer 1-2">
      <g>
        <rect class="cls-2" x="8" y="8" width="84" height="84" rx="21.41" ry="21.41"/>
        <g>
          <g>
            <path class="cls-1" d="M38.78,66.97c-3.23,0-6.15-.73-8.67-2.16-2.53-1.44-4.52-3.46-5.92-6-1.39-2.53-2.12-5.56-2.12-8.76s.71-6.05,2.12-8.62c1.41-2.58,3.4-4.64,5.92-6.14,2.51-1.49,5.41-2.25,8.62-2.25,1.45,0,2.9.16,4.3.47,1.37.3,2.55.73,3.5,1.28l.04,9.18c-1.05-.87-2.11-1.51-3.23-1.96-1.2-.47-2.48-.71-3.82-.71-1.64,0-3.1.39-4.33,1.15-1.22.75-2.18,1.83-2.84,3.22-.66,1.36-.99,2.92-.99,4.63s.3,3.19.89,4.5c.59,1.32,1.41,2.36,2.51,3.16,1.09.79,2.35,1.18,3.84,1.18.38,0,.75-.03,1.11-.1.06-.01.1-.06.1-.12v-4.62c0-.07-.06-.12-.12-.12h-3.61v-7.27h11.59v17.59c-.8.69-1.99,1.27-3.63,1.75-1.63.48-3.4.72-5.27.72Z"/>
            <path class="cls-3" d="M38.73,33.16c1.44,0,2.88.16,4.27.47,1.33.29,2.47.7,3.4,1.23l.04,8.85c-.99-.8-2-1.39-3.06-1.81-1.22-.48-2.51-.72-3.86-.72-1.67,0-3.15.39-4.4,1.17-1.25.76-2.22,1.86-2.89,3.28-.67,1.38-1,2.95-1,4.69s.3,3.22.9,4.55c.6,1.34,1.43,2.39,2.55,3.21,1.1.8,2.41,1.2,3.92,1.2.39,0,.77-.03,1.13-.1.12-.02.2-.13.2-.25v-4.62c0-.14-.11-.25-.25-.25h-3.48v-7.02h11.34v17.41c-.78.67-1.94,1.22-3.54,1.69-1.62.48-3.38.72-5.23.72-3.21,0-6.1-.72-8.6-2.15-2.51-1.43-4.49-3.43-5.87-5.96-1.38-2.51-2.1-5.52-2.1-8.7s.71-6,2.1-8.56c1.4-2.56,3.37-4.61,5.87-6.09,2.49-1.48,5.37-2.23,8.56-2.23M38.73,32.91c-3.23,0-6.13.75-8.68,2.27-2.55,1.51-4.54,3.58-5.96,6.19-1.42,2.61-2.13,5.5-2.13,8.68s.72,6.24,2.13,8.82,3.41,4.6,5.96,6.05c2.55,1.45,5.46,2.18,8.73,2.18,1.87,0,3.64-.24,5.3-.73,1.66-.49,2.9-1.08,3.72-1.82v-17.77h-11.84v7.52h3.73v4.62c-.32.06-.68.1-1.08.1-1.45,0-2.7-.38-3.77-1.16-1.06-.78-1.88-1.8-2.47-3.11-.59-1.3-.88-2.78-.88-4.45s.32-3.22.98-4.58c.64-1.36,1.57-2.42,2.79-3.17,1.21-.75,2.64-1.13,4.27-1.13,1.33,0,2.59.24,3.77.7,1.19.47,2.31,1.17,3.4,2.11l-.04-9.53c-.96-.57-2.17-1.02-3.6-1.33-1.43-.32-2.87-.47-4.33-.47h0ZM35.96,54.3h-.04.04Z"/>
          </g>
          <g>
            <path class="cls-1" d="M67.65,66.33l-6.62-12.79s-.07-.07-.11-.07c0,0-.02,0-.03,0-.06.01-.1.06-.1.12v12.73h-8.96v-32.67h8.96v12.03c0,.06.04.11.09.12.01,0,.02,0,.03,0,.04,0,.08-.02.11-.06l7.08-12.1h9.77l-9.74,15.37s-.03.09,0,.13l9.66,17.17h-10.13Z"/>
            <path class="cls-3" d="M77.64,33.79l-9.62,15.17c-.05.08-.05.18,0,.26l9.55,16.99h-9.84l-6.59-12.72c-.04-.08-.13-.14-.22-.14-.02,0-.04,0-.06,0-.11.03-.19.13-.19.24v12.6h-8.71v-32.42h8.71v11.91c0,.11.08.21.18.24.02,0,.04,0,.07,0,.09,0,.17-.05.22-.12l7.04-12.03h9.47M78.09,33.54h-10.07l-7.11,12.16v-12.16h-9.21v32.92h9.21v-12.85l6.66,12.85h10.42l-9.76-17.36,9.86-15.56h0Z"/>
          </g>
        </g>
      </g>
    </g>
  </g>
</svg>