<?xml version='1.0' encoding='UTF-8'?>
<svg xmlns="http://www.w3.org/2000/svg" xmlns:xlink="http://www.w3.org/1999/xlink" data-name="Layer 2" viewBox="0 0 362.75 87.43" preserveAspectRatio="xMidYMid meet">
  <defs>
    <style>
      .cls-1 {
        fill: #fff;
      }

      .cls-2 {
        fill: #cc3533;
      }

      .cls-3 {
        filter: url(#outer-glow-1);
      }

      .cls-4 {
        fill: #c33;
      }
    </style>
    <filter id="outer-glow-1" x="-17.11" y="-17.01" width="396.96" height="121.68" filterUnits="userSpaceOnUse">
      <feOffset dx="0" dy="0"/>
      <feGaussianBlur result="blur" stdDeviation="5.67"/>
      <feFlood flood-color="#000" flood-opacity=".49"/>
      <feComposite in2="blur" operator="in"/>
      <feComposite in="SourceGraphic"/>
    </filter>
  </defs>
  <g id="Layer_1-2" data-name="Layer 1">
    <g class="cls-3" filter="url(#outer-glow-1)">
      <g>
        <g>
          <rect class="cls-1" x="137.66" y="-35.28" width="87.43" height="157.99" transform="translate(225.09 -137.66) rotate(90)" fill="#fff"/>
          <g>
            <path class="cls-4" d="M112,43.71c0,.6-.49,1.08-1.08,1.08s-1.08-.49-1.08-1.08.49-1.08,1.08-1.08,1.08.49,1.08,1.08Z" fill="#c33"/>
            <path class="cls-1" d="M250.75,43.71c0-.6.49-1.08,1.08-1.08s1.08.49,1.08,1.08-.49,1.08-1.08,1.08-1.08-.49-1.08-1.08Z" fill="#fff"/>
            <path class="cls-1" d="M230.9,43.71c0-12.42,10.07-22.67,22.48-22.89v21.99c-.32-.54-.9-.89-1.54-.89-.99,0-1.79.8-1.79,1.79s.8,1.79,1.79,1.79c.64,0,1.23-.35,1.54-.89v21.99c-12.4-.22-22.48-10.47-22.48-22.89Z" fill="#fff"/>
            <path class="cls-1" d="M253.38,7.89v12.23c-6.19.11-12,2.6-16.37,7.02-4.4,4.45-6.82,10.34-6.82,16.58s2.42,12.13,6.82,16.58c4.37,4.42,10.18,6.91,16.37,7.02v12.23h-47.15V7.89h47.15Z" fill="#fff"/>
            <path class="cls-1" d="M205.52,7.89v71.65h-48.29V7.89h48.29ZM178.4,43.71c0,1.64,1.34,2.98,2.98,2.98s2.98-1.34,2.98-2.98-1.34-2.98-2.98-2.98-2.98,1.34-2.98,2.98Z" fill="#fff"/>
            <path class="cls-4" d="M125.74,60.29c4.4-4.45,6.82-10.34,6.82-16.58s-2.42-12.13-6.82-16.58c-4.37-4.42-10.18-6.91-16.37-7.02V7.89h47.15v71.65h-47.15v-12.23c6.19-.11,12-2.6,16.37-7.02Z" fill="#c33"/>
            <path class="cls-1" d="M183.61,43.33c.26,1.55-1.07,2.88-2.62,2.62-.94-.16-1.7-.91-1.85-1.85-.26-1.55,1.07-2.88,2.62-2.62.94.16,1.7.91,1.85,1.85Z" fill="#fff"/>
            <path class="cls-4" d="M131.85,43.71c0,12.42-10.07,22.67-22.48,22.89v-21.99c.32.54.9.89,1.54.89.99,0,1.79-.8,1.79-1.79s-.8-1.79-1.79-1.79c-.64,0-1.23.35-1.54.89v-21.99c12.4.22,22.48,10.47,22.48,22.89Z" fill="#c33"/>
            <path d="M184.35,43.71c0,1.64-1.34,2.98-2.98,2.98s-2.98-1.34-2.98-2.98,1.34-2.98,2.98-2.98,2.98,1.34,2.98,2.98ZM179.1,43.71c0,1.25,1.02,2.27,2.27,2.27s2.27-1.02,2.27-2.27-1.02-2.27-2.27-2.27-2.27,1.02-2.27,2.27Z"/>
            <path d="M108.66,7.18h145.42v73.07H108.66V7.18ZM109.83,43.71c0,.6.49,1.08,1.08,1.08s1.08-.49,1.08-1.08-.49-1.08-1.08-1.08-1.08.49-1.08,1.08ZM109.37,42.81c.32-.54.9-.89,1.54-.89.99,0,1.79.8,1.79,1.79s-.8,1.79-1.79,1.79c-.64,0-1.23-.35-1.54-.89v21.99c12.4-.22,22.48-10.47,22.48-22.89s-10.07-22.67-22.48-22.89v21.99ZM252.92,43.71c0-.6-.49-1.08-1.08-1.08s-1.08.49-1.08,1.08.49,1.08,1.08,1.08,1.08-.49,1.08-1.08ZM253.38,44.62c-.32.54-.9.89-1.54.89-.99,0-1.79-.8-1.79-1.79s.8-1.79,1.79-1.79c.64,0,1.23.35,1.54.89v-21.99c-12.4.22-22.48,10.47-22.48,22.89s10.07,22.67,22.48,22.89v-21.99ZM253.38,79.54v-12.23c-6.19-.11-12-2.6-16.37-7.02-4.4-4.45-6.82-10.34-6.82-16.58s2.42-12.13,6.82-16.58c4.37-4.42,10.18-6.91,16.37-7.02V7.89h-47.15v71.65h47.15ZM205.52,79.54V7.89h-48.29v71.65h48.29ZM156.52,79.54V7.89h-47.15v12.23c6.19.11,12,2.6,16.37,7.02,4.4,4.45,6.82,10.34,6.82,16.58s-2.42,12.13-6.82,16.58c-4.37,4.42-10.18,6.91-16.37,7.02v12.23h47.15Z"/>
          </g>
        </g>
        <g>
          <g>
            <rect class="cls-1" x="298.02" y="13.97" width="59.48" height="59.48" rx="11.85" ry="11.85" fill="#fff"/>
            <path class="cls-2" d="M344.91,13.97c6.92,0,12.59,5.67,12.59,12.59v34.3c0,6.92-5.67,12.59-12.59,12.59h-34.3c-6.92,0-12.59-5.67-12.59-12.59V26.56c0-6.92,5.67-12.59,12.59-12.59h34.3M344.91,8.73h-34.3c-9.83,0-17.83,8-17.83,17.83v34.3c0,9.83,8,17.83,17.83,17.83h34.3c9.83,0,17.83-8,17.83-17.83V26.56c0-9.83-8-17.83-17.83-17.83h0Z" fill="#cc3533"/>
          </g>
          <g>
            <path class="cls-2" d="M316.04,47.31h3.14v3.85c-.27.05-.56.08-.91.08-1.2,0-2.25-.32-3.13-.97-.88-.64-1.57-1.5-2.06-2.59s-.74-2.32-.74-3.7.27-2.69.81-3.81c.54-1.14,1.31-2.01,2.32-2.65s2.19-.95,3.55-.95c1.11,0,2.15.2,3.13.58.99.39,1.93.98,2.83,1.76l-.04-7.93c-.81-.47-1.81-.85-3-1.12-1.19-.27-2.4-.39-3.6-.39-2.7,0-5.1.63-7.23,1.89-2.13,1.26-3.78,2.98-4.97,5.15-1.18,2.18-1.78,4.59-1.78,7.23s.59,5.19,1.78,7.35c1.18,2.15,2.83,3.83,4.97,5.05,2.12,1.2,4.55,1.82,7.27,1.82,1.56,0,3.03-.2,4.42-.6,1.38-.4,2.42-.91,3.1-1.51v-14.8h-9.85v6.27h0Z" fill="#cc3533"/>
            <polygon class="cls-2" points="342.78 30.01 336.85 40.13 336.85 30.01 329.19 30.01 329.19 57.43 336.85 57.43 336.85 46.72 342.41 57.43 351.09 57.43 342.95 42.96 351.16 30.01 342.78 30.01" fill="#cc3533"/>
          </g>
        </g>
        <g>
          <g>
            <rect class="cls-2" x="5.24" y="13.97" width="59.47" height="59.47" rx="11.92" ry="11.92" fill="#cc3533"/>
            <path class="cls-1" d="M52.13,13.97c6.92,0,12.59,5.66,12.59,12.59v34.3c0,6.92-5.66,12.59-12.59,12.59H17.83c-6.92,0-12.59-5.66-12.59-12.59V26.56c0-6.92,5.66-12.59,12.59-12.59h34.3M52.13,8.73H17.83C8,8.73,0,16.73,0,26.56v34.3c0,9.83,8,17.83,17.83,17.83h34.3c9.83,0,17.83-8,17.83-17.83V26.56c0-9.83-8-17.83-17.83-17.83h0Z" fill="#fff"/>
          </g>
          <g>
            <path class="cls-1" d="M20.72,56.13c2.12,1.21,4.55,1.82,7.27,1.82,1.56,0,3.03-.2,4.42-.61,1.38-.41,2.41-.9,3.1-1.51v-14.81h-9.86v6.27h3.14v3.85c-.27.05-.57.08-.9.08-1.21,0-2.25-.32-3.14-.96s-1.57-1.51-2.06-2.59-.73-2.31-.73-3.7.27-2.68.81-3.81c.54-1.13,1.31-2.02,2.32-2.64,1-.63,2.19-.94,3.55-.94,1.11,0,2.15.2,3.14.59.98.39,1.93.97,2.83,1.76l-.04-7.93c-.8-.48-1.81-.85-3-1.11-1.19-.27-2.39-.4-3.6-.4-2.69,0-5.1.63-7.23,1.89-2.12,1.26-3.78,2.98-4.96,5.15s-1.78,4.59-1.78,7.23.6,5.19,1.78,7.35c1.18,2.15,2.84,3.83,4.96,5.04h-.02Z" fill="#fff"/>
            <path class="cls-1" d="M40.7,43.86c.89.83,1.97,1.55,3.23,2.15.66.41,1.31.74,1.97,1.02.9.43,1.55.8,1.93,1.13s.57.75.57,1.28c0,.33-.09.63-.28.88-.19.27-.44.48-.75.63s-.72.23-1.23.23c-.95,0-1.95-.27-2.97-.79-1.02-.53-1.95-1.19-2.79-1.99-.84-.79-1.53-1.61-2.06-2.43v8.73c.48.63,1.12,1.18,1.95,1.66.81.48,1.76.86,2.81,1.15,1.05.29,2.14.44,3.25.44,1.87,0,3.53-.39,5-1.17s2.62-1.85,3.44-3.21,1.23-2.85,1.23-4.46c0-1.26-.26-2.38-.77-3.36-.52-.98-1.21-1.85-2.1-2.59s-1.93-1.44-3.14-2.1c-.43-.15-.75-.3-.98-.44-.23-.14-.57-.29-1.02-.44-.98-.48-1.66-.87-2.04-1.19-.38-.32-.57-.71-.57-1.19,0-.3.09-.6.27-.86.18-.28.43-.47.75-.57s.71-.15,1.13-.15c1.23,0,2.5.34,3.81,1.02s2.59,1.6,3.85,2.76l-.38-7.93c-.69-.69-1.67-1.28-2.97-1.82-1.3-.53-2.77-.79-4.44-.79-1.79,0-3.4.34-4.84,1.02s-2.57,1.65-3.42,2.91-1.26,2.69-1.26,4.31c0,1.21.25,2.33.73,3.36.49,1.03,1.18,1.97,2.08,2.79Z" fill="#fff"/>
          </g>
        </g>
      </g>
    </g>
  </g>
</svg>
