<?xml version="1.0" encoding="UTF-8"?>
<svg id="Layer_1" data-name="Layer 1" xmlns="http://www.w3.org/2000/svg" viewBox="0 0 100 100">
  <defs>
    <style>
      .cls-1 {
        fill: #fff;
      }

      .cls-2 {
        fill: #c33;
        stroke: #b3b3b3;
        stroke-linejoin: round;
        stroke-width: .25px;
      }

      .cls-3 {
        fill: #b3b3b3;
      }
    </style>
  </defs>
  <g id="Red_GS_Fire.svg">
    <g id="Layer_1-2" data-name="Layer 1-2">
      <g>
        <rect class="cls-2" x="8" y="8" width="84" height="84" rx="21.41" ry="21.41"/>
        <g>
          <g>
            <path class="cls-1" d="M41.61,66.97c-3.2,0-6.09-.71-8.59-2.12,0-.02-.02-.03-.04-.04-2.53-1.44-4.52-3.46-5.92-6-1.39-2.53-2.12-5.56-2.12-8.76s.71-6.05,2.12-8.62c1.41-2.58,3.4-4.64,5.92-6.14,2.51-1.49,5.41-2.25,8.62-2.25,1.45,0,2.9.16,4.3.47,1.37.3,2.55.73,3.5,1.28l.04,9.18c-1.04-.86-2.12-1.52-3.23-1.96-1.2-.47-2.48-.71-3.82-.71-1.64,0-3.1.39-4.33,1.15-1.22.75-2.18,1.83-2.84,3.22-.66,1.36-.99,2.92-.99,4.63s.3,3.18.89,4.5c.6,1.32,1.44,2.38,2.51,3.16,1.09.79,2.34,1.18,3.84,1.18.39,0,.76-.03,1.11-.1.06-.01.1-.06.1-.12v-4.62c0-.07-.06-.12-.12-.12h-3.65v-7.27h11.59v17.59c-.8.69-1.98,1.27-3.63,1.75-1.63.48-3.4.72-5.27.72Z"/>
            <path class="cls-3" d="M41.6,33.15c1.44,0,2.88.16,4.27.47,1.33.29,2.47.7,3.4,1.23l.04,8.85c-.98-.79-2.01-1.39-3.06-1.81-1.22-.48-2.51-.72-3.86-.72-1.67,0-3.15.39-4.4,1.17-1.24.76-2.22,1.86-2.89,3.28-.67,1.38-1,2.95-1,4.69s.3,3.22.9,4.55c.6,1.34,1.46,2.42,2.55,3.21,1.1.8,2.41,1.2,3.92,1.2.39,0,.77-.03,1.13-.1.12-.02.2-.13.2-.25v-4.62c0-.14-.11-.25-.25-.25h-3.52v-7.02h11.34v17.41c-.78.67-1.94,1.22-3.54,1.69-1.62.48-3.38.72-5.23.72-3.16,0-6.02-.7-8.5-2.08-.02-.02-.04-.05-.07-.06-2.51-1.43-4.49-3.43-5.87-5.96-1.38-2.51-2.1-5.52-2.1-8.7s.71-6,2.1-8.56c1.4-2.56,3.37-4.61,5.87-6.09,2.49-1.48,5.37-2.23,8.56-2.23M41.6,32.9c-3.23,0-6.13.75-8.68,2.27-2.55,1.51-4.54,3.58-5.96,6.19-1.42,2.61-2.13,5.5-2.13,8.68s.72,6.24,2.13,8.82c1.42,2.59,3.41,4.6,5.96,6.05h-.04c2.55,1.45,5.46,2.18,8.73,2.18,1.87,0,3.64-.24,5.3-.73,1.66-.49,2.9-1.08,3.72-1.82v-17.77h-11.84v7.52h3.77v4.62c-.32.06-.68.1-1.08.1-1.45,0-2.7-.38-3.77-1.16-1.07-.78-1.88-1.82-2.47-3.11-.59-1.3-.88-2.78-.88-4.45s.32-3.22.98-4.58c.64-1.36,1.57-2.42,2.79-3.17,1.21-.75,2.64-1.13,4.27-1.13,1.33,0,2.59.24,3.77.7,1.18.47,2.31,1.17,3.4,2.11l-.04-9.53c-.96-.57-2.17-1.02-3.6-1.33-1.43-.32-2.87-.47-4.33-.47h0Z"/>
          </g>
          <g>
            <path class="cls-1" d="M63.6,66.97c-1.3,0-2.6-.17-3.86-.52-1.25-.34-2.37-.81-3.34-1.37-.96-.57-1.74-1.23-2.3-1.96l.02-9.99c.61.89,1.37,1.76,2.26,2.6,1.06,1,2.16,1.79,3.38,2.41,1.24.64,2.46.97,3.62.97.61,0,1.13-.1,1.53-.29.39-.18.71-.45.95-.79.24-.32.36-.7.36-1.13,0-.67-.24-1.22-.72-1.64-.46-.4-1.22-.85-2.34-1.37-.79-.33-1.58-.75-2.35-1.22-1.5-.72-2.8-1.58-3.86-2.57-1.07-.97-1.9-2.08-2.48-3.32-.58-1.21-.87-2.55-.87-3.98,0-1.93.49-3.6,1.49-5.1,1.01-1.51,2.33-2.64,4.05-3.45,1.73-.82,3.61-1.22,5.75-1.22,1.94,0,3.72.32,5.28.95,1.56.64,2.71,1.34,3.52,2.15l.4,9.14c-1.43-1.28-2.92-2.34-4.43-3.13-1.58-.83-3.14-1.25-4.64-1.25-.52,0-.99.06-1.39.18-.41.13-.74.37-.97.73-.22.33-.34.71-.34,1.1,0,.61.24,1.12.73,1.53.48.4,1.31.88,2.47,1.45.54.18.94.35,1.22.52.29.18.69.36,1.2.54,1.44.79,2.67,1.6,3.73,2.5,1.03.87,1.87,1.9,2.49,3.08.61,1.15.92,2.48.92,3.97,0,1.88-.49,3.67-1.46,5.29-.95,1.59-2.32,2.87-4.08,3.81-1.73.92-3.73,1.39-5.95,1.39Z"/>
            <path class="cls-3" d="M64.9,33.14c1.93,0,3.69.32,5.23.94,1.5.61,2.62,1.28,3.41,2.06l.42,8.83c-1.37-1.2-2.79-2.19-4.23-2.95-1.59-.83-3.17-1.26-4.69-1.26-.53,0-1.01.06-1.43.19-.44.13-.79.4-1.04.78-.24.35-.36.76-.36,1.18,0,.65.26,1.19.77,1.62.48.4,1.32.89,2.53,1.48.51.17.91.33,1.17.5.3.18.71.37,1.19.53,1.46.79,2.68,1.61,3.73,2.49,1.03.87,1.84,1.86,2.46,3.04.6,1.13.9,2.45.9,3.91,0,1.86-.49,3.62-1.45,5.23-.94,1.57-2.29,2.83-4.03,3.76-1.71.91-3.7,1.38-5.89,1.38-1.29,0-2.58-.17-3.83-.52-1.24-.34-2.35-.8-3.31-1.36-.92-.54-1.66-1.17-2.21-1.86v-9.59c.57.78,1.26,1.55,2.05,2.29,1.07,1.01,2.18,1.8,3.41,2.43,1.26.65,2.5.98,3.68.98.63,0,1.17-.1,1.59-.3.4-.19.74-.47,1-.83.25-.34.38-.75.38-1.21,0-.71-.26-1.29-.77-1.73-.46-.4-1.24-.86-2.38-1.4-.78-.33-1.56-.74-2.35-1.22-1.48-.71-2.76-1.57-3.81-2.54-.01-.01-.03-.02-.05-.03-1.02-.95-1.83-2.04-2.4-3.25-.57-1.2-.86-2.52-.86-3.92,0-1.91.48-3.55,1.47-5.03.99-1.49,2.3-2.6,4-3.41,1.71-.81,3.58-1.21,5.7-1.21M64.9,32.89c-2.15,0-4.07.41-5.81,1.23-1.73.82-3.09,1.98-4.1,3.5-1.01,1.52-1.51,3.23-1.51,5.17,0,1.45.3,2.8.88,4.03.59,1.24,1.42,2.36,2.49,3.35h.02c1.07,1.01,2.36,1.87,3.87,2.59.79.49,1.57.9,2.36,1.23,1.08.51,1.86.96,2.31,1.36.45.39.68.9.68,1.54,0,.39-.1.75-.33,1.06-.23.32-.53.57-.9.75-.38.18-.87.27-1.48.27-1.14,0-2.33-.32-3.56-.96-1.23-.63-2.33-1.43-3.35-2.39-1.02-.96-1.84-1.93-2.47-2.92v10.48c.57.75,1.35,1.42,2.33,1.99.98.57,2.11,1.04,3.37,1.39,1.27.35,2.58.53,3.9.53,2.24,0,4.25-.47,6.01-1.41,1.76-.94,3.15-2.22,4.13-3.85.98-1.64,1.48-3.42,1.48-5.36,0-1.51-.31-2.86-.93-4.03-.62-1.18-1.45-2.22-2.52-3.11-1.07-.9-2.31-1.73-3.77-2.52-.51-.18-.9-.36-1.18-.53s-.68-.35-1.23-.53c-1.18-.57-1.99-1.05-2.45-1.43-.45-.38-.68-.86-.68-1.43,0-.36.1-.72.32-1.04.21-.33.51-.56.9-.68.39-.12.84-.18,1.36-.18,1.48,0,3.01.41,4.58,1.23,1.57.82,3.11,1.92,4.62,3.31l-.45-9.53c-.82-.82-2-1.54-3.56-2.18-1.56-.63-3.33-.96-5.33-.96h0Z"/>
          </g>
        </g>
      </g>
    </g>
  </g>
</svg>