<?xml version='1.0' encoding='UTF-8'?>
<svg xmlns="http://www.w3.org/2000/svg" xmlns:xlink="http://www.w3.org/1999/xlink" data-name="Layer 2" viewBox="0 0 934.65 225.26" preserveAspectRatio="xMidYMid meet">
  <defs>
    <style>
      .cls-1 {
        fill: #fff;
      }

      .cls-2 {
        fill: #c33;
      }
    </style>
  </defs>
  <g id="Layer_1-2" data-name="Layer 1">
    <g>
      <g>
        <rect class="cls-1" x="354.69" y="-90.91" width="225.26" height="407.07" transform="translate(579.95 -354.69) rotate(90)" fill="#fff"/>
        <g>
          <path class="cls-2" d="M288.57,112.63c0,1.54-1.25,2.79-2.79,2.79s-2.79-1.25-2.79-2.79,1.25-2.79,2.79-2.79,2.79,1.25,2.79,2.79Z" fill="#c33"/>
          <path class="cls-1" d="M646.08,112.63c0-1.54,1.25-2.79,2.79-2.79s2.79,1.25,2.79,2.79-1.25,2.79-2.79,2.79-2.79-1.25-2.79-2.79Z" fill="#fff"/>
          <path class="cls-1" d="M594.93,112.63c0-32,25.96-58.4,57.92-58.98v56.65c-.81-1.38-2.32-2.29-3.98-2.29-2.54,0-4.61,2.07-4.61,4.61s2.07,4.61,4.61,4.61c1.66,0,3.17-.91,3.98-2.29v56.65c-31.96-.58-57.92-26.98-57.92-58.98Z" fill="#fff"/>
          <path class="cls-1" d="M652.85,20.32v31.51c-15.95.28-30.92,6.7-42.17,18.09-11.33,11.47-17.57,26.64-17.57,42.71s6.24,31.24,17.57,42.71c11.25,11.39,26.22,17.81,42.17,18.09v31.51h-121.49V20.32h121.49Z" fill="#fff"/>
          <path class="cls-1" d="M529.53,20.32v184.61h-124.42V20.32h124.42ZM459.65,112.63c0,4.23,3.44,7.67,7.67,7.67s7.67-3.44,7.67-7.67-3.44-7.67-7.67-7.67-7.67,3.44-7.67,7.67Z" fill="#fff"/>
          <path class="cls-2" d="M323.97,155.34c11.33-11.47,17.57-26.64,17.57-42.71s-6.24-31.24-17.57-42.71c-11.25-11.39-26.22-17.81-42.17-18.09v-31.51h121.49v184.61h-121.49v-31.51c15.95-.28,30.92-6.7,42.17-18.09Z" fill="#c33"/>
          <path class="cls-1" d="M473.09,111.64c.66,4-2.76,7.42-6.76,6.76-2.42-.4-4.37-2.35-4.78-4.77-.66-4,2.76-7.42,6.76-6.76,2.42.4,4.37,2.35,4.78,4.77Z" fill="#fff"/>
          <path class="cls-2" d="M339.71,112.63c0,32-25.96,58.4-57.92,58.98v-56.65c.81,1.38,2.32,2.29,3.98,2.29,2.54,0,4.61-2.07,4.61-4.61s-2.07-4.61-4.61-4.61c-1.66,0-3.17.91-3.98,2.29v-56.65c31.96.58,57.92,26.98,57.92,58.98Z" fill="#c33"/>
          <path d="M474.99,112.63c0,4.23-3.44,7.67-7.67,7.67s-7.67-3.44-7.67-7.67,3.44-7.67,7.67-7.67,7.67,3.44,7.67,7.67ZM461.47,112.63c0,3.22,2.62,5.85,5.85,5.85s5.85-2.62,5.85-5.85-2.62-5.85-5.85-5.85-5.85,2.62-5.85,5.85Z"/>
          <path d="M279.97,18.5h374.7v188.26h-374.7V18.5ZM282.98,112.63c0,1.54,1.25,2.79,2.79,2.79s2.79-1.25,2.79-2.79-1.25-2.79-2.79-2.79-2.79,1.25-2.79,2.79ZM281.8,110.31c.81-1.38,2.32-2.29,3.98-2.29,2.54,0,4.61,2.07,4.61,4.61s-2.07,4.61-4.61,4.61c-1.66,0-3.17-.91-3.98-2.29v56.65c31.96-.58,57.92-26.98,57.92-58.98s-25.96-58.4-57.92-58.98v56.65ZM651.66,112.63c0-1.54-1.25-2.79-2.79-2.79s-2.79,1.25-2.79,2.79,1.25,2.79,2.79,2.79,2.79-1.25,2.79-2.79ZM652.85,114.95c-.81,1.38-2.32,2.29-3.98,2.29-2.54,0-4.61-2.07-4.61-4.61s2.07-4.61,4.61-4.61c1.66,0,3.17.91,3.98,2.29v-56.65c-31.96.58-57.92,26.98-57.92,58.98s25.96,58.4,57.92,58.98v-56.65ZM652.85,204.94v-31.51c-15.95-.28-30.92-6.7-42.17-18.09-11.33-11.47-17.57-26.64-17.57-42.71s6.24-31.24,17.57-42.71c11.25-11.39,26.22-17.81,42.17-18.09v-31.51h-121.49v184.61h121.49ZM529.53,204.94V20.32h-124.42v184.61h124.42ZM403.29,204.94V20.32h-121.49v31.51c15.95.28,30.92,6.7,42.17,18.09,11.33,11.47,17.57,26.64,17.57,42.71s-6.24,31.24-17.57,42.71c-11.25,11.39-26.22,17.81-42.17,18.09v31.51h121.49Z"/>
        </g>
      </g>
      <g>
        <g>
          <rect class="cls-1" x="767.88" y="36" width="153.25" height="153.25" rx="30.53" ry="30.53" fill="#fff"/>
          <path class="cls-2" d="M888.7,36c17.83,0,32.44,14.6,32.44,32.44v88.38c0,17.83-14.6,32.44-32.44,32.44h-88.38c-17.83,0-32.44-14.6-32.44-32.44v-88.38c0-17.83,14.6-32.44,32.44-32.44h88.38M888.7,22.5h-88.38c-25.34,0-45.94,20.61-45.94,45.94v88.38c0,25.34,20.61,45.94,45.94,45.94h88.38c25.34,0,45.94-20.61,45.94-45.94v-88.38c0-25.34-20.61-45.94-45.94-45.94h0Z" fill="#c33"/>
        </g>
        <g>
          <path class="cls-2" d="M814.31,121.89h8.09v9.92c-.69.13-1.45.2-2.34.2-3.1,0-5.8-.81-8.06-2.49-2.26-1.65-4.04-3.87-5.32-6.67s-1.91-5.98-1.91-9.54.69-6.92,2.09-9.82c1.4-2.93,3.38-5.19,5.98-6.82s5.65-2.44,9.16-2.44c2.85,0,5.55.51,8.06,1.5,2.54,1.02,4.96,2.52,7.3,4.53l-.1-20.43c-2.09-1.22-4.66-2.19-7.73-2.87-3.08-.69-6.18-1.02-9.29-1.02-6.95,0-13.15,1.63-18.62,4.86-5.5,3.26-9.74,7.68-12.8,13.28-3.05,5.62-4.58,11.83-4.58,18.62s1.53,13.38,4.58,18.93c3.05,5.55,7.3,9.87,12.8,13,5.47,3.1,11.73,4.68,18.72,4.68,4.02,0,7.81-.51,11.4-1.55,3.56-1.04,6.23-2.34,7.99-3.89v-38.13h-25.39v16.15h-.03Z" fill="#c33"/>
          <polygon class="cls-2" points="883.21 77.32 867.92 103.39 867.92 77.32 848.17 77.32 848.17 147.97 867.92 147.97 867.92 120.39 882.24 147.97 904.6 147.97 883.64 110.7 904.8 77.32 883.21 77.32" fill="#c33"/>
        </g>
      </g>
      <g>
        <g>
          <rect class="cls-2" x="13.51" y="36" width="153.23" height="153.23" rx="30.7" ry="30.7" fill="#c33"/>
          <path class="cls-1" d="M134.32,36c17.83,0,32.44,14.58,32.44,32.44v88.37c0,17.83-14.58,32.44-32.44,32.44H45.95c-17.83,0-32.44-14.58-32.44-32.44v-88.37c0-17.83,14.58-32.44,32.44-32.44h88.37M134.32,22.5H45.95C20.62,22.5,0,43.12,0,68.45v88.37c0,25.33,20.62,45.95,45.95,45.95h88.37c25.33,0,45.95-20.62,45.95-45.95v-88.37c0-25.33-20.62-45.95-45.95-45.95h0Z" fill="#fff"/>
        </g>
        <g>
          <path class="cls-1" d="M53.4,144.64c5.48,3.12,11.72,4.68,18.73,4.68,4.02,0,7.8-.51,11.39-1.56,3.56-1.05,6.22-2.33,7.98-3.89v-38.15h-25.41v16.14h8.08v9.93c-.69.13-1.46.2-2.33.2-3.12,0-5.81-.82-8.08-2.48-2.28-1.66-4.04-3.89-5.3-6.68s-1.89-5.96-1.89-9.54.69-6.91,2.1-9.82c1.38-2.92,3.38-5.19,5.99-6.81,2.58-1.61,5.65-2.43,9.16-2.43,2.87,0,5.55.51,8.08,1.51,2.53,1,4.96,2.51,7.29,4.53l-.1-20.44c-2.07-1.23-4.66-2.2-7.73-2.87-3.07-.69-6.17-1.02-9.29-1.02-6.93,0-13.15,1.61-18.63,4.86-5.48,3.25-9.75,7.68-12.79,13.28-3.04,5.6-4.58,11.82-4.58,18.63s1.54,13.38,4.58,18.93c3.04,5.55,7.32,9.88,12.79,13h-.05Z" fill="#fff"/>
          <path class="cls-1" d="M104.87,113.01c2.3,2.15,5.07,3.99,8.31,5.55,1.69,1.05,3.38,1.92,5.07,2.64,2.33,1.1,3.99,2.07,4.96,2.92s1.46,1.94,1.46,3.3c0,.84-.23,1.61-.72,2.28-.49.69-1.13,1.23-1.94,1.61s-1.87.59-3.17.59c-2.46,0-5.01-.69-7.65-2.05-2.64-1.36-5.01-3.07-7.19-5.12-2.17-2.05-3.94-4.14-5.3-6.27v22.49c1.23,1.61,2.89,3.04,5.01,4.27,2.1,1.23,4.53,2.23,7.24,2.97,2.71.74,5.53,1.13,8.37,1.13,4.81,0,9.11-1,12.89-3.02,3.79-2.02,6.75-4.76,8.85-8.26s3.17-7.34,3.17-11.49c0-3.25-.67-6.14-2-8.65-1.33-2.53-3.12-4.76-5.4-6.68-2.28-1.92-4.96-3.71-8.08-5.4-1.1-.38-1.94-.77-2.53-1.13-.59-.36-1.46-.74-2.64-1.13-2.53-1.23-4.27-2.25-5.24-3.07-.97-.82-1.46-1.84-1.46-3.07,0-.77.23-1.54.69-2.23.46-.72,1.1-1.2,1.94-1.46s1.82-.38,2.92-.38c3.17,0,6.45.87,9.82,2.64,3.38,1.77,6.68,4.12,9.93,7.11l-.97-20.44c-1.77-1.77-4.3-3.3-7.65-4.68-3.35-1.36-7.14-2.05-11.44-2.05-4.61,0-8.75.87-12.46,2.64-3.71,1.77-6.63,4.25-8.8,7.5s-3.25,6.93-3.25,11.1c0,3.12.64,6.01,1.89,8.65,1.25,2.66,3.04,5.07,5.35,7.19Z" fill="#fff"/>
        </g>
      </g>
    </g>
  </g>
</svg>
