<?xml version="1.0" encoding="UTF-8"?>
<svg id="Layer_1" data-name="Layer 1" xmlns="http://www.w3.org/2000/svg" xmlns:xlink="http://www.w3.org/1999/xlink" viewBox="0 0 1356 2600">
  <defs>
    <style>
      .cls-1 {
        fill: none;
      }

      .cls-2 {
        fill: url(#linear-gradient);
      }

      .cls-3 {
        clip-path: url(#clippath);
      }
    </style>
    <clipPath id="clippath">
      <rect class="cls-1" width="1356" height="2600"/>
    </clipPath>
    <linearGradient id="linear-gradient" x1="678" y1="2550" x2="678" y2="50" gradientUnits="userSpaceOnUse">
      <stop offset=".05" stop-color="#639"/>
      <stop offset=".2" stop-color="#0052b3"/>
      <stop offset=".35" stop-color="#099"/>
      <stop offset=".5" stop-color="#093"/>
      <stop offset=".65" stop-color="#fa0"/>
      <stop offset=".8" stop-color="#ff7933"/>
      <stop offset=".95" stop-color="#c33"/>
    </linearGradient>
  </defs>
  <g class="cls-3">
    <path class="cls-2" d="M49.02,2550V50s1257.96,0,1257.96,0v2500s-1255.97,0-1255.97,0h-2ZM271.06,2533.87c2.34-106.01,45.31-205.54,121.04-280.36,76.76-75.83,178.3-117.59,285.9-117.59s209.14,41.76,285.9,117.59c75.73,74.82,118.7,174.35,121.05,280.36h205.9v-805.31H65.15s0,805.31,0,805.31h205.91ZM678,2152.05c-210.81,0-385.92,171.18-390.81,381.82h369.2c-7.01-6.21-11.12-15.17-11.12-24.51,0-18.05,14.68-32.73,32.73-32.73s32.73,14.68,32.73,32.73c0,9.33-4.11,18.3-11.12,24.51h369.2c-4.89-210.64-180-381.82-390.81-381.82ZM678,2492.75c-9.16,0-16.6,7.45-16.6,16.61s7.45,16.61,16.6,16.61,16.6-7.45,16.6-16.61-7.45-16.61-16.6-16.61ZM1290.85,1712.42v-824.85H65.15v824.85h1225.7ZM1290.85,871.44V66.13h-205.91c-2.35,106.01-45.31,205.55-121.05,280.37-76.76,75.83-178.29,117.59-285.9,117.59s-209.14-41.76-285.9-117.59c-75.73-74.82-118.7-174.35-121.04-280.37H65.15v805.31h1225.7ZM287.19,66.13c4.9,210.64,180,381.82,390.81,381.82s385.92-171.18,390.81-381.82h-369.2c7.01,6.21,11.12,15.17,11.12,24.51,0,18.05-14.68,32.73-32.73,32.73s-32.73-14.68-32.73-32.73c0-9.33,4.11-18.3,11.12-24.51h-369.2ZM678,74.04c-9.16,0-16.6,7.45-16.6,16.61s7.45,16.61,16.6,16.61,16.6-7.45,16.6-16.61-7.45-16.61-16.6-16.61ZM50.02,2549V51s1255.97,0,1255.97,0v2498s-1254.97,0-1254.97,0h-1ZM272.04,2534.86c2.1-106.13,44.96-205.76,120.77-280.65,76.57-75.65,177.86-117.31,285.2-117.31s208.63,41.66,285.2,117.31c75.8,74.89,118.67,174.52,120.77,280.65h207.88v-807.31H64.15s0,807.31,0,807.31h207.89ZM678,2151.05c-211.9,0-387.46,172.08-391.83,383.82h373.04c-8.05-5.97-12.93-15.46-12.93-25.51,0-17.5,14.23-31.73,31.73-31.73s31.73,14.24,31.73,31.73c0,10.04-4.88,19.54-12.94,25.5h373.04c-4.37-211.74-179.94-383.82-391.83-383.82ZM678,2491.75c-9.71,0-17.6,7.9-17.6,17.6s7.9,17.6,17.6,17.6,17.6-7.9,17.6-17.6-7.9-17.6-17.6-17.6ZM1291.85,1713.42v-826.84H64.15v826.84h1227.7ZM1291.85,872.44V65.13h-207.88c-2.1,106.13-44.97,205.77-120.77,280.65-76.57,75.64-177.86,117.3-285.2,117.3s-208.63-41.66-285.2-117.3c-75.8-74.89-118.67-174.52-120.77-280.65H64.15v807.31h1227.7ZM286.16,65.13c4.37,211.74,179.94,383.82,391.83,383.82s387.46-172.08,391.83-383.82h-373.04c8.05,5.97,12.94,15.47,12.94,25.51,0,17.5-14.24,31.73-31.73,31.73s-31.73-14.24-31.73-31.73c0-10.04,4.88-19.54,12.94-25.51h-373.04ZM678,73.04c-9.71,0-17.6,7.9-17.6,17.6s7.9,17.6,17.6,17.6,17.6-7.9,17.6-17.6-7.9-17.6-17.6-17.6ZM50.02,2549V51s1255.97,0,1255.97,0v2498s-1254.97,0-1254.97,0h-1ZM272.04,2534.86c2.1-106.13,44.96-205.76,120.77-280.65,76.57-75.65,177.86-117.31,285.2-117.31s208.63,41.66,285.2,117.31c75.8,74.89,118.67,174.52,120.77,280.65h207.88v-807.31H64.15s0,807.31,0,807.31h207.89ZM678,2151.05c-211.9,0-387.46,172.08-391.83,383.82h373.04c-8.05-5.97-12.93-15.46-12.93-25.51,0-17.5,14.23-31.73,31.73-31.73s31.73,14.24,31.73,31.73c0,10.04-4.88,19.54-12.94,25.5h373.04c-4.37-211.74-179.94-383.82-391.83-383.82ZM678,2491.75c-9.71,0-17.6,7.9-17.6,17.6s7.9,17.6,17.6,17.6,17.6-7.9,17.6-17.6-7.9-17.6-17.6-17.6ZM1291.85,1713.42v-826.84H64.15v826.84h1227.7ZM1291.85,872.44V65.13h-207.88c-2.1,106.13-44.97,205.77-120.77,280.65-76.57,75.64-177.86,117.3-285.2,117.3s-208.63-41.66-285.2-117.3c-75.8-74.89-118.67-174.52-120.77-280.65H64.15v807.31h1227.7ZM286.16,65.13c4.37,211.74,179.94,383.82,391.83,383.82s387.46-172.08,391.83-383.82h-373.04c8.05,5.97,12.94,15.47,12.94,25.51,0,17.5-14.24,31.73-31.73,31.73s-31.73-14.24-31.73-31.73c0-10.04,4.88-19.54,12.94-25.51h-373.04ZM678,73.04c-9.71,0-17.6,7.9-17.6,17.6s7.9,17.6,17.6,17.6,17.6-7.9,17.6-17.6-7.9-17.6-17.6-17.6ZM678,1353.09c-29.27,0-53.09-23.82-53.09-53.09s23.82-53.09,53.09-53.09,53.09,23.82,53.09,53.09-23.82,53.09-53.09,53.09ZM678,1263.04c-20.38,0-36.96,16.58-36.96,36.96s16.58,36.96,36.96,36.96,36.96-16.58,36.96-36.96-16.58-36.96-36.96-36.96ZM678,1352.09c-28.72,0-52.09-23.37-52.09-52.09s23.37-52.09,52.09-52.09,52.09,23.37,52.09,52.09-23.37,52.09-52.09,52.09ZM678,1262.04c-20.93,0-37.96,17.03-37.96,37.96s17.03,37.96,37.96,37.96,37.96-17.03,37.96-37.96-17.03-37.96-37.96-37.96ZM678,1352.09c-28.72,0-52.09-23.37-52.09-52.09s23.37-52.09,52.09-52.09,52.09,23.37,52.09,52.09-23.37,52.09-52.09,52.09ZM678,1262.04c-20.93,0-37.96,17.03-37.96,37.96s17.03,37.96,37.96,37.96,37.96-17.03,37.96-37.96-17.03-37.96-37.96-37.96Z"/>
  </g>
</svg>