<?xml version='1.0' encoding='UTF-8'?>
<svg xmlns="http://www.w3.org/2000/svg" xmlns:xlink="http://www.w3.org/1999/xlink" data-name="Layer 2" viewBox="0 0 930.63 225.26" preserveAspectRatio="xMidYMid meet">
  <defs>
    <style>
      .cls-1 {
        fill: #fff;
      }

      .cls-2 {
        fill: #099;
      }
    </style>
  </defs>
  <g id="Layer_1-2" data-name="Layer 1">
    <g>
      <g>
        <rect class="cls-1" x="352.68" y="-90.91" width="225.26" height="407.07" transform="translate(577.94 -352.68) rotate(90)" fill="#fff"/>
        <g>
          <path class="cls-1" d="M644.07,112.63c0,1.54,1.25,2.79,2.79,2.79s2.79-1.25,2.79-2.79-1.25-2.79-2.79-2.79-2.79,1.25-2.79,2.79Z" fill="#fff"/>
          <path class="cls-1" d="M286.56,112.63c0-1.54-1.25-2.79-2.79-2.79s-2.79,1.25-2.79,2.79,1.25,2.79,2.79,2.79,2.79-1.25,2.79-2.79Z" fill="#fff"/>
          <path class="cls-1" d="M337.71,112.63c0-32-25.96-58.4-57.92-58.98v56.65c.81-1.38,2.32-2.29,3.98-2.29,2.54,0,4.61,2.07,4.61,4.61s-2.07,4.61-4.61,4.61c-1.66,0-3.17-.91-3.98-2.29v56.65c31.96-.58,57.92-26.98,57.92-58.98Z" fill="#fff"/>
          <path class="cls-1" d="M279.79,20.32v31.51c15.95.28,30.92,6.7,42.17,18.09,11.33,11.47,17.57,26.64,17.57,42.71s-6.24,31.24-17.57,42.71c-11.25,11.39-26.22,17.81-42.17,18.09v31.51h121.49V20.32h-121.49Z" fill="#fff"/>
          <path class="cls-2" d="M403.1,20.32v184.61h124.42V20.32h-124.42ZM472.98,112.63c0,4.23-3.44,7.67-7.67,7.67s-7.67-3.44-7.67-7.67,3.44-7.67,7.67-7.67,7.67,3.44,7.67,7.67Z" fill="#099"/>
          <path class="cls-2" d="M608.67,155.34c-11.33-11.47-17.57-26.64-17.57-42.71s6.24-31.24,17.57-42.71c11.25-11.39,26.22-17.81,42.17-18.09v-31.51h-121.49v184.61h121.49v-31.51c-15.95-.28-30.92-6.7-42.17-18.09Z" fill="#099"/>
          <path class="cls-2" d="M459.55,111.64c-.66,4,2.76,7.42,6.76,6.76,2.42-.4,4.37-2.35,4.78-4.77.66-4-2.76-7.42-6.76-6.76-2.42.4-4.37,2.35-4.78,4.77Z" fill="#099"/>
          <path class="cls-1" d="M592.92,112.63c0,32,25.96,58.4,57.92,58.98v-56.65c-.81,1.38-2.32,2.29-3.98,2.29-2.54,0-4.61-2.07-4.61-4.61s2.07-4.61,4.61-4.61c1.66,0,3.17.91,3.98,2.29v-56.65c-31.96.58-57.92,26.98-57.92,58.98Z" fill="#fff"/>
          <path d="M457.64,112.63c0,4.23,3.44,7.67,7.67,7.67s7.67-3.44,7.67-7.67-3.44-7.67-7.67-7.67-7.67,3.44-7.67,7.67ZM471.16,112.63c0,3.22-2.62,5.85-5.85,5.85s-5.85-2.62-5.85-5.85,2.62-5.85,5.85-5.85,5.85,2.62,5.85,5.85Z"/>
          <path d="M652.66,18.5h-374.7v188.26h374.7V18.5ZM649.65,112.63c0,1.54-1.25,2.79-2.79,2.79s-2.79-1.25-2.79-2.79,1.25-2.79,2.79-2.79,2.79,1.25,2.79,2.79ZM650.84,110.31c-.81-1.38-2.32-2.29-3.98-2.29-2.54,0-4.61,2.07-4.61,4.61s2.07,4.61,4.61,4.61c1.66,0,3.17-.91,3.98-2.29v56.65c-31.96-.58-57.92-26.98-57.92-58.98s25.96-58.4,57.92-58.98v56.65ZM280.97,112.63c0-1.54,1.25-2.79,2.79-2.79s2.79,1.25,2.79,2.79-1.25,2.79-2.79,2.79-2.79-1.25-2.79-2.79ZM279.79,114.95c.81,1.38,2.32,2.29,3.98,2.29,2.54,0,4.61-2.07,4.61-4.61s-2.07-4.61-4.61-4.61c-1.66,0-3.17.91-3.98,2.29v-56.65c31.96.58,57.92,26.98,57.92,58.98s-25.96,58.4-57.92,58.98v-56.65ZM279.79,204.94v-31.51c15.95-.28,30.92-6.7,42.17-18.09,11.33-11.47,17.57-26.64,17.57-42.71s-6.24-31.24-17.57-42.71c-11.25-11.39-26.22-17.81-42.17-18.09v-31.51h121.49v184.61h-121.49ZM403.1,204.94V20.32h124.42v184.61h-124.42ZM529.35,204.94V20.32h121.49v31.51c-15.95.28-30.92,6.7-42.17,18.09-11.33,11.47-17.57,26.64-17.57,42.71s6.24,31.24,17.57,42.71c11.25,11.39,26.22,17.81,42.17,18.09v31.51h-121.49Z"/>
        </g>
      </g>
      <g>
        <g>
          <rect class="cls-1" x="763.87" y="36" width="153.25" height="153.25" rx="30.53" ry="30.53" fill="#fff"/>
          <path class="cls-2" d="M884.68,36c17.83,0,32.44,14.6,32.44,32.44v88.38c0,17.83-14.6,32.44-32.44,32.44h-88.38c-17.83,0-32.44-14.6-32.44-32.44v-88.38c0-17.83,14.6-32.44,32.44-32.44h88.38M884.68,22.5h-88.38c-25.34,0-45.94,20.61-45.94,45.94v88.38c0,25.34,20.61,45.94,45.94,45.94h88.38c25.34,0,45.94-20.61,45.94-45.94v-88.38c0-25.34-20.61-45.94-45.94-45.94h0Z" fill="#099"/>
        </g>
        <g>
          <polygon class="cls-2" points="808.29 147.97 814.77 115.56 821.34 147.97 839.53 147.97 850.82 77.32 832.43 77.32 827.65 118.81 820.07 77.32 809.74 77.32 802.36 119.6 797.47 77.32 779.11 77.32 790.48 147.97 808.29 147.97" fill="#099"/>
          <path class="cls-2" d="M867.82,136.29h13.33l1.96,11.68h18.77l-14.88-70.65h-24.63l-15.09,70.65h18.5l2.01-11.68h.03ZM870.49,119.75l4.12-26.03,4.04,26.03h-8.17Z" fill="#099"/>
        </g>
      </g>
      <g>
        <g>
          <rect class="cls-2" x="13.51" y="36.03" width="153.23" height="153.23" rx="30.7" ry="30.7" fill="#099"/>
          <path class="cls-1" d="M134.32,36.03c17.83,0,32.44,14.58,32.44,32.44v88.37c0,17.83-14.58,32.44-32.44,32.44H45.95c-17.83,0-32.44-14.58-32.44-32.44v-88.37c0-17.83,14.58-32.44,32.44-32.44h88.37M134.32,22.5H45.95C20.62,22.5,0,43.12,0,68.45v88.37c0,25.33,20.62,45.95,45.95,45.95h88.37c25.33,0,45.95-20.62,45.95-45.95v-88.37c0-25.33-20.62-45.95-45.95-45.95h0Z" fill="#fff"/>
        </g>
        <g>
          <polygon class="cls-1" points="80.8 77.32 76.01 118.82 68.44 77.32 58.13 77.32 50.73 119.59 45.85 77.32 27.48 77.32 38.86 147.96 56.67 147.96 63.14 115.55 69.69 147.96 87.88 147.96 99.19 77.32 80.8 77.32" fill="#fff"/>
          <path class="cls-1" d="M121.48,147.96h3.79c4.94,0,9.47-1.48,13.61-4.43,4.14-2.94,7.45-7.16,9.88-12.64,2.43-5.48,3.66-11.67,3.66-18.52s-1.23-13.18-3.66-18.55c-2.43-5.35-5.76-9.44-9.98-12.26-4.22-2.81-8.88-4.22-14.02-4.22h-21.52v70.64h18.19l.05-.03ZM123.42,94.16c1.94,0,3.66.67,5.12,2s2.64,3.38,3.56,6.14c.9,2.76,1.36,6.22,1.36,10.36s-.43,7.47-1.3,10.36c-.87,2.89-2.07,5.04-3.61,6.42-1.54,1.41-3.22,2.1-5.12,2.1h-1.94v-37.35h1.94v-.03Z" fill="#fff"/>
        </g>
      </g>
    </g>
  </g>
</svg>
