<?xml version="1.0" encoding="UTF-8"?>
<svg id="Layer_1" data-name="Layer 1" xmlns="http://www.w3.org/2000/svg" viewBox="0 0 100 100">
  <defs>
    <style>
      .cls-1 {
        fill: #fff;
      }

      .cls-2 {
        fill: #099;
        stroke: #b3b3b3;
        stroke-linejoin: round;
        stroke-width: .25px;
      }

      .cls-3 {
        fill: #b3b3b3;
      }
    </style>
  </defs>
  <g id="Teal_WD_Fire.svg">
    <g id="Layer_1-2" data-name="Layer 1-2">
      <g>
        <rect class="cls-2" x="8" y="8" width="84" height="84" rx="21.41" ry="21.41"/>
        <g>
          <g>
            <path class="cls-1" d="M40.58,66.35l-3.03-15.01c-.01-.06-.06-.1-.12-.1h0c-.06,0-.11.04-.12.1l-3,15.01h-8.09l-5.26-32.67h8.31l2.26,19.58c0,.06.06.11.12.11h0c.06,0,.11-.04.12-.1l3.43-19.59h4.6l3.51,19.23c.01.06.06.1.12.1h0c.06,0,.11-.05.12-.11l2.22-19.23h8.31l-5.23,32.67h-8.27Z"/>
            <path class="cls-3" d="M53.93,33.8l-5.19,32.42h-8.06l-3.01-14.91c-.02-.12-.13-.2-.25-.2h0c-.12,0-.22.08-.24.2l-2.98,14.91h-7.88l-5.22-32.42h8.05l2.25,19.47c.01.12.12.22.24.22,0,0,0,0,0,0,.12,0,.23-.09.25-.21l3.41-19.49h4.39l3.49,19.13c.02.12.13.21.25.21,0,0,0,0,0,0,.12,0,.23-.1.24-.22l2.2-19.12h8.06M54.22,33.55h-8.57l-2.23,19.34-3.53-19.34h-4.81l-3.45,19.69-2.27-19.69h-8.56l5.3,32.92h8.3l3.02-15.11,3.05,15.11h8.48l5.27-32.92h0Z"/>
          </g>
          <g>
            <path class="cls-1" d="M56.23,66.35v-32.67h9.9c2.38,0,4.49.64,6.46,1.95,1.93,1.29,3.48,3.19,4.61,5.66,1.12,2.48,1.69,5.37,1.69,8.59s-.57,6.05-1.69,8.58c-1.12,2.53-2.66,4.49-4.56,5.84-1.91,1.35-4.02,2.04-6.27,2.04h-1.74s-.03,0-.04,0c-.02,0-.04,0-.05.01h-8.31ZM64.61,41.29c-.07,0-.12.06-.12.12v17.4c0,.07.06.12.12.12h.9c.92,0,1.73-.33,2.47-1.01.73-.66,1.3-1.66,1.72-3.05.42-1.38.61-2.93.61-4.87s-.21-3.56-.64-4.87c-.44-1.32-1-2.28-1.69-2.91-.7-.64-1.53-.97-2.47-.97-.03,0-.05,0-.07.02h-.83Z"/>
            <path class="cls-3" d="M66.13,33.81c2.35,0,4.45.63,6.4,1.93,1.91,1.27,3.45,3.16,4.56,5.61,1.12,2.47,1.68,5.34,1.68,8.54s-.57,6.02-1.68,8.53c-1.11,2.51-2.63,4.45-4.52,5.79-1.91,1.35-3.94,2.01-6.2,2.01h-1.76s0,0,0,0c-.02,0-.04,0-.06,0h-8.19v-32.42h9.77M65.42,41.16h-.81c-.14,0-.25.11-.25.25v17.4c0,.14.11.25.25.25h.9c.95,0,1.79-.34,2.55-1.04.75-.68,1.33-1.69,1.75-3.11.42-1.4.62-2.95.62-4.9s-.22-3.58-.64-4.91c-.45-1.34-1.01-2.31-1.73-2.97-.73-.66-1.59-1-2.55-1-.03,0-.07,0-.1.02M66.13,33.56h-10.02v32.92h8.5s0,0,0,0h1.76c2.3,0,4.41-.69,6.34-2.06s3.47-3.34,4.6-5.89,1.7-5.44,1.7-8.63-.57-6.14-1.7-8.65c-1.13-2.49-2.68-4.4-4.65-5.71-1.97-1.31-4.13-1.97-6.53-1.97h0ZM64.61,58.82v-17.4h.9v-.02c.9,0,1.7.31,2.39.93.68.62,1.23,1.57,1.66,2.86.42,1.29.63,2.9.63,4.83s-.2,3.48-.61,4.83c-.41,1.35-.96,2.35-1.68,2.99-.72.66-1.5.98-2.39.98h-.9Z"/>
          </g>
        </g>
      </g>
    </g>
  </g>
</svg>