<?xml version="1.0" encoding="UTF-8"?>
<svg id="Layer_1" data-name="Layer 1" xmlns="http://www.w3.org/2000/svg" viewBox="0 0 100 100">
  <defs>
    <style>
      .cls-1 {
        fill: #fff;
      }

      .cls-2 {
        fill: #099;
        stroke: #b3b3b3;
        stroke-linejoin: round;
        stroke-width: .25px;
      }
    </style>
  </defs>
  <g id="Teal_WA_Ice.svg">
    <g id="Layer_1-2" data-name="Layer 1-2">
      <g>
        <g>
          <rect class="cls-1" x="14.3" y="14.3" width="71.41" height="71.41" rx="14.22" ry="14.22"/>
          <path class="cls-2" d="M70.59,14.3c8.31,0,15.11,6.8,15.11,15.11v41.18c0,8.31-6.8,15.11-15.11,15.11H29.41c-8.31,0-15.11-6.8-15.11-15.11V29.41c0-8.31,6.8-15.11,15.11-15.11h41.18M70.59,8H29.41c-11.81,0-21.41,9.6-21.41,21.41v41.18c0,11.81,9.6,21.41,21.41,21.41h41.18c11.81,0,21.41-9.6,21.41-21.41V29.41c0-11.81-9.6-21.41-21.41-21.41h0Z"/>
        </g>
        <g>
          <polygon class="cls-2" points="34.99 66.46 38.02 51.36 41.07 66.46 49.54 66.46 54.81 33.54 46.24 33.54 44.01 52.88 40.48 33.54 35.67 33.54 32.23 53.25 29.95 33.54 21.39 33.54 26.69 66.46 34.99 66.46"/>
          <path class="cls-2" d="M62.73,61.02h6.21l.91,5.44h8.75l-6.93-32.92h-11.48l-7.03,32.92h8.62l.93-5.44h.02ZM63.98,53.32l1.92-12.13,1.88,12.13h-3.81,0Z"/>
        </g>
      </g>
    </g>
  </g>
</svg>