<?xml version='1.0' encoding='UTF-8'?>
<svg xmlns="http://www.w3.org/2000/svg" xmlns:xlink="http://www.w3.org/1999/xlink" data-name="Layer 2" viewBox="0 0 930.63 225.26" preserveAspectRatio="xMidYMid meet">
  <defs>
    <style>
      .cls-1 {
        fill: #fff;
      }

      .cls-2 {
        fill: #fa0;
      }
    </style>
  </defs>
  <g id="Layer_1-2" data-name="Layer 1">
    <g>
      <g>
        <rect class="cls-1" x="352.68" y="-90.91" width="225.26" height="407.07" transform="translate(577.94 -352.68) rotate(90)" fill="#fff"/>
        <g>
          <path class="cls-1" d="M286.56,112.63c0,1.54-1.25,2.79-2.79,2.79s-2.79-1.25-2.79-2.79,1.25-2.79,2.79-2.79,2.79,1.25,2.79,2.79Z" fill="#fff"/>
          <path class="cls-1" d="M644.07,112.63c0-1.54,1.25-2.79,2.79-2.79s2.79,1.25,2.79,2.79-1.25,2.79-2.79,2.79-2.79-1.25-2.79-2.79Z" fill="#fff"/>
          <path class="cls-1" d="M592.92,112.63c0-32,25.96-58.4,57.92-58.98v56.65c-.81-1.38-2.32-2.29-3.98-2.29-2.54,0-4.61,2.07-4.61,4.61s2.07,4.61,4.61,4.61c1.66,0,3.17-.91,3.98-2.29v56.65c-31.96-.58-57.92-26.98-57.92-58.98Z" fill="#fff"/>
          <path class="cls-1" d="M650.84,20.32v31.51c-15.95.28-30.92,6.7-42.17,18.09-11.33,11.47-17.57,26.64-17.57,42.71s6.24,31.24,17.57,42.71c11.25,11.39,26.22,17.81,42.17,18.09v31.51h-121.49V20.32h121.49Z" fill="#fff"/>
          <path class="cls-2" d="M527.53,20.32v184.61h-124.42V20.32h124.42ZM457.64,112.63c0,4.23,3.44,7.67,7.67,7.67s7.67-3.44,7.67-7.67-3.44-7.67-7.67-7.67-7.67,3.44-7.67,7.67Z" fill="#fa0"/>
          <path class="cls-2" d="M321.96,155.34c11.33-11.47,17.57-26.64,17.57-42.71s-6.24-31.24-17.57-42.71c-11.25-11.39-26.22-17.81-42.17-18.09v-31.51h121.49v184.61h-121.49v-31.51c15.95-.28,30.92-6.7,42.17-18.09Z" fill="#fa0"/>
          <path class="cls-2" d="M471.08,111.64c.66,4-2.76,7.42-6.76,6.76-2.42-.4-4.37-2.35-4.78-4.77-.66-4,2.76-7.42,6.76-6.76,2.42.4,4.37,2.35,4.78,4.77Z" fill="#fa0"/>
          <path class="cls-1" d="M337.71,112.63c0,32-25.96,58.4-57.92,58.98v-56.65c.81,1.38,2.32,2.29,3.98,2.29,2.54,0,4.61-2.07,4.61-4.61s-2.07-4.61-4.61-4.61c-1.66,0-3.17.91-3.98,2.29v-56.65c31.96.58,57.92,26.98,57.92,58.98Z" fill="#fff"/>
          <path d="M472.98,112.63c0,4.23-3.44,7.67-7.67,7.67s-7.67-3.44-7.67-7.67,3.44-7.67,7.67-7.67,7.67,3.44,7.67,7.67ZM459.47,112.63c0,3.22,2.62,5.85,5.85,5.85s5.85-2.62,5.85-5.85-2.62-5.85-5.85-5.85-5.85,2.62-5.85,5.85Z"/>
          <path d="M277.97,18.5h374.7v188.26h-374.7V18.5ZM280.97,112.63c0,1.54,1.25,2.79,2.79,2.79s2.79-1.25,2.79-2.79-1.25-2.79-2.79-2.79-2.79,1.25-2.79,2.79ZM279.79,110.31c.81-1.38,2.32-2.29,3.98-2.29,2.54,0,4.61,2.07,4.61,4.61s-2.07,4.61-4.61,4.61c-1.66,0-3.17-.91-3.98-2.29v56.65c31.96-.58,57.92-26.98,57.92-58.98s-25.96-58.4-57.92-58.98v56.65ZM649.65,112.63c0-1.54-1.25-2.79-2.79-2.79s-2.79,1.25-2.79,2.79,1.25,2.79,2.79,2.79,2.79-1.25,2.79-2.79ZM650.84,114.95c-.81,1.38-2.32,2.29-3.98,2.29-2.54,0-4.61-2.07-4.61-4.61s2.07-4.61,4.61-4.61c1.66,0,3.17.91,3.98,2.29v-56.65c-31.96.58-57.92,26.98-57.92,58.98s25.96,58.4,57.92,58.98v-56.65ZM650.84,204.94v-31.51c-15.95-.28-30.92-6.7-42.17-18.09-11.33-11.47-17.57-26.64-17.57-42.71s6.24-31.24,17.57-42.71c11.25-11.39,26.22-17.81,42.17-18.09v-31.51h-121.49v184.61h121.49ZM527.53,204.94V20.32h-124.42v184.61h124.42ZM401.28,204.94V20.32h-121.49v31.51c15.95.28,30.92,6.7,42.17,18.09,11.33,11.47,17.57,26.64,17.57,42.71s-6.24,31.24-17.57,42.71c-11.25,11.39-26.22,17.81-42.17,18.09v31.51h121.49Z"/>
        </g>
      </g>
      <g>
        <g>
          <rect class="cls-1" x="763.87" y="36" width="153.25" height="153.25" rx="30.53" ry="30.53" fill="#fff"/>
          <path class="cls-2" d="M884.68,36c17.83,0,32.44,14.6,32.44,32.44v88.38c0,17.83-14.6,32.44-32.44,32.44h-88.38c-17.83,0-32.44-14.6-32.44-32.44v-88.38c0-17.83,14.6-32.44,32.44-32.44h88.38M884.68,22.5h-88.38c-25.34,0-45.94,20.61-45.94,45.94v88.38c0,25.34,20.61,45.94,45.94,45.94h88.38c25.34,0,45.94-20.61,45.94-45.94v-88.38c0-25.34-20.61-45.94-45.94-45.94h0Z" fill="#fa0"/>
        </g>
        <g>
          <polygon class="cls-2" points="831.36 77.32 826.58 118.81 819 77.32 808.67 77.32 801.29 119.6 796.41 77.32 778.01 77.32 789.41 147.97 807.22 147.97 813.71 115.56 820.27 147.97 838.46 147.97 849.75 77.32 831.36 77.32" fill="#fa0"/>
          <path class="cls-2" d="M872.04,147.97h3.79c4.94,0,9.46-1.48,13.64-4.43,4.15-2.95,7.45-7.17,9.87-12.64,2.44-5.47,3.66-11.65,3.66-18.55s-1.22-13.18-3.66-18.55c-2.44-5.34-5.75-9.44-9.97-12.26-4.22-2.82-8.88-4.22-14.02-4.22h-21.5v70.65s18.19,0,18.19,0ZM873.97,94.16c1.93,0,3.66.66,5.11,1.98s2.65,3.38,3.56,6.13c.92,2.75,1.37,6.21,1.37,10.35s-.43,7.48-1.32,10.35c-.86,2.9-2.09,5.04-3.61,6.41-1.53,1.4-3.23,2.09-5.11,2.09h-1.93v-37.37h1.93v.05Z" fill="#fa0"/>
        </g>
      </g>
      <g>
        <g>
          <rect class="cls-2" x="13.51" y="36" width="153.23" height="153.23" rx="30.7" ry="30.7" fill="#fa0"/>
          <path class="cls-1" d="M134.32,36c17.83,0,32.44,14.58,32.44,32.44v88.37c0,17.83-14.58,32.44-32.44,32.44H45.95c-17.83,0-32.44-14.58-32.44-32.44v-88.37c0-17.83,14.58-32.44,32.44-32.44h88.37M134.32,22.5H45.95C20.62,22.5,0,43.12,0,68.45v88.37c0,25.33,20.62,45.95,45.95,45.95h88.37c25.33,0,45.95-20.62,45.95-45.95v-88.37c0-25.33-20.62-45.95-45.95-45.95h0Z" fill="#fff"/>
        </g>
        <g>
          <polygon class="cls-1" points="57.92 147.94 64.4 115.52 70.97 147.94 89.16 147.94 100.45 77.3 82.05 77.3 77.27 118.8 69.69 77.3 59.38 77.3 51.99 119.56 47.13 77.3 28.73 77.3 40.12 147.94 57.92 147.94" fill="#fff"/>
          <path class="cls-1" d="M117.46,136.27h13.33l1.97,11.67h18.78l-14.89-70.64h-24.61l-15.09,70.64h18.5l2.02-11.67ZM120.12,119.72l4.12-26.02,4.04,26.02h-8.16Z" fill="#fff"/>
        </g>
      </g>
    </g>
  </g>
</svg>
