<?xml version='1.0' encoding='UTF-8'?>
<svg xmlns="http://www.w3.org/2000/svg" xmlns:xlink="http://www.w3.org/1999/xlink" data-name="Layer 2" viewBox="0 0 361.19 87.43" preserveAspectRatio="xMidYMid meet">
  <defs>
    <style>
      .cls-1 {
        fill: #fff;
      }

      .cls-2 {
        fill: #f89938;
      }

      .cls-3 {
        filter: url(#outer-glow-1);
      }

      .cls-4 {
        fill: #f8993a;
      }
    </style>
    <filter id="outer-glow-1" x="-17.23" y="-17.03" width="395.52" height="121.68" filterUnits="userSpaceOnUse">
      <feOffset dx="0" dy="0"/>
      <feGaussianBlur result="blur" stdDeviation="5.67"/>
      <feFlood flood-color="#000" flood-opacity=".49"/>
      <feComposite in2="blur" operator="in"/>
      <feComposite in="SourceGraphic"/>
    </filter>
  </defs>
  <g id="Layer_1-2" data-name="Layer 1">
    <g class="cls-3" filter="url(#outer-glow-1)">
      <g>
        <g>
          <rect class="cls-1" x="136.88" y="-35.28" width="87.43" height="157.99" transform="translate(224.31 -136.88) rotate(90)" fill="#fff"/>
          <g>
            <path class="cls-1" d="M111.22,43.71c0,.6-.49,1.08-1.08,1.08s-1.08-.49-1.08-1.08.49-1.08,1.08-1.08,1.08.49,1.08,1.08Z" fill="#fff"/>
            <path class="cls-1" d="M249.97,43.71c0-.6.49-1.08,1.08-1.08s1.08.49,1.08,1.08-.49,1.08-1.08,1.08-1.08-.49-1.08-1.08Z" fill="#fff"/>
            <path class="cls-1" d="M230.12,43.71c0-12.42,10.07-22.67,22.48-22.89v21.99c-.32-.54-.9-.89-1.54-.89-.99,0-1.79.8-1.79,1.79s.8,1.79,1.79,1.79c.64,0,1.23-.35,1.54-.89v21.99c-12.4-.22-22.48-10.47-22.48-22.89Z" fill="#fff"/>
            <path class="cls-1" d="M252.6,7.89v12.23c-6.19.11-12,2.6-16.37,7.02-4.4,4.45-6.82,10.34-6.82,16.58s2.42,12.13,6.82,16.58c4.37,4.42,10.18,6.91,16.37,7.02v12.23h-47.15V7.89h47.15Z" fill="#fff"/>
            <path class="cls-2" d="M204.74,7.89v71.65h-48.29V7.89h48.29ZM177.62,43.71c0,1.64,1.34,2.98,2.98,2.98s2.98-1.34,2.98-2.98-1.34-2.98-2.98-2.98-2.98,1.34-2.98,2.98Z" fill="#f89938"/>
            <path class="cls-2" d="M124.96,60.29c4.4-4.45,6.82-10.34,6.82-16.58s-2.42-12.13-6.82-16.58c-4.37-4.42-10.18-6.91-16.37-7.02V7.89h47.15v71.65h-47.15v-12.23c6.19-.11,12-2.6,16.37-7.02Z" fill="#f89938"/>
            <path class="cls-2" d="M182.83,43.33c.26,1.55-1.07,2.88-2.62,2.62-.94-.16-1.7-.91-1.85-1.85-.26-1.55,1.07-2.88,2.62-2.62.94.16,1.7.91,1.85,1.85Z" fill="#f89938"/>
            <path class="cls-1" d="M131.07,43.71c0,12.42-10.07,22.67-22.48,22.89v-21.99c.32.54.9.89,1.54.89.99,0,1.79-.8,1.79-1.79s-.8-1.79-1.79-1.79c-.64,0-1.23.35-1.54.89v-21.99c12.4.22,22.48,10.47,22.48,22.89Z" fill="#fff"/>
            <path d="M183.57,43.71c0,1.64-1.34,2.98-2.98,2.98s-2.98-1.34-2.98-2.98,1.34-2.98,2.98-2.98,2.98,1.34,2.98,2.98ZM178.32,43.71c0,1.25,1.02,2.27,2.27,2.27s2.27-1.02,2.27-2.27-1.02-2.27-2.27-2.27-2.27,1.02-2.27,2.27Z"/>
            <path d="M107.88,7.18h145.42v73.07H107.88V7.18ZM109.05,43.71c0,.6.49,1.08,1.08,1.08s1.08-.49,1.08-1.08-.49-1.08-1.08-1.08-1.08.49-1.08,1.08ZM108.59,42.81c.32-.54.9-.89,1.54-.89.99,0,1.79.8,1.79,1.79s-.8,1.79-1.79,1.79c-.64,0-1.23-.35-1.54-.89v21.99c12.4-.22,22.48-10.47,22.48-22.89s-10.07-22.67-22.48-22.89v21.99ZM252.14,43.71c0-.6-.49-1.08-1.08-1.08s-1.08.49-1.08,1.08.49,1.08,1.08,1.08,1.08-.49,1.08-1.08ZM252.6,44.62c-.32.54-.9.89-1.54.89-.99,0-1.79-.8-1.79-1.79s.8-1.79,1.79-1.79c.64,0,1.23.35,1.54.89v-21.99c-12.4.22-22.48,10.47-22.48,22.89s10.07,22.67,22.48,22.89v-21.99ZM252.6,79.54v-12.23c-6.19-.11-12-2.6-16.37-7.02-4.4-4.45-6.82-10.34-6.82-16.58s2.42-12.13,6.82-16.58c4.37-4.42,10.18-6.91,16.37-7.02V7.89h-47.15v71.65h47.15ZM204.74,79.54V7.89h-48.29v71.65h48.29ZM155.74,79.54V7.89h-47.15v12.23c6.19.11,12,2.6,16.37,7.02,4.4,4.45,6.82,10.34,6.82,16.58s-2.42,12.13-6.82,16.58c-4.37,4.42-10.18,6.91-16.37,7.02v12.23h47.15Z"/>
          </g>
        </g>
        <g>
          <g>
            <rect class="cls-1" x="296.47" y="13.97" width="59.48" height="59.48" rx="11.85" ry="11.85" fill="#fff"/>
            <path class="cls-4" d="M343.36,13.97c6.92,0,12.59,5.67,12.59,12.59v34.3c0,6.92-5.67,12.59-12.59,12.59h-34.3c-6.92,0-12.59-5.67-12.59-12.59V26.56c0-6.92,5.67-12.59,12.59-12.59h34.3M343.36,8.73h-34.3c-9.83,0-17.83,8-17.83,17.83v34.3c0,9.83,8,17.83,17.83,17.83h34.3c9.83,0,17.83-8,17.83-17.83V26.56c0-9.83-8-17.83-17.83-17.83h0Z" fill="#f8993a"/>
          </g>
          <g>
            <polygon class="cls-4" points="322.66 30.01 320.8 46.11 317.86 30.01 313.85 30.01 310.99 46.42 309.09 30.01 301.96 30.01 306.38 57.43 313.29 57.43 315.81 44.85 318.36 57.43 325.42 57.43 329.8 30.01 322.66 30.01" fill="#f8993a"/>
            <path class="cls-4" d="M338.45,57.43h1.47c1.92,0,3.67-.57,5.29-1.72,1.61-1.15,2.89-2.78,3.83-4.91.95-2.12,1.42-4.52,1.42-7.2s-.47-5.11-1.42-7.2c-.95-2.07-2.23-3.66-3.87-4.76s-3.45-1.64-5.44-1.64h-8.34v27.42s7.06,0,7.06,0ZM339.2,36.54c.75,0,1.42.26,1.98.77s1.03,1.31,1.38,2.38.53,2.41.53,4.02-.17,2.9-.51,4.02c-.34,1.13-.81,1.95-1.4,2.49-.59.54-1.25.81-1.98.81h-.75v-14.5h.75v.02Z" fill="#f8993a"/>
          </g>
        </g>
        <g>
          <g>
            <rect class="cls-4" x="5.24" y="13.97" width="59.47" height="59.47" rx="11.92" ry="11.92" fill="#f8993a"/>
            <path class="cls-1" d="M52.13,13.97c6.92,0,12.59,5.66,12.59,12.59v34.3c0,6.92-5.66,12.59-12.59,12.59H17.83c-6.92,0-12.59-5.66-12.59-12.59V26.56c0-6.92,5.66-12.59,12.59-12.59h34.3M52.13,8.73H17.83C8,8.73,0,16.73,0,26.56v34.3c0,9.83,8,17.83,17.83,17.83h34.3c9.83,0,17.83-8,17.83-17.83V26.56c0-9.83-8-17.83-17.83-17.83h0Z" fill="#fff"/>
          </g>
          <g>
            <polygon class="cls-1" points="22.48 57.42 24.99 44.83 27.54 57.42 34.6 57.42 38.98 30 31.84 30 29.99 46.11 27.05 30 23.05 30 20.18 46.4 18.29 30 11.15 30 15.57 57.42 22.48 57.42" fill="#fff"/>
            <path class="cls-1" d="M45.59,52.89h5.17l.76,4.53h7.29l-5.78-27.42h-9.55l-5.86,27.42h7.18l.78-4.53ZM46.62,46.46l1.6-10.1,1.57,10.1h-3.17Z" fill="#fff"/>
          </g>
        </g>
      </g>
    </g>
  </g>
</svg>
