<?xml version="1.0" encoding="UTF-8"?>
<svg id="Layer_1" data-name="Layer 1" xmlns="http://www.w3.org/2000/svg" viewBox="0 0 100 100">
  <defs>
    <style>
      .cls-1 {
        fill: #fff;
      }

      .cls-2 {
        fill: #fa0;
        stroke: #b3b3b3;
        stroke-linejoin: round;
        stroke-width: .25px;
      }
    </style>
  </defs>
  <g id="Yellow_WD_Ice.svg">
    <g id="Layer_1-2" data-name="Layer 1-2">
      <g>
        <g>
          <rect class="cls-1" x="14.3" y="14.3" width="71.41" height="71.41" rx="14.22" ry="14.22"/>
          <path class="cls-2" d="M70.59,14.3c8.31,0,15.11,6.8,15.11,15.11v41.18c0,8.31-6.8,15.11-15.11,15.11H29.41c-8.31,0-15.11-6.8-15.11-15.11V29.41c0-8.31,6.8-15.11,15.11-15.11h41.18M70.59,8H29.41c-11.81,0-21.41,9.6-21.41,21.41v41.18c0,11.81,9.6,21.41,21.41,21.41h41.18c11.81,0,21.41-9.6,21.41-21.41V29.41c0-11.81-9.6-21.41-21.41-21.41h0Z"/>
        </g>
        <g>
          <polygon class="cls-2" points="45.74 33.54 43.51 52.88 39.98 33.54 35.17 33.54 31.73 53.25 29.45 33.54 20.88 33.54 26.19 66.46 34.49 66.46 37.51 51.36 40.57 66.46 49.05 66.46 54.32 33.54 45.74 33.54"/>
          <path class="cls-2" d="M64.69,66.46h1.76c2.3,0,4.41-.69,6.36-2.06,1.93-1.38,3.47-3.34,4.6-5.89,1.14-2.55,1.7-5.43,1.7-8.65s-.57-6.14-1.7-8.65c-1.14-2.49-2.68-4.4-4.64-5.71s-4.13-1.97-6.53-1.97h-10.02v32.92s8.47,0,8.47,0ZM65.6,41.4c.9,0,1.7.31,2.39.93s1.23,1.58,1.66,2.86.64,2.89.64,4.82-.2,3.48-.61,4.82c-.4,1.35-.97,2.35-1.68,2.99-.71.65-1.5.97-2.39.97h-.9v-17.42h.9v.02h0Z"/>
        </g>
      </g>
    </g>
  </g>
</svg>