<?xml version="1.0" encoding="UTF-8"?>
<svg id="Layer_1" data-name="Layer 1" xmlns="http://www.w3.org/2000/svg" viewBox="0 0 100 100">
  <defs>
    <style>
      .cls-1 {
        fill: #fff;
      }

      .cls-2 {
        fill: #fa0;
        stroke: #b3b3b3;
        stroke-linejoin: round;
        stroke-width: .25px;
      }

      .cls-3 {
        fill: #b3b3b3;
      }
    </style>
  </defs>
  <g id="Yellow_WA_Fire.svg">
    <g id="Layer_1-2" data-name="Layer 1-2">
      <g>
        <path class="cls-2" d="M70.59,8H29.41c-11.8,0-21.41,9.61-21.41,21.41v41.18c0,11.8,9.61,21.41,21.41,21.41h41.18c11.8,0,21.41-9.61,21.41-21.41V29.41c0-11.8-9.6-21.41-21.41-21.41Z"/>
        <g>
          <g>
            <path class="cls-1" d="M41.18,66.33l-3.05-15.01c-.01-.06-.06-.1-.12-.1h0c-.06,0-.11.04-.12.1l-3,15.01h-8.09l-5.26-32.67h8.31l2.25,19.58c0,.06.06.11.12.11h0c.06,0,.11-.04.12-.1l3.43-19.59h4.6l3.51,19.23c.01.06.06.1.12.1h0c.06,0,.11-.05.12-.11l2.22-19.23h8.31l-5.22,32.67h-8.27Z"/>
            <path class="cls-3" d="M54.52,33.79l-5.18,32.42h-8.06l-3.03-14.91c-.02-.12-.13-.2-.25-.2h0c-.12,0-.22.08-.24.2l-2.98,14.91h-7.88l-5.22-32.42h8.06l2.24,19.47c.01.12.12.22.24.22,0,0,0,0,0,0,.12,0,.23-.09.25-.21l3.41-19.49h4.39l3.49,19.13c.02.12.13.21.25.21,0,0,0,0,0,0,.12,0,.23-.1.24-.22l2.2-19.12h8.06M54.81,33.54h-8.57l-2.23,19.34-3.53-19.34h-4.81l-3.44,19.69-2.27-19.69h-8.57l5.3,32.92h8.3l3.02-15.11,3.07,15.11h8.48l5.26-32.92h0Z"/>
          </g>
          <g>
            <path class="cls-1" d="M69.97,66.33l-.9-5.33c0-.06-.06-.1-.12-.1h-6.21c-.06,0-.12.04-.13.1l-.92,5.33h-8.36l6.98-32.67h11.27l6.89,32.67h-8.49ZM65.89,41.05c-.06,0-.11.04-.12.11l-1.92,12.13s0,.07.03.1c.02.03.06.04.09.04h3.8s.07-.02.09-.04c.02-.03.03-.06.03-.1l-1.88-12.13c0-.06-.06-.11-.12-.11h0Z"/>
            <path class="cls-3" d="M71.47,33.79l6.84,32.42h-8.23l-.88-5.23c-.02-.12-.12-.21-.25-.21h-6.22c-.12,0-.23.09-.25.21l-.91,5.23h-8.1l6.92-32.42h11.06M63.97,53.55h3.8c.07,0,.14-.03.19-.09.05-.06.07-.13.06-.2l-1.88-12.13c-.02-.12-.12-.21-.25-.21h0c-.12,0-.23.09-.25.21l-1.92,12.13c-.01.07,0,.15.06.2.05.06.12.09.19.09M71.67,33.54h-11.47l-7.03,32.92h8.62l.94-5.44h6.22l.92,5.44h8.75l-6.94-32.92h0ZM63.97,53.3l1.92-12.13,1.88,12.13h-3.8Z"/>
          </g>
        </g>
      </g>
    </g>
  </g>
</svg>