<?xml version='1.0' encoding='UTF-8'?>
<svg xmlns="http://www.w3.org/2000/svg" xmlns:xlink="http://www.w3.org/1999/xlink" data-name="Layer 2" viewBox="0 0 158.77 757.09" preserveAspectRatio="xMidYMid meet">
  <defs>
    <style>
      .cls-1 {
        fill: #fff;
      }

      .cls-2 {
        fill: #099;
      }

      .cls-3 {
        fill: #f26739;
      }

      .cls-4 {
        fill: #f89938;
      }

      .cls-5 {
        filter: url(#outer-glow-1);
      }

      .cls-6 {
        fill: #2f67b2;
      }

      .cls-7 {
        fill: #c33;
      }

      .cls-8 {
        fill: #059948;
      }

      .cls-9 {
        fill: #663795;
      }
    </style>
    <filter id="outer-glow-1" x="-17.01" y="-17.01" width="192.96" height="791.28" filterUnits="userSpaceOnUse">
      <feOffset dx="0" dy="0"/>
      <feGaussianBlur result="blur" stdDeviation="5.67"/>
      <feFlood flood-color="#000" flood-opacity=".49"/>
      <feComposite in2="blur" operator="in"/>
      <feComposite in="SourceGraphic"/>
    </filter>
  </defs>
  <g id="Layer_1-2" data-name="Layer 1">
    <g class="cls-5" filter="url(#outer-glow-1)">
      <g>
        <rect class="cls-1" x="35.28" y="-35.28" width="87.43" height="157.99" transform="translate(122.71 -35.28) rotate(90)" fill="#fff"/>
        <g>
          <path class="cls-7" d="M9.62,43.71c0,.6-.49,1.08-1.08,1.08s-1.08-.49-1.08-1.08.49-1.08,1.08-1.08,1.08.49,1.08,1.08Z" fill="#c33"/>
          <path class="cls-1" d="M148.37,43.71c0-.6.49-1.08,1.08-1.08s1.08.49,1.08,1.08-.49,1.08-1.08,1.08-1.08-.49-1.08-1.08Z" fill="#fff"/>
          <path class="cls-1" d="M128.52,43.71c0-12.42,10.07-22.67,22.48-22.89v21.99c-.32-.54-.9-.89-1.54-.89-.99,0-1.79.8-1.79,1.79s.8,1.79,1.79,1.79c.64,0,1.23-.35,1.54-.89v21.99c-12.4-.22-22.48-10.47-22.48-22.89Z" fill="#fff"/>
          <path class="cls-1" d="M151,7.89v12.23c-6.19.11-12,2.6-16.37,7.02-4.4,4.45-6.82,10.34-6.82,16.58s2.42,12.13,6.82,16.58c4.37,4.42,10.18,6.91,16.37,7.02v12.23h-47.15V7.89h47.15Z" fill="#fff"/>
          <path class="cls-1" d="M103.14,7.89v71.65h-48.29V7.89h48.29ZM76.02,43.71c0,1.64,1.34,2.98,2.98,2.98s2.98-1.34,2.98-2.98-1.34-2.98-2.98-2.98-2.98,1.34-2.98,2.98Z" fill="#fff"/>
          <path class="cls-7" d="M23.36,60.29c4.4-4.45,6.82-10.34,6.82-16.58s-2.42-12.13-6.82-16.58c-4.37-4.42-10.18-6.91-16.37-7.02V7.89h47.15v71.65H6.99v-12.23c6.19-.11,12-2.6,16.37-7.02Z" fill="#c33"/>
          <path class="cls-1" d="M81.23,43.33c.26,1.55-1.07,2.88-2.62,2.62-.94-.16-1.7-.91-1.85-1.85-.26-1.55,1.07-2.88,2.62-2.62.94.16,1.7.91,1.85,1.85Z" fill="#fff"/>
          <path class="cls-7" d="M29.47,43.71c0,12.42-10.07,22.67-22.48,22.89v-21.99c.32.54.9.89,1.54.89.99,0,1.79-.8,1.79-1.79s-.8-1.79-1.79-1.79c-.64,0-1.23.35-1.54.89v-21.99c12.4.22,22.48,10.47,22.48,22.89Z" fill="#c33"/>
          <path d="M81.97,43.71c0,1.64-1.34,2.98-2.98,2.98s-2.98-1.34-2.98-2.98,1.34-2.98,2.98-2.98,2.98,1.34,2.98,2.98ZM76.72,43.71c0,1.25,1.02,2.27,2.27,2.27s2.27-1.02,2.27-2.27-1.02-2.27-2.27-2.27-2.27,1.02-2.27,2.27Z"/>
          <path d="M6.28,7.18h145.42v73.07H6.28V7.18ZM7.45,43.71c0,.6.49,1.08,1.08,1.08s1.08-.49,1.08-1.08-.49-1.08-1.08-1.08-1.08.49-1.08,1.08ZM6.99,42.81c.32-.54.9-.89,1.54-.89.99,0,1.79.8,1.79,1.79s-.8,1.79-1.79,1.79c-.64,0-1.23-.35-1.54-.89v21.99c12.4-.22,22.48-10.47,22.48-22.89S19.39,21.05,6.99,20.82v21.99ZM150.54,43.71c0-.6-.49-1.08-1.08-1.08s-1.08.49-1.08,1.08.49,1.08,1.08,1.08,1.08-.49,1.08-1.08ZM151,44.62c-.32.54-.9.89-1.54.89-.99,0-1.79-.8-1.79-1.79s.8-1.79,1.79-1.79c.64,0,1.23.35,1.54.89v-21.99c-12.4.22-22.48,10.47-22.48,22.89s10.07,22.67,22.48,22.89v-21.99ZM151,79.54v-12.23c-6.19-.11-12-2.6-16.37-7.02-4.4-4.45-6.82-10.34-6.82-16.58s2.42-12.13,6.82-16.58c4.37-4.42,10.18-6.91,16.37-7.02V7.89h-47.15v71.65h47.15ZM103.14,79.54V7.89h-48.29v71.65h48.29ZM54.14,79.54V7.89H6.99v12.23c6.19.11,12,2.6,16.37,7.02,4.4,4.45,6.82,10.34,6.82,16.58s-2.42,12.13-6.82,16.58c-4.37,4.42-10.18,6.91-16.37,7.02v12.23h47.15Z"/>
        </g>
      </g>
      <g>
        <rect class="cls-1" x="36.06" y="76.33" width="87.43" height="157.99" transform="translate(235.1 75.55) rotate(90)" fill="#fff"/>
        <g>
          <path class="cls-3" d="M10.4,155.32c0,.6-.49,1.08-1.08,1.08s-1.08-.49-1.08-1.08.49-1.08,1.08-1.08,1.08.49,1.08,1.08Z" fill="#f26739"/>
          <path class="cls-1" d="M149.15,155.32c0-.6.49-1.08,1.08-1.08s1.08.49,1.08,1.08-.49,1.08-1.08,1.08-1.08-.49-1.08-1.08Z" fill="#fff"/>
          <path class="cls-1" d="M129.3,155.32c0-12.42,10.07-22.67,22.48-22.89v21.99c-.32-.54-.9-.89-1.54-.89-.99,0-1.79.8-1.79,1.79s.8,1.79,1.79,1.79c.64,0,1.23-.35,1.54-.89v21.99c-12.4-.22-22.48-10.47-22.48-22.89Z" fill="#fff"/>
          <path class="cls-1" d="M151.78,119.5v12.23c-6.19.11-12,2.6-16.37,7.02-4.4,4.45-6.82,10.34-6.82,16.58,0,6.24,2.42,12.13,6.82,16.58,4.37,4.42,10.18,6.91,16.37,7.02v12.23s-47.15,0-47.15,0v-71.65s47.15,0,47.15,0Z" fill="#fff"/>
          <path class="cls-3" d="M103.92,119.5v71.65s-48.29,0-48.29,0v-71.65s48.29,0,48.29,0ZM76.8,155.32c0,1.64,1.34,2.98,2.98,2.98s2.98-1.34,2.98-2.98-1.34-2.98-2.98-2.98-2.98,1.34-2.98,2.98Z" fill="#f26739"/>
          <path class="cls-3" d="M24.14,171.9c4.4-4.45,6.82-10.34,6.82-16.58s-2.42-12.13-6.82-16.58c-4.37-4.42-10.18-6.91-16.37-7.02v-12.23s47.15,0,47.15,0v71.65s-47.15,0-47.15,0v-12.23c6.19-.11,12-2.6,16.37-7.02Z" fill="#f26739"/>
          <path class="cls-3" d="M82.01,154.94c.26,1.55-1.07,2.88-2.62,2.62-.94-.16-1.7-.91-1.85-1.85-.26-1.55,1.07-2.88,2.62-2.62.94.16,1.7.91,1.85,1.85Z" fill="#f26739"/>
          <path class="cls-3" d="M30.25,155.32c0,12.42-10.07,22.67-22.48,22.89v-21.99c.32.54.9.89,1.54.89.99,0,1.79-.8,1.79-1.79s-.8-1.79-1.79-1.79c-.64,0-1.23.35-1.54.89v-21.99c12.4.22,22.48,10.47,22.48,22.89Z" fill="#f26739"/>
          <path d="M82.75,155.32c0,1.64-1.34,2.98-2.98,2.98s-2.98-1.34-2.98-2.98,1.34-2.98,2.98-2.98,2.98,1.34,2.98,2.98ZM77.5,155.32c0,1.25,1.02,2.27,2.27,2.27,1.25,0,2.27-1.02,2.27-2.27s-1.02-2.27-2.27-2.27-2.27,1.02-2.27,2.27Z"/>
          <path d="M7.06,118.79h145.42s0,73.07,0,73.07H7.06s0-73.07,0-73.07ZM8.23,155.32c0,.6.49,1.08,1.08,1.08s1.08-.49,1.08-1.08-.49-1.08-1.08-1.08-1.08.49-1.08,1.08ZM7.77,154.42c.32-.54.9-.89,1.54-.89.99,0,1.79.8,1.79,1.79s-.8,1.79-1.79,1.79c-.64,0-1.23-.35-1.54-.89v21.99c12.4-.22,22.48-10.47,22.48-22.89,0-12.42-10.07-22.67-22.48-22.89v21.99ZM151.32,155.32c0-.6-.49-1.08-1.08-1.08s-1.08.49-1.08,1.08.49,1.08,1.08,1.08,1.08-.49,1.08-1.08ZM151.78,156.23c-.32.54-.9.89-1.54.89-.99,0-1.79-.8-1.79-1.79s.8-1.79,1.79-1.79c.64,0,1.23.35,1.54.89v-21.99c-12.4.22-22.48,10.47-22.48,22.89,0,12.42,10.07,22.67,22.48,22.89v-21.99ZM151.78,191.15v-12.23c-6.19-.11-12-2.6-16.37-7.02-4.4-4.45-6.82-10.34-6.82-16.58,0-6.24,2.42-12.13,6.82-16.58,4.37-4.42,10.18-6.91,16.37-7.02v-12.23s-47.15,0-47.15,0v71.65s47.15,0,47.15,0ZM103.92,191.15v-71.65s-48.29,0-48.29,0v71.65s48.29,0,48.29,0ZM54.92,191.15v-71.65s-47.15,0-47.15,0v12.23c6.19.11,12,2.6,16.37,7.02,4.4,4.45,6.82,10.34,6.82,16.58s-2.42,12.13-6.82,16.58c-4.37,4.42-10.18,6.91-16.37,7.02v12.23s47.15,0,47.15,0Z"/>
        </g>
      </g>
      <g>
        <rect class="cls-1" x="36.06" y="187.94" width="87.43" height="157.99" transform="translate(346.71 187.16) rotate(90)" fill="#fff"/>
        <g>
          <path class="cls-1" d="M10.4,266.93c0,.6-.49,1.08-1.08,1.08s-1.08-.49-1.08-1.08.49-1.08,1.08-1.08,1.08.49,1.08,1.08Z" fill="#fff"/>
          <path class="cls-1" d="M149.15,266.93c0-.6.49-1.08,1.08-1.08s1.08.49,1.08,1.08-.49,1.08-1.08,1.08-1.08-.49-1.08-1.08Z" fill="#fff"/>
          <path class="cls-1" d="M129.3,266.93c0-12.42,10.07-22.67,22.48-22.89v21.99c-.32-.54-.9-.89-1.54-.89-.99,0-1.79.8-1.79,1.79s.8,1.79,1.79,1.79c.64,0,1.23-.35,1.54-.89v21.99c-12.4-.22-22.48-10.47-22.48-22.89Z" fill="#fff"/>
          <path class="cls-1" d="M151.78,231.11v12.23c-6.19.11-12,2.6-16.37,7.02-4.4,4.45-6.82,10.34-6.82,16.58s2.42,12.13,6.82,16.58c4.37,4.42,10.18,6.91,16.37,7.02v12.23h-47.15v-71.65h47.15Z" fill="#fff"/>
          <path class="cls-4" d="M103.92,231.11v71.65h-48.29v-71.65h48.29ZM76.8,266.93c0,1.64,1.34,2.98,2.98,2.98s2.98-1.34,2.98-2.98-1.34-2.98-2.98-2.98-2.98,1.34-2.98,2.98Z" fill="#f89938"/>
          <path class="cls-4" d="M24.14,283.51c4.4-4.45,6.82-10.34,6.82-16.58s-2.42-12.13-6.82-16.58c-4.37-4.42-10.18-6.91-16.37-7.02v-12.23h47.15v71.65H7.77v-12.23c6.19-.11,12-2.6,16.37-7.02Z" fill="#f89938"/>
          <path class="cls-4" d="M82.01,266.55c.26,1.55-1.07,2.88-2.62,2.62-.94-.16-1.7-.91-1.85-1.85-.26-1.55,1.07-2.88,2.62-2.62.94.16,1.7.91,1.85,1.85Z" fill="#f89938"/>
          <path class="cls-1" d="M30.25,266.93c0,12.42-10.07,22.67-22.48,22.89v-21.99c.32.54.9.89,1.54.89.99,0,1.79-.8,1.79-1.79s-.8-1.79-1.79-1.79c-.64,0-1.23.35-1.54.89v-21.99c12.4.22,22.48,10.47,22.48,22.89Z" fill="#fff"/>
          <path d="M82.75,266.93c0,1.64-1.34,2.98-2.98,2.98s-2.98-1.34-2.98-2.98,1.34-2.98,2.98-2.98,2.98,1.34,2.98,2.98ZM77.5,266.93c0,1.25,1.02,2.27,2.27,2.27s2.27-1.02,2.27-2.27-1.02-2.27-2.27-2.27-2.27,1.02-2.27,2.27Z"/>
          <path d="M7.06,230.4h145.42v73.07H7.06v-73.07ZM8.23,266.93c0,.6.49,1.08,1.08,1.08s1.08-.49,1.08-1.08-.49-1.08-1.08-1.08-1.08.49-1.08,1.08ZM7.77,266.03c.32-.54.9-.89,1.54-.89.99,0,1.79.8,1.79,1.79s-.8,1.79-1.79,1.79c-.64,0-1.23-.35-1.54-.89v21.99c12.4-.22,22.48-10.47,22.48-22.89s-10.07-22.67-22.48-22.89v21.99ZM151.32,266.93c0-.6-.49-1.08-1.08-1.08s-1.08.49-1.08,1.08.49,1.08,1.08,1.08,1.08-.49,1.08-1.08ZM151.78,267.84c-.32.54-.9.89-1.54.89-.99,0-1.79-.8-1.79-1.79s.8-1.79,1.79-1.79c.64,0,1.23.35,1.54.89v-21.99c-12.4.22-22.48,10.47-22.48,22.89s10.07,22.67,22.48,22.89v-21.99ZM151.78,302.76v-12.23c-6.19-.11-12-2.6-16.37-7.02-4.4-4.45-6.82-10.34-6.82-16.58s2.42-12.13,6.82-16.58c4.37-4.42,10.18-6.91,16.37-7.02v-12.23h-47.15v71.65h47.15ZM103.92,302.76v-71.65h-48.29v71.65h48.29ZM54.92,302.76v-71.65H7.77v12.23c6.19.11,12,2.6,16.37,7.02,4.4,4.45,6.82,10.34,6.82,16.58s-2.42,12.13-6.82,16.58c-4.37,4.42-10.18,6.91-16.37,7.02v12.23h47.15Z"/>
        </g>
      </g>
      <g>
        <rect class="cls-1" x="36.06" y="522.77" width="87.43" height="157.99" transform="translate(681.54 521.99) rotate(90)" fill="#fff"/>
        <g>
          <path class="cls-6" d="M149.15,601.76c0,.6.49,1.08,1.08,1.08s1.08-.49,1.08-1.08-.49-1.08-1.08-1.08-1.08.49-1.08,1.08Z" fill="#2f67b2"/>
          <path class="cls-1" d="M10.4,601.76c0-.6-.49-1.08-1.08-1.08s-1.08.49-1.08,1.08.49,1.08,1.08,1.08,1.08-.49,1.08-1.08Z" fill="#fff"/>
          <path class="cls-1" d="M30.25,601.76c0-12.42-10.07-22.67-22.48-22.89v21.99c.32-.54.9-.89,1.54-.89.99,0,1.79.8,1.79,1.79s-.8,1.79-1.79,1.79c-.64,0-1.23-.35-1.54-.89v21.99c12.4-.22,22.48-10.47,22.48-22.89Z" fill="#fff"/>
          <path class="cls-1" d="M7.77,565.94v12.23c6.19.11,12,2.6,16.37,7.02,4.4,4.45,6.82,10.34,6.82,16.58s-2.42,12.13-6.82,16.58c-4.37,4.42-10.18,6.91-16.37,7.02v12.23h47.15v-71.65H7.77Z" fill="#fff"/>
          <path class="cls-6" d="M55.63,565.94v71.65h48.29v-71.65h-48.29ZM82.75,601.76c0,1.64-1.34,2.98-2.98,2.98s-2.98-1.34-2.98-2.98,1.34-2.98,2.98-2.98,2.98,1.34,2.98,2.98Z" fill="#2f67b2"/>
          <path class="cls-6" d="M135.41,618.34c-4.4-4.45-6.82-10.34-6.82-16.58s2.42-12.13,6.82-16.58c4.37-4.42,10.18-6.91,16.37-7.02v-12.23h-47.15v71.65h47.15v-12.23c-6.19-.11-12-2.6-16.37-7.02Z" fill="#2f67b2"/>
          <path class="cls-6" d="M77.54,601.38c-.26,1.55,1.07,2.88,2.62,2.62.94-.16,1.7-.91,1.85-1.85.26-1.55-1.07-2.88-2.62-2.62-.94.16-1.7.91-1.85,1.85Z" fill="#2f67b2"/>
          <path class="cls-6" d="M129.3,601.76c0,12.42,10.07,22.67,22.48,22.89v-21.99c-.32.54-.9.89-1.54.89-.99,0-1.79-.8-1.79-1.79s.8-1.79,1.79-1.79c.64,0,1.23.35,1.54.89v-21.99c-12.4.22-22.48,10.47-22.48,22.89Z" fill="#2f67b2"/>
          <path d="M76.8,601.76c0,1.64,1.34,2.98,2.98,2.98s2.98-1.34,2.98-2.98-1.34-2.98-2.98-2.98-2.98,1.34-2.98,2.98ZM82.04,601.76c0,1.25-1.02,2.27-2.27,2.27s-2.27-1.02-2.27-2.27,1.02-2.27,2.27-2.27,2.27,1.02,2.27,2.27Z"/>
          <path d="M152.49,565.23H7.06v73.07h145.42v-73.07ZM151.32,601.76c0,.6-.49,1.08-1.08,1.08s-1.08-.49-1.08-1.08.49-1.08,1.08-1.08,1.08.49,1.08,1.08ZM151.78,600.86c-.32-.54-.9-.89-1.54-.89-.99,0-1.79.8-1.79,1.79s.8,1.79,1.79,1.79c.64,0,1.23-.35,1.54-.89v21.99c-12.4-.22-22.48-10.47-22.48-22.89s10.07-22.67,22.48-22.89v21.99ZM8.23,601.76c0-.6.49-1.08,1.08-1.08s1.08.49,1.08,1.08-.49,1.08-1.08,1.08-1.08-.49-1.08-1.08ZM7.77,602.66c.32.54.9.89,1.54.89.99,0,1.79-.8,1.79-1.79s-.8-1.79-1.79-1.79c-.64,0-1.23.35-1.54.89v-21.99c12.4.22,22.48,10.47,22.48,22.89s-10.07,22.67-22.48,22.89v-21.99ZM7.77,637.59v-12.23c6.19-.11,12-2.6,16.37-7.02,4.4-4.45,6.82-10.34,6.82-16.58s-2.42-12.13-6.82-16.58c-4.37-4.42-10.18-6.91-16.37-7.02v-12.23h47.15v71.65H7.77ZM55.63,637.59v-71.65h48.29v71.65h-48.29ZM104.63,637.59v-71.65h47.15v12.23c-6.19.11-12,2.6-16.37,7.02-4.4,4.45-6.82,10.34-6.82,16.58s2.42,12.13,6.82,16.58c4.37,4.42,10.18,6.91,16.37,7.02v12.23h-47.15Z"/>
        </g>
      </g>
      <g>
        <rect class="cls-1" x="36.06" y="634.38" width="87.43" height="157.99" transform="translate(793.15 633.6) rotate(90)" fill="#fff"/>
        <g>
          <path class="cls-9" d="M149.15,713.37c0,.6.49,1.08,1.08,1.08s1.08-.49,1.08-1.08-.49-1.08-1.08-1.08-1.08.49-1.08,1.08Z" fill="#663795"/>
          <path class="cls-1" d="M10.4,713.37c0-.6-.49-1.08-1.08-1.08s-1.08.49-1.08,1.08.49,1.08,1.08,1.08,1.08-.49,1.08-1.08Z" fill="#fff"/>
          <path class="cls-1" d="M30.25,713.37c0-12.42-10.07-22.67-22.48-22.89v21.99c.32-.54.9-.89,1.54-.89.99,0,1.79.8,1.79,1.79s-.8,1.79-1.79,1.79c-.64,0-1.23-.35-1.54-.89v21.99c12.4-.22,22.48-10.47,22.48-22.89Z" fill="#fff"/>
          <path class="cls-1" d="M7.77,677.55v12.23c6.19.11,12,2.6,16.37,7.02,4.4,4.45,6.82,10.34,6.82,16.58s-2.42,12.13-6.82,16.58c-4.37,4.42-10.18,6.91-16.37,7.02v12.23h47.15v-71.65H7.77Z" fill="#fff"/>
          <path class="cls-1" d="M55.63,677.55v71.65h48.29v-71.65h-48.29ZM82.75,713.37c0,1.64-1.34,2.98-2.98,2.98s-2.98-1.34-2.98-2.98,1.34-2.98,2.98-2.98,2.98,1.34,2.98,2.98Z" fill="#fff"/>
          <path class="cls-9" d="M135.41,729.95c-4.4-4.45-6.82-10.34-6.82-16.58s2.42-12.13,6.82-16.58c4.37-4.42,10.18-6.91,16.37-7.02v-12.23h-47.15v71.65h47.15v-12.23c-6.19-.11-12-2.6-16.37-7.02Z" fill="#663795"/>
          <path class="cls-1" d="M77.54,712.99c-.26,1.55,1.07,2.88,2.62,2.62.94-.16,1.7-.91,1.85-1.85.26-1.55-1.07-2.88-2.62-2.62-.94.16-1.7.91-1.85,1.85Z" fill="#fff"/>
          <path class="cls-9" d="M129.3,713.37c0,12.42,10.07,22.67,22.48,22.89v-21.99c-.32.54-.9.89-1.54.89-.99,0-1.79-.8-1.79-1.79s.8-1.79,1.79-1.79c.64,0,1.23.35,1.54.89v-21.99c-12.4.22-22.48,10.47-22.48,22.89Z" fill="#663795"/>
          <path d="M76.8,713.37c0,1.64,1.34,2.98,2.98,2.98s2.98-1.34,2.98-2.98-1.34-2.98-2.98-2.98-2.98,1.34-2.98,2.98ZM82.04,713.37c0,1.25-1.02,2.27-2.27,2.27s-2.27-1.02-2.27-2.27,1.02-2.27,2.27-2.27,2.27,1.02,2.27,2.27Z"/>
          <path d="M152.49,676.84H7.06v73.07h145.42v-73.07ZM151.32,713.37c0,.6-.49,1.08-1.08,1.08s-1.08-.49-1.08-1.08.49-1.08,1.08-1.08,1.08.49,1.08,1.08ZM151.78,712.47c-.32-.54-.9-.89-1.54-.89-.99,0-1.79.8-1.79,1.79s.8,1.79,1.79,1.79c.64,0,1.23-.35,1.54-.89v21.99c-12.4-.22-22.48-10.47-22.48-22.89s10.07-22.67,22.48-22.89v21.99ZM8.23,713.37c0-.6.49-1.08,1.08-1.08s1.08.49,1.08,1.08-.49,1.08-1.08,1.08-1.08-.49-1.08-1.08ZM7.77,714.27c.32.54.9.89,1.54.89.99,0,1.79-.8,1.79-1.79s-.8-1.79-1.79-1.79c-.64,0-1.23.35-1.54.89v-21.99c12.4.22,22.48,10.47,22.48,22.89s-10.07,22.67-22.48,22.89v-21.99ZM7.77,749.2v-12.23c6.19-.11,12-2.6,16.37-7.02,4.4-4.45,6.82-10.34,6.82-16.58s-2.42-12.13-6.82-16.58c-4.37-4.42-10.18-6.91-16.37-7.02v-12.23h47.15v71.65H7.77ZM55.63,749.2v-71.65h48.29v71.65h-48.29ZM104.63,749.2v-71.65h47.15v12.23c-6.19.11-12,2.6-16.37,7.02-4.4,4.45-6.82,10.34-6.82,16.58s2.42,12.13,6.82,16.58c4.37,4.42,10.18,6.91,16.37,7.02v12.23h-47.15Z"/>
        </g>
      </g>
      <g>
        <rect class="cls-1" x="36.06" y="411.16" width="87.43" height="157.99" transform="translate(569.93 410.38) rotate(90)" fill="#fff"/>
        <g>
          <path class="cls-1" d="M149.15,490.15c0,.6.49,1.08,1.08,1.08s1.08-.49,1.08-1.08-.49-1.08-1.08-1.08-1.08.49-1.08,1.08Z" fill="#fff"/>
          <path class="cls-1" d="M10.4,490.15c0-.6-.49-1.08-1.08-1.08s-1.08.49-1.08,1.08.49,1.08,1.08,1.08,1.08-.49,1.08-1.08Z" fill="#fff"/>
          <path class="cls-1" d="M30.25,490.15c0-12.42-10.07-22.67-22.48-22.89v21.99c.32-.54.9-.89,1.54-.89.99,0,1.79.8,1.79,1.79s-.8,1.79-1.79,1.79c-.64,0-1.23-.35-1.54-.89v21.99c12.4-.22,22.48-10.47,22.48-22.89Z" fill="#fff"/>
          <path class="cls-1" d="M7.77,454.33v12.23c6.19.11,12,2.6,16.37,7.02,4.4,4.45,6.82,10.34,6.82,16.58s-2.42,12.13-6.82,16.58c-4.37,4.42-10.18,6.91-16.37,7.02v12.23h47.15v-71.65H7.77Z" fill="#fff"/>
          <path class="cls-2" d="M55.63,454.33v71.65h48.29v-71.65h-48.29ZM82.75,490.15c0,1.64-1.34,2.98-2.98,2.98s-2.98-1.34-2.98-2.98,1.34-2.98,2.98-2.98,2.98,1.34,2.98,2.98Z" fill="#099"/>
          <path class="cls-2" d="M135.41,506.73c-4.4-4.45-6.82-10.34-6.82-16.58s2.42-12.13,6.82-16.58c4.37-4.42,10.18-6.91,16.37-7.02v-12.23h-47.15v71.65h47.15v-12.23c-6.19-.11-12-2.6-16.37-7.02Z" fill="#099"/>
          <path class="cls-2" d="M77.54,489.77c-.26,1.55,1.07,2.88,2.62,2.62.94-.16,1.7-.91,1.85-1.85.26-1.55-1.07-2.88-2.62-2.62-.94.16-1.7.91-1.85,1.85Z" fill="#099"/>
          <path class="cls-1" d="M129.3,490.15c0,12.42,10.07,22.67,22.48,22.89v-21.99c-.32.54-.9.89-1.54.89-.99,0-1.79-.8-1.79-1.79s.8-1.79,1.79-1.79c.64,0,1.23.35,1.54.89v-21.99c-12.4.22-22.48,10.47-22.48,22.89Z" fill="#fff"/>
          <path d="M76.8,490.15c0,1.64,1.34,2.98,2.98,2.98s2.98-1.34,2.98-2.98-1.34-2.98-2.98-2.98-2.98,1.34-2.98,2.98ZM82.04,490.15c0,1.25-1.02,2.27-2.27,2.27s-2.27-1.02-2.27-2.27,1.02-2.27,2.27-2.27,2.27,1.02,2.27,2.27Z"/>
          <path d="M152.49,453.62H7.06v73.07h145.42v-73.07ZM151.32,490.15c0,.6-.49,1.08-1.08,1.08s-1.08-.49-1.08-1.08.49-1.08,1.08-1.08,1.08.49,1.08,1.08ZM151.78,489.25c-.32-.54-.9-.89-1.54-.89-.99,0-1.79.8-1.79,1.79s.8,1.79,1.79,1.79c.64,0,1.23-.35,1.54-.89v21.99c-12.4-.22-22.48-10.47-22.48-22.89s10.07-22.67,22.48-22.89v21.99ZM8.23,490.15c0-.6.49-1.08,1.08-1.08s1.08.49,1.08,1.08-.49,1.08-1.08,1.08-1.08-.49-1.08-1.08ZM7.77,491.06c.32.54.9.89,1.54.89.99,0,1.79-.8,1.79-1.79s-.8-1.79-1.79-1.79c-.64,0-1.23.35-1.54.89v-21.99c12.4.22,22.48,10.47,22.48,22.89s-10.07,22.67-22.48,22.89v-21.99ZM7.77,525.98v-12.23c6.19-.11,12-2.6,16.37-7.02,4.4-4.45,6.82-10.34,6.82-16.58s-2.42-12.13-6.82-16.58c-4.37-4.42-10.18-6.91-16.37-7.02v-12.23h47.15v71.65H7.77ZM55.63,525.98v-71.65h48.29v71.65h-48.29ZM104.63,525.98v-71.65h47.15v12.23c-6.19.11-12,2.6-16.37,7.02-4.4,4.45-6.82,10.34-6.82,16.58s2.42,12.13,6.82,16.58c4.37,4.42,10.18,6.91,16.37,7.02v12.23h-47.15Z"/>
        </g>
      </g>
      <g>
        <rect class="cls-1" x="36.06" y="299.55" width="87.43" height="157.99" transform="translate(-298.77 458.32) rotate(-90)" fill="#fff"/>
        <g>
          <path class="cls-1" d="M149.15,378.54c0-.6.49-1.08,1.08-1.08s1.08.49,1.08,1.08-.49,1.08-1.08,1.08-1.08-.49-1.08-1.08Z" fill="#fff"/>
          <path class="cls-1" d="M10.4,378.54c0,.6-.49,1.08-1.08,1.08s-1.08-.49-1.08-1.08.49-1.08,1.08-1.08,1.08.49,1.08,1.08Z" fill="#fff"/>
          <path class="cls-1" d="M30.25,378.54c0,12.42-10.07,22.67-22.48,22.89v-21.99c.32.54.9.89,1.54.89.99,0,1.79-.8,1.79-1.79s-.8-1.79-1.79-1.79c-.64,0-1.23.35-1.54.89v-21.99c12.4.22,22.48,10.47,22.48,22.89Z" fill="#fff"/>
          <path class="cls-8" d="M7.77,414.37v-12.23c6.19-.11,12-2.6,16.37-7.02,4.4-4.45,6.82-10.34,6.82-16.58,0-6.24-2.42-12.13-6.82-16.58-4.37-4.42-10.18-6.91-16.37-7.02v-12.23s47.15,0,47.15,0v71.65s-47.15,0-47.15,0Z" fill="#059948"/>
          <path class="cls-8" d="M55.63,414.37v-71.65s48.29,0,48.29,0v71.65s-48.29,0-48.29,0ZM82.75,378.54c0-1.64-1.34-2.98-2.98-2.98s-2.98,1.34-2.98,2.98,1.34,2.98,2.98,2.98,2.98-1.34,2.98-2.98Z" fill="#059948"/>
          <path class="cls-8" d="M135.41,361.97c-4.4,4.45-6.82,10.34-6.82,16.58,0,6.24,2.42,12.13,6.82,16.58,4.37,4.42,10.18,6.91,16.37,7.02v12.23s-47.15,0-47.15,0v-71.65s47.15,0,47.15,0v12.23c-6.19.11-12,2.6-16.37,7.02Z" fill="#059948"/>
          <path class="cls-8" d="M77.54,378.93c-.26-1.55,1.07-2.88,2.62-2.62.94.16,1.7.91,1.85,1.85.26,1.55-1.07,2.88-2.62,2.62-.94-.16-1.7-.91-1.85-1.85Z" fill="#059948"/>
          <path class="cls-1" d="M129.3,378.54c0-12.42,10.07-22.67,22.48-22.89v21.99c-.32-.54-.9-.89-1.54-.89-.99,0-1.79.8-1.79,1.79s.8,1.79,1.79,1.79c.64,0,1.23-.35,1.54-.89v21.99c-12.4-.22-22.48-10.47-22.48-22.89Z" fill="#fff"/>
          <path d="M76.8,378.54c0-1.64,1.34-2.98,2.98-2.98s2.98,1.34,2.98,2.98-1.34,2.98-2.98,2.98-2.98-1.34-2.98-2.98ZM82.04,378.54c0-1.25-1.02-2.27-2.27-2.27-1.25,0-2.27,1.02-2.27,2.27s1.02,2.27,2.27,2.27,2.27-1.02,2.27-2.27Z"/>
          <path d="M152.49,415.08H7.06s0-73.07,0-73.07h145.42s0,73.07,0,73.07ZM151.32,378.54c0-.6-.49-1.08-1.08-1.08s-1.08.49-1.08,1.08.49,1.08,1.08,1.08,1.08-.49,1.08-1.08ZM151.78,379.45c-.32.54-.9.89-1.54.89-.99,0-1.79-.8-1.79-1.79s.8-1.79,1.79-1.79c.64,0,1.23.35,1.54.89v-21.99c-12.4.22-22.48,10.47-22.48,22.89,0,12.42,10.07,22.67,22.48,22.89v-21.99ZM8.23,378.54c0,.6.49,1.08,1.08,1.08s1.08-.49,1.08-1.08-.49-1.08-1.08-1.08-1.08.49-1.08,1.08ZM7.77,377.64c.32-.54.9-.89,1.54-.89.99,0,1.79.8,1.79,1.79s-.8,1.79-1.79,1.79c-.64,0-1.23-.35-1.54-.89v21.99c12.4-.22,22.48-10.47,22.48-22.89,0-12.42-10.07-22.67-22.48-22.89v21.99ZM7.77,342.72v12.23c6.19.11,12,2.6,16.37,7.02,4.4,4.45,6.82,10.34,6.82,16.58,0,6.24-2.42,12.13-6.82,16.58-4.37,4.42-10.18,6.91-16.37,7.02v12.23s47.15,0,47.15,0v-71.65s-47.15,0-47.15,0ZM55.63,342.72v71.65s48.29,0,48.29,0v-71.65s-48.29,0-48.29,0ZM104.63,342.72v71.65s47.15,0,47.15,0v-12.23c-6.19-.11-12-2.6-16.37-7.02-4.4-4.45-6.82-10.34-6.82-16.58,0-6.24,2.42-12.13,6.82-16.58,4.37-4.42,10.18-6.91,16.37-7.02v-12.23s-47.15,0-47.15,0Z"/>
        </g>
      </g>
    </g>
  </g>
</svg>
