<?xml version='1.0' encoding='UTF-8'?>
<svg xmlns="http://www.w3.org/2000/svg" xmlns:xlink="http://www.w3.org/1999/xlink" data-name="Layer 2" viewBox="0 0 362.75 757.09" preserveAspectRatio="xMidYMid meet">
  <defs>
    <style>
      .cls-1 {
        fill: #079a48;
      }

      .cls-2 {
        fill: #fff;
      }

      .cls-3 {
        fill: #f2673a;
      }

      .cls-4 {
        fill: #099;
      }

      .cls-5 {
        fill: #01999a;
      }

      .cls-6 {
        fill: #f26739;
      }

      .cls-7 {
        fill: #f89938;
      }

      .cls-8 {
        fill: #cc3533;
      }

      .cls-9 {
        filter: url(#outer-glow-1);
      }

      .cls-10 {
        fill: #2f67b2;
      }

      .cls-11 {
        fill: #c33;
      }

      .cls-12 {
        fill: #059948;
      }

      .cls-13 {
        fill: #663795;
      }

      .cls-14 {
        fill: #f8993a;
      }
    </style>
    <filter id="outer-glow-1" x="-17.11" y="-17.01" width="396.96" height="791.28" filterUnits="userSpaceOnUse">
      <feOffset dx="0" dy="0"/>
      <feGaussianBlur result="blur" stdDeviation="5.67"/>
      <feFlood flood-color="#000" flood-opacity=".49"/>
      <feComposite in2="blur" operator="in"/>
      <feComposite in="SourceGraphic"/>
    </filter>
  </defs>
  <g id="Layer_1-2" data-name="Layer 1">
    <g class="cls-9" filter="url(#outer-glow-1)">
      <g>
        <g>
          <rect class="cls-2" x="137.66" y="-35.28" width="87.43" height="157.99" transform="translate(225.09 -137.66) rotate(90)" fill="#fff"/>
          <g>
            <path class="cls-11" d="M112,43.71c0,.6-.49,1.08-1.08,1.08s-1.08-.49-1.08-1.08.49-1.08,1.08-1.08,1.08.49,1.08,1.08Z" fill="#c33"/>
            <path class="cls-2" d="M250.75,43.71c0-.6.49-1.08,1.08-1.08s1.08.49,1.08,1.08-.49,1.08-1.08,1.08-1.08-.49-1.08-1.08Z" fill="#fff"/>
            <path class="cls-2" d="M230.9,43.71c0-12.42,10.07-22.67,22.48-22.89v21.99c-.32-.54-.9-.89-1.54-.89-.99,0-1.79.8-1.79,1.79s.8,1.79,1.79,1.79c.64,0,1.23-.35,1.54-.89v21.99c-12.4-.22-22.48-10.47-22.48-22.89Z" fill="#fff"/>
            <path class="cls-2" d="M253.38,7.89v12.23c-6.19.11-12,2.6-16.37,7.02-4.4,4.45-6.82,10.34-6.82,16.58s2.42,12.13,6.82,16.58c4.37,4.42,10.18,6.91,16.37,7.02v12.23h-47.15V7.89h47.15Z" fill="#fff"/>
            <path class="cls-2" d="M205.52,7.89v71.65h-48.29V7.89h48.29ZM178.4,43.71c0,1.64,1.34,2.98,2.98,2.98s2.98-1.34,2.98-2.98-1.34-2.98-2.98-2.98-2.98,1.34-2.98,2.98Z" fill="#fff"/>
            <path class="cls-11" d="M125.74,60.29c4.4-4.45,6.82-10.34,6.82-16.58s-2.42-12.13-6.82-16.58c-4.37-4.42-10.18-6.91-16.37-7.02V7.89h47.15v71.65h-47.15v-12.23c6.19-.11,12-2.6,16.37-7.02Z" fill="#c33"/>
            <path class="cls-2" d="M183.61,43.33c.26,1.55-1.07,2.88-2.62,2.62-.94-.16-1.7-.91-1.85-1.85-.26-1.55,1.07-2.88,2.62-2.62.94.16,1.7.91,1.85,1.85Z" fill="#fff"/>
            <path class="cls-11" d="M131.85,43.71c0,12.42-10.07,22.67-22.48,22.89v-21.99c.32.54.9.89,1.54.89.99,0,1.79-.8,1.79-1.79s-.8-1.79-1.79-1.79c-.64,0-1.23.35-1.54.89v-21.99c12.4.22,22.48,10.47,22.48,22.89Z" fill="#c33"/>
            <path d="M184.35,43.71c0,1.64-1.34,2.98-2.98,2.98s-2.98-1.34-2.98-2.98,1.34-2.98,2.98-2.98,2.98,1.34,2.98,2.98ZM179.1,43.71c0,1.25,1.02,2.27,2.27,2.27s2.27-1.02,2.27-2.27-1.02-2.27-2.27-2.27-2.27,1.02-2.27,2.27Z"/>
            <path d="M108.66,7.18h145.42v73.07H108.66V7.18ZM109.83,43.71c0,.6.49,1.08,1.08,1.08s1.08-.49,1.08-1.08-.49-1.08-1.08-1.08-1.08.49-1.08,1.08ZM109.37,42.81c.32-.54.9-.89,1.54-.89.99,0,1.79.8,1.79,1.79s-.8,1.79-1.79,1.79c-.64,0-1.23-.35-1.54-.89v21.99c12.4-.22,22.48-10.47,22.48-22.89s-10.07-22.67-22.48-22.89v21.99ZM252.92,43.71c0-.6-.49-1.08-1.08-1.08s-1.08.49-1.08,1.08.49,1.08,1.08,1.08,1.08-.49,1.08-1.08ZM253.38,44.62c-.32.54-.9.89-1.54.89-.99,0-1.79-.8-1.79-1.79s.8-1.79,1.79-1.79c.64,0,1.23.35,1.54.89v-21.99c-12.4.22-22.48,10.47-22.48,22.89s10.07,22.67,22.48,22.89v-21.99ZM253.38,79.54v-12.23c-6.19-.11-12-2.6-16.37-7.02-4.4-4.45-6.82-10.34-6.82-16.58s2.42-12.13,6.82-16.58c4.37-4.42,10.18-6.91,16.37-7.02V7.89h-47.15v71.65h47.15ZM205.52,79.54V7.89h-48.29v71.65h48.29ZM156.52,79.54V7.89h-47.15v12.23c6.19.11,12,2.6,16.37,7.02,4.4,4.45,6.82,10.34,6.82,16.58s-2.42,12.13-6.82,16.58c-4.37,4.42-10.18,6.91-16.37,7.02v12.23h47.15Z"/>
          </g>
        </g>
        <g>
          <g>
            <rect class="cls-2" x="298.02" y="13.97" width="59.48" height="59.48" rx="11.85" ry="11.85" fill="#fff"/>
            <path class="cls-8" d="M344.91,13.97c6.92,0,12.59,5.67,12.59,12.59v34.3c0,6.92-5.67,12.59-12.59,12.59h-34.3c-6.92,0-12.59-5.67-12.59-12.59V26.56c0-6.92,5.67-12.59,12.59-12.59h34.3M344.91,8.73h-34.3c-9.83,0-17.83,8-17.83,17.83v34.3c0,9.83,8,17.83,17.83,17.83h34.3c9.83,0,17.83-8,17.83-17.83V26.56c0-9.83-8-17.83-17.83-17.83h0Z" fill="#cc3533"/>
          </g>
          <g>
            <path class="cls-8" d="M316.04,47.31h3.14v3.85c-.27.05-.56.08-.91.08-1.2,0-2.25-.32-3.13-.97-.88-.64-1.57-1.5-2.06-2.59s-.74-2.32-.74-3.7.27-2.69.81-3.81c.54-1.14,1.31-2.01,2.32-2.65s2.19-.95,3.55-.95c1.11,0,2.15.2,3.13.58.99.39,1.93.98,2.83,1.76l-.04-7.93c-.81-.47-1.81-.85-3-1.12-1.19-.27-2.4-.39-3.6-.39-2.7,0-5.1.63-7.23,1.89-2.13,1.26-3.78,2.98-4.97,5.15-1.18,2.18-1.78,4.59-1.78,7.23s.59,5.19,1.78,7.35c1.18,2.15,2.83,3.83,4.97,5.05,2.12,1.2,4.55,1.82,7.27,1.82,1.56,0,3.03-.2,4.42-.6,1.38-.4,2.42-.91,3.1-1.51v-14.8h-9.85v6.27h0Z" fill="#cc3533"/>
            <polygon class="cls-8" points="342.78 30.01 336.85 40.13 336.85 30.01 329.19 30.01 329.19 57.43 336.85 57.43 336.85 46.72 342.41 57.43 351.09 57.43 342.95 42.96 351.16 30.01 342.78 30.01" fill="#cc3533"/>
          </g>
        </g>
        <g>
          <g>
            <rect class="cls-8" x="5.24" y="13.97" width="59.47" height="59.47" rx="11.92" ry="11.92" fill="#cc3533"/>
            <path class="cls-2" d="M52.13,13.97c6.92,0,12.59,5.66,12.59,12.59v34.3c0,6.92-5.66,12.59-12.59,12.59H17.83c-6.92,0-12.59-5.66-12.59-12.59V26.56c0-6.92,5.66-12.59,12.59-12.59h34.3M52.13,8.73H17.83C8,8.73,0,16.73,0,26.56v34.3c0,9.83,8,17.83,17.83,17.83h34.3c9.83,0,17.83-8,17.83-17.83V26.56c0-9.83-8-17.83-17.83-17.83h0Z" fill="#fff"/>
          </g>
          <g>
            <path class="cls-2" d="M20.72,56.13c2.12,1.21,4.55,1.82,7.27,1.82,1.56,0,3.03-.2,4.42-.61,1.38-.41,2.41-.9,3.1-1.51v-14.81h-9.86v6.27h3.14v3.85c-.27.05-.57.08-.9.08-1.21,0-2.25-.32-3.14-.96s-1.57-1.51-2.06-2.59-.73-2.31-.73-3.7.27-2.68.81-3.81c.54-1.13,1.31-2.02,2.32-2.64,1-.63,2.19-.94,3.55-.94,1.11,0,2.15.2,3.14.59.98.39,1.93.97,2.83,1.76l-.04-7.93c-.8-.48-1.81-.85-3-1.11-1.19-.27-2.39-.4-3.6-.4-2.69,0-5.1.63-7.23,1.89-2.12,1.26-3.78,2.98-4.96,5.15s-1.78,4.59-1.78,7.23.6,5.19,1.78,7.35c1.18,2.15,2.84,3.83,4.96,5.04h-.02Z" fill="#fff"/>
            <path class="cls-2" d="M40.7,43.86c.89.83,1.97,1.55,3.23,2.15.66.41,1.31.74,1.97,1.02.9.43,1.55.8,1.93,1.13s.57.75.57,1.28c0,.33-.09.63-.28.88-.19.27-.44.48-.75.63s-.72.23-1.23.23c-.95,0-1.95-.27-2.97-.79-1.02-.53-1.95-1.19-2.79-1.99-.84-.79-1.53-1.61-2.06-2.43v8.73c.48.63,1.12,1.18,1.95,1.66.81.48,1.76.86,2.81,1.15,1.05.29,2.14.44,3.25.44,1.87,0,3.53-.39,5-1.17s2.62-1.85,3.44-3.21,1.23-2.85,1.23-4.46c0-1.26-.26-2.38-.77-3.36-.52-.98-1.21-1.85-2.1-2.59s-1.93-1.44-3.14-2.1c-.43-.15-.75-.3-.98-.44-.23-.14-.57-.29-1.02-.44-.98-.48-1.66-.87-2.04-1.19-.38-.32-.57-.71-.57-1.19,0-.3.09-.6.27-.86.18-.28.43-.47.75-.57s.71-.15,1.13-.15c1.23,0,2.5.34,3.81,1.02s2.59,1.6,3.85,2.76l-.38-7.93c-.69-.69-1.67-1.28-2.97-1.82-1.3-.53-2.77-.79-4.44-.79-1.79,0-3.4.34-4.84,1.02s-2.57,1.65-3.42,2.91-1.26,2.69-1.26,4.31c0,1.21.25,2.33.73,3.36.49,1.03,1.18,1.97,2.08,2.79Z" fill="#fff"/>
          </g>
        </g>
      </g>
      <g>
        <g>
          <rect class="cls-2" x="138.44" y="76.33" width="87.43" height="157.99" transform="translate(337.48 -26.83) rotate(90)" fill="#fff"/>
          <g>
            <path class="cls-6" d="M112.78,155.32c0,.6-.49,1.08-1.08,1.08s-1.08-.49-1.08-1.08.49-1.08,1.08-1.08,1.08.49,1.08,1.08Z" fill="#f26739"/>
            <path class="cls-2" d="M251.53,155.32c0-.6.49-1.08,1.08-1.08s1.08.49,1.08,1.08-.49,1.08-1.08,1.08-1.08-.49-1.08-1.08Z" fill="#fff"/>
            <path class="cls-2" d="M231.68,155.32c0-12.42,10.07-22.67,22.48-22.89v21.99c-.32-.54-.9-.89-1.54-.89-.99,0-1.79.8-1.79,1.79s.8,1.79,1.79,1.79c.64,0,1.23-.35,1.54-.89v21.99c-12.4-.22-22.48-10.47-22.48-22.89Z" fill="#fff"/>
            <path class="cls-2" d="M254.16,119.5v12.23c-6.19.11-12,2.6-16.37,7.02-4.4,4.45-6.82,10.34-6.82,16.58,0,6.24,2.42,12.13,6.82,16.58,4.37,4.42,10.18,6.91,16.37,7.02v12.23s-47.15,0-47.15,0v-71.65s47.15,0,47.15,0Z" fill="#fff"/>
            <path class="cls-6" d="M206.3,119.5v71.65s-48.29,0-48.29,0v-71.65s48.29,0,48.29,0ZM179.18,155.32c0,1.64,1.34,2.98,2.98,2.98s2.98-1.34,2.98-2.98-1.34-2.98-2.98-2.98-2.98,1.34-2.98,2.98Z" fill="#f26739"/>
            <path class="cls-6" d="M126.52,171.9c4.4-4.45,6.82-10.34,6.82-16.58s-2.42-12.13-6.82-16.58c-4.37-4.42-10.18-6.91-16.37-7.02v-12.23s47.15,0,47.15,0v71.65s-47.15,0-47.15,0v-12.23c6.19-.11,12-2.6,16.37-7.02Z" fill="#f26739"/>
            <path class="cls-6" d="M184.39,154.94c.26,1.55-1.07,2.88-2.62,2.62-.94-.16-1.7-.91-1.85-1.85-.26-1.55,1.07-2.88,2.62-2.62.94.16,1.7.91,1.85,1.85Z" fill="#f26739"/>
            <path class="cls-6" d="M132.63,155.32c0,12.42-10.07,22.67-22.48,22.89v-21.99c.32.54.9.89,1.54.89.99,0,1.79-.8,1.79-1.79s-.8-1.79-1.79-1.79c-.64,0-1.23.35-1.54.89v-21.99c12.4.22,22.48,10.47,22.48,22.89Z" fill="#f26739"/>
            <path d="M185.13,155.32c0,1.64-1.34,2.98-2.98,2.98s-2.98-1.34-2.98-2.98,1.34-2.98,2.98-2.98,2.98,1.34,2.98,2.98ZM179.88,155.32c0,1.25,1.02,2.27,2.27,2.27,1.25,0,2.27-1.02,2.27-2.27s-1.02-2.27-2.27-2.27-2.27,1.02-2.27,2.27Z"/>
            <path d="M109.44,118.79h145.42s0,73.07,0,73.07H109.44s0-73.07,0-73.07ZM110.61,155.32c0,.6.49,1.08,1.08,1.08s1.08-.49,1.08-1.08-.49-1.08-1.08-1.08-1.08.49-1.08,1.08ZM110.15,154.42c.32-.54.9-.89,1.54-.89.99,0,1.79.8,1.79,1.79s-.8,1.79-1.79,1.79c-.64,0-1.23-.35-1.54-.89v21.99c12.4-.22,22.48-10.47,22.48-22.89,0-12.42-10.07-22.67-22.48-22.89v21.99ZM253.7,155.32c0-.6-.49-1.08-1.08-1.08s-1.08.49-1.08,1.08.49,1.08,1.08,1.08,1.08-.49,1.08-1.08ZM254.16,156.23c-.32.54-.9.89-1.54.89-.99,0-1.79-.8-1.79-1.79s.8-1.79,1.79-1.79c.64,0,1.23.35,1.54.89v-21.99c-12.4.22-22.48,10.47-22.48,22.89,0,12.42,10.07,22.67,22.48,22.89v-21.99ZM254.16,191.15v-12.23c-6.19-.11-12-2.6-16.37-7.02-4.4-4.45-6.82-10.34-6.82-16.58,0-6.24,2.42-12.13,6.82-16.58,4.37-4.42,10.18-6.91,16.37-7.02v-12.23s-47.15,0-47.15,0v71.65s47.15,0,47.15,0ZM206.3,191.15v-71.65s-48.29,0-48.29,0v71.65s48.29,0,48.29,0ZM157.3,191.15v-71.65s-47.15,0-47.15,0v12.23c6.19.11,12,2.6,16.37,7.02,4.4,4.45,6.82,10.34,6.82,16.58s-2.42,12.13-6.82,16.58c-4.37,4.42-10.18,6.91-16.37,7.02v12.23s47.15,0,47.15,0Z"/>
          </g>
        </g>
        <g>
          <g>
            <rect class="cls-2" x="298.02" y="125.58" width="59.48" height="59.48" rx="11.85" ry="11.85" fill="#fff"/>
            <path class="cls-3" d="M344.91,125.58c6.92,0,12.59,5.67,12.59,12.59v34.3c0,6.92-5.67,12.59-12.59,12.59h-34.3c-6.92,0-12.59-5.67-12.59-12.59v-34.3c0-6.92,5.67-12.59,12.59-12.59h34.3M344.91,120.34h-34.3c-9.83,0-17.83,8-17.83,17.83v34.3c0,9.83,8,17.83,17.83,17.83h34.3c9.83,0,17.83-8,17.83-17.83v-34.3c0-9.83-8-17.83-17.83-17.83h0Z" fill="#f2673a"/>
          </g>
          <g>
            <path class="cls-3" d="M315.51,149.13c1.01-.63,2.19-.95,3.55-.95,1.11,0,2.15.2,3.13.58.99.39,1.93.98,2.83,1.76l-.04-7.93c-.81-.47-1.81-.85-3-1.12-1.19-.27-2.4-.39-3.6-.39-2.7,0-5.1.63-7.23,1.89-2.13,1.26-3.78,2.98-4.97,5.15-1.18,2.18-1.78,4.59-1.78,7.23s.59,5.19,1.78,7.35c1.18,2.15,2.83,3.83,4.97,5.05,2.12,1.2,4.55,1.82,7.27,1.82,1.56,0,3.03-.2,4.42-.6,1.38-.4,2.42-.91,3.1-1.51v-14.8h-9.85v6.27h3.14v3.85c-.27.05-.56.08-.91.08-1.2,0-2.25-.32-3.13-.97-.88-.64-1.57-1.5-2.06-2.59-.49-1.09-.74-2.32-.74-3.7s.27-2.69.81-3.81c.54-1.14,1.31-2.01,2.32-2.65h0Z" fill="#f2673a"/>
            <path class="cls-3" d="M336.85,169.04h2.23c2.29,0,4.34-.57,6.16-1.72,1.82-1.15,3.25-2.76,4.3-4.87,1.06-2.1,1.59-4.51,1.59-7.23s-.52-5.11-1.57-7.18c-1.05-2.06-2.49-3.65-4.34-4.76-1.86-1.11-3.95-1.66-6.29-1.66h-9.71v27.42h7.63,0ZM338.21,148.49c.96,0,1.81.24,2.55.72.74.47,1.33,1.22,1.78,2.25.44,1.02.66,2.31.66,3.87s-.22,2.86-.66,3.89c-.44,1.04-1.04,1.8-1.8,2.28-.75.49-1.6.74-2.53.74h-1.36v-13.74h1.36Z" fill="#f2673a"/>
          </g>
        </g>
        <g>
          <g>
            <rect class="cls-3" x="6.8" y="125.58" width="59.47" height="59.47" rx="11.92" ry="11.92" fill="#f2673a"/>
            <path class="cls-2" d="M53.69,125.58c6.92,0,12.59,5.66,12.59,12.59v34.3c0,6.92-5.66,12.59-12.59,12.59H19.39c-6.92,0-12.59-5.66-12.59-12.59v-34.3c0-6.92,5.66-12.59,12.59-12.59h34.3M53.69,120.34H19.39c-9.83,0-17.83,8-17.83,17.83v34.3c0,9.83,8,17.83,17.83,17.83h34.3c9.83,0,17.83-8,17.83-17.83v-34.3c0-9.83-8-17.83-17.83-17.83h0Z" fill="#fff"/>
          </g>
          <g>
            <path class="cls-2" d="M19.51,167.74c2.12,1.21,4.55,1.82,7.27,1.82,1.56,0,3.03-.2,4.42-.61,1.38-.41,2.41-.9,3.1-1.51v-14.81h-9.86v6.27h3.14v3.85c-.27.05-.57.08-.9.08-1.21,0-2.25-.32-3.14-.96s-1.57-1.51-2.06-2.59-.73-2.31-.73-3.7.27-2.68.81-3.81c.54-1.13,1.31-2.02,2.32-2.64,1-.63,2.19-.94,3.55-.94,1.11,0,2.15.2,3.14.59s1.93.97,2.83,1.76l-.04-7.93c-.8-.48-1.81-.85-3-1.11-1.19-.27-2.39-.4-3.6-.4-2.69,0-5.1.63-7.23,1.89-2.12,1.26-3.78,2.98-4.96,5.15s-1.78,4.59-1.78,7.23.6,5.19,1.78,7.35c1.18,2.15,2.84,3.83,4.96,5.04h-.02Z" fill="#fff"/>
            <path class="cls-2" d="M43.09,141.61l-7.25,27.42h7.71l1.12-4.76h6.73l1.1,4.76h7.81l-7.25-27.42h-9.98ZM50.06,157.82h-4l1.99-9.36,2.02,9.36Z" fill="#fff"/>
          </g>
        </g>
      </g>
      <g>
        <g>
          <rect class="cls-2" x="138.44" y="187.94" width="87.43" height="157.99" transform="translate(449.09 84.78) rotate(90)" fill="#fff"/>
          <g>
            <path class="cls-2" d="M112.78,266.93c0,.6-.49,1.08-1.08,1.08s-1.08-.49-1.08-1.08.49-1.08,1.08-1.08,1.08.49,1.08,1.08Z" fill="#fff"/>
            <path class="cls-2" d="M251.53,266.93c0-.6.49-1.08,1.08-1.08s1.08.49,1.08,1.08-.49,1.08-1.08,1.08-1.08-.49-1.08-1.08Z" fill="#fff"/>
            <path class="cls-2" d="M231.68,266.93c0-12.42,10.07-22.67,22.48-22.89v21.99c-.32-.54-.9-.89-1.54-.89-.99,0-1.79.8-1.79,1.79s.8,1.79,1.79,1.79c.64,0,1.23-.35,1.54-.89v21.99c-12.4-.22-22.48-10.47-22.48-22.89Z" fill="#fff"/>
            <path class="cls-2" d="M254.16,231.11v12.23c-6.19.11-12,2.6-16.37,7.02-4.4,4.45-6.82,10.34-6.82,16.58s2.42,12.13,6.82,16.58c4.37,4.42,10.18,6.91,16.37,7.02v12.23h-47.15v-71.65h47.15Z" fill="#fff"/>
            <path class="cls-7" d="M206.3,231.11v71.65h-48.29v-71.65h48.29ZM179.18,266.93c0,1.64,1.34,2.98,2.98,2.98s2.98-1.34,2.98-2.98-1.34-2.98-2.98-2.98-2.98,1.34-2.98,2.98Z" fill="#f89938"/>
            <path class="cls-7" d="M126.52,283.51c4.4-4.45,6.82-10.34,6.82-16.58s-2.42-12.13-6.82-16.58c-4.37-4.42-10.18-6.91-16.37-7.02v-12.23h47.15v71.65h-47.15v-12.23c6.19-.11,12-2.6,16.37-7.02Z" fill="#f89938"/>
            <path class="cls-7" d="M184.39,266.55c.26,1.55-1.07,2.88-2.62,2.62-.94-.16-1.7-.91-1.85-1.85-.26-1.55,1.07-2.88,2.62-2.62.94.16,1.7.91,1.85,1.85Z" fill="#f89938"/>
            <path class="cls-2" d="M132.63,266.93c0,12.42-10.07,22.67-22.48,22.89v-21.99c.32.54.9.89,1.54.89.99,0,1.79-.8,1.79-1.79s-.8-1.79-1.79-1.79c-.64,0-1.23.35-1.54.89v-21.99c12.4.22,22.48,10.47,22.48,22.89Z" fill="#fff"/>
            <path d="M185.13,266.93c0,1.64-1.34,2.98-2.98,2.98s-2.98-1.34-2.98-2.98,1.34-2.98,2.98-2.98,2.98,1.34,2.98,2.98ZM179.88,266.93c0,1.25,1.02,2.27,2.27,2.27s2.27-1.02,2.27-2.27-1.02-2.27-2.27-2.27-2.27,1.02-2.27,2.27Z"/>
            <path d="M109.44,230.4h145.42v73.07H109.44v-73.07ZM110.61,266.93c0,.6.49,1.08,1.08,1.08s1.08-.49,1.08-1.08-.49-1.08-1.08-1.08-1.08.49-1.08,1.08ZM110.15,266.03c.32-.54.9-.89,1.54-.89.99,0,1.79.8,1.79,1.79s-.8,1.79-1.79,1.79c-.64,0-1.23-.35-1.54-.89v21.99c12.4-.22,22.48-10.47,22.48-22.89s-10.07-22.67-22.48-22.89v21.99ZM253.7,266.93c0-.6-.49-1.08-1.08-1.08s-1.08.49-1.08,1.08.49,1.08,1.08,1.08,1.08-.49,1.08-1.08ZM254.16,267.84c-.32.54-.9.89-1.54.89-.99,0-1.79-.8-1.79-1.79s.8-1.79,1.79-1.79c.64,0,1.23.35,1.54.89v-21.99c-12.4.22-22.48,10.47-22.48,22.89s10.07,22.67,22.48,22.89v-21.99ZM254.16,302.76v-12.23c-6.19-.11-12-2.6-16.37-7.02-4.4-4.45-6.82-10.34-6.82-16.58s2.42-12.13,6.82-16.58c4.37-4.42,10.18-6.91,16.37-7.02v-12.23h-47.15v71.65h47.15ZM206.3,302.76v-71.65h-48.29v71.65h48.29ZM157.3,302.76v-71.65h-47.15v12.23c6.19.11,12,2.6,16.37,7.02,4.4,4.45,6.82,10.34,6.82,16.58s-2.42,12.13-6.82,16.58c-4.37,4.42-10.18,6.91-16.37,7.02v12.23h47.15Z"/>
          </g>
        </g>
        <g>
          <g>
            <rect class="cls-2" x="298.02" y="237.19" width="59.48" height="59.48" rx="11.85" ry="11.85" fill="#fff"/>
            <path class="cls-14" d="M344.91,237.19c6.92,0,12.59,5.67,12.59,12.59v34.3c0,6.92-5.67,12.59-12.59,12.59h-34.3c-6.92,0-12.59-5.67-12.59-12.59v-34.3c0-6.92,5.67-12.59,12.59-12.59h34.3M344.91,231.95h-34.3c-9.83,0-17.83,8-17.83,17.83v34.3c0,9.83,8,17.83,17.83,17.83h34.3c9.83,0,17.83-8,17.83-17.83v-34.3c0-9.83-8-17.83-17.83-17.83h0Z" fill="#f8993a"/>
          </g>
          <g>
            <polygon class="cls-14" points="324.22 253.23 322.36 269.33 319.42 253.23 315.41 253.23 312.55 269.64 310.65 253.23 303.51 253.23 307.94 280.65 314.85 280.65 317.37 268.07 319.91 280.65 326.97 280.65 331.36 253.23 324.22 253.23" fill="#f8993a"/>
            <path class="cls-14" d="M340.01,280.65h1.47c1.92,0,3.67-.57,5.29-1.72,1.61-1.15,2.89-2.78,3.83-4.91.95-2.12,1.42-4.52,1.42-7.2s-.47-5.11-1.42-7.2c-.95-2.07-2.23-3.66-3.87-4.76s-3.45-1.64-5.44-1.64h-8.34v27.42s7.06,0,7.06,0ZM340.76,259.76c.75,0,1.42.26,1.98.77s1.03,1.31,1.38,2.38.53,2.41.53,4.02-.17,2.9-.51,4.02c-.34,1.13-.81,1.95-1.4,2.49-.59.54-1.25.81-1.98.81h-.75v-14.5h.75v.02Z" fill="#f8993a"/>
          </g>
        </g>
        <g>
          <g>
            <rect class="cls-14" x="6.8" y="237.19" width="59.47" height="59.47" rx="11.92" ry="11.92" fill="#f8993a"/>
            <path class="cls-2" d="M53.69,237.19c6.92,0,12.59,5.66,12.59,12.59v34.3c0,6.92-5.66,12.59-12.59,12.59H19.39c-6.92,0-12.59-5.66-12.59-12.59v-34.3c0-6.92,5.66-12.59,12.59-12.59h34.3M53.69,231.95H19.39c-9.83,0-17.83,8-17.83,17.83v34.3c0,9.83,8,17.83,17.83,17.83h34.3c9.83,0,17.83-8,17.83-17.83v-34.3c0-9.83-8-17.83-17.83-17.83h0Z" fill="#fff"/>
          </g>
          <g>
            <polygon class="cls-2" points="24.04 280.64 26.55 268.06 29.1 280.64 36.16 280.64 40.54 253.22 33.4 253.22 31.55 269.33 28.61 253.22 24.61 253.22 21.74 269.62 19.85 253.22 12.71 253.22 17.13 280.64 24.04 280.64" fill="#fff"/>
            <path class="cls-2" d="M47.15,276.11h5.17l.76,4.53h7.29l-5.78-27.42h-9.55l-5.86,27.42h7.18l.78-4.53ZM48.18,269.68l1.6-10.1,1.57,10.1h-3.17Z" fill="#fff"/>
          </g>
        </g>
      </g>
      <g>
        <g>
          <rect class="cls-2" x="138.44" y="522.77" width="87.43" height="157.99" transform="translate(783.92 419.61) rotate(90)" fill="#fff"/>
          <g>
            <path class="cls-10" d="M251.53,601.76c0,.6.49,1.08,1.08,1.08s1.08-.49,1.08-1.08-.49-1.08-1.08-1.08-1.08.49-1.08,1.08Z" fill="#2f67b2"/>
            <path class="cls-2" d="M112.78,601.76c0-.6-.49-1.08-1.08-1.08s-1.08.49-1.08,1.08.49,1.08,1.08,1.08,1.08-.49,1.08-1.08Z" fill="#fff"/>
            <path class="cls-2" d="M132.63,601.76c0-12.42-10.07-22.67-22.48-22.89v21.99c.32-.54.9-.89,1.54-.89.99,0,1.79.8,1.79,1.79s-.8,1.79-1.79,1.79c-.64,0-1.23-.35-1.54-.89v21.99c12.4-.22,22.48-10.47,22.48-22.89Z" fill="#fff"/>
            <path class="cls-2" d="M110.15,565.94v12.23c6.19.11,12,2.6,16.37,7.02,4.4,4.45,6.82,10.34,6.82,16.58s-2.42,12.13-6.82,16.58c-4.37,4.42-10.18,6.91-16.37,7.02v12.23h47.15v-71.65h-47.15Z" fill="#fff"/>
            <path class="cls-10" d="M158.01,565.94v71.65h48.29v-71.65h-48.29ZM185.13,601.76c0,1.64-1.34,2.98-2.98,2.98s-2.98-1.34-2.98-2.98,1.34-2.98,2.98-2.98,2.98,1.34,2.98,2.98Z" fill="#2f67b2"/>
            <path class="cls-10" d="M237.79,618.34c-4.4-4.45-6.82-10.34-6.82-16.58s2.42-12.13,6.82-16.58c4.37-4.42,10.18-6.91,16.37-7.02v-12.23h-47.15v71.65h47.15v-12.23c-6.19-.11-12-2.6-16.37-7.02Z" fill="#2f67b2"/>
            <path class="cls-10" d="M179.91,601.38c-.26,1.55,1.07,2.88,2.62,2.62.94-.16,1.7-.91,1.85-1.85.26-1.55-1.07-2.88-2.62-2.62-.94.16-1.7.91-1.85,1.85Z" fill="#2f67b2"/>
            <path class="cls-10" d="M231.68,601.76c0,12.42,10.07,22.67,22.48,22.89v-21.99c-.32.54-.9.89-1.54.89-.99,0-1.79-.8-1.79-1.79s.8-1.79,1.79-1.79c.64,0,1.23.35,1.54.89v-21.99c-12.4.22-22.48,10.47-22.48,22.89Z" fill="#2f67b2"/>
            <path d="M179.18,601.76c0,1.64,1.34,2.98,2.98,2.98s2.98-1.34,2.98-2.98-1.34-2.98-2.98-2.98-2.98,1.34-2.98,2.98ZM184.42,601.76c0,1.25-1.02,2.27-2.27,2.27s-2.27-1.02-2.27-2.27,1.02-2.27,2.27-2.27,2.27,1.02,2.27,2.27Z"/>
            <path d="M254.86,565.23H109.44v73.07h145.42v-73.07ZM253.7,601.76c0,.6-.49,1.08-1.08,1.08s-1.08-.49-1.08-1.08.49-1.08,1.08-1.08,1.08.49,1.08,1.08ZM254.16,600.86c-.32-.54-.9-.89-1.54-.89-.99,0-1.79.8-1.79,1.79s.8,1.79,1.79,1.79c.64,0,1.23-.35,1.54-.89v21.99c-12.4-.22-22.48-10.47-22.48-22.89s10.07-22.67,22.48-22.89v21.99ZM110.61,601.76c0-.6.49-1.08,1.08-1.08s1.08.49,1.08,1.08-.49,1.08-1.08,1.08-1.08-.49-1.08-1.08ZM110.15,602.66c.32.54.9.89,1.54.89.99,0,1.79-.8,1.79-1.79s-.8-1.79-1.79-1.79c-.64,0-1.23.35-1.54.89v-21.99c12.4.22,22.48,10.47,22.48,22.89s-10.07,22.67-22.48,22.89v-21.99ZM110.15,637.59v-12.23c6.19-.11,12-2.6,16.37-7.02,4.4-4.45,6.82-10.34,6.82-16.58s-2.42-12.13-6.82-16.58c-4.37-4.42-10.18-6.91-16.37-7.02v-12.23h47.15v71.65h-47.15ZM158.01,637.59v-71.65h48.29v71.65h-48.29ZM207.01,637.59v-71.65h47.15v12.23c-6.19.11-12,2.6-16.37,7.02-4.4,4.45-6.82,10.34-6.82,16.58s2.42,12.13,6.82,16.58c4.37,4.42,10.18,6.91,16.37,7.02v12.23h-47.15Z"/>
          </g>
        </g>
        <g>
          <g>
            <rect class="cls-2" x="298.02" y="572.02" width="59.48" height="59.48" rx="11.85" ry="11.85" fill="#fff"/>
            <path class="cls-10" d="M344.91,572.02c6.92,0,12.59,5.67,12.59,12.59v34.3c0,6.92-5.67,12.59-12.59,12.59h-34.3c-6.92,0-12.59-5.67-12.59-12.59v-34.3c0-6.92,5.67-12.59,12.59-12.59h34.3M344.91,566.78h-34.3c-9.83,0-17.83,8-17.83,17.83v34.3c0,9.83,8,17.83,17.83,17.83h34.3c9.83,0,17.83-8,17.83-17.83v-34.3c0-9.83-8-17.83-17.83-17.83h0Z" fill="#2f67b2"/>
          </g>
          <g>
            <path class="cls-10" d="M310.73,614.19c2.12,1.2,4.55,1.82,7.27,1.82,1.56,0,3.03-.2,4.42-.6,1.38-.4,2.42-.91,3.1-1.51v-14.8h-9.85v6.27h3.14v3.85c-.27.05-.56.08-.91.08-1.2,0-2.25-.33-3.13-.97-.88-.64-1.57-1.5-2.06-2.59s-.74-2.32-.74-3.7.27-2.69.81-3.81c.54-1.14,1.31-2.01,2.32-2.65s2.19-.95,3.55-.95c1.11,0,2.15.2,3.13.58.99.39,1.93.98,2.83,1.76l-.04-7.93c-.81-.47-1.81-.85-3-1.12-1.19-.27-2.4-.39-3.6-.39-2.7,0-5.1.63-7.23,1.89-2.13,1.26-3.78,2.98-4.97,5.15-1.18,2.18-1.78,4.59-1.78,7.23s.59,5.19,1.78,7.35c1.18,2.15,2.83,3.83,4.97,5.05h0Z" fill="#2f67b2"/>
            <path class="cls-10" d="M334.32,588.06l-7.25,27.42h7.7l1.12-4.76h6.73l1.1,4.76h7.82l-7.25-27.42h-9.97ZM341.29,604.26h-4.01l1.98-9.36,2.01,9.36h0Z" fill="#2f67b2"/>
          </g>
        </g>
        <g>
          <g>
            <rect class="cls-10" x="6.8" y="572.02" width="59.47" height="59.47" rx="11.92" ry="11.92" fill="#2f67b2"/>
            <path class="cls-2" d="M53.69,572.02c6.92,0,12.59,5.66,12.59,12.59v34.3c0,6.92-5.66,12.59-12.59,12.59H19.39c-6.92,0-12.59-5.66-12.59-12.59v-34.3c0-6.92,5.66-12.59,12.59-12.59h34.3M53.69,566.78H19.39c-9.83,0-17.83,8-17.83,17.83v34.3c0,9.83,8,17.83,17.83,17.83h34.3c9.83,0,17.83-8,17.83-17.83v-34.3c0-9.83-8-17.83-17.83-17.83h0Z" fill="#fff"/>
          </g>
          <g>
            <path class="cls-2" d="M24.55,595.57c1-.63,2.19-.94,3.55-.94,1.11,0,2.15.2,3.14.59s1.93.97,2.83,1.76l-.04-7.93c-.8-.48-1.81-.85-3-1.11-1.19-.27-2.39-.4-3.6-.4-2.69,0-5.1.63-7.23,1.89-2.12,1.26-3.78,2.98-4.96,5.15s-1.78,4.59-1.78,7.23.6,5.19,1.78,7.35c1.18,2.15,2.84,3.83,4.96,5.04,2.12,1.21,4.55,1.82,7.27,1.82,1.56,0,3.03-.2,4.42-.61,1.38-.41,2.41-.9,3.1-1.51v-14.81h-9.86v6.27h3.14v3.85c-.27.05-.57.08-.9.08-1.21,0-2.25-.32-3.14-.96-.88-.65-1.57-1.5-2.06-2.59-.49-1.08-.73-2.31-.73-3.7s.27-2.68.81-3.81c.54-1.13,1.31-2.02,2.32-2.64h-.02Z" fill="#fff"/>
            <path class="cls-2" d="M45.89,615.48h2.22c2.29,0,4.34-.58,6.16-1.72,1.82-1.14,3.25-2.77,4.31-4.88s1.59-4.51,1.59-7.23-.53-5.11-1.57-7.18c-1.04-2.07-2.49-3.65-4.34-4.76-1.85-1.11-3.95-1.66-6.29-1.66h-9.7v27.42h7.63,0ZM47.25,594.93c.95,0,1.81.24,2.55.71s1.33,1.23,1.78,2.24c.44,1.02.67,2.31.67,3.87s-.22,2.86-.67,3.89c-.44,1.03-1.04,1.8-1.8,2.28-.75.5-1.6.73-2.53.73h-1.36v-13.74h1.36Z" fill="#fff"/>
          </g>
        </g>
      </g>
      <g>
        <g>
          <rect class="cls-2" x="138.44" y="634.38" width="87.43" height="157.99" transform="translate(895.53 531.22) rotate(90)" fill="#fff"/>
          <g>
            <path class="cls-13" d="M251.53,713.37c0,.6.49,1.08,1.08,1.08s1.08-.49,1.08-1.08-.49-1.08-1.08-1.08-1.08.49-1.08,1.08Z" fill="#663795"/>
            <path class="cls-2" d="M112.78,713.37c0-.6-.49-1.08-1.08-1.08s-1.08.49-1.08,1.08.49,1.08,1.08,1.08,1.08-.49,1.08-1.08Z" fill="#fff"/>
            <path class="cls-2" d="M132.63,713.37c0-12.42-10.07-22.67-22.48-22.89v21.99c.32-.54.9-.89,1.54-.89.99,0,1.79.8,1.79,1.79s-.8,1.79-1.79,1.79c-.64,0-1.23-.35-1.54-.89v21.99c12.4-.22,22.48-10.47,22.48-22.89Z" fill="#fff"/>
            <path class="cls-2" d="M110.15,677.55v12.23c6.19.11,12,2.6,16.37,7.02,4.4,4.45,6.82,10.34,6.82,16.58s-2.42,12.13-6.82,16.58c-4.37,4.42-10.18,6.91-16.37,7.02v12.23h47.15v-71.65h-47.15Z" fill="#fff"/>
            <path class="cls-2" d="M158.01,677.55v71.65h48.29v-71.65h-48.29ZM185.13,713.37c0,1.64-1.34,2.98-2.98,2.98s-2.98-1.34-2.98-2.98,1.34-2.98,2.98-2.98,2.98,1.34,2.98,2.98Z" fill="#fff"/>
            <path class="cls-13" d="M237.79,729.95c-4.4-4.45-6.82-10.34-6.82-16.58s2.42-12.13,6.82-16.58c4.37-4.42,10.18-6.91,16.37-7.02v-12.23h-47.15v71.65h47.15v-12.23c-6.19-.11-12-2.6-16.37-7.02Z" fill="#663795"/>
            <path class="cls-2" d="M179.91,712.99c-.26,1.55,1.07,2.88,2.62,2.62.94-.16,1.7-.91,1.85-1.85.26-1.55-1.07-2.88-2.62-2.62-.94.16-1.7.91-1.85,1.85Z" fill="#fff"/>
            <path class="cls-13" d="M231.68,713.37c0,12.42,10.07,22.67,22.48,22.89v-21.99c-.32.54-.9.89-1.54.89-.99,0-1.79-.8-1.79-1.79s.8-1.79,1.79-1.79c.64,0,1.23.35,1.54.89v-21.99c-12.4.22-22.48,10.47-22.48,22.89Z" fill="#663795"/>
            <path d="M179.18,713.37c0,1.64,1.34,2.98,2.98,2.98s2.98-1.34,2.98-2.98-1.34-2.98-2.98-2.98-2.98,1.34-2.98,2.98ZM184.42,713.37c0,1.25-1.02,2.27-2.27,2.27s-2.27-1.02-2.27-2.27,1.02-2.27,2.27-2.27,2.27,1.02,2.27,2.27Z"/>
            <path d="M254.86,676.84H109.44v73.07h145.42v-73.07ZM253.7,713.37c0,.6-.49,1.08-1.08,1.08s-1.08-.49-1.08-1.08.49-1.08,1.08-1.08,1.08.49,1.08,1.08ZM254.16,712.47c-.32-.54-.9-.89-1.54-.89-.99,0-1.79.8-1.79,1.79s.8,1.79,1.79,1.79c.64,0,1.23-.35,1.54-.89v21.99c-12.4-.22-22.48-10.47-22.48-22.89s10.07-22.67,22.48-22.89v21.99ZM110.61,713.37c0-.6.49-1.08,1.08-1.08s1.08.49,1.08,1.08-.49,1.08-1.08,1.08-1.08-.49-1.08-1.08ZM110.15,714.27c.32.54.9.89,1.54.89.99,0,1.79-.8,1.79-1.79s-.8-1.79-1.79-1.79c-.64,0-1.23.35-1.54.89v-21.99c12.4.22,22.48,10.47,22.48,22.89s-10.07,22.67-22.48,22.89v-21.99ZM110.15,749.2v-12.23c6.19-.11,12-2.6,16.37-7.02,4.4-4.45,6.82-10.34,6.82-16.58s-2.42-12.13-6.82-16.58c-4.37-4.42-10.18-6.91-16.37-7.02v-12.23h47.15v71.65h-47.15ZM158.01,749.2v-71.65h48.29v71.65h-48.29ZM207.01,749.2v-71.65h47.15v12.23c-6.19.11-12,2.6-16.37,7.02-4.4,4.45-6.82,10.34-6.82,16.58s2.42,12.13,6.82,16.58c4.37,4.42,10.18,6.91,16.37,7.02v12.23h-47.15Z"/>
          </g>
        </g>
        <g>
          <g>
            <rect class="cls-2" x="298.02" y="683.63" width="59.48" height="59.48" rx="11.85" ry="11.85" fill="#fff"/>
            <path class="cls-13" d="M344.91,683.63c6.92,0,12.59,5.67,12.59,12.59v34.3c0,6.92-5.67,12.59-12.59,12.59h-34.3c-6.92,0-12.59-5.67-12.59-12.59v-34.3c0-6.92,5.67-12.59,12.59-12.59h34.3M344.91,678.39h-34.3c-9.83,0-17.83,8-17.83,17.83v34.3c0,9.83,8,17.83,17.83,17.83h34.3c9.83,0,17.83-8,17.83-17.83v-34.3c0-9.83-8-17.83-17.83-17.83h0Z" fill="#663795"/>
          </g>
          <g>
            <path class="cls-13" d="M313.51,725.8c2.12,1.2,4.55,1.82,7.27,1.82,1.56,0,3.03-.2,4.42-.6,1.38-.4,2.42-.91,3.1-1.51v-14.8h-9.85v6.27h3.14v3.85c-.27.05-.56.08-.91.08-1.2,0-2.25-.33-3.13-.97-.88-.64-1.57-1.5-2.06-2.59s-.74-2.32-.74-3.7.27-2.69.81-3.81c.54-1.14,1.31-2.01,2.32-2.65s2.19-.95,3.55-.95c1.11,0,2.15.2,3.13.58.99.39,1.93.98,2.83,1.76l-.04-7.93c-.81-.47-1.81-.85-3-1.12s-2.4-.39-3.6-.39c-2.7,0-5.1.63-7.23,1.89-2.13,1.26-3.78,2.98-4.97,5.15-1.18,2.18-1.78,4.59-1.78,7.23s.59,5.19,1.78,7.35c1.18,2.15,2.83,3.83,4.97,5.05h0Z" fill="#663795"/>
            <path class="cls-13" d="M333.49,713.53c.89.83,1.97,1.55,3.23,2.15.65.4,1.31.74,1.96,1.02.91.42,1.55.81,1.93,1.14s.56.75.56,1.28c0,.33-.1.62-.29.89-.19.27-.44.47-.76.62s-.72.23-1.22.23c-.96,0-1.95-.27-2.96-.79-1.02-.53-1.95-1.19-2.79-1.98-.84-.79-1.53-1.61-2.05-2.44v8.73c.47.63,1.13,1.18,1.95,1.66s1.76.86,2.81,1.16c1.06.29,2.14.43,3.25.43,1.87,0,3.53-.39,5.01-1.17s2.62-1.85,3.44-3.21c.82-1.36,1.22-2.84,1.22-4.45,0-1.25-.26-2.38-.77-3.36-.51-.98-1.21-1.85-2.09-2.59s-1.93-1.44-3.14-2.09c-.42-.15-.75-.3-.98-.43-.23-.14-.56-.29-1.02-.43-.99-.47-1.66-.88-2.04-1.18-.38-.32-.56-.71-.56-1.19,0-.31.09-.59.27-.87s.42-.46.75-.56.7-.15,1.14-.15c1.23,0,2.51.34,3.81,1.02s2.6,1.6,3.85,2.75l-.38-7.93c-.68-.68-1.67-1.28-2.96-1.82-1.29-.53-2.77-.79-4.43-.79-1.79,0-3.4.34-4.84,1.02-1.44.68-2.58,1.65-3.42,2.91-.85,1.26-1.26,2.7-1.26,4.3,0,1.2.25,2.33.74,3.36.49,1.04,1.18,1.96,2.07,2.79h0Z" fill="#663795"/>
          </g>
        </g>
        <g>
          <g>
            <rect class="cls-13" x="6.8" y="683.63" width="59.47" height="59.47" rx="11.92" ry="11.92" fill="#663795"/>
            <path class="cls-2" d="M53.69,683.63c6.92,0,12.59,5.66,12.59,12.59v34.3c0,6.92-5.66,12.59-12.59,12.59H19.39c-6.92,0-12.59-5.66-12.59-12.59v-34.3c0-6.92,5.66-12.59,12.59-12.59h34.3M53.69,678.39H19.39c-9.83,0-17.83,8-17.83,17.83v34.3c0,9.83,8,17.83,17.83,17.83h34.3c9.83,0,17.83-8,17.83-17.83v-34.3c0-9.83-8-17.83-17.83-17.83h0Z" fill="#fff"/>
          </g>
          <g>
            <path class="cls-2" d="M24.81,716.96h3.14v3.85c-.27.05-.57.08-.9.08-1.21,0-2.25-.32-3.14-.96-.88-.65-1.57-1.5-2.06-2.59-.49-1.08-.73-2.31-.73-3.7s.27-2.68.81-3.81c.54-1.13,1.31-2.02,2.32-2.64,1-.63,2.19-.94,3.55-.94,1.11,0,2.15.2,3.14.59s1.93.97,2.83,1.76l-.04-7.93c-.8-.48-1.81-.85-3-1.11-1.19-.27-2.39-.4-3.6-.4-2.69,0-5.1.63-7.23,1.89-2.12,1.26-3.78,2.98-4.96,5.15s-1.78,4.59-1.78,7.23.6,5.19,1.78,7.35c1.18,2.15,2.84,3.83,4.96,5.04,2.12,1.21,4.55,1.82,7.27,1.82,1.56,0,3.03-.2,4.42-.61,1.38-.41,2.41-.9,3.1-1.51v-14.81h-9.86v6.27h-.02Z" fill="#fff"/>
            <polygon class="cls-2" points="51.55 699.66 45.63 709.79 45.63 699.66 37.96 699.66 37.96 727.08 45.63 727.08 45.63 716.37 51.18 727.08 59.86 727.08 51.72 712.62 59.94 699.66 51.55 699.66" fill="#fff"/>
          </g>
        </g>
      </g>
      <g>
        <g>
          <rect class="cls-2" x="138.44" y="411.16" width="87.43" height="157.99" transform="translate(672.31 308) rotate(90)" fill="#fff"/>
          <g>
            <path class="cls-2" d="M251.53,490.15c0,.6.49,1.08,1.08,1.08s1.08-.49,1.08-1.08-.49-1.08-1.08-1.08-1.08.49-1.08,1.08Z" fill="#fff"/>
            <path class="cls-2" d="M112.78,490.15c0-.6-.49-1.08-1.08-1.08s-1.08.49-1.08,1.08.49,1.08,1.08,1.08,1.08-.49,1.08-1.08Z" fill="#fff"/>
            <path class="cls-2" d="M132.63,490.15c0-12.42-10.07-22.67-22.48-22.89v21.99c.32-.54.9-.89,1.54-.89.99,0,1.79.8,1.79,1.79s-.8,1.79-1.79,1.79c-.64,0-1.23-.35-1.54-.89v21.99c12.4-.22,22.48-10.47,22.48-22.89Z" fill="#fff"/>
            <path class="cls-2" d="M110.15,454.33v12.23c6.19.11,12,2.6,16.37,7.02,4.4,4.45,6.82,10.34,6.82,16.58s-2.42,12.13-6.82,16.58c-4.37,4.42-10.18,6.91-16.37,7.02v12.23h47.15v-71.65h-47.15Z" fill="#fff"/>
            <path class="cls-4" d="M158.01,454.33v71.65h48.29v-71.65h-48.29ZM185.13,490.15c0,1.64-1.34,2.98-2.98,2.98s-2.98-1.34-2.98-2.98,1.34-2.98,2.98-2.98,2.98,1.34,2.98,2.98Z" fill="#099"/>
            <path class="cls-4" d="M237.79,506.73c-4.4-4.45-6.82-10.34-6.82-16.58s2.42-12.13,6.82-16.58c4.37-4.42,10.18-6.91,16.37-7.02v-12.23h-47.15v71.65h47.15v-12.23c-6.19-.11-12-2.6-16.37-7.02Z" fill="#099"/>
            <path class="cls-4" d="M179.91,489.77c-.26,1.55,1.07,2.88,2.62,2.62.94-.16,1.7-.91,1.85-1.85.26-1.55-1.07-2.88-2.62-2.62-.94.16-1.7.91-1.85,1.85Z" fill="#099"/>
            <path class="cls-2" d="M231.68,490.15c0,12.42,10.07,22.67,22.48,22.89v-21.99c-.32.54-.9.89-1.54.89-.99,0-1.79-.8-1.79-1.79s.8-1.79,1.79-1.79c.64,0,1.23.35,1.54.89v-21.99c-12.4.22-22.48,10.47-22.48,22.89Z" fill="#fff"/>
            <path d="M179.18,490.15c0,1.64,1.34,2.98,2.98,2.98s2.98-1.34,2.98-2.98-1.34-2.98-2.98-2.98-2.98,1.34-2.98,2.98ZM184.42,490.15c0,1.25-1.02,2.27-2.27,2.27s-2.27-1.02-2.27-2.27,1.02-2.27,2.27-2.27,2.27,1.02,2.27,2.27Z"/>
            <path d="M254.86,453.62H109.44v73.07h145.42v-73.07ZM253.7,490.15c0,.6-.49,1.08-1.08,1.08s-1.08-.49-1.08-1.08.49-1.08,1.08-1.08,1.08.49,1.08,1.08ZM254.16,489.25c-.32-.54-.9-.89-1.54-.89-.99,0-1.79.8-1.79,1.79s.8,1.79,1.79,1.79c.64,0,1.23-.35,1.54-.89v21.99c-12.4-.22-22.48-10.47-22.48-22.89s10.07-22.67,22.48-22.89v21.99ZM110.61,490.15c0-.6.49-1.08,1.08-1.08s1.08.49,1.08,1.08-.49,1.08-1.08,1.08-1.08-.49-1.08-1.08ZM110.15,491.06c.32.54.9.89,1.54.89.99,0,1.79-.8,1.79-1.79s-.8-1.79-1.79-1.79c-.64,0-1.23.35-1.54.89v-21.99c12.4.22,22.48,10.47,22.48,22.89s-10.07,22.67-22.48,22.89v-21.99ZM110.15,525.98v-12.23c6.19-.11,12-2.6,16.37-7.02,4.4-4.45,6.82-10.34,6.82-16.58s-2.42-12.13-6.82-16.58c-4.37-4.42-10.18-6.91-16.37-7.02v-12.23h47.15v71.65h-47.15ZM158.01,525.98v-71.65h48.29v71.65h-48.29ZM207.01,525.98v-71.65h47.15v12.23c-6.19.11-12,2.6-16.37,7.02-4.4,4.45-6.82,10.34-6.82,16.58s2.42,12.13,6.82,16.58c4.37,4.42,10.18,6.91,16.37,7.02v12.23h-47.15Z"/>
          </g>
        </g>
        <g>
          <g>
            <rect class="cls-2" x="298.02" y="460.41" width="59.48" height="59.48" rx="11.85" ry="11.85" fill="#fff"/>
            <path class="cls-5" d="M344.91,460.41c6.92,0,12.59,5.67,12.59,12.59v34.3c0,6.92-5.67,12.59-12.59,12.59h-34.3c-6.92,0-12.59-5.67-12.59-12.59v-34.3c0-6.92,5.67-12.59,12.59-12.59h34.3M344.91,455.17h-34.3c-9.83,0-17.83,8-17.83,17.83v34.3c0,9.83,8,17.83,17.83,17.83h34.3c9.83,0,17.83-8,17.83-17.83v-34.3c0-9.83-8-17.83-17.83-17.83h0Z" fill="#01999a"/>
          </g>
          <g>
            <polygon class="cls-5" points="315.26 503.87 317.78 491.29 320.33 503.87 327.39 503.87 331.77 476.45 324.63 476.45 322.78 492.55 319.84 476.45 315.83 476.45 312.96 492.86 311.07 476.45 303.94 476.45 308.35 503.87 315.26 503.87" fill="#01999a"/>
            <path class="cls-5" d="M338.37,499.34h5.17l.76,4.53h7.29l-5.78-27.42h-9.56l-5.86,27.42h7.18l.78-4.53h0ZM339.41,492.92l1.6-10.1,1.57,10.1h-3.17Z" fill="#01999a"/>
          </g>
        </g>
        <g>
          <g>
            <rect class="cls-5" x="6.8" y="460.42" width="59.47" height="59.47" rx="11.92" ry="11.92" fill="#01999a"/>
            <path class="cls-2" d="M53.69,460.42c6.92,0,12.59,5.66,12.59,12.59v34.3c0,6.92-5.66,12.59-12.59,12.59H19.39c-6.92,0-12.59-5.66-12.59-12.59v-34.3c0-6.92,5.66-12.59,12.59-12.59h34.3M53.69,455.17H19.39c-9.83,0-17.83,8-17.83,17.83v34.3c0,9.83,8,17.83,17.83,17.83h34.3c9.83,0,17.83-8,17.83-17.83v-34.3c0-9.83-8-17.83-17.83-17.83h0Z" fill="#fff"/>
          </g>
          <g>
            <polygon class="cls-2" points="32.92 476.45 31.06 492.56 28.12 476.45 24.12 476.45 21.25 492.85 19.35 476.45 12.22 476.45 16.64 503.87 23.55 503.87 26.07 491.28 28.61 503.87 35.67 503.87 40.06 476.45 32.92 476.45" fill="#fff"/>
            <path class="cls-2" d="M48.71,503.87h1.47c1.92,0,3.67-.58,5.28-1.72,1.61-1.14,2.89-2.78,3.83-4.91s1.42-4.53,1.42-7.19-.48-5.11-1.42-7.2c-.94-2.08-2.23-3.66-3.87-4.76s-3.45-1.64-5.44-1.64h-8.35v27.42h7.08ZM49.46,482.98c.75,0,1.42.26,1.99.77s1.02,1.31,1.38,2.38c.35,1.07.53,2.41.53,4.02s-.17,2.9-.51,4.02c-.34,1.12-.8,1.96-1.4,2.49-.6.55-1.25.81-1.99.81h-.75v-14.5h.75Z" fill="#fff"/>
          </g>
        </g>
      </g>
      <g>
        <g>
          <rect class="cls-2" x="138.44" y="299.55" width="87.43" height="157.99" transform="translate(-196.39 560.7) rotate(-90)" fill="#fff"/>
          <g>
            <path class="cls-2" d="M251.53,378.54c0-.6.49-1.08,1.08-1.08s1.08.49,1.08,1.08-.49,1.08-1.08,1.08-1.08-.49-1.08-1.08Z" fill="#fff"/>
            <path class="cls-2" d="M112.78,378.54c0,.6-.49,1.08-1.08,1.08s-1.08-.49-1.08-1.08.49-1.08,1.08-1.08,1.08.49,1.08,1.08Z" fill="#fff"/>
            <path class="cls-2" d="M132.63,378.54c0,12.42-10.07,22.67-22.48,22.89v-21.99c.32.54.9.89,1.54.89.99,0,1.79-.8,1.79-1.79s-.8-1.79-1.79-1.79c-.64,0-1.23.35-1.54.89v-21.99c12.4.22,22.48,10.47,22.48,22.89Z" fill="#fff"/>
            <path class="cls-12" d="M110.15,414.37v-12.23c6.19-.11,12-2.6,16.37-7.02,4.4-4.45,6.82-10.34,6.82-16.58,0-6.24-2.42-12.13-6.82-16.58-4.37-4.42-10.18-6.91-16.37-7.02v-12.23s47.15,0,47.15,0v71.65s-47.15,0-47.15,0Z" fill="#059948"/>
            <path class="cls-12" d="M158.01,414.37v-71.65s48.29,0,48.29,0v71.65s-48.29,0-48.29,0ZM185.13,378.54c0-1.64-1.34-2.98-2.98-2.98s-2.98,1.34-2.98,2.98,1.34,2.98,2.98,2.98,2.98-1.34,2.98-2.98Z" fill="#059948"/>
            <path class="cls-12" d="M237.79,361.97c-4.4,4.45-6.82,10.34-6.82,16.58,0,6.24,2.42,12.13,6.82,16.58,4.37,4.42,10.18,6.91,16.37,7.02v12.23s-47.15,0-47.15,0v-71.65s47.15,0,47.15,0v12.23c-6.19.11-12,2.6-16.37,7.02Z" fill="#059948"/>
            <path class="cls-12" d="M179.91,378.93c-.26-1.55,1.07-2.88,2.62-2.62.94.16,1.7.91,1.85,1.85.26,1.55-1.07,2.88-2.62,2.62-.94-.16-1.7-.91-1.85-1.85Z" fill="#059948"/>
            <path class="cls-2" d="M231.68,378.54c0-12.42,10.07-22.67,22.48-22.89v21.99c-.32-.54-.9-.89-1.54-.89-.99,0-1.79.8-1.79,1.79s.8,1.79,1.79,1.79c.64,0,1.23-.35,1.54-.89v21.99c-12.4-.22-22.48-10.47-22.48-22.89Z" fill="#fff"/>
            <path d="M179.18,378.54c0-1.64,1.34-2.98,2.98-2.98s2.98,1.34,2.98,2.98-1.34,2.98-2.98,2.98-2.98-1.34-2.98-2.98ZM184.42,378.54c0-1.25-1.02-2.27-2.27-2.27-1.25,0-2.27,1.02-2.27,2.27s1.02,2.27,2.27,2.27,2.27-1.02,2.27-2.27Z"/>
            <path d="M254.86,415.08H109.44s0-73.07,0-73.07h145.42s0,73.07,0,73.07ZM253.7,378.54c0-.6-.49-1.08-1.08-1.08s-1.08.49-1.08,1.08.49,1.08,1.08,1.08,1.08-.49,1.08-1.08ZM254.16,379.45c-.32.54-.9.89-1.54.89-.99,0-1.79-.8-1.79-1.79s.8-1.79,1.79-1.79c.64,0,1.23.35,1.54.89v-21.99c-12.4.22-22.48,10.47-22.48,22.89,0,12.42,10.07,22.67,22.48,22.89v-21.99ZM110.61,378.54c0,.6.49,1.08,1.08,1.08s1.08-.49,1.08-1.08-.49-1.08-1.08-1.08-1.08.49-1.08,1.08ZM110.15,377.64c.32-.54.9-.89,1.54-.89.99,0,1.79.8,1.79,1.79s-.8,1.79-1.79,1.79c-.64,0-1.23-.35-1.54-.89v21.99c12.4-.22,22.48-10.47,22.48-22.89,0-12.42-10.07-22.67-22.48-22.89v21.99ZM110.15,342.72v12.23c6.19.11,12,2.6,16.37,7.02,4.4,4.45,6.82,10.34,6.82,16.58,0,6.24-2.42,12.13-6.82,16.58-4.37,4.42-10.18,6.91-16.37,7.02v12.23s47.15,0,47.15,0v-71.65s-47.15,0-47.15,0ZM158.01,342.72v71.65s48.29,0,48.29,0v-71.65s-48.29,0-48.29,0ZM207.01,342.72v71.65s47.15,0,47.15,0v-12.23c-6.19-.11-12-2.6-16.37-7.02-4.4-4.45-6.82-10.34-6.82-16.58,0-6.24,2.42-12.13,6.82-16.58,4.37-4.42,10.18-6.91,16.37-7.02v-12.23s-47.15,0-47.15,0Z"/>
          </g>
        </g>
        <g>
          <g>
            <rect class="cls-2" x="298.02" y="348.8" width="59.48" height="59.48" rx="11.85" ry="11.85" fill="#fff"/>
            <path class="cls-1" d="M344.91,348.8c6.92,0,12.59,5.67,12.59,12.59v34.3c0,6.92-5.67,12.59-12.59,12.59h-34.3c-6.92,0-12.59-5.67-12.59-12.59v-34.3c0-6.92,5.67-12.59,12.59-12.59h34.3M344.91,343.56h-34.3c-9.83,0-17.83,8-17.83,17.83v34.3c0,9.83,8,17.83,17.83,17.83h34.3c9.83,0,17.83-8,17.83-17.83v-34.3c0-9.83-8-17.83-17.83-17.83h0Z" fill="#079a48"/>
          </g>
          <path class="cls-1" d="M318.14,371.69c-1.2,2.23-1.82,4.63-1.82,7.2s.65,5.06,1.95,7.16,3.01,3.74,5.15,4.91c2.14,1.17,4.42,1.76,6.83,1.76,1.61,0,3.12-.22,4.51-.64,1.4-.42,2.62-1.05,3.64-1.86l.79-8.53c-1.18,1.31-2.47,2.34-3.85,3.08s-2.78,1.12-4.2,1.12c-1.31,0-2.5-.32-3.56-.97-1.07-.64-1.93-1.52-2.57-2.65-.64-1.12-.97-2.36-.97-3.72s.33-2.63.99-3.74c.65-1.11,1.53-1.98,2.63-2.63s2.3-.97,3.6-.97c1.38,0,2.7.37,3.93,1.1s2.38,1.76,3.44,3.1v-8.77c-1.18-.75-2.48-1.32-3.89-1.7s-2.79-.56-4.16-.56c-2.74,0-5.2.66-7.39,1.98-2.18,1.32-3.87,3.1-5.08,5.32h.02Z" fill="#079a48"/>
        </g>
        <g>
          <g>
            <rect class="cls-1" x="6.8" y="348.81" width="59.47" height="59.47" rx="11.92" ry="11.92" fill="#079a48"/>
            <path class="cls-2" d="M53.69,348.81c6.92,0,12.59,5.66,12.59,12.59v34.3c0,6.92-5.66,12.59-12.59,12.59H19.39c-6.92,0-12.59-5.66-12.59-12.59v-34.3c0-6.92,5.66-12.59,12.59-12.59h34.3M53.69,343.56H19.39c-9.83,0-17.83,8-17.83,17.83v34.3c0,9.83,8,17.83,17.83,17.83h34.3c9.83,0,17.83-8,17.83-17.83v-34.3c0-9.83-8-17.83-17.83-17.83h0Z" fill="#fff"/>
          </g>
          <path class="cls-2" d="M26.91,371.69c-1.21,2.22-1.82,4.63-1.82,7.2s.65,5.05,1.95,7.16,3.02,3.73,5.15,4.91c2.13,1.17,4.42,1.76,6.83,1.76,1.61,0,3.12-.22,4.51-.65,1.4-.43,2.61-1.04,3.64-1.85l.79-8.54c-1.18,1.31-2.47,2.33-3.85,3.08s-2.78,1.11-4.19,1.11c-1.31,0-2.5-.32-3.56-.96-1.07-.65-1.93-1.52-2.57-2.64-.65-1.12-.96-2.36-.96-3.72s.33-2.63.98-3.73c.66-1.11,1.53-1.99,2.62-2.62,1.09-.65,2.29-.96,3.6-.96,1.38,0,2.69.37,3.93,1.09s2.38,1.76,3.44,3.1v-8.76c-1.18-.75-2.48-1.32-3.89-1.7s-2.79-.57-4.15-.57c-2.74,0-5.2.67-7.39,1.99-2.17,1.32-3.87,3.1-5.08,5.32h.02Z" fill="#fff"/>
        </g>
      </g>
    </g>
  </g>
</svg>
