<?xml version='1.0' encoding='UTF-8'?>
<svg xmlns="http://www.w3.org/2000/svg" xmlns:xlink="http://www.w3.org/1999/xlink" viewBox="0 0 409.64 766.05" preserveAspectRatio="xMidYMid meet">
  <defs>
    <style>
      .cls-1 {
        fill: #fff;
        opacity: .5;
      }

      .cls-2 {
        fill: none;
      }

      .cls-3 {
        isolation: isolate;
      }

      .cls-4 {
        fill: url(#linear-gradient);
        mix-blend-mode: multiply;
      }

      .cls-5 {
        clip-path: url(#clippath);
      }
    </style>
    <linearGradient id="linear-gradient" x1="204.82" y1="766.05" x2="204.82" y2="0" gradientUnits="userSpaceOnUse">
      <stop offset=".05" stop-color="#663795"/>
      <stop offset=".2" stop-color="#2f67b2"/>
      <stop offset=".35" stop-color="#01999a"/>
      <stop offset=".5" stop-color="#079a48"/>
      <stop offset=".65" stop-color="#f8993a"/>
      <stop offset=".8" stop-color="#f2673a"/>
      <stop offset=".95" stop-color="#cc3533"/>
    </linearGradient>
    <clipPath id="clippath">
      <rect class="cls-2" x="26.79" y="28.69" width="356.05" height="708.66" fill="none"/>
    </clipPath>
  </defs>
  <g class="cls-3">
    <g id="Layer_2" data-name="Layer 2">
      <g id="Layer_1-2" data-name="Layer 1">
        <g>
          <rect class="cls-4" width="409.64" height="766.05" fill="url(#linear-gradient)"/>
          <polygon class="cls-1" points="382.13 30.11 27.51 30.11 27.51 30.11 27.51 30.11 27.51 735.94 382.13 735.94 382.13 735.94 382.13 735.94 382.13 30.11" fill="#fff" opacity=".5"/>
          <g class="cls-5" clip-path="url(#clippath)">
            <path d="M26.79,737.36h356.05V28.69H26.79v708.66ZM199.54,39.67c0-2.91,2.37-5.28,5.28-5.28s5.28,2.37,5.28,5.28-2.37,5.28-5.28,5.28-5.28-2.37-5.28-5.28M196.09,39.67c0,4.81,3.91,8.73,8.73,8.73s8.73-3.92,8.73-8.73c0-3.13-1.72-5.99-4.33-7.53h107.15c-.01.78-.04,1.56-.07,2.34-.07,1.87-.19,3.77-.36,5.63-2.9,32.53-19.58,61.28-44.89,79.86-1.1.81-2.22,1.6-3.35,2.37-2.26,1.54-4.59,3-6.98,4.37-7.16,4.13-14.87,7.51-23.02,10.03-2.6.8-5.26,1.52-7.92,2.13-.89.2-1.79.4-2.69.58-1.81.37-3.64.69-5.45.97-11.06,1.68-22.61,1.68-33.66,0-1.8-.27-3.64-.6-5.45-.97-.9-.18-1.8-.38-2.69-.58-2.65-.61-5.32-1.32-7.92-2.13-43.49-13.44-74.2-51.37-78.24-96.63-.17-1.86-.29-3.75-.36-5.63-.03-.78-.05-1.56-.07-2.34h107.15c-2.61,1.54-4.33,4.39-4.33,7.53M285.6,111.9c21.55-21.29,33.69-49.6,34.21-79.76h59.59v229.78H30.24V32.14h59.59c.52,30.17,12.66,58.48,34.21,79.76,21.69,21.42,50.37,33.22,80.78,33.22s59.09-11.8,80.78-33.22M30.24,265.36h349.16v235.32H30.24v-235.32ZM210.1,726.38c0,2.91-2.37,5.28-5.28,5.28s-5.28-2.37-5.28-5.28,2.37-5.28,5.28-5.28,5.28,2.37,5.28,5.28M213.55,726.38c0-4.81-3.92-8.73-8.73-8.73s-8.73,3.91-8.73,8.73c0,3.13,1.72,5.99,4.33,7.53h-107.15c1.09-60.45,51.02-109.54,111.55-109.54s110.45,49.09,111.55,109.54h-107.15c2.61-1.54,4.33-4.39,4.33-7.53M124.04,654.14c-21.55,21.29-33.69,49.6-34.21,79.76H30.24v-229.78h349.16v229.78h-59.59c-.53-30.17-12.66-58.48-34.21-79.76-21.69-21.42-50.38-33.22-80.78-33.22s-59.09,11.8-80.78,33.22"/>
            <path d="M204.82,368.52c-8,0-14.51,6.51-14.51,14.51s6.51,14.51,14.51,14.51,14.51-6.51,14.51-14.51-6.51-14.51-14.51-14.51M204.82,394.09c-6.1,0-11.06-4.96-11.06-11.06s4.96-11.06,11.06-11.06,11.06,4.96,11.06,11.06-4.96,11.06-11.06,11.06"/>
          </g>
          <rect class="cls-2" x="26.79" y="28.69" width="356.05" height="708.66" fill="none"/>
        </g>
      </g>
    </g>
  </g>
</svg>
