<?xml version='1.0' encoding='UTF-8'?>
<svg xmlns="http://www.w3.org/2000/svg" xmlns:xlink="http://www.w3.org/1999/xlink" viewBox="0 0 356.05 708.66" preserveAspectRatio="xMidYMid meet">
  <defs>
    <style>
      .cls-1 {
        fill: #fff;
      }

      .cls-2 {
        fill: url(#New_Gradient_Swatch_1);
        mix-blend-mode: multiply;
      }

      .cls-3 {
        isolation: isolate;
      }
    </style>
    <linearGradient id="New_Gradient_Swatch_1" data-name="New Gradient Swatch 1" x1="176.8" y1="707.34" x2="176.8" y2="1.32" gradientUnits="userSpaceOnUse">
      <stop offset=".05" stop-color="#639"/>
      <stop offset=".2" stop-color="#0052b3"/>
      <stop offset=".35" stop-color="#099"/>
      <stop offset=".5" stop-color="#093"/>
      <stop offset=".65" stop-color="#fa0"/>
      <stop offset=".8" stop-color="#ef6d22"/>
      <stop offset=".95" stop-color="#c33"/>
    </linearGradient>
  </defs>
  <g class="cls-3">
    <g id="Layer_2" data-name="Layer 2">
      <g id="Layer_1-2" data-name="Layer 1">
        <g>
          <path class="cls-1" d="M178.03,16.25c2.91,0,5.28-2.37,5.28-5.28s-2.37-5.28-5.28-5.28-5.28,2.37-5.28,5.28,2.37,5.28,5.28,5.28Z" fill="#fff"/>
          <path class="cls-1" d="M178.03,112.99c60.52,0,110.45-49.09,111.55-109.54h-107.15c2.61,1.54,4.33,4.39,4.33,7.53,0,4.81-3.92,8.73-8.73,8.73s-8.73-3.91-8.73-8.73c0-3.13,1.72-5.99,4.33-7.53h-107.15c1.09,60.45,51.03,109.54,111.55,109.54Z" fill="#fff"/>
          <path class="cls-1" d="M3.45,475.44v229.78h59.59c.53-30.17,12.66-58.48,34.21-79.76,21.69-21.42,50.38-33.22,80.78-33.22s59.09,11.8,80.78,33.22c21.55,21.29,33.69,49.6,34.21,79.76h59.59v-229.78s-349.16,0-349.16,0Z" fill="#fff"/>
          <path class="cls-1" d="M178.03,692.41c-2.91,0-5.28,2.37-5.28,5.28s2.37,5.28,5.28,5.28,5.28-2.37,5.28-5.28-2.37-5.28-5.28-5.28Z" fill="#fff"/>
          <path class="cls-1" d="M178.03,595.68c-60.52,0-110.45,49.09-111.55,109.54h107.15c-2.61-1.54-4.33-4.39-4.33-7.53,0-4.81,3.91-8.73,8.73-8.73s8.73,3.91,8.73,8.73c0,3.13-1.72,5.99-4.33,7.52h107.15c-1.09-60.45-51.03-109.54-111.55-109.54Z" fill="#fff"/>
          <path class="cls-1" d="M352.61,233.22V3.45h-59.59c-.53,30.17-12.66,58.48-34.21,79.76-21.69,21.42-50.38,33.22-80.78,33.22s-59.09-11.8-80.78-33.22C75.7,61.92,63.56,33.61,63.04,3.45H3.45v229.78h349.16Z" fill="#fff"/>
          <path class="cls-1" d="M3.45,236.67v235.32h349.16v-235.32H3.45ZM178.03,368.84c-8,0-14.51-6.51-14.51-14.51s6.51-14.51,14.51-14.51,14.51,6.51,14.51,14.51-6.51,14.51-14.51,14.51Z" fill="#fff"/>
          <path class="cls-1" d="M178.03,343.27c-6.1,0-11.06,4.96-11.06,11.06s4.96,11.06,11.06,11.06,11.06-4.96,11.06-11.06-4.96-11.06-11.06-11.06Z" fill="#fff"/>
          <path d="M356.05,708.66V0H0s0,0,0,0v354.33s0,354.33,0,354.33H0s178.03,0,178.03,0h178.03ZM178.03,5.69c2.91,0,5.28,2.37,5.28,5.28s-2.37,5.28-5.28,5.28-5.28-2.37-5.28-5.28,2.37-5.28,5.28-5.28ZM173.63,3.45c-2.61,1.54-4.33,4.39-4.33,7.53,0,4.81,3.91,8.73,8.73,8.73s8.73-3.91,8.73-8.73c0-3.13-1.72-5.99-4.33-7.53h107.15c-1.09,60.45-51.02,109.54-111.55,109.54S67.57,63.89,66.48,3.45h107.15ZM63.04,3.45c.53,30.17,12.66,58.48,34.21,79.76,21.69,21.42,50.38,33.22,80.78,33.22s59.09-11.8,80.78-33.22c21.55-21.29,33.69-49.6,34.21-79.76h59.59v229.78s-349.16,0-349.16,0V3.45s59.59,0,59.59,0ZM352.61,471.99H3.45v-235.32s349.16,0,349.16,0v235.32ZM178.03,702.97c-2.91,0-5.28-2.37-5.28-5.28s2.37-5.28,5.28-5.28,5.28,2.37,5.28,5.28-2.37,5.28-5.28,5.28ZM182.42,705.21c2.61-1.54,4.33-4.39,4.33-7.52,0-4.81-3.92-8.73-8.73-8.73s-8.73,3.91-8.73,8.73c0,3.13,1.72,5.99,4.33,7.52h-107.15c1.09-60.45,51.02-109.54,111.55-109.54s110.45,49.09,111.55,109.54h-107.15ZM293.02,705.21c-.53-30.17-12.66-58.48-34.21-79.76-21.69-21.42-50.38-33.22-80.78-33.22s-59.09,11.8-80.78,33.22c-21.55,21.29-33.69,49.6-34.21,79.76H3.45v-229.78s349.16,0,349.16,0v229.78s-59.59,0-59.59,0Z"/>
          <path d="M178.03,339.82c-8,0-14.51,6.51-14.51,14.51s6.51,14.51,14.51,14.51,14.51-6.51,14.51-14.51-6.51-14.51-14.51-14.51ZM178.03,365.39c-6.1,0-11.06-4.96-11.06-11.06s4.96-11.06,11.06-11.06,11.06,4.96,11.06,11.06-4.96,11.06-11.06,11.06Z"/>
          <rect class="cls-2" x="1" y="1.32" width="351.61" height="706.02" fill="url(#New_Gradient_Swatch_1)"/>
        </g>
      </g>
    </g>
  </g>
</svg>
