<?xml version='1.0' encoding='UTF-8'?>
<svg xmlns="http://www.w3.org/2000/svg" xmlns:xlink="http://www.w3.org/1999/xlink" data-name="Layer 2" viewBox="0 0 86.9 271.5" preserveAspectRatio="xMidYMid meet">
  <defs>
    <style>
      .cls-1 {
        fill: #00C853;
        fill-rule: evenodd;
      }
    </style>
  </defs>
  <g id="Layer_1-2" data-name="Layer 1">
    <g>
      <path d="M86.9,35.5v-8h-18.95c-.24-7.24-3.17-14.01-8.32-19.16C54.25,2.96,47.09,0,39.49,0s-14.76,2.96-20.14,8.34c-5.38,5.38-8.34,12.53-8.34,20.14v175.09c-7.02,7.44-11,17.38-11,27.65,0,22.21,18.07,40.27,40.27,40.27s40.27-18.07,40.27-40.27c0-11.13-4.55-21.63-12.58-29.23v-7.23h18.93v-8h-18.93v-18.54h13.93v-8h-13.93v-18.54h13.93v-8h-13.93v-18.54h18.93v-8h-18.93v-18.54h13.93v-8h-13.93v-18.54h13.93v-8h-13.93v-18.54h18.93ZM70.55,231.23c0,16.71-13.57,30.27-30.27,30.27s-30.27-13.57-30.27-30.27c0-8.73,3.7-16.6,9.62-22.12.88-.83,1.39-1.98,1.39-3.19V28.48c0-4.9,1.95-9.6,5.41-13.07,3.47-3.47,8.17-5.41,13.07-5.41h0c4.9,0,9.6,1.95,13.07,5.41,3.47,3.47,5.41,8.17,5.41,13.07v176.05h0c0,1.3.58,2.54,1.58,3.37,6.71,5.55,10.99,13.95,10.99,23.33Z"/>
      <path class="cls-1" d="M49.27,107.22v104.59c7.42,3.41,12.58,10.91,12.58,19.61,0,11.91-9.67,21.57-21.57,21.57s-21.57-9.67-21.57-21.57c0-8.07,4.44-15.11,11-18.81v-105.4h19.57Z" fill="#00C853" fill-rule="evenodd"/>
    </g>
  </g>
</svg>
