<?xml version="1.0" encoding="UTF-8"?>
<svg id="Layer_1" data-name="Layer 1" xmlns="http://www.w3.org/2000/svg" viewBox="0 0 100 100">
  <defs>
    <style>
      .cls-1 {
        fill: #093;
        stroke: #b3b3b3;
        stroke-linejoin: round;
        stroke-width: .25px;
      }

      .cls-2 {
        fill: #fff;
      }
    </style>
  </defs>
  <g id="Green_C_Ice.svg">
    <g id="Layer_1-2" data-name="Layer 1-2">
      <g>
        <g>
          <rect class="cls-2" x="14.3" y="14.3" width="71.41" height="71.41" rx="14.22" ry="14.22"/>
          <path class="cls-1" d="M70.59,14.3c8.31,0,15.11,6.8,15.11,15.11v41.18c0,8.31-6.8,15.11-15.11,15.11H29.41c-8.31,0-15.11-6.8-15.11-15.11V29.41c0-8.31,6.8-15.11,15.11-15.11h41.18M70.59,8H29.41c-11.81,0-21.41,9.6-21.41,21.41v41.18c0,11.81,9.6,21.41,21.41,21.41h41.18c11.81,0,21.41-9.6,21.41-21.41V29.41c0-11.81-9.6-21.41-21.41-21.41h0Z"/>
        </g>
        <path class="cls-1" d="M38.44,41.77c-1.44,2.68-2.18,5.56-2.18,8.65s.79,6.07,2.33,8.59c1.56,2.53,3.62,4.49,6.19,5.89,2.57,1.4,5.31,2.11,8.2,2.11,1.93,0,3.75-.26,5.42-.77,1.68-.51,3.14-1.26,4.37-2.23l.95-10.25c-1.42,1.58-2.96,2.81-4.62,3.7s-3.34,1.34-5.04,1.34c-1.58,0-3-.38-4.28-1.16-1.28-.77-2.31-1.82-3.08-3.18-.77-1.34-1.16-2.83-1.16-4.47s.39-3.16,1.19-4.49c.79-1.33,1.84-2.39,3.16-3.16s2.76-1.16,4.33-1.16c1.66,0,3.24.44,4.72,1.32s2.86,2.11,4.13,3.72v-10.53c-1.42-.9-2.98-1.59-4.67-2.04s-3.36-.67-4.99-.67c-3.3,0-6.24.79-8.87,2.39-2.62,1.59-4.64,3.72-6.1,6.39h.02s0,.01,0,.01Z"/>
      </g>
    </g>
  </g>
</svg>