<?xml version='1.0' encoding='UTF-8'?>
<svg xmlns="http://www.w3.org/2000/svg" xmlns:xlink="http://www.w3.org/1999/xlink" data-name="Layer 2" viewBox="0 0 561.84 561.84" preserveAspectRatio="xMidYMid meet">
  <defs>
    <style>
      .cls-1 {
        fill: #e6e7e8;
      }
    </style>
  </defs>
  <g id="Layer_1-2" data-name="Layer 1">
    <path class="cls-1" d="M496.3,273.59c.08,2.44.12,4.88.14,7.32-.02,2.44-.05,4.89-.14,7.32h.09c-.17,8.05-.7,16.08-1.58,24.03-.53,4.73-1.19,9.5-1.98,14.22-22.87,4.25-46.12,7.85-69.16,10.73-46.89,5.85-94.66,8.9-142.02,9.06-47.88-.1-96.13-3.14-143.5-9.06-23.04-2.88-46.29-6.48-69.16-10.73-.78-4.72-1.45-9.49-1.97-14.22-.89-7.94-1.41-15.98-1.58-24.02h.09c-.08-2.44-.12-4.88-.14-7.33.02-2.44.05-4.89.14-7.32h-.09c.17-8.05.7-16.08,1.58-24.03.53-4.73,1.19-9.5,1.97-14.22,22.87-4.25,46.12-7.85,69.16-10.73,47.37-5.91,95.63-8.95,143.5-9.06,47.36.16,95.14,3.2,142.02,9.06,23.04,2.88,46.29,6.48,69.16,10.73.79,4.72,1.45,9.49,1.98,14.22.89,7.94,1.41,15.98,1.58,24.02h-.09M504.59,160.69c-4.51-10.11-10.3-19.61-17.22-28.23-7.4-9.22-16.02-17.37-25.66-24.24-9.93,3.31-20.18,5.83-30.49,7.51-10.8,1.76-21.82,2.59-32.77,2.55h-.48s-.47-.09-.47-.09c-12.02-2.34-23.93-5.69-35.39-9.93-9.11-3.38-18.09-7.38-26.7-11.91-10.24,1.7-20.66,2.88-31,3.51-7.78.48-15.69.65-23.5.52-7.8.13-15.71-.04-23.48-.52-10.34-.63-20.76-1.81-31-3.51-8.62,4.53-17.59,8.53-26.7,11.91-11.46,4.25-23.37,7.59-35.39,9.93l-.47.09h-.48c-10.91.07-21.97-.79-32.77-2.55-10.32-1.68-20.56-4.2-30.49-7.51-9.64,6.87-18.26,15.02-25.66,24.24-6.92,8.62-12.71,18.11-17.22,28.23.21,8.73.95,17.51,2.21,26.12,1.88,12.95,4.95,25.79,9.13,38.27,22.6-4.17,45.55-7.72,68.31-10.57,47.54-5.93,95.98-9,144.03-9.13h0c.25,0,.5,0,.74,0,.84,0,1.68,0,2.52,0,.48,0,.95,0,1.43,0v.04c46.48.31,93.33,3.37,139.32,9.11,22.76,2.84,45.71,6.4,68.31,10.57,4.18-12.47,7.25-25.32,9.13-38.27,1.25-8.61,1.99-17.39,2.21-26.12M487.37,429.37c6.92-8.62,12.71-18.11,17.22-28.23-.21-8.73-.96-17.51-2.21-26.12-1.88-12.95-4.95-25.79-9.13-38.27-22.6,4.17-45.56,7.72-68.31,10.57-45.99,5.74-92.84,8.8-139.32,9.11v.03c-.48,0-.95,0-1.43,0-.84,0-1.68,0-2.52,0-.25,0-.5,0-.74,0h0c-48.06-.14-96.49-3.2-144.04-9.14-22.76-2.84-45.71-6.4-68.31-10.57-4.18,12.47-7.25,25.32-9.13,38.27-1.25,8.61-1.99,17.39-2.2,26.12,4.51,10.11,10.3,19.61,17.22,28.23,7.4,9.22,16.02,17.36,25.66,24.24,9.92-3.31,20.17-5.83,30.49-7.51,10.8-1.76,21.85-2.59,32.77-2.55h.48s.47.09.47.09c12.02,2.34,23.92,5.69,35.39,9.93,9.11,3.38,18.09,7.38,26.7,11.91,10.24-1.7,20.66-2.88,31.01-3.51,7.79-.48,15.69-.65,23.48-.52,7.82-.13,15.72.04,23.51.52,10.35.63,20.77,1.81,31.01,3.51,8.61-4.53,17.59-8.53,26.7-11.91,11.47-4.25,23.37-7.59,35.39-9.93l.47-.09h.48c10.96-.06,21.97.79,32.77,2.55,10.32,1.68,20.57,4.21,30.49,7.51,9.64-6.88,18.26-15.02,25.66-24.24M429.58,456.14c-10.08-1.64-20.4-2.44-30.59-2.42-11.32,2.23-22.53,5.39-33.33,9.4-8.08,2.99-16.04,6.5-23.72,10.44l13.96,78.09c36.52-10.13,70.07-27.45,99.02-50.36l2.28-38.46c-9.01-2.93-18.28-5.18-27.62-6.7M219.89,473.56c-7.68-3.94-15.64-7.45-23.72-10.44-10.8-4-22.01-7.16-33.33-9.4-.21,0-.43,0-.65,0-10.01,0-20.07.81-29.94,2.42-9.34,1.52-18.61,3.77-27.62,6.7l2.28,38.46c28.95,22.91,62.5,40.23,99.02,50.36l13.96-78.09ZM132.25,105.69c10.08,1.64,20.42,2.48,30.59,2.42,11.32-2.23,22.54-5.39,33.33-9.4,8.07-2.99,16.04-6.5,23.72-10.44l-13.96-78.09c-36.52,10.13-70.07,27.45-99.02,50.36l-2.28,38.46c9.01,2.93,18.28,5.18,27.62,6.7M465.65,69.47l1.8,30.38c10.46,7.44,19.83,16.25,27.86,26.25,7.71,9.61,14.13,20.22,19.06,31.55l.45,1.02-.02,1.11c-.18,9.52-.97,19.11-2.33,28.5-2.06,14.18-5.49,28.25-10.19,41.88,1.09,6.04,1.98,12.2,2.66,18.28,1.2,10.73,1.75,21.62,1.69,32.48.07,10.86-.49,21.75-1.69,32.48-.68,6.09-1.57,12.24-2.66,18.29,4.7,13.62,8.13,27.69,10.19,41.88,1.37,9.4,2.15,18.99,2.33,28.5l.02,1.11-.45,1.02c-4.93,11.32-11.34,21.94-19.06,31.55-8.03,10-17.4,18.81-27.86,26.25l-1.8,30.38c58.91-51.53,96.19-127.22,96.19-211.45s-37.28-159.92-96.19-211.45M341.94,88.27c7.68,3.95,15.64,7.45,23.72,10.44,10.8,4,22.01,7.16,33.33,9.4,10.23.06,20.51-.78,30.59-2.42,9.33-1.52,18.61-3.77,27.62-6.7l-2.28-38.46c-28.95-22.91-62.5-40.23-99.02-50.36l-13.96,78.09ZM346.02,554.2l-14.12-78.98c-8.61-1.37-18.01-2.48-28.11-3.1-8.11-.5-15.79-.63-22.97-.51h0c-7.56-.12-15.22.04-22.77.51-9.38.58-18.81,1.64-28.11,3.12l-14.11,78.95c20.9,4.98,42.7,7.63,65.1,7.63s44.2-2.65,65.1-7.63M96.19,492.37l-1.8-30.38c-10.46-7.44-19.83-16.25-27.86-26.25-7.72-9.61-14.13-20.22-19.06-31.55l-.44-1.02.02-1.11c.18-9.52.97-19.11,2.33-28.5,2.06-14.18,5.5-28.25,10.19-41.88-1.09-6.05-1.98-12.2-2.66-18.29-1.2-10.73-1.76-21.62-1.69-32.48-.07-10.86.49-21.75,1.69-32.48.68-6.09,1.57-12.24,2.66-18.29-4.7-13.62-8.13-27.69-10.19-41.88-1.36-9.4-2.15-18.99-2.33-28.5l-.02-1.11.44-1.02c4.93-11.32,11.35-21.94,19.06-31.54,8.03-10,17.4-18.81,27.86-26.25l1.8-30.38C37.27,121,0,196.68,0,280.92s37.27,159.92,96.19,211.45M229.93,86.58c9.3,1.48,18.74,2.55,28.11,3.12,7.54.46,15.2.63,22.77.5h0c7.18.13,14.86,0,22.97-.5,10.1-.62,19.49-1.72,28.11-3.1l14.12-78.98c-20.9-4.98-42.7-7.63-65.1-7.63s-44.2,2.65-65.1,7.63l14.11,78.95Z" fill="#e6e7e8"/>
  </g>
</svg>
