<?xml version='1.0' encoding='UTF-8'?>
<svg xmlns="http://www.w3.org/2000/svg" xmlns:xlink="http://www.w3.org/1999/xlink" data-name="Layer 1" viewBox="0 0 100 100" preserveAspectRatio="xMidYMid meet">
  <defs>
    <style>
      .cls-1, .cls-2 {
        fill: none;
      }

      .cls-3 {
        clip-path: url(#clippath-1);
      }

      .cls-2 {
        stroke: #231f20;
        stroke-miterlimit: 10;
        stroke-width: 1.47px;
      }

      .cls-4 {
        clip-path: url(#clippath);
      }
    </style>
    <clipPath id="clippath">
      <rect class="cls-1" x="9.71" y="8" width="84" height="84" fill="none"/>
    </clipPath>
    <clipPath id="clippath-1">
      <rect class="cls-1" x="9.71" y="8" width="84" height="84" fill="none"/>
    </clipPath>
  </defs>
  <g id="Netball_Outline">
    <g class="cls-4" clip-path="url(#clippath)">
      <g class="cls-3" clip-path="url(#clippath-1)">
        <circle class="cls-2" cx="51.71" cy="50" r="41.27" transform="translate(-.13 .13)" fill="none" stroke="#231f20" stroke-miterlimit="10" stroke-width="1.47px" vector-effect="non-scaling-stroke" stroke-linecap="round" stroke-linejoin="round"/>
        <path class="cls-2" d="M52.38,39.83c-6.51,0-13.68.35-21.37,1.31-3.68.46-7.19,1.02-10.52,1.65-.15.82-.28,1.69-.38,2.6-.23,2.07-.28,3.98-.22,5.69" fill="none" stroke="#231f20" stroke-miterlimit="10" stroke-width="1.47px" vector-effect="non-scaling-stroke" stroke-linecap="round" stroke-linejoin="round"/>
        <path class="cls-2" d="M20.62,42.88c-.63-1.74-1.23-3.87-1.59-6.35-.21-1.45-.31-2.8-.33-4.02.52-1.2,1.35-2.77,2.65-4.39,1.46-1.82,3-3.06,4.16-3.85,1.28.44,2.83.88,4.63,1.17,1.73.28,3.29.37,4.61.36,1.46-.29,3.16-.72,4.99-1.4,1.52-.56,2.85-1.19,3.98-1.8,1.4.24,2.96.44,4.64.54,1.18.07,2.3.09,3.34.07" fill="none" stroke="#231f20" stroke-miterlimit="10" stroke-width="1.47px" vector-effect="non-scaling-stroke" stroke-linecap="round" stroke-linejoin="round"/>
        <path class="cls-2" d="M43.72,22.6c-.76-4.25-1.52-8.5-2.28-12.76" fill="none" stroke="#231f20" stroke-miterlimit="10" stroke-width="1.47px" vector-effect="non-scaling-stroke" stroke-linecap="round" stroke-linejoin="round"/>
        <path class="cls-2" d="M25.9,17.55c-.13,2.24-.27,4.48-.4,6.72" fill="none" stroke="#231f20" stroke-miterlimit="10" stroke-width="1.47px" vector-effect="non-scaling-stroke" stroke-linecap="round" stroke-linejoin="round"/>
        <path class="cls-2" d="M51.71,39.84c6.32.02,13.26.39,20.69,1.31,3.68.46,7.19,1.02,10.52,1.65.15.82.28,1.69.38,2.6.23,2.07.28,3.98.22,5.69" fill="none" stroke="#231f20" stroke-miterlimit="10" stroke-width="1.47px" vector-effect="non-scaling-stroke" stroke-linecap="round" stroke-linejoin="round"/>
        <path class="cls-2" d="M82.8,42.88c.63-1.74,1.23-3.87,1.59-6.35.21-1.45.31-2.8.33-4.02-.52-1.2-1.35-2.77-2.65-4.39-1.46-1.82-3-3.06-4.16-3.85-1.28.44-2.83.88-4.63,1.17-1.73.28-3.29.37-4.61.36-1.46-.29-3.16-.72-4.99-1.4-1.52-.56-2.85-1.19-3.98-1.8-1.4.24-2.96.44-4.64.54-1.18.07-2.3.09-3.35.07" fill="none" stroke="#231f20" stroke-miterlimit="10" stroke-width="1.47px" vector-effect="non-scaling-stroke" stroke-linecap="round" stroke-linejoin="round"/>
        <path class="cls-2" d="M59.69,22.6c.76-4.25,1.52-8.5,2.28-12.76" fill="none" stroke="#231f20" stroke-miterlimit="10" stroke-width="1.47px" vector-effect="non-scaling-stroke" stroke-linecap="round" stroke-linejoin="round"/>
        <path class="cls-2" d="M77.51,17.55c.13,2.24.27,4.48.4,6.72" fill="none" stroke="#231f20" stroke-miterlimit="10" stroke-width="1.47px" vector-effect="non-scaling-stroke" stroke-linecap="round" stroke-linejoin="round"/>
        <path class="cls-2" d="M52.38,60.17c-6.51,0-13.68-.35-21.37-1.31-3.68-.46-7.19-1.02-10.52-1.65-.15-.82-.28-1.69-.38-2.6-.23-2.07-.28-3.98-.22-5.69" fill="none" stroke="#231f20" stroke-miterlimit="10" stroke-width="1.47px" vector-effect="non-scaling-stroke" stroke-linecap="round" stroke-linejoin="round"/>
        <path class="cls-2" d="M20.62,57.12c-.63,1.74-1.23,3.87-1.59,6.35-.21,1.45-.31,2.8-.33,4.02.52,1.2,1.35,2.77,2.65,4.39,1.46,1.82,3,3.06,4.16,3.85,1.28-.44,2.83-.88,4.63-1.17,1.73-.28,3.29-.37,4.61-.36,1.46.29,3.16.72,4.99,1.4,1.52.56,2.85,1.19,3.98,1.8,1.4-.24,2.96-.44,4.64-.54,1.18-.07,2.3-.09,3.34-.07" fill="none" stroke="#231f20" stroke-miterlimit="10" stroke-width="1.47px" vector-effect="non-scaling-stroke" stroke-linecap="round" stroke-linejoin="round"/>
        <path class="cls-2" d="M43.72,77.4c-.76,4.25-1.52,8.5-2.28,12.76" fill="none" stroke="#231f20" stroke-miterlimit="10" stroke-width="1.47px" vector-effect="non-scaling-stroke" stroke-linecap="round" stroke-linejoin="round"/>
        <path class="cls-2" d="M25.9,82.45c-.13-2.24-.27-4.48-.4-6.72" fill="none" stroke="#231f20" stroke-miterlimit="10" stroke-width="1.47px" vector-effect="non-scaling-stroke" stroke-linecap="round" stroke-linejoin="round"/>
        <path class="cls-2" d="M51.71,60.16c6.32-.02,13.26-.39,20.69-1.31,3.68-.46,7.19-1.02,10.52-1.65.15-.82.28-1.69.38-2.6.23-2.07.28-3.98.22-5.69" fill="none" stroke="#231f20" stroke-miterlimit="10" stroke-width="1.47px" vector-effect="non-scaling-stroke" stroke-linecap="round" stroke-linejoin="round"/>
        <path class="cls-2" d="M82.8,57.12c.63,1.74,1.23,3.87,1.59,6.35.21,1.45.31,2.8.33,4.02-.52,1.2-1.35,2.77-2.65,4.39-1.46,1.82-3,3.06-4.16,3.85-1.28-.44-2.83-.88-4.63-1.17-1.73-.28-3.29-.37-4.61-.36-1.46.29-3.16.72-4.99,1.4-1.52.56-2.85,1.19-3.98,1.8-1.4-.24-2.96-.44-4.64-.54-1.18-.07-2.3-.09-3.35-.07" fill="none" stroke="#231f20" stroke-miterlimit="10" stroke-width="1.47px" vector-effect="non-scaling-stroke" stroke-linecap="round" stroke-linejoin="round"/>
        <path class="cls-2" d="M59.69,77.4c.76,4.25,1.52,8.5,2.28,12.76" fill="none" stroke="#231f20" stroke-miterlimit="10" stroke-width="1.47px" vector-effect="non-scaling-stroke" stroke-linecap="round" stroke-linejoin="round"/>
        <path class="cls-2" d="M77.51,82.45c.13-2.24.27-4.48.4-6.72" fill="none" stroke="#231f20" stroke-miterlimit="10" stroke-width="1.47px" vector-effect="non-scaling-stroke" stroke-linecap="round" stroke-linejoin="round"/>
      </g>
    </g>
  </g>
</svg>
